ISO-10303-21;
HEADER;
FILE_DESCRIPTION (( 'STEP AP203' ),
    '1' );
FILE_NAME ('base.STEP',
    '2026-05-27T20:02:42',
    ( '' ),
    ( '' ),
    'SwSTEP 2.0',
    'SolidWorks 2024',
    '' );
FILE_SCHEMA (( 'CONFIG_CONTROL_DESIGN' ));
ENDSEC;

DATA;
#1 = VERTEX_POINT ( 'NONE', #1070 ) ;
#2 =( GEOMETRIC_REPRESENTATION_CONTEXT ( 3 ) GLOBAL_UNCERTAINTY_ASSIGNED_CONTEXT ( ( #621 ) ) GLOBAL_UNIT_ASSIGNED_CONTEXT ( ( #947, #939, #240 ) ) REPRESENTATION_CONTEXT ( 'NONE', 'WORKASPACE' ) );
#3 = AXIS2_PLACEMENT_3D ( 'NONE', #797, #1093, #1168 ) ;
#4 = CARTESIAN_POINT ( 'NONE',  ( -134.0000000000000284, 12.50000000000001243, 0.000000000000000000 ) ) ;
#5 = DIRECTION ( 'NONE',  ( -0.000000000000000000, -0.000000000000000000, 1.000000000000000000 ) ) ;
#6 = DIRECTION ( 'NONE',  ( 0.000000000000000000, 1.000000000000000000, 0.000000000000000000 ) ) ;
#7 = ORIENTED_EDGE ( 'NONE', *, *, #479, .F. ) ;
#8 = VECTOR ( 'NONE', #218, 1000.000000000000000 ) ;
#9 = DIRECTION ( 'NONE',  ( 1.110223024625156540E-15, -1.000000000000000000, -0.000000000000000000 ) ) ;
#10 = EDGE_CURVE ( 'NONE', #1163, #555, #584, .T. ) ;
#11 = ORIENTED_EDGE ( 'NONE', *, *, #598, .T. ) ;
#12 = FACE_OUTER_BOUND ( 'NONE', #1284, .T. ) ;
#13 = ADVANCED_FACE ( 'NONE', ( #264 ), #370, .F. ) ;
#14 = DIRECTION ( 'NONE',  ( -1.000000000000000000, 0.000000000000000000, 0.000000000000000000 ) ) ;
#15 = LINE ( 'NONE', #1042, #266 ) ;
#16 = ORIENTED_EDGE ( 'NONE', *, *, #629, .F. ) ;
#17 = DIRECTION ( 'NONE',  ( 1.000000000000000000, -0.000000000000000000, 0.000000000000000000 ) ) ;
#18 = EDGE_LOOP ( 'NONE', ( #628, #462, #1245, #1038 ) ) ;
#19 = CARTESIAN_POINT ( 'NONE',  ( -79.50000000000000000, 12.50000000000001066, 3.000000000000000000 ) ) ;
#20 = LINE ( 'NONE', #132, #714 ) ;
#21 = LINE ( 'NONE', #220, #31 ) ;
#22 = EDGE_LOOP ( 'NONE', ( #345, #843, #377, #434 ) ) ;
#23 = AXIS2_PLACEMENT_3D ( 'NONE', #606, #914, #103 ) ;
#24 = DIRECTION ( 'NONE',  ( -1.000000000000000000, 0.000000000000000000, -0.000000000000000000 ) ) ;
#25 = ORIENTED_EDGE ( 'NONE', *, *, #683, .T. ) ;
#26 = CARTESIAN_POINT ( 'NONE',  ( -117.0000000000000284, 25.50000000000000355, 0.000000000000000000 ) ) ;
#27 = LINE ( 'NONE', #929, #1316 ) ;
#28 = VERTEX_POINT ( 'NONE', #571 ) ;
#29 = VECTOR ( 'NONE', #1143, 1000.000000000000000 ) ;
#30 = DIRECTION ( 'NONE',  ( -1.000000000000000000, -0.000000000000000000, -0.000000000000000000 ) ) ;
#31 = VECTOR ( 'NONE', #949, 1000.000000000000000 ) ;
#32 = EDGE_CURVE ( 'NONE', #298, #815, #969, .T. ) ;
#33 = ORIENTED_EDGE ( 'NONE', *, *, #864, .T. ) ;
#34 = DIRECTION ( 'NONE',  ( -1.000000000000000000, -2.775557561562891844E-16, 0.000000000000000000 ) ) ;
#35 = CARTESIAN_POINT ( 'NONE',  ( -117.0000000000000284, 21.00000000000000000, 3.000000000000000000 ) ) ;
#36 = DIRECTION ( 'NONE',  ( -1.000000000000000000, -1.110223024625156343E-15, 0.000000000000000000 ) ) ;
#37 = VERTEX_POINT ( 'NONE', #982 ) ;
#38 = DIRECTION ( 'NONE',  ( -0.000000000000000000, -0.000000000000000000, -1.000000000000000000 ) ) ;
#39 = ORIENTED_EDGE ( 'NONE', *, *, #1204, .T. ) ;
#40 = ADVANCED_FACE ( 'NONE', ( #365 ), #976, .F. ) ;
#41 = LINE ( 'NONE', #150, #1285 ) ;
#42 = EDGE_LOOP ( 'NONE', ( #1271, #544, #1103, #974 ) ) ;
#43 = DIRECTION ( 'NONE',  ( -1.000000000000000000, 0.000000000000000000, 0.000000000000000000 ) ) ;
#44 = AXIS2_PLACEMENT_3D ( 'NONE', #302, #1222, #693 ) ;
#45 = EDGE_CURVE ( 'NONE', #805, #75, #1288, .T. ) ;
#46 = ORIENTED_EDGE ( 'NONE', *, *, #824, .T. ) ;
#47 = EDGE_CURVE ( 'NONE', #352, #475, #783, .T. ) ;
#48 = LINE ( 'NONE', #658, #590 ) ;
#49 = DIRECTION ( 'NONE',  ( 0.000000000000000000, -0.000000000000000000, -1.000000000000000000 ) ) ;
#50 = ORGANIZATION ( 'UNSPECIFIED', 'UNSPECIFIED', '' ) ;
#51 = VECTOR ( 'NONE', #250, 1000.000000000000000 ) ;
#52 = FACE_OUTER_BOUND ( 'NONE', #347, .T. ) ;
#53 = EDGE_CURVE ( 'NONE', #288, #267, #68, .T. ) ;
#54 = EDGE_LOOP ( 'NONE', ( #1305, #1034, #875, #1044 ) ) ;
#55 = EDGE_CURVE ( 'NONE', #624, #1077, #171, .T. ) ;
#56 = VECTOR ( 'NONE', #830, 1000.000000000000000 ) ;
#57 = VECTOR ( 'NONE', #361, 1000.000000000000000 ) ;
#58 = ORIENTED_EDGE ( 'NONE', *, *, #277, .F. ) ;
#59 = DATE_AND_TIME ( #975, #582 ) ;
#60 = PRODUCT_DEFINITION ( 'UNKNOWN', '', #1129, #1116 ) ;
#61 = DIRECTION ( 'NONE',  ( 0.000000000000000000, 1.000000000000000000, 0.000000000000000000 ) ) ;
#62 = EDGE_LOOP ( 'NONE', ( #1235, #620, #1194, #775 ) ) ;
#63 = VERTEX_POINT ( 'NONE', #874 ) ;
#64 = DIRECTION ( 'NONE',  ( -1.000000000000000000, -3.854941057726234153E-16, 0.000000000000000000 ) ) ;
#65 = ORIENTED_EDGE ( 'NONE', *, *, #1023, .F. ) ;
#66 = PERSON_AND_ORGANIZATION ( #272, #50 ) ;
#67 = ADVANCED_FACE ( 'NONE', ( #1172 ), #1279, .F. ) ;
#68 = LINE ( 'NONE', #482, #865 ) ;
#69 = EDGE_CURVE ( 'NONE', #670, #684, #870, .T. ) ;
#70 = ORIENTED_EDGE ( 'NONE', *, *, #852, .T. ) ;
#71 = VERTEX_POINT ( 'NONE', #1074 ) ;
#72 = CARTESIAN_POINT ( 'NONE',  ( 92.00000000000004263, 21.00000000000002132, 0.000000000000000000 ) ) ;
#73 = DIRECTION ( 'NONE',  ( 0.000000000000000000, 0.000000000000000000, -1.000000000000000000 ) ) ;
#74 = LINE ( 'NONE', #517, #1007 ) ;
#75 = VERTEX_POINT ( 'NONE', #270 ) ;
#76 = ORIENTED_EDGE ( 'NONE', *, *, #420, .F. ) ;
#77 = COORDINATED_UNIVERSAL_TIME_OFFSET ( 3, 0, .BEHIND. ) ;
#78 = EDGE_CURVE ( 'NONE', #168, #558, #886, .T. ) ;
#79 = FACE_OUTER_BOUND ( 'NONE', #499, .T. ) ;
#80 = LINE ( 'NONE', #495, #895 ) ;
#81 = DIRECTION ( 'NONE',  ( -0.000000000000000000, 0.000000000000000000, 1.000000000000000000 ) ) ;
#82 = FACE_OUTER_BOUND ( 'NONE', #368, .T. ) ;
#83 = EDGE_LOOP ( 'NONE', ( #851, #191, #639, #654 ) ) ;
#84 = ADVANCED_FACE ( 'NONE', ( #276 ), #256, .F. ) ;
#85 = VERTEX_POINT ( 'NONE', #1293 ) ;
#86 = PRODUCT_DEFINITION_SHAPE ( 'NONE', 'NONE',  #60 ) ;
#87 = VECTOR ( 'NONE', #990, 1000.000000000000000 ) ;
#88 = PLANE ( 'NONE',  #3 ) ;
#89 = LINE ( 'NONE', #1112, #153 ) ;
#90 = CARTESIAN_POINT ( 'NONE',  ( 79.50000000000004263, -12.49999999999997158, 3.000000000000000000 ) ) ;
#91 = VECTOR ( 'NONE', #296, 1000.000000000000000 ) ;
#92 = CARTESIAN_POINT ( 'NONE',  ( 117.0000000000000284, 21.00000000000002842, 3.000000000000000000 ) ) ;
#93 = ORIENTED_EDGE ( 'NONE', *, *, #1075, .T. ) ;
#94 = AXIS2_PLACEMENT_3D ( 'NONE', #731, #637, #1252 ) ;
#95 = LINE ( 'NONE', #617, #222 ) ;
#96 = LINE ( 'NONE', #1013, #546 ) ;
#97 = LINE ( 'NONE', #511, #623 ) ;
#98 = EDGE_CURVE ( 'NONE', #221, #1118, #680, .T. ) ;
#99 = CARTESIAN_POINT ( 'NONE',  ( 117.0000000000000568, -25.49999999999997513, 0.000000000000000000 ) ) ;
#100 = VECTOR ( 'NONE', #733, 1000.000000000000000 ) ;
#101 = VERTEX_POINT ( 'NONE', #165 ) ;
#102 = DIRECTION ( 'NONE',  ( 1.000000000000000000, 2.775557561562891844E-16, 0.000000000000000000 ) ) ;
#103 = DIRECTION ( 'NONE',  ( 0.000000000000000000, 0.000000000000000000, 1.000000000000000000 ) ) ;
#104 = DIRECTION ( 'NONE',  ( 1.000000000000000000, -0.000000000000000000, -0.000000000000000000 ) ) ;
#105 = ORIENTED_EDGE ( 'NONE', *, *, #800, .F. ) ;
#106 = FACE_OUTER_BOUND ( 'NONE', #135, .T. ) ;
#107 = DIRECTION ( 'NONE',  ( -0.000000000000000000, -0.000000000000000000, 1.000000000000000000 ) ) ;
#108 = VECTOR ( 'NONE', #181, 1000.000000000000000 ) ;
#109 = EDGE_CURVE ( 'NONE', #1297, #130, #578, .T. ) ;
#110 = PLANE ( 'NONE',  #44 ) ;
#111 = EDGE_LOOP ( 'NONE', ( #574, #1072, #1024, #208 ) ) ;
#112 = ADVANCED_FACE ( 'NONE', ( #1059 ), #667, .F. ) ;
#113 = LINE ( 'NONE', #123, #100 ) ;
#114 = EDGE_CURVE ( 'NONE', #815, #535, #193, .T. ) ;
#115 = ORIENTED_EDGE ( 'NONE', *, *, #566, .T. ) ;
#116 = CC_DESIGN_APPROVAL ( #1105, ( #1195 ) ) ;
#117 = VECTOR ( 'NONE', #1283, 1000.000000000000000 ) ;
#118 = DIRECTION ( 'NONE',  ( -1.000000000000000000, -0.000000000000000000, -0.000000000000000000 ) ) ;
#119 = CARTESIAN_POINT ( 'NONE',  ( -147.5000000000000284, -50.00000000000000000, 0.000000000000000000 ) ) ;
#120 = CARTESIAN_POINT ( 'NONE',  ( 79.50000000000004263, -12.49999999999997158, 0.000000000000000000 ) ) ;
#121 = ORIENTED_EDGE ( 'NONE', *, *, #215, .F. ) ;
#122 = AXIS2_PLACEMENT_3D ( 'NONE', #570, #1045, #1240 ) ;
#123 = CARTESIAN_POINT ( 'NONE',  ( -147.5000000000000284, -50.00000000000000000, 3.000000000000000000 ) ) ;
#124 = ORIENTED_EDGE ( 'NONE', *, *, #537, .F. ) ;
#125 = EDGE_CURVE ( 'NONE', #101, #1097, #96, .T. ) ;
#126 = ADVANCED_FACE ( 'NONE', ( #384 ), #699, .F. ) ;
#127 = CARTESIAN_POINT ( 'NONE',  ( -79.50000000000001421, -12.49999999999999112, 3.000000000000000000 ) ) ;
#128 = DIRECTION ( 'NONE',  ( 2.775557561562891844E-16, -1.000000000000000000, 0.000000000000000000 ) ) ;
#129 = DIRECTION ( 'NONE',  ( -0.000000000000000000, -1.000000000000000000, -0.000000000000000000 ) ) ;
#130 = VERTEX_POINT ( 'NONE', #301 ) ;
#131 = ORIENTED_EDGE ( 'NONE', *, *, #308, .T. ) ;
#132 = CARTESIAN_POINT ( 'NONE',  ( -92.00000000000004263, -21.00000000000000000, 0.000000000000000000 ) ) ;
#133 = DIRECTION ( 'NONE',  ( -0.000000000000000000, -0.000000000000000000, 1.000000000000000000 ) ) ;
#134 = VERTEX_POINT ( 'NONE', #1084 ) ;
#135 = EDGE_LOOP ( 'NONE', ( #728, #1066, #747, #184 ) ) ;
#136 = CARTESIAN_POINT ( 'NONE',  ( -117.0000000000000284, 21.00000000000000000, 0.000000000000000000 ) ) ;
#137 = CARTESIAN_POINT ( 'NONE',  ( 117.0000000000000284, 25.50000000000002842, 0.000000000000000000 ) ) ;
#138 = LINE ( 'NONE', #745, #1183 ) ;
#139 = VERTEX_POINT ( 'NONE', #705 ) ;
#140 = VECTOR ( 'NONE', #145, 1000.000000000000000 ) ;
#141 = CARTESIAN_POINT ( 'NONE',  ( 75.00000000000002842, -12.49999999999997158, 3.000000000000000000 ) ) ;
#142 = EDGE_CURVE ( 'NONE', #288, #1140, #313, .T. ) ;
#143 = ORIENTED_EDGE ( 'NONE', *, *, #431, .T. ) ;
#144 = ORIENTED_EDGE ( 'NONE', *, *, #647, .T. ) ;
#145 = DIRECTION ( 'NONE',  ( 0.000000000000000000, 1.000000000000000000, 0.000000000000000000 ) ) ;
#146 = ORIENTED_EDGE ( 'NONE', *, *, #367, .F. ) ;
#147 = CARTESIAN_POINT ( 'NONE',  ( -79.50000000000001421, -12.49999999999999112, 0.000000000000000000 ) ) ;
#148 = ORIENTED_EDGE ( 'NONE', *, *, #540, .F. ) ;
#149 = CARTESIAN_POINT ( 'NONE',  ( -75.00000000000000000, 12.50000000000001066, 0.000000000000000000 ) ) ;
#150 = CARTESIAN_POINT ( 'NONE',  ( 92.00000000000004263, 25.50000000000002132, 0.000000000000000000 ) ) ;
#151 = CARTESIAN_POINT ( 'NONE',  ( -92.00000000000004263, 25.50000000000000355, 3.000000000000000000 ) ) ;
#152 = DIRECTION ( 'NONE',  ( 0.000000000000000000, -0.000000000000000000, 1.000000000000000000 ) ) ;
#153 = VECTOR ( 'NONE', #799, 1000.000000000000000 ) ;
#154 = EDGE_LOOP ( 'NONE', ( #354, #520, #774, #548 ) ) ;
#155 = ORIENTED_EDGE ( 'NONE', *, *, #232, .T. ) ;
#156 = CARTESIAN_POINT ( 'NONE',  ( -75.00000000000000000, -12.49999999999999112, 0.000000000000000000 ) ) ;
#157 = DIRECTION ( 'NONE',  ( -1.000000000000000000, -2.775557561562891844E-16, 0.000000000000000000 ) ) ;
#158 = VECTOR ( 'NONE', #960, 1000.000000000000000 ) ;
#159 = EDGE_LOOP ( 'NONE', ( #167, #785, #1229, #780 ) ) ;
#160 = ORIENTED_EDGE ( 'NONE', *, *, #1266, .T. ) ;
#161 = CARTESIAN_POINT ( 'NONE',  ( -92.00000000000004263, -25.50000000000000355, 0.000000000000000000 ) ) ;
#162 = ORIENTED_EDGE ( 'NONE', *, *, #734, .F. ) ;
#163 = ADVANCED_FACE ( 'NONE', ( #901 ), #1018, .F. ) ;
#164 = VECTOR ( 'NONE', #826, 1000.000000000000000 ) ;
#165 = CARTESIAN_POINT ( 'NONE',  ( -117.0000000000000284, 25.50000000000000355, 0.000000000000000000 ) ) ;
#166 = EDGE_CURVE ( 'NONE', #657, #543, #199, .T. ) ;
#167 = ORIENTED_EDGE ( 'NONE', *, *, #1236, .F. ) ;
#168 = VERTEX_POINT ( 'NONE', #894 ) ;
#169 = PERSON_AND_ORGANIZATION ( #272, #50 ) ;
#170 = CARTESIAN_POINT ( 'NONE',  ( -79.50000000000001421, -12.49999999999999112, 0.000000000000000000 ) ) ;
#171 = LINE ( 'NONE', #563, #286 ) ;
#172 = CC_DESIGN_APPROVAL ( #1257, ( #1129 ) ) ;
#173 = EDGE_CURVE ( 'NONE', #957, #899, #600, .T. ) ;
#174 = AXIS2_PLACEMENT_3D ( 'NONE', #170, #786, #863 ) ;
#175 = EDGE_LOOP ( 'NONE', ( #1061, #304, #176, #259 ) ) ;
#176 = ORIENTED_EDGE ( 'NONE', *, *, #78, .F. ) ;
#177 = APPROVAL_DATE_TIME ( #673, #1105 ) ;
#178 = VECTOR ( 'NONE', #736, 1000.000000000000000 ) ;
#179 = CARTESIAN_POINT ( 'NONE',  ( 134.0000000000000284, 12.50000000000004619, 0.000000000000000000 ) ) ;
#180 = PLANE ( 'NONE',  #1100 ) ;
#181 = DIRECTION ( 'NONE',  ( 0.000000000000000000, -1.000000000000000000, 0.000000000000000000 ) ) ;
#182 = DIRECTION ( 'NONE',  ( -0.000000000000000000, 1.000000000000000000, -0.000000000000000000 ) ) ;
#183 = EDGE_CURVE ( 'NONE', #101, #535, #522, .T. ) ;
#184 = ORIENTED_EDGE ( 'NONE', *, *, #1307, .T. ) ;
#185 = ORIENTED_EDGE ( 'NONE', *, *, #1133, .F. ) ;
#186 = CARTESIAN_POINT ( 'NONE',  ( 0.000000000000000000, 0.000000000000000000, 0.000000000000000000 ) ) ;
#187 = LINE ( 'NONE', #19, #533 ) ;
#188 = DIRECTION ( 'NONE',  ( -0.000000000000000000, -0.000000000000000000, 1.000000000000000000 ) ) ;
#189 = CARTESIAN_POINT ( 'NONE',  ( -117.0000000000000284, 25.50000000000000355, 3.000000000000000000 ) ) ;
#190 = DIRECTION ( 'NONE',  ( -0.000000000000000000, -0.000000000000000000, 1.000000000000000000 ) ) ;
#191 = ORIENTED_EDGE ( 'NONE', *, *, #1266, .F. ) ;
#192 = CARTESIAN_POINT ( 'NONE',  ( -147.5000000000000284, 50.00000000000000000, 0.000000000000000000 ) ) ;
#193 = LINE ( 'NONE', #1190, #396 ) ;
#194 = DIRECTION ( 'NONE',  ( -1.000000000000000000, 0.000000000000000000, -0.000000000000000000 ) ) ;
#195 = CARTESIAN_POINT ( 'NONE',  ( -92.00000000000004263, 25.50000000000000355, 3.000000000000000000 ) ) ;
#196 = ORIENTED_EDGE ( 'NONE', *, *, #493, .F. ) ;
#197 = AXIS2_PLACEMENT_3D ( 'NONE', #1244, #36, #1234 ) ;
#198 = PLANE ( 'NONE',  #1157 ) ;
#199 = LINE ( 'NONE', #1099, #668 ) ;
#200 = PLANE ( 'NONE',  #211 ) ;
#201 = CARTESIAN_POINT ( 'NONE',  ( -117.0000000000000284, -25.50000000000000355, 0.000000000000000000 ) ) ;
#202 = ORIENTED_EDGE ( 'NONE', *, *, #647, .F. ) ;
#203 = CARTESIAN_POINT ( 'NONE',  ( 75.00000000000002842, -12.49999999999997158, 3.000000000000000000 ) ) ;
#204 = DIRECTION ( 'NONE',  ( 0.000000000000000000, -1.000000000000000000, 0.000000000000000000 ) ) ;
#205 = CARTESIAN_POINT ( 'NONE',  ( 92.00000000000007105, -20.99999999999998224, 3.000000000000000000 ) ) ;
#206 = ORIENTED_EDGE ( 'NONE', *, *, #819, .T. ) ;
#207 = DIRECTION ( 'NONE',  ( 0.000000000000000000, 0.000000000000000000, -1.000000000000000000 ) ) ;
#208 = ORIENTED_EDGE ( 'NONE', *, *, #455, .T. ) ;
#209 = CARTESIAN_POINT ( 'NONE',  ( 0.000000000000000000, 0.000000000000000000, 3.000000000000000000 ) ) ;
#210 = DIRECTION ( 'NONE',  ( 0.000000000000000000, 0.000000000000000000, 1.000000000000000000 ) ) ;
#211 = AXIS2_PLACEMENT_3D ( 'NONE', #594, #194, #81 ) ;
#212 = DIRECTION ( 'NONE',  ( -0.000000000000000000, -0.000000000000000000, 1.000000000000000000 ) ) ;
#213 = ORIENTED_EDGE ( 'NONE', *, *, #53, .F. ) ;
#214 = PLANE ( 'NONE',  #1251 ) ;
#215 = EDGE_CURVE ( 'NONE', #28, #951, #1309, .T. ) ;
#216 = ORIENTED_EDGE ( 'NONE', *, *, #1231, .F. ) ;
#217 = VECTOR ( 'NONE', #467, 1000.000000000000000 ) ;
#218 = DIRECTION ( 'NONE',  ( 1.000000000000000000, 0.000000000000000000, 0.000000000000000000 ) ) ;
#219 = FACE_OUTER_BOUND ( 'NONE', #882, .T. ) ;
#220 = CARTESIAN_POINT ( 'NONE',  ( -147.5000000000000284, -50.00000000000000000, 3.000000000000000000 ) ) ;
#221 = VERTEX_POINT ( 'NONE', #908 ) ;
#222 = VECTOR ( 'NONE', #811, 1000.000000000000000 ) ;
#223 = ADVANCED_FACE ( 'NONE', ( #410 ), #180, .F. ) ;
#224 = AXIS2_PLACEMENT_3D ( 'NONE', #655, #468, #691 ) ;
#225 = LINE ( 'NONE', #1139, #1071 ) ;
#226 = EDGE_LOOP ( 'NONE', ( #70, #754, #454, #1068 ) ) ;
#227 = LINE ( 'NONE', #136, #356 ) ;
#228 = DIRECTION ( 'NONE',  ( -0.000000000000000000, 1.000000000000000000, 0.000000000000000000 ) ) ;
#229 = DIRECTION ( 'NONE',  ( -0.000000000000000000, -1.000000000000000000, -0.000000000000000000 ) ) ;
#230 = ORIENTED_EDGE ( 'NONE', *, *, #852, .F. ) ;
#231 = ORIENTED_EDGE ( 'NONE', *, *, #734, .T. ) ;
#232 = EDGE_CURVE ( 'NONE', #1, #63, #1177, .T. ) ;
#233 = DIRECTION ( 'NONE',  ( -0.000000000000000000, -0.000000000000000000, 1.000000000000000000 ) ) ;
#234 = CARTESIAN_POINT ( 'NONE',  ( -134.0000000000000284, -12.49999999999998934, 0.000000000000000000 ) ) ;
#235 = EDGE_CURVE ( 'NONE', #134, #63, #997, .T. ) ;
#236 = CARTESIAN_POINT ( 'NONE',  ( 147.4999999999999716, -50.00000000000000000, 3.000000000000000000 ) ) ;
#237 = EDGE_LOOP ( 'NONE', ( #595, #1110, #196, #1207 ) ) ;
#238 = ORIENTED_EDGE ( 'NONE', *, *, #1301, .F. ) ;
#239 = VERTEX_POINT ( 'NONE', #293 ) ;
#240 =( NAMED_UNIT ( * ) SI_UNIT ( $, .STERADIAN. ) SOLID_ANGLE_UNIT ( ) );
#241 = CARTESIAN_POINT ( 'NONE',  ( -117.0000000000000284, -25.50000000000000355, 0.000000000000000000 ) ) ;
#242 = LINE ( 'NONE', #1037, #1211 ) ;
#243 = ORIENTED_EDGE ( 'NONE', *, *, #1023, .T. ) ;
#244 = PLANE ( 'NONE',  #224 ) ;
#245 = ORIENTED_EDGE ( 'NONE', *, *, #1115, .F. ) ;
#246 = EDGE_CURVE ( 'NONE', #1097, #381, #89, .T. ) ;
#247 = DIRECTION ( 'NONE',  ( 1.000000000000000000, 0.000000000000000000, 0.000000000000000000 ) ) ;
#248 = CARTESIAN_POINT ( 'NONE',  ( 147.4999999999999716, 50.00000000000000000, 3.000000000000000000 ) ) ;
#249 = EDGE_CURVE ( 'NONE', #1134, #388, #515, .T. ) ;
#250 = DIRECTION ( 'NONE',  ( 1.000000000000000000, 2.775557561562891844E-16, -0.000000000000000000 ) ) ;
#251 = LINE ( 'NONE', #147, #1011 ) ;
#252 = CC_DESIGN_PERSON_AND_ORGANIZATION_ASSIGNMENT ( #66, #1073, ( #1195 ) ) ;
#253 = EDGE_LOOP ( 'NONE', ( #1277, #7, #382, #450 ) ) ;
#254 = EDGE_LOOP ( 'NONE', ( #1054, #994, #202, #143 ) ) ;
#255 = PLANE ( 'NONE',  #122 ) ;
#256 = PLANE ( 'NONE',  #631 ) ;
#257 = DIRECTION ( 'NONE',  ( 0.000000000000000000, 1.000000000000000000, 0.000000000000000000 ) ) ;
#258 = VECTOR ( 'NONE', #1200, 1000.000000000000000 ) ;
#259 = ORIENTED_EDGE ( 'NONE', *, *, #629, .T. ) ;
#260 = EDGE_CURVE ( 'NONE', #239, #101, #80, .T. ) ;
#261 = VERTEX_POINT ( 'NONE', #501 ) ;
#262 = PERSON_AND_ORGANIZATION ( #272, #50 ) ;
#263 = VECTOR ( 'NONE', #1325, 1000.000000000000000 ) ;
#264 = FACE_OUTER_BOUND ( 'NONE', #83, .T. ) ;
#265 = AXIS2_PLACEMENT_3D ( 'NONE', #825, #317, #532 ) ;
#266 = VECTOR ( 'NONE', #303, 1000.000000000000000 ) ;
#267 = VERTEX_POINT ( 'NONE', #1323 ) ;
#268 = APPROVAL_STATUS ( 'not_yet_approved' ) ;
#269 = VECTOR ( 'NONE', #599, 1000.000000000000000 ) ;
#270 = CARTESIAN_POINT ( 'NONE',  ( 79.50000000000000000, 12.50000000000003020, 3.000000000000000000 ) ) ;
#271 = ORIENTED_EDGE ( 'NONE', *, *, #389, .T. ) ;
#272 = PERSON ( 'UNSPECIFIED', 'UNSPECIFIED', 'UNSPECIFIED', ('UNSPECIFIED'), ('UNSPECIFIED'), ('UNSPECIFIED') ) ;
#273 = ORIENTED_EDGE ( 'NONE', *, *, #1320, .T. ) ;
#274 = MECHANICAL_CONTEXT ( 'NONE', #432, 'mechanical' ) ;
#275 = VECTOR ( 'NONE', #1019, 1000.000000000000000 ) ;
#276 = FACE_OUTER_BOUND ( 'NONE', #986, .T. ) ;
#277 = EDGE_CURVE ( 'NONE', #460, #134, #393, .T. ) ;
#278 = EDGE_LOOP ( 'NONE', ( #781, #579, #484, #746 ) ) ;
#279 = ORIENTED_EDGE ( 'NONE', *, *, #283, .T. ) ;
#280 = EDGE_CURVE ( 'NONE', #624, #834, #403, .T. ) ;
#281 = FACE_OUTER_BOUND ( 'NONE', #175, .T. ) ;
#282 = DIRECTION ( 'NONE',  ( -0.000000000000000000, -1.000000000000000000, -0.000000000000000000 ) ) ;
#283 = EDGE_CURVE ( 'NONE', #37, #670, #831, .T. ) ;
#284 = CARTESIAN_POINT ( 'NONE',  ( 134.0000000000000284, 12.50000000000004619, 0.000000000000000000 ) ) ;
#285 = VECTOR ( 'NONE', #1249, 1000.000000000000000 ) ;
#286 = VECTOR ( 'NONE', #675, 1000.000000000000000 ) ;
#287 = FACE_BOUND ( 'NONE', #278, .T. ) ;
#288 = VERTEX_POINT ( 'NONE', #751 ) ;
#289 = EDGE_LOOP ( 'NONE', ( #271, #1039, #1206, #33 ) ) ;
#290 = APPROVAL_DATE_TIME ( #1082, #1089 ) ;
#291 = VECTOR ( 'NONE', #933, 1000.000000000000000 ) ;
#292 = CARTESIAN_POINT ( 'NONE',  ( -134.0000000000000284, 12.50000000000001243, 0.000000000000000000 ) ) ;
#293 = CARTESIAN_POINT ( 'NONE',  ( -92.00000000000004263, 25.50000000000000355, 0.000000000000000000 ) ) ;
#294 = EDGE_CURVE ( 'NONE', #923, #1076, #552, .T. ) ;
#295 = DIRECTION ( 'NONE',  ( -0.000000000000000000, -1.000000000000000000, -0.000000000000000000 ) ) ;
#296 = DIRECTION ( 'NONE',  ( 0.000000000000000000, 1.000000000000000000, 0.000000000000000000 ) ) ;
#297 = CC_DESIGN_PERSON_AND_ORGANIZATION_ASSIGNMENT ( #1069, #1298, ( #327 ) ) ;
#298 = VERTEX_POINT ( 'NONE', #854 ) ;
#299 = ORIENTED_EDGE ( 'NONE', *, *, #1254, .T. ) ;
#300 = LINE ( 'NONE', #521, #291 ) ;
#301 = CARTESIAN_POINT ( 'NONE',  ( -75.00000000000000000, 12.50000000000001066, 3.000000000000000000 ) ) ;
#302 = CARTESIAN_POINT ( 'NONE',  ( 92.00000000000004263, 25.50000000000002132, 0.000000000000000000 ) ) ;
#303 = DIRECTION ( 'NONE',  ( -0.000000000000000000, -0.000000000000000000, 1.000000000000000000 ) ) ;
#304 = ORIENTED_EDGE ( 'NONE', *, *, #931, .F. ) ;
#305 = FACE_OUTER_BOUND ( 'NONE', #912, .T. ) ;
#306 = DIRECTION ( 'NONE',  ( -1.000000000000000000, -2.775557561562891844E-16, 0.000000000000000000 ) ) ;
#307 = CARTESIAN_POINT ( 'NONE',  ( 92.00000000000007105, -25.49999999999998224, 0.000000000000000000 ) ) ;
#308 = EDGE_CURVE ( 'NONE', #684, #979, #20, .T. ) ;
#309 = CARTESIAN_POINT ( 'NONE',  ( -92.00000000000004263, -25.50000000000000355, 0.000000000000000000 ) ) ;
#310 = ORIENTED_EDGE ( 'NONE', *, *, #614, .T. ) ;
#311 = DIRECTION ( 'NONE',  ( -0.000000000000000000, -0.000000000000000000, 1.000000000000000000 ) ) ;
#312 = EDGE_CURVE ( 'NONE', #993, #957, #1250, .T. ) ;
#313 = LINE ( 'NONE', #812, #1237 ) ;
#314 = CARTESIAN_POINT ( 'NONE',  ( -117.0000000000000284, -21.00000000000000000, 0.000000000000000000 ) ) ;
#315 = EDGE_LOOP ( 'NONE', ( #348, #1179, #1048, #644 ) ) ;
#316 = FACE_BOUND ( 'NONE', #596, .T. ) ;
#317 = DIRECTION ( 'NONE',  ( 0.000000000000000000, -1.000000000000000000, 0.000000000000000000 ) ) ;
#318 = FACE_OUTER_BOUND ( 'NONE', #1267, .T. ) ;
#319 = ORIENTED_EDGE ( 'NONE', *, *, #926, .F. ) ;
#320 = EDGE_CURVE ( 'NONE', #388, #352, #948, .T. ) ;
#321 = FACE_OUTER_BOUND ( 'NONE', #1138, .T. ) ;
#322 = EDGE_LOOP ( 'NONE', ( #1281, #890, #702, #238 ) ) ;
#323 = LINE ( 'NONE', #203, #635 ) ;
#324 = DIRECTION ( 'NONE',  ( 0.000000000000000000, -1.000000000000000000, 0.000000000000000000 ) ) ;
#325 = EDGE_CURVE ( 'NONE', #1077, #827, #928, .T. ) ;
#326 = VECTOR ( 'NONE', #188, 1000.000000000000000 ) ;
#327 = PRODUCT ( 'base', 'base', '', ( #274 ) ) ;
#328 = FACE_OUTER_BOUND ( 'NONE', #665, .T. ) ;
#329 = ORIENTED_EDGE ( 'NONE', *, *, #47, .T. ) ;
#330 = ORIENTED_EDGE ( 'NONE', *, *, #1319, .T. ) ;
#331 = VECTOR ( 'NONE', #324, 1000.000000000000000 ) ;
#332 = LINE ( 'NONE', #562, #285 ) ;
#333 = DIRECTION ( 'NONE',  ( 0.000000000000000000, 0.000000000000000000, 1.000000000000000000 ) ) ;
#334 = LINE ( 'NONE', #424, #164 ) ;
#335 = EDGE_LOOP ( 'NONE', ( #1213, #146, #1224, #470 ) ) ;
#336 = ADVANCED_FACE ( 'NONE', ( #1150 ), #723, .F. ) ;
#337 = LINE ( 'NONE', #630, #906 ) ;
#338 = VECTOR ( 'NONE', #38, 1000.000000000000000 ) ;
#339 = ORIENTED_EDGE ( 'NONE', *, *, #819, .F. ) ;
#340 = ADVANCED_FACE ( 'NONE', ( #652 ), #1242, .F. ) ;
#341 = MANIFOLD_SOLID_BREP ( 'Corte-extrus\X2\00e3\X0\o1', #528 ) ;
#342 = CARTESIAN_POINT ( 'NONE',  ( 79.50000000000004263, -12.49999999999997158, 0.000000000000000000 ) ) ;
#343 = CARTESIAN_POINT ( 'NONE',  ( 129.5000000000000284, -12.49999999999995737, 0.000000000000000000 ) ) ;
#344 = DIRECTION ( 'NONE',  ( 1.000000000000000000, 0.000000000000000000, 0.000000000000000000 ) ) ;
#345 = ORIENTED_EDGE ( 'NONE', *, *, #788, .T. ) ;
#346 = LINE ( 'NONE', #1022, #678 ) ;
#347 = EDGE_LOOP ( 'NONE', ( #330, #905, #1148, #1253 ) ) ;
#348 = ORIENTED_EDGE ( 'NONE', *, *, #566, .F. ) ;
#349 = LINE ( 'NONE', #1135, #796 ) ;
#350 = DIRECTION ( 'NONE',  ( 0.000000000000000000, -0.000000000000000000, 1.000000000000000000 ) ) ;
#351 = LINE ( 'NONE', #1152, #911 ) ;
#352 = VERTEX_POINT ( 'NONE', #443 ) ;
#353 = FACE_OUTER_BOUND ( 'NONE', #638, .T. ) ;
#354 = ORIENTED_EDGE ( 'NONE', *, *, #1146, .F. ) ;
#355 = ADVANCED_FACE ( 'NONE', ( #1233 ), #430, .F. ) ;
#356 = VECTOR ( 'NONE', #1040, 1000.000000000000000 ) ;
#357 = DIRECTION ( 'NONE',  ( 0.000000000000000000, -1.000000000000000000, 0.000000000000000000 ) ) ;
#358 = DIRECTION ( 'NONE',  ( -0.000000000000000000, -0.000000000000000000, 1.000000000000000000 ) ) ;
#359 = PRODUCT_RELATED_PRODUCT_CATEGORY ( 'detail', '', ( #327 ) ) ;
#360 = ORIENTED_EDGE ( 'NONE', *, *, #235, .F. ) ;
#361 = DIRECTION ( 'NONE',  ( -1.000000000000000000, -0.000000000000000000, -0.000000000000000000 ) ) ;
#362 = VECTOR ( 'NONE', #233, 1000.000000000000000 ) ;
#363 = ORIENTED_EDGE ( 'NONE', *, *, #55, .T. ) ;
#364 = LINE ( 'NONE', #342, #423 ) ;
#365 = FACE_OUTER_BOUND ( 'NONE', #289, .T. ) ;
#366 = PLANE ( 'NONE',  #401 ) ;
#367 = EDGE_CURVE ( 'NONE', #951, #130, #626, .T. ) ;
#368 = EDGE_LOOP ( 'NONE', ( #1147, #16, #784, #483 ) ) ;
#369 = COORDINATED_UNIVERSAL_TIME_OFFSET ( 3, 0, .BEHIND. ) ;
#370 = PLANE ( 'NONE',  #505 ) ;
#371 = VECTOR ( 'NONE', #107, 1000.000000000000000 ) ;
#372 = EDGE_LOOP ( 'NONE', ( #632, #498, #1090, #945 ) ) ;
#373 = COORDINATED_UNIVERSAL_TIME_OFFSET ( 3, 0, .BEHIND. ) ;
#374 = DIRECTION ( 'NONE',  ( 1.000000000000000000, 0.000000000000000000, 0.000000000000000000 ) ) ;
#375 = AXIS2_PLACEMENT_3D ( 'NONE', #1036, #128, #541 ) ;
#376 = VERTEX_POINT ( 'NONE', #35 ) ;
#377 = ORIENTED_EDGE ( 'NONE', *, *, #518, .F. ) ;
#378 = ADVANCED_FACE ( 'NONE', ( #545 ), #452, .F. ) ;
#379 = ADVANCED_FACE ( 'NONE', ( #557 ), #1226, .F. ) ;
#380 = CARTESIAN_POINT ( 'NONE',  ( -79.50000000000001421, -12.49999999999999112, 0.000000000000000000 ) ) ;
#381 = VERTEX_POINT ( 'NONE', #641 ) ;
#382 = ORIENTED_EDGE ( 'NONE', *, *, #114, .F. ) ;
#383 = DIRECTION ( 'NONE',  ( -1.000000000000000000, 0.000000000000000000, 0.000000000000000000 ) ) ;
#384 = FACE_OUTER_BOUND ( 'NONE', #254, .T. ) ;
#385 = LINE ( 'NONE', #790, #456 ) ;
#386 = DIRECTION ( 'NONE',  ( 0.000000000000000000, 0.000000000000000000, -1.000000000000000000 ) ) ;
#387 = AXIS2_PLACEMENT_3D ( 'NONE', #813, #504, #1108 ) ;
#388 = VERTEX_POINT ( 'NONE', #343 ) ;
#389 = EDGE_CURVE ( 'NONE', #1081, #398, #743, .T. ) ;
#390 = ORIENTED_EDGE ( 'NONE', *, *, #931, .T. ) ;
#391 = PERSON_AND_ORGANIZATION_ROLE ( 'design_supplier' ) ;
#392 = CARTESIAN_POINT ( 'NONE',  ( 79.50000000000000000, 12.50000000000003020, 3.000000000000000000 ) ) ;
#393 = LINE ( 'NONE', #416, #258 ) ;
#394 = DIRECTION ( 'NONE',  ( -1.000000000000000000, -2.775557561562891844E-16, 0.000000000000000000 ) ) ;
#395 = LOCAL_TIME ( 17, 2, 42.00000000000000000, #373 ) ;
#396 = VECTOR ( 'NONE', #692, 1000.000000000000000 ) ;
#397 = DIRECTION ( 'NONE',  ( -0.000000000000000000, -1.000000000000000000, -0.000000000000000000 ) ) ;
#398 = VERTEX_POINT ( 'NONE', #730 ) ;
#399 = ORIENTED_EDGE ( 'NONE', *, *, #915, .T. ) ;
#400 = VECTOR ( 'NONE', #458, 1000.000000000000000 ) ;
#401 = AXIS2_PLACEMENT_3D ( 'NONE', #1083, #494, #152 ) ;
#402 = CARTESIAN_POINT ( 'NONE',  ( 129.5000000000000284, -12.49999999999995737, 3.000000000000000000 ) ) ;
#403 = LINE ( 'NONE', #807, #438 ) ;
#404 = CARTESIAN_POINT ( 'NONE',  ( 92.00000000000007105, -25.49999999999998224, 0.000000000000000000 ) ) ;
#405 = EDGE_CURVE ( 'NONE', #872, #134, #1041, .T. ) ;
#406 = FACE_BOUND ( 'NONE', #54, .T. ) ;
#407 = ORIENTED_EDGE ( 'NONE', *, *, #294, .F. ) ;
#408 = LINE ( 'NONE', #913, #1201 ) ;
#409 = VECTOR ( 'NONE', #133, 1000.000000000000000 ) ;
#410 = FACE_OUTER_BOUND ( 'NONE', #237, .T. ) ;
#411 = FACE_OUTER_BOUND ( 'NONE', #918, .T. ) ;
#412 = FACE_BOUND ( 'NONE', #18, .T. ) ;
#413 = ADVANCED_FACE ( 'NONE', ( #219 ), #634, .F. ) ;
#414 = ORIENTED_EDGE ( 'NONE', *, *, #249, .T. ) ;
#415 = FACE_BOUND ( 'NONE', #322, .T. ) ;
#416 = CARTESIAN_POINT ( 'NONE',  ( -134.0000000000000284, -12.49999999999998934, 3.000000000000000000 ) ) ;
#417 = CARTESIAN_POINT ( 'NONE',  ( 79.50000000000004263, -12.49999999999997158, 3.000000000000000000 ) ) ;
#418 = CARTESIAN_POINT ( 'NONE',  ( 117.0000000000000284, 25.50000000000002842, 0.000000000000000000 ) ) ;
#419 = ORIENTED_EDGE ( 'NONE', *, *, #32, .T. ) ;
#420 = EDGE_CURVE ( 'NONE', #993, #604, #41, .T. ) ;
#421 = FACE_BOUND ( 'NONE', #253, .T. ) ;
#422 = CARTESIAN_POINT ( 'NONE',  ( 92.00000000000004263, 25.50000000000002132, 0.000000000000000000 ) ) ;
#423 = VECTOR ( 'NONE', #959, 1000.000000000000000 ) ;
#424 = CARTESIAN_POINT ( 'NONE',  ( -79.50000000000000000, 12.50000000000001066, 0.000000000000000000 ) ) ;
#425 = ORIENTED_EDGE ( 'NONE', *, *, #308, .F. ) ;
#426 = PLANE ( 'NONE',  #510 ) ;
#427 = EDGE_CURVE ( 'NONE', #543, #1118, #953, .T. ) ;
#428 = ORIENTED_EDGE ( 'NONE', *, *, #312, .T. ) ;
#429 = LINE ( 'NONE', #704, #56 ) ;
#430 = PLANE ( 'NONE',  #674 ) ;
#431 = EDGE_CURVE ( 'NONE', #1140, #460, #1265, .T. ) ;
#432 = APPLICATION_CONTEXT ( 'configuration controlled 3d designs of mechanical parts and assemblies' ) ;
#433 = CARTESIAN_POINT ( 'NONE',  ( -117.0000000000000284, -21.00000000000000000, 3.000000000000000000 ) ) ;
#434 = ORIENTED_EDGE ( 'NONE', *, *, #427, .T. ) ;
#435 = ORIENTED_EDGE ( 'NONE', *, *, #721, .F. ) ;
#436 = FACE_OUTER_BOUND ( 'NONE', #1261, .T. ) ;
#437 = DIRECTION ( 'NONE',  ( -1.000000000000000000, -0.000000000000000000, -0.000000000000000000 ) ) ;
#438 = VECTOR ( 'NONE', #612, 1000.000000000000000 ) ;
#439 = PLANE ( 'NONE',  #197 ) ;
#440 = EDGE_LOOP ( 'NONE', ( #1043, #741, #697, #530 ) ) ;
#441 = ORIENTED_EDGE ( 'NONE', *, *, #45, .F. ) ;
#442 = AXIS2_PLACEMENT_3D ( 'NONE', #1120, #14, #210 ) ;
#443 = CARTESIAN_POINT ( 'NONE',  ( 134.0000000000000284, -12.49999999999995559, 0.000000000000000000 ) ) ;
#444 = VECTOR ( 'NONE', #587, 1000.000000000000000 ) ;
#445 = CARTESIAN_POINT ( 'NONE',  ( 92.00000000000007105, -25.49999999999998224, 0.000000000000000000 ) ) ;
#446 = EDGE_LOOP ( 'NONE', ( #419, #837, #1020, #802 ) ) ;
#447 = LINE ( 'NONE', #527, #338 ) ;
#448 = AXIS2_PLACEMENT_3D ( 'NONE', #1217, #715, #24 ) ;
#449 = APPLICATION_CONTEXT ( 'configuration controlled 3d designs of mechanical parts and assemblies' ) ;
#450 = ORIENTED_EDGE ( 'NONE', *, *, #32, .F. ) ;
#451 = CARTESIAN_POINT ( 'NONE',  ( 134.0000000000000284, -12.49999999999995559, 3.000000000000000000 ) ) ;
#452 = PLANE ( 'NONE',  #1246 ) ;
#453 = LINE ( 'NONE', #433, #473 ) ;
#454 = ORIENTED_EDGE ( 'NONE', *, *, #142, .F. ) ;
#455 = EDGE_CURVE ( 'NONE', #1077, #85, #760, .T. ) ;
#456 = VECTOR ( 'NONE', #523, 1000.000000000000000 ) ;
#457 = ORIENTED_EDGE ( 'NONE', *, *, #215, .T. ) ;
#458 = DIRECTION ( 'NONE',  ( -1.665334536937734811E-15, 1.000000000000000000, 0.000000000000000000 ) ) ;
#459 = CARTESIAN_POINT ( 'NONE',  ( 117.0000000000000568, -25.49999999999997513, 0.000000000000000000 ) ) ;
#460 = VERTEX_POINT ( 'NONE', #818 ) ;
#461 = DIRECTION ( 'NONE',  ( -1.000000000000000000, -3.854941057726234153E-16, 0.000000000000000000 ) ) ;
#462 = ORIENTED_EDGE ( 'NONE', *, *, #246, .T. ) ;
#463 = CARTESIAN_POINT ( 'NONE',  ( 147.4999999999999716, -50.00000000000000000, 0.000000000000000000 ) ) ;
#464 = VECTOR ( 'NONE', #575, 1000.000000000000000 ) ;
#465 = ADVANCED_FACE ( 'NONE', ( #1113 ), #1202, .F. ) ;
#466 = ADVANCED_FACE ( 'NONE', ( #1192 ), #1095, .F. ) ;
#467 = DIRECTION ( 'NONE',  ( -0.000000000000000000, -0.000000000000000000, 1.000000000000000000 ) ) ;
#468 = DIRECTION ( 'NONE',  ( 0.000000000000000000, 1.000000000000000000, 0.000000000000000000 ) ) ;
#469 = AXIS2_PLACEMENT_3D ( 'NONE', #531, #1225, #102 ) ;
#470 = ORIENTED_EDGE ( 'NONE', *, *, #1176, .F. ) ;
#471 = CALENDAR_DATE ( 2026, 27, 5 ) ;
#472 = CARTESIAN_POINT ( 'NONE',  ( 79.50000000000000000, 12.50000000000003020, 0.000000000000000000 ) ) ;
#473 = VECTOR ( 'NONE', #1047, 1000.000000000000000 ) ;
#474 = ORIENTED_EDGE ( 'NONE', *, *, #320, .F. ) ;
#475 = VERTEX_POINT ( 'NONE', #284 ) ;
#476 = APPROVAL_STATUS ( 'not_yet_approved' ) ;
#477 = DIRECTION ( 'NONE',  ( -3.854941057726234153E-16, 1.000000000000000000, 0.000000000000000000 ) ) ;
#478 = ADVANCED_FACE ( 'NONE', ( #701 ), #110, .F. ) ;
#479 = EDGE_CURVE ( 'NONE', #535, #376, #1087, .T. ) ;
#480 = ORIENTED_EDGE ( 'NONE', *, *, #525, .T. ) ;
#481 = APPROVAL_DATE_TIME ( #59, #1257 ) ;
#482 = CARTESIAN_POINT ( 'NONE',  ( -129.5000000000000284, 12.50000000000001243, 0.000000000000000000 ) ) ;
#483 = ORIENTED_EDGE ( 'NONE', *, *, #109, .T. ) ;
#484 = ORIENTED_EDGE ( 'NONE', *, *, #877, .T. ) ;
#485 = COORDINATED_UNIVERSAL_TIME_OFFSET ( 3, 0, .BEHIND. ) ;
#486 = FACE_OUTER_BOUND ( 'NONE', #226, .T. ) ;
#487 = DIRECTION ( 'NONE',  ( -0.000000000000000000, -0.000000000000000000, 1.000000000000000000 ) ) ;
#488 = ADVANCED_FACE ( 'NONE', ( #1101 ), #200, .F. ) ;
#489 = EDGE_CURVE ( 'NONE', #352, #925, #496, .T. ) ;
#490 = DIRECTION ( 'NONE',  ( 0.000000000000000000, -0.000000000000000000, 1.000000000000000000 ) ) ;
#491 = ORIENTED_EDGE ( 'NONE', *, *, #1307, .F. ) ;
#492 = ORIENTED_EDGE ( 'NONE', *, *, #1219, .F. ) ;
#493 = EDGE_CURVE ( 'NONE', #1163, #1174, #97, .T. ) ;
#494 = DIRECTION ( 'NONE',  ( -0.000000000000000000, 1.000000000000000000, 0.000000000000000000 ) ) ;
#495 = CARTESIAN_POINT ( 'NONE',  ( -117.0000000000000284, 25.50000000000000355, 0.000000000000000000 ) ) ;
#496 = LINE ( 'NONE', #1210, #958 ) ;
#497 = LINE ( 'NONE', #708, #444 ) ;
#498 = ORIENTED_EDGE ( 'NONE', *, *, #1320, .F. ) ;
#499 = EDGE_LOOP ( 'NONE', ( #115, #124, #560, #131 ) ) ;
#500 = CARTESIAN_POINT ( 'NONE',  ( -117.0000000000000284, -21.00000000000000000, 0.000000000000000000 ) ) ;
#501 = CARTESIAN_POINT ( 'NONE',  ( -92.00000000000004263, -25.50000000000000355, 3.000000000000000000 ) ) ;
#502 = EDGE_CURVE ( 'NONE', #239, #815, #896, .T. ) ;
#503 = AXIS2_PLACEMENT_3D ( 'NONE', #99, #512, #386 ) ;
#504 = DIRECTION ( 'NONE',  ( 3.854941057726234153E-16, -1.000000000000000000, 0.000000000000000000 ) ) ;
#505 = AXIS2_PLACEMENT_3D ( 'NONE', #876, #1182, #1167 ) ;
#506 = FACE_BOUND ( 'NONE', #1296, .T. ) ;
#507 = ORIENTED_EDGE ( 'NONE', *, *, #142, .T. ) ;
#508 = CARTESIAN_POINT ( 'NONE',  ( 79.50000000000004263, -12.49999999999997158, 0.000000000000000000 ) ) ;
#509 = DIRECTION ( 'NONE',  ( 1.000000000000000000, 2.775557561562891844E-16, -0.000000000000000000 ) ) ;
#510 = AXIS2_PLACEMENT_3D ( 'NONE', #1125, #17, #755 ) ;
#511 = CARTESIAN_POINT ( 'NONE',  ( 117.0000000000000568, -20.99999999999997513, 0.000000000000000000 ) ) ;
#512 = DIRECTION ( 'NONE',  ( 1.000000000000000000, -0.000000000000000000, 0.000000000000000000 ) ) ;
#513 = ORIENTED_EDGE ( 'NONE', *, *, #1166, .T. ) ;
#514 = CARTESIAN_POINT ( 'NONE',  ( 92.00000000000007105, -20.99999999999998224, 0.000000000000000000 ) ) ;
#515 = LINE ( 'NONE', #593, #836 ) ;
#516 = CARTESIAN_POINT ( 'NONE',  ( -117.0000000000000284, 21.00000000000000000, 3.000000000000000000 ) ) ;
#517 = CARTESIAN_POINT ( 'NONE',  ( -92.00000000000004263, 25.50000000000000355, 0.000000000000000000 ) ) ;
#518 = EDGE_CURVE ( 'NONE', #543, #1163, #1315, .T. ) ;
#519 = VECTOR ( 'NONE', #1303, 1000.000000000000000 ) ;
#520 = ORIENTED_EDGE ( 'NONE', *, *, #788, .F. ) ;
#521 = CARTESIAN_POINT ( 'NONE',  ( -147.5000000000000284, 50.00000000000000000, 0.000000000000000000 ) ) ;
#522 = LINE ( 'NONE', #1004, #371 ) ;
#523 = DIRECTION ( 'NONE',  ( -1.000000000000000000, -3.854941057726234153E-16, 0.000000000000000000 ) ) ;
#524 = ORIENTED_EDGE ( 'NONE', *, *, #166, .F. ) ;
#525 = EDGE_CURVE ( 'NONE', #139, #75, #903, .T. ) ;
#526 = LOCAL_TIME ( 17, 2, 42.00000000000000000, #369 ) ;
#527 = CARTESIAN_POINT ( 'NONE',  ( -147.5000000000000284, 50.00000000000000000, 3.000000000000000000 ) ) ;
#528 = CLOSED_SHELL ( 'NONE', ( #379, #336, #40, #1050, #1162, #832, #112, #163, #1085, #478, #821, #413, #465, #223, #710, #1151, #663, #1010, #892, #977, #967, #767, #884, #67, #126, #1052, #656, #1302, #355, #955, #488, #340, #466, #1280, #378, #529, #13, #84 ) ) ;
#529 = ADVANCED_FACE ( 'NONE', ( #411 ), #999, .F. ) ;
#530 = ORIENTED_EDGE ( 'NONE', *, *, #1075, .F. ) ;
#531 = CARTESIAN_POINT ( 'NONE',  ( 117.0000000000000284, 21.00000000000002842, 0.000000000000000000 ) ) ;
#532 = DIRECTION ( 'NONE',  ( 0.000000000000000000, -0.000000000000000000, -1.000000000000000000 ) ) ;
#533 = VECTOR ( 'NONE', #118, 1000.000000000000000 ) ;
#534 = DIRECTION ( 'NONE',  ( -0.000000000000000000, -0.000000000000000000, 1.000000000000000000 ) ) ;
#535 = VERTEX_POINT ( 'NONE', #801 ) ;
#536 = EDGE_CURVE ( 'NONE', #848, #139, #808, .T. ) ;
#537 = EDGE_CURVE ( 'NONE', #71, #936, #1310, .T. ) ;
#538 = VERTEX_POINT ( 'NONE', #205 ) ;
#539 = DIRECTION ( 'NONE',  ( -5.551115123125782702E-16, -1.000000000000000000, -0.000000000000000000 ) ) ;
#540 = EDGE_CURVE ( 'NONE', #1174, #657, #1216, .T. ) ;
#541 = DIRECTION ( 'NONE',  ( 1.000000000000000000, 2.775557561562891844E-16, 0.000000000000000000 ) ) ;
#542 = CARTESIAN_POINT ( 'NONE',  ( 75.00000000000000000, 12.50000000000003020, 0.000000000000000000 ) ) ;
#543 = VERTEX_POINT ( 'NONE', #713 ) ;
#544 = ORIENTED_EDGE ( 'NONE', *, *, #1032, .T. ) ;
#545 = FACE_OUTER_BOUND ( 'NONE', #591, .T. ) ;
#546 = VECTOR ( 'NONE', #204, 1000.000000000000000 ) ;
#547 = CARTESIAN_POINT ( 'NONE',  ( 117.0000000000000284, 21.00000000000002842, 0.000000000000000000 ) ) ;
#548 = ORIENTED_EDGE ( 'NONE', *, *, #984, .F. ) ;
#549 = LINE ( 'NONE', #1247, #849 ) ;
#550 = EDGE_LOOP ( 'NONE', ( #39, #121, #932, #390 ) ) ;
#551 = EDGE_CURVE ( 'NONE', #376, #298, #619, .T. ) ;
#552 = LINE ( 'NONE', #137, #603 ) ;
#553 = CARTESIAN_POINT ( 'NONE',  ( 92.00000000000004263, 25.50000000000002132, 3.000000000000000000 ) ) ;
#554 = ORIENTED_EDGE ( 'NONE', *, *, #614, .F. ) ;
#555 = VERTEX_POINT ( 'NONE', #887 ) ;
#556 = LINE ( 'NONE', #645, #924 ) ;
#557 = FACE_OUTER_BOUND ( 'NONE', #1180, .T. ) ;
#558 = VERTEX_POINT ( 'NONE', #1294 ) ;
#559 = DIRECTION ( 'NONE',  ( -0.000000000000000000, -1.000000000000000000, -0.000000000000000000 ) ) ;
#560 = ORIENTED_EDGE ( 'NONE', *, *, #992, .F. ) ;
#561 = EDGE_CURVE ( 'NONE', #858, #971, #385, .T. ) ;
#562 = CARTESIAN_POINT ( 'NONE',  ( 92.00000000000004263, 21.00000000000002132, 0.000000000000000000 ) ) ;
#563 = CARTESIAN_POINT ( 'NONE',  ( 147.4999999999999716, -50.00000000000000000, 3.000000000000000000 ) ) ;
#564 = VECTOR ( 'NONE', #1106, 1000.000000000000000 ) ;
#565 = LINE ( 'NONE', #179, #636 ) ;
#566 = EDGE_CURVE ( 'NONE', #979, #936, #453, .T. ) ;
#567 = ORIENTED_EDGE ( 'NONE', *, *, #561, .T. ) ;
#568 = APPROVAL_PERSON_ORGANIZATION ( #597, #1257, #972 ) ;
#569 = ORIENTED_EDGE ( 'NONE', *, *, #588, .F. ) ;
#570 = CARTESIAN_POINT ( 'NONE',  ( -117.0000000000000284, -25.50000000000000355, 0.000000000000000000 ) ) ;
#571 = CARTESIAN_POINT ( 'NONE',  ( -75.00000000000000000, -12.49999999999999112, 0.000000000000000000 ) ) ;
#572 = ORIENTED_EDGE ( 'NONE', *, *, #246, .F. ) ;
#573 = EDGE_CURVE ( 'NONE', #827, #878, #138, .T. ) ;
#574 = ORIENTED_EDGE ( 'NONE', *, *, #1160, .T. ) ;
#575 = DIRECTION ( 'NONE',  ( 0.000000000000000000, 1.000000000000000000, 0.000000000000000000 ) ) ;
#576 = VERTEX_POINT ( 'NONE', #1144 ) ;
#577 = SHAPE_DEFINITION_REPRESENTATION ( #86, #706 ) ;
#578 = LINE ( 'NONE', #661, #217 ) ;
#579 = ORIENTED_EDGE ( 'NONE', *, *, #943, .T. ) ;
#580 = ORIENTED_EDGE ( 'NONE', *, *, #420, .T. ) ;
#581 = COORDINATED_UNIVERSAL_TIME_OFFSET ( 3, 0, .BEHIND. ) ;
#582 = LOCAL_TIME ( 17, 2, 42.00000000000000000, #77 ) ;
#583 = CARTESIAN_POINT ( 'NONE',  ( 134.0000000000000284, -12.49999999999995559, 3.000000000000000000 ) ) ;
#584 = LINE ( 'NONE', #880, #158 ) ;
#585 = EDGE_CURVE ( 'NONE', #923, #993, #242, .T. ) ;
#586 = VECTOR ( 'NONE', #383, 1000.000000000000000 ) ;
#587 = DIRECTION ( 'NONE',  ( -0.000000000000000000, -0.000000000000000000, 1.000000000000000000 ) ) ;
#588 = EDGE_CURVE ( 'NONE', #716, #1169, #840, .T. ) ;
#589 = ORIENTED_EDGE ( 'NONE', *, *, #561, .F. ) ;
#590 = VECTOR ( 'NONE', #34, 1000.000000000000000 ) ;
#591 = EDGE_LOOP ( 'NONE', ( #930, #162, #725, #1290 ) ) ;
#592 = PLANE ( 'NONE',  #970 ) ;
#593 = CARTESIAN_POINT ( 'NONE',  ( 129.5000000000000284, -12.49999999999995737, 0.000000000000000000 ) ) ;
#594 = CARTESIAN_POINT ( 'NONE',  ( -117.0000000000000284, 25.50000000000000355, 0.000000000000000000 ) ) ;
#595 = ORIENTED_EDGE ( 'NONE', *, *, #1146, .T. ) ;
#596 = EDGE_LOOP ( 'NONE', ( #230, #554, #360, #58 ) ) ;
#597 = PERSON_AND_ORGANIZATION ( #272, #50 ) ;
#598 = EDGE_CURVE ( 'NONE', #1, #288, #27, .T. ) ;
#599 = DIRECTION ( 'NONE',  ( -0.000000000000000000, -0.000000000000000000, 1.000000000000000000 ) ) ;
#600 = LINE ( 'NONE', #1094, #937 ) ;
#601 = CARTESIAN_POINT ( 'NONE',  ( 117.0000000000000568, -25.49999999999997513, 0.000000000000000000 ) ) ;
#602 = CARTESIAN_POINT ( 'NONE',  ( 79.50000000000000000, 12.50000000000003020, 0.000000000000000000 ) ) ;
#603 = VECTOR ( 'NONE', #934, 1000.000000000000000 ) ;
#604 = VERTEX_POINT ( 'NONE', #553 ) ;
#605 = CARTESIAN_POINT ( 'NONE',  ( -79.50000000000000000, 12.50000000000001066, 3.000000000000000000 ) ) ;
#606 = CARTESIAN_POINT ( 'NONE',  ( -134.0000000000000284, -12.49999999999998934, 0.000000000000000000 ) ) ;
#607 = DIRECTION ( 'NONE',  ( 0.000000000000000000, 0.000000000000000000, 1.000000000000000000 ) ) ;
#608 = FACE_OUTER_BOUND ( 'NONE', #159, .T. ) ;
#609 = AXIS2_PLACEMENT_3D ( 'NONE', #648, #1227, #1137 ) ;
#610 = ORIENTED_EDGE ( 'NONE', *, *, #795, .F. ) ;
#611 = DIRECTION ( 'NONE',  ( -1.000000000000000000, 0.000000000000000000, -0.000000000000000000 ) ) ;
#612 = DIRECTION ( 'NONE',  ( -0.000000000000000000, -0.000000000000000000, -1.000000000000000000 ) ) ;
#613 = DIRECTION ( 'NONE',  ( 0.000000000000000000, 0.000000000000000000, -1.000000000000000000 ) ) ;
#614 = EDGE_CURVE ( 'NONE', #63, #267, #855, .T. ) ;
#615 = CARTESIAN_POINT ( 'NONE',  ( 92.00000000000004263, 25.50000000000002132, 3.000000000000000000 ) ) ;
#616 = EDGE_LOOP ( 'NONE', ( #898, #1016, #1312, #1239 ) ) ;
#617 = CARTESIAN_POINT ( 'NONE',  ( 92.00000000000007105, -25.49999999999998224, 0.000000000000000000 ) ) ;
#618 = DIRECTION ( 'NONE',  ( -1.000000000000000000, -0.000000000000000000, -0.000000000000000000 ) ) ;
#619 = LINE ( 'NONE', #516, #275 ) ;
#620 = ORIENTED_EDGE ( 'NONE', *, *, #183, .F. ) ;
#621 = UNCERTAINTY_MEASURE_WITH_UNIT (LENGTH_MEASURE( 1.000000000000000082E-05 ), #947, 'distance_accuracy_value', 'NONE');
#622 = CARTESIAN_POINT ( 'NONE',  ( 117.0000000000000284, 21.00000000000002842, 0.000000000000000000 ) ) ;
#623 = VECTOR ( 'NONE', #394, 1000.000000000000000 ) ;
#624 = VERTEX_POINT ( 'NONE', #236 ) ;
#625 = CARTESIAN_POINT ( 'NONE',  ( 117.0000000000000568, -20.99999999999997513, 0.000000000000000000 ) ) ;
#626 = LINE ( 'NONE', #1259, #140 ) ;
#627 = CARTESIAN_POINT ( 'NONE',  ( 75.00000000000000000, 12.50000000000003020, 0.000000000000000000 ) ) ;
#628 = ORIENTED_EDGE ( 'NONE', *, *, #125, .T. ) ;
#629 = EDGE_CURVE ( 'NONE', #168, #1185, #334, .T. ) ;
#630 = CARTESIAN_POINT ( 'NONE',  ( 117.0000000000000284, 25.50000000000002842, 3.000000000000000000 ) ) ;
#631 = AXIS2_PLACEMENT_3D ( 'NONE', #973, #477, #64 ) ;
#632 = ORIENTED_EDGE ( 'NONE', *, *, #479, .T. ) ;
#633 = DIRECTION ( 'NONE',  ( 0.000000000000000000, -1.000000000000000000, -0.000000000000000000 ) ) ;
#634 = PLANE ( 'NONE',  #375 ) ;
#635 = VECTOR ( 'NONE', #816, 1000.000000000000000 ) ;
#636 = VECTOR ( 'NONE', #461, 1000.000000000000000 ) ;
#637 = DIRECTION ( 'NONE',  ( 1.000000000000000000, 1.665334536937734613E-15, 0.000000000000000000 ) ) ;
#638 = EDGE_LOOP ( 'NONE', ( #310, #213, #889, #155 ) ) ;
#639 = ORIENTED_EDGE ( 'NONE', *, *, #249, .F. ) ;
#640 = CARTESIAN_POINT ( 'NONE',  ( 129.5000000000000284, -12.49999999999995737, 0.000000000000000000 ) ) ;
#641 = CARTESIAN_POINT ( 'NONE',  ( -92.00000000000004263, 21.00000000000000000, 0.000000000000000000 ) ) ;
#642 = CARTESIAN_POINT ( 'NONE',  ( -92.00000000000004263, -21.00000000000000000, 0.000000000000000000 ) ) ;
#643 = ORIENTED_EDGE ( 'NONE', *, *, #992, .T. ) ;
#644 = ORIENTED_EDGE ( 'NONE', *, *, #835, .F. ) ;
#645 = CARTESIAN_POINT ( 'NONE',  ( -92.00000000000004263, -25.50000000000000355, 3.000000000000000000 ) ) ;
#646 = CARTESIAN_POINT ( 'NONE',  ( 134.0000000000000284, -12.49999999999995559, 0.000000000000000000 ) ) ;
#647 = EDGE_CURVE ( 'NONE', #1140, #872, #351, .T. ) ;
#648 = CARTESIAN_POINT ( 'NONE',  ( -92.00000000000004263, -25.50000000000000355, 0.000000000000000000 ) ) ;
#649 = ORIENTED_EDGE ( 'NONE', *, *, #770, .F. ) ;
#650 = ORIENTED_EDGE ( 'NONE', *, *, #683, .F. ) ;
#651 = CARTESIAN_POINT ( 'NONE',  ( 117.0000000000000284, 21.00000000000002842, 3.000000000000000000 ) ) ;
#652 = FACE_OUTER_BOUND ( 'NONE', #62, .T. ) ;
#653 = CARTESIAN_POINT ( 'NONE',  ( -129.5000000000000284, -12.49999999999998934, 3.000000000000000000 ) ) ;
#654 = ORIENTED_EDGE ( 'NONE', *, *, #926, .T. ) ;
#655 = CARTESIAN_POINT ( 'NONE',  ( 79.50000000000000000, 12.50000000000003020, 0.000000000000000000 ) ) ;
#656 = ADVANCED_FACE ( 'NONE', ( #328 ), #833, .F. ) ;
#657 = VERTEX_POINT ( 'NONE', #445 ) ;
#658 = CARTESIAN_POINT ( 'NONE',  ( 117.0000000000000284, 25.50000000000002842, 3.000000000000000000 ) ) ;
#659 = CARTESIAN_POINT ( 'NONE',  ( -134.0000000000000284, 12.50000000000001243, 0.000000000000000000 ) ) ;
#660 = EDGE_CURVE ( 'NONE', #878, #398, #21, .T. ) ;
#661 = CARTESIAN_POINT ( 'NONE',  ( -75.00000000000000000, 12.50000000000001066, 0.000000000000000000 ) ) ;
#662 = PLANE ( 'NONE',  #174 ) ;
#663 = ADVANCED_FACE ( 'NONE', ( #318 ), #439, .F. ) ;
#664 = ORIENTED_EDGE ( 'NONE', *, *, #1187, .T. ) ;
#665 = EDGE_LOOP ( 'NONE', ( #299, #425, #856, #682 ) ) ;
#666 = CARTESIAN_POINT ( 'NONE',  ( -117.0000000000000284, 21.00000000000000000, 0.000000000000000000 ) ) ;
#667 = PLANE ( 'NONE',  #963 ) ;
#668 = VECTOR ( 'NONE', #509, 1000.000000000000000 ) ;
#669 = DIRECTION ( 'NONE',  ( 0.000000000000000000, -0.000000000000000000, 1.000000000000000000 ) ) ;
#670 = VERTEX_POINT ( 'NONE', #738 ) ;
#671 = VECTOR ( 'NONE', #397, 1000.000000000000000 ) ;
#672 = CC_DESIGN_PERSON_AND_ORGANIZATION_ASSIGNMENT ( #891, #879, ( #1129 ) ) ;
#673 = DATE_AND_TIME ( #794, #526 ) ;
#674 = AXIS2_PLACEMENT_3D ( 'NONE', #1051, #839, #333 ) ;
#675 = DIRECTION ( 'NONE',  ( 0.000000000000000000, 1.000000000000000000, 0.000000000000000000 ) ) ;
#676 = VECTOR ( 'NONE', #212, 1000.000000000000000 ) ;
#677 = ORIENTED_EDGE ( 'NONE', *, *, #984, .T. ) ;
#678 = VECTOR ( 'NONE', #9, 1000.000000000000000 ) ;
#679 = CALENDAR_DATE ( 2026, 27, 5 ) ;
#680 = LINE ( 'NONE', #1159, #51 ) ;
#681 = VECTOR ( 'NONE', #295, 1000.000000000000000 ) ;
#682 = ORIENTED_EDGE ( 'NONE', *, *, #795, .T. ) ;
#683 = EDGE_CURVE ( 'NONE', #872, #1, #1260, .T. ) ;
#684 = VERTEX_POINT ( 'NONE', #642 ) ;
#685 = APPLICATION_PROTOCOL_DEFINITION ( 'international standard', 'config_control_design', 1994, #449 ) ;
#686 = CARTESIAN_POINT ( 'NONE',  ( -147.5000000000000284, -50.00000000000000000, 3.000000000000000000 ) ) ;
#687 = ORIENTED_EDGE ( 'NONE', *, *, #109, .F. ) ;
#688 = EDGE_LOOP ( 'NONE', ( #938, #407, #339, #771 ) ) ;
#689 = APPROVAL_STATUS ( 'not_yet_approved' ) ;
#690 = APPROVAL_PERSON_ORGANIZATION ( #169, #1089, #1092 ) ;
#691 = DIRECTION ( 'NONE',  ( 0.000000000000000000, -0.000000000000000000, 1.000000000000000000 ) ) ;
#692 = DIRECTION ( 'NONE',  ( -1.000000000000000000, -0.000000000000000000, -0.000000000000000000 ) ) ;
#693 = DIRECTION ( 'NONE',  ( -0.000000000000000000, 0.000000000000000000, 1.000000000000000000 ) ) ;
#694 = EDGE_CURVE ( 'NONE', #971, #1001, #724, .T. ) ;
#695 = ORIENTED_EDGE ( 'NONE', *, *, #55, .F. ) ;
#696 = VECTOR ( 'NONE', #1063, 1000.000000000000000 ) ;
#697 = ORIENTED_EDGE ( 'NONE', *, *, #536, .F. ) ;
#698 = DIRECTION ( 'NONE',  ( 0.000000000000000000, -0.000000000000000000, 1.000000000000000000 ) ) ;
#699 = PLANE ( 'NONE',  #23 ) ;
#700 = EDGE_CURVE ( 'NONE', #899, #829, #1121, .T. ) ;
#701 = FACE_OUTER_BOUND ( 'NONE', #867, .T. ) ;
#702 = ORIENTED_EDGE ( 'NONE', *, *, #850, .F. ) ;
#703 = ORIENTED_EDGE ( 'NONE', *, *, #232, .F. ) ;
#704 = CARTESIAN_POINT ( 'NONE',  ( -117.0000000000000284, -25.50000000000000355, 0.000000000000000000 ) ) ;
#705 = CARTESIAN_POINT ( 'NONE',  ( 79.50000000000004263, -12.49999999999997158, 3.000000000000000000 ) ) ;
#706 = ADVANCED_BREP_SHAPE_REPRESENTATION ( 'base', ( #341, #756 ), #2 ) ;
#707 = DIRECTION ( 'NONE',  ( -0.000000000000000000, -0.000000000000000000, 1.000000000000000000 ) ) ;
#708 = CARTESIAN_POINT ( 'NONE',  ( 92.00000000000007105, -20.99999999999998224, 0.000000000000000000 ) ) ;
#709 = EDGE_LOOP ( 'NONE', ( #677, #185, #148, #822 ) ) ;
#710 = ADVANCED_FACE ( 'NONE', ( #847 ), #1130, .F. ) ;
#711 = CARTESIAN_POINT ( 'NONE',  ( -117.0000000000000284, 21.00000000000000000, 0.000000000000000000 ) ) ;
#712 = CARTESIAN_POINT ( 'NONE',  ( -134.0000000000000284, -12.49999999999998934, 3.000000000000000000 ) ) ;
#713 = CARTESIAN_POINT ( 'NONE',  ( 117.0000000000000568, -25.49999999999997513, 0.000000000000000000 ) ) ;
#714 = VECTOR ( 'NONE', #5, 1000.000000000000000 ) ;
#715 = DIRECTION ( 'NONE',  ( 0.000000000000000000, 0.000000000000000000, -1.000000000000000000 ) ) ;
#716 = VERTEX_POINT ( 'NONE', #627 ) ;
#717 = CARTESIAN_POINT ( 'NONE',  ( 129.5000000000000284, 12.50000000000004441, 0.000000000000000000 ) ) ;
#718 = CARTESIAN_POINT ( 'NONE',  ( -129.5000000000000284, -12.49999999999998934, 0.000000000000000000 ) ) ;
#719 = DIRECTION ( 'NONE',  ( -0.000000000000000000, -0.000000000000000000, 1.000000000000000000 ) ) ;
#720 = ORIENTED_EDGE ( 'NONE', *, *, #427, .F. ) ;
#721 = EDGE_CURVE ( 'NONE', #1282, #139, #1029, .T. ) ;
#722 = FACE_BOUND ( 'NONE', #335, .T. ) ;
#723 = PLANE ( 'NONE',  #265 ) ;
#724 = LINE ( 'NONE', #753, #778 ) ;
#725 = ORIENTED_EDGE ( 'NONE', *, *, #47, .F. ) ;
#726 = CC_DESIGN_PERSON_AND_ORGANIZATION_ASSIGNMENT ( #262, #1198, ( #60 ) ) ;
#727 = CARTESIAN_POINT ( 'NONE',  ( 147.4999999999999716, -50.00000000000000000, 0.000000000000000000 ) ) ;
#728 = ORIENTED_EDGE ( 'NONE', *, *, #1301, .T. ) ;
#729 = FACE_BOUND ( 'NONE', #154, .T. ) ;
#730 = CARTESIAN_POINT ( 'NONE',  ( -147.5000000000000284, -50.00000000000000000, 0.000000000000000000 ) ) ;
#731 = CARTESIAN_POINT ( 'NONE',  ( 79.50000000000004263, -12.49999999999997158, 0.000000000000000000 ) ) ;
#732 = ORIENTED_EDGE ( 'NONE', *, *, #312, .F. ) ;
#733 = DIRECTION ( 'NONE',  ( 1.000000000000000000, 0.000000000000000000, 0.000000000000000000 ) ) ;
#734 = EDGE_CURVE ( 'NONE', #475, #858, #15, .T. ) ;
#735 = ORIENTED_EDGE ( 'NONE', *, *, #536, .T. ) ;
#736 = DIRECTION ( 'NONE',  ( 0.000000000000000000, 1.000000000000000000, 0.000000000000000000 ) ) ;
#737 = CARTESIAN_POINT ( 'NONE',  ( 134.0000000000000284, -12.49999999999995559, 0.000000000000000000 ) ) ;
#738 = CARTESIAN_POINT ( 'NONE',  ( -92.00000000000004263, -25.50000000000000355, 0.000000000000000000 ) ) ;
#739 = ORIENTED_EDGE ( 'NONE', *, *, #320, .T. ) ;
#740 = DIRECTION ( 'NONE',  ( -0.000000000000000000, 1.000000000000000000, -0.000000000000000000 ) ) ;
#741 = ORIENTED_EDGE ( 'NONE', *, *, #525, .F. ) ;
#742 = LINE ( 'NONE', #1264, #400 ) ;
#743 = LINE ( 'NONE', #119, #29 ) ;
#744 = VECTOR ( 'NONE', #935, 1000.000000000000000 ) ;
#745 = CARTESIAN_POINT ( 'NONE',  ( -147.5000000000000284, -50.00000000000000000, 3.000000000000000000 ) ) ;
#746 = ORIENTED_EDGE ( 'NONE', *, *, #1219, .T. ) ;
#747 = ORIENTED_EDGE ( 'NONE', *, *, #173, .F. ) ;
#748 = VECTOR ( 'NONE', #707, 1000.000000000000000 ) ;
#749 = ORIENTED_EDGE ( 'NONE', *, *, #1274, .T. ) ;
#750 = LINE ( 'NONE', #451, #1086 ) ;
#751 = CARTESIAN_POINT ( 'NONE',  ( -129.5000000000000284, 12.50000000000001243, 0.000000000000000000 ) ) ;
#752 = EDGE_CURVE ( 'NONE', #381, #239, #74, .T. ) ;
#753 = CARTESIAN_POINT ( 'NONE',  ( 129.5000000000000284, -12.49999999999995737, 3.000000000000000000 ) ) ;
#754 = ORIENTED_EDGE ( 'NONE', *, *, #431, .F. ) ;
#755 = DIRECTION ( 'NONE',  ( 0.000000000000000000, 0.000000000000000000, -1.000000000000000000 ) ) ;
#756 = AXIS2_PLACEMENT_3D ( 'NONE', #186, #772, #1175 ) ;
#757 = VERTEX_POINT ( 'NONE', #985 ) ;
#758 = VECTOR ( 'NONE', #43, 1000.000000000000000 ) ;
#759 = EDGE_CURVE ( 'NONE', #1174, #538, #497, .T. ) ;
#760 = LINE ( 'NONE', #248, #1318 ) ;
#761 = VECTOR ( 'NONE', #952, 1000.000000000000000 ) ;
#762 = DIRECTION ( 'NONE',  ( -5.551115123125782702E-16, -1.000000000000000000, -0.000000000000000000 ) ) ;
#763 = CARTESIAN_POINT ( 'NONE',  ( -79.50000000000000000, 12.50000000000001066, 0.000000000000000000 ) ) ;
#764 = EDGE_LOOP ( 'NONE', ( #954, #428, #1091, #206 ) ) ;
#765 = ORIENTED_EDGE ( 'NONE', *, *, #45, .T. ) ;
#766 = FACE_OUTER_BOUND ( 'NONE', #1156, .T. ) ;
#767 = ADVANCED_FACE ( 'NONE', ( #82 ), #897, .F. ) ;
#768 = DIRECTION ( 'NONE',  ( 0.000000000000000000, -1.000000000000000000, 0.000000000000000000 ) ) ;
#769 = DIRECTION ( 'NONE',  ( -0.000000000000000000, -0.000000000000000000, 1.000000000000000000 ) ) ;
#770 = EDGE_CURVE ( 'NONE', #381, #298, #1008, .T. ) ;
#771 = ORIENTED_EDGE ( 'NONE', *, *, #700, .T. ) ;
#772 = DIRECTION ( 'NONE',  ( 0.000000000000000000, 0.000000000000000000, 1.000000000000000000 ) ) ;
#773 = CARTESIAN_POINT ( 'NONE',  ( 134.0000000000000284, -12.49999999999995559, 0.000000000000000000 ) ) ;
#774 = ORIENTED_EDGE ( 'NONE', *, *, #98, .F. ) ;
#775 = ORIENTED_EDGE ( 'NONE', *, *, #502, .T. ) ;
#776 = AXIS2_PLACEMENT_3D ( 'NONE', #26, #228, #350 ) ;
#777 = DIRECTION ( 'NONE',  ( -0.000000000000000000, -0.000000000000000000, 1.000000000000000000 ) ) ;
#778 = VECTOR ( 'NONE', #941, 1000.000000000000000 ) ;
#779 = EDGE_CURVE ( 'NONE', #71, #37, #791, .T. ) ;
#780 = ORIENTED_EDGE ( 'NONE', *, *, #1160, .F. ) ;
#781 = ORIENTED_EDGE ( 'NONE', *, *, #1191, .T. ) ;
#782 = CC_DESIGN_DATE_AND_TIME_ASSIGNMENT ( #1278, #988, ( #1195 ) ) ;
#783 = LINE ( 'NONE', #773, #1269 ) ;
#784 = ORIENTED_EDGE ( 'NONE', *, *, #1032, .F. ) ;
#785 = ORIENTED_EDGE ( 'NONE', *, *, #1319, .F. ) ;
#786 = DIRECTION ( 'NONE',  ( -1.000000000000000000, 5.551115123125781716E-16, 0.000000000000000000 ) ) ;
#787 = CARTESIAN_POINT ( 'NONE',  ( 117.0000000000000568, -20.99999999999997513, 0.000000000000000000 ) ) ;
#788 = EDGE_CURVE ( 'NONE', #1118, #555, #1205, .T. ) ;
#789 = AXIS2_PLACEMENT_3D ( 'NONE', #404, #909, #607 ) ;
#790 = CARTESIAN_POINT ( 'NONE',  ( 134.0000000000000284, 12.50000000000004619, 3.000000000000000000 ) ) ;
#791 = LINE ( 'NONE', #201, #671 ) ;
#792 = ORIENTED_EDGE ( 'NONE', *, *, #1274, .F. ) ;
#793 = ORIENTED_EDGE ( 'NONE', *, *, #721, .T. ) ;
#794 = CALENDAR_DATE ( 2026, 27, 5 ) ;
#795 = EDGE_CURVE ( 'NONE', #670, #261, #1096, .T. ) ;
#796 = VECTOR ( 'NONE', #1149, 1000.000000000000000 ) ;
#797 = CARTESIAN_POINT ( 'NONE',  ( -79.50000000000001421, -12.49999999999999112, 0.000000000000000000 ) ) ;
#798 = VECTOR ( 'NONE', #487, 1000.000000000000000 ) ;
#799 = DIRECTION ( 'NONE',  ( 1.000000000000000000, 0.000000000000000000, 0.000000000000000000 ) ) ;
#800 = EDGE_CURVE ( 'NONE', #925, #858, #888, .T. ) ;
#801 = CARTESIAN_POINT ( 'NONE',  ( -117.0000000000000284, 25.50000000000000355, 3.000000000000000000 ) ) ;
#802 = ORIENTED_EDGE ( 'NONE', *, *, #770, .T. ) ;
#803 = VECTOR ( 'NONE', #311, 1000.000000000000000 ) ;
#804 = AXIS2_PLACEMENT_3D ( 'NONE', #1276, #257, #669 ) ;
#805 = VERTEX_POINT ( 'NONE', #602 ) ;
#806 = CARTESIAN_POINT ( 'NONE',  ( 75.00000000000002842, -12.49999999999997158, 0.000000000000000000 ) ) ;
#807 = CARTESIAN_POINT ( 'NONE',  ( 147.4999999999999716, -50.00000000000000000, 3.000000000000000000 ) ) ;
#808 = LINE ( 'NONE', #417, #1124 ) ;
#809 = CARTESIAN_POINT ( 'NONE',  ( -147.5000000000000284, 50.00000000000000000, 3.000000000000000000 ) ) ;
#810 = EDGE_LOOP ( 'NONE', ( #329, #243, #414, #739 ) ) ;
#811 = DIRECTION ( 'NONE',  ( -0.000000000000000000, -0.000000000000000000, 1.000000000000000000 ) ) ;
#812 = CARTESIAN_POINT ( 'NONE',  ( -134.0000000000000284, 12.50000000000001243, 0.000000000000000000 ) ) ;
#813 = CARTESIAN_POINT ( 'NONE',  ( 134.0000000000000284, -12.49999999999995559, 0.000000000000000000 ) ) ;
#814 = PLANE ( 'NONE',  #448 ) ;
#815 = VERTEX_POINT ( 'NONE', #195 ) ;
#816 = DIRECTION ( 'NONE',  ( 1.110223024625156540E-15, -1.000000000000000000, -0.000000000000000000 ) ) ;
#817 = DIRECTION ( 'NONE',  ( 0.000000000000000000, 0.000000000000000000, -1.000000000000000000 ) ) ;
#818 = CARTESIAN_POINT ( 'NONE',  ( -134.0000000000000284, 12.50000000000001243, 3.000000000000000000 ) ) ;
#819 = EDGE_CURVE ( 'NONE', #899, #923, #1000, .T. ) ;
#820 = FACE_OUTER_BOUND ( 'NONE', #22, .T. ) ;
#821 = ADVANCED_FACE ( 'NONE', ( #820 ), #1223, .F. ) ;
#822 = ORIENTED_EDGE ( 'NONE', *, *, #759, .T. ) ;
#823 = CARTESIAN_POINT ( 'NONE',  ( 147.4999999999999716, 50.00000000000000000, 3.000000000000000000 ) ) ;
#824 = EDGE_CURVE ( 'NONE', #604, #1126, #1193, .T. ) ;
#825 = CARTESIAN_POINT ( 'NONE',  ( -147.5000000000000284, 50.00000000000000000, 3.000000000000000000 ) ) ;
#826 = DIRECTION ( 'NONE',  ( -0.000000000000000000, -0.000000000000000000, 1.000000000000000000 ) ) ;
#827 = VERTEX_POINT ( 'NONE', #809 ) ;
#828 = CARTESIAN_POINT ( 'NONE',  ( 134.0000000000000284, 12.50000000000004619, 3.000000000000000000 ) ) ;
#829 = VERTEX_POINT ( 'NONE', #92 ) ;
#830 = DIRECTION ( 'NONE',  ( -0.000000000000000000, -0.000000000000000000, 1.000000000000000000 ) ) ;
#831 = LINE ( 'NONE', #241, #1170 ) ;
#832 = ADVANCED_FACE ( 'NONE', ( #910, #412, #506, #904, #1311, #287, #406, #1212, #608 ), #814, .T. ) ;
#833 = PLANE ( 'NONE',  #609 ) ;
#834 = VERTEX_POINT ( 'NONE', #727 ) ;
#835 = EDGE_CURVE ( 'NONE', #936, #950, #549, .T. ) ;
#836 = VECTOR ( 'NONE', #282, 1000.000000000000000 ) ;
#837 = ORIENTED_EDGE ( 'NONE', *, *, #502, .F. ) ;
#838 = PLANE ( 'NONE',  #1272 ) ;
#839 = DIRECTION ( 'NONE',  ( -1.000000000000000000, 0.000000000000000000, 0.000000000000000000 ) ) ;
#840 = LINE ( 'NONE', #542, #409 ) ;
#841 = ORIENTED_EDGE ( 'NONE', *, *, #573, .T. ) ;
#842 = VECTOR ( 'NONE', #190, 1000.000000000000000 ) ;
#843 = ORIENTED_EDGE ( 'NONE', *, *, #10, .F. ) ;
#844 = VECTOR ( 'NONE', #534, 1000.000000000000000 ) ;
#845 = DIRECTION ( 'NONE',  ( 0.000000000000000000, 1.000000000000000000, 0.000000000000000000 ) ) ;
#846 = CARTESIAN_POINT ( 'NONE',  ( -147.5000000000000284, 50.00000000000000000, 3.000000000000000000 ) ) ;
#847 = FACE_OUTER_BOUND ( 'NONE', #1049, .T. ) ;
#848 = VERTEX_POINT ( 'NONE', #141 ) ;
#849 = VECTOR ( 'NONE', #1262, 1000.000000000000000 ) ;
#850 = EDGE_CURVE ( 'NONE', #829, #1076, #337, .T. ) ;
#851 = ORIENTED_EDGE ( 'NONE', *, *, #694, .T. ) ;
#852 = EDGE_CURVE ( 'NONE', #267, #460, #225, .T. ) ;
#853 = LINE ( 'NONE', #463, #178 ) ;
#854 = CARTESIAN_POINT ( 'NONE',  ( -92.00000000000004263, 21.00000000000000000, 3.000000000000000000 ) ) ;
#855 = LINE ( 'NONE', #653, #744 ) ;
#856 = ORIENTED_EDGE ( 'NONE', *, *, #69, .F. ) ;
#857 = CARTESIAN_POINT ( 'NONE',  ( -147.5000000000000284, -50.00000000000000000, 3.000000000000000000 ) ) ;
#858 = VERTEX_POINT ( 'NONE', #828 ) ;
#859 = VECTOR ( 'NONE', #991, 1000.000000000000000 ) ;
#860 = DIRECTION ( 'NONE',  ( 0.000000000000000000, -0.000000000000000000, -1.000000000000000000 ) ) ;
#861 = DIRECTION ( 'NONE',  ( -0.000000000000000000, -0.000000000000000000, 1.000000000000000000 ) ) ;
#862 = ORIENTED_EDGE ( 'NONE', *, *, #367, .T. ) ;
#863 = DIRECTION ( 'NONE',  ( -5.551115123125781716E-16, -1.000000000000000000, 0.000000000000000000 ) ) ;
#864 = EDGE_CURVE ( 'NONE', #827, #1081, #447, .T. ) ;
#865 = VECTOR ( 'NONE', #777, 1000.000000000000000 ) ;
#866 = ORIENTED_EDGE ( 'NONE', *, *, #779, .T. ) ;
#867 = EDGE_LOOP ( 'NONE', ( #46, #491, #732, #580 ) ) ;
#868 = LINE ( 'NONE', #966, #983 ) ;
#869 = VECTOR ( 'NONE', #1025, 1000.000000000000000 ) ;
#870 = LINE ( 'NONE', #161, #464 ) ;
#871 = PLANE ( 'NONE',  #804 ) ;
#872 = VERTEX_POINT ( 'NONE', #1255 ) ;
#873 = DATE_AND_TIME ( #1287, #395 ) ;
#874 = CARTESIAN_POINT ( 'NONE',  ( -129.5000000000000284, -12.49999999999998934, 3.000000000000000000 ) ) ;
#875 = ORIENTED_EDGE ( 'NONE', *, *, #540, .T. ) ;
#876 = CARTESIAN_POINT ( 'NONE',  ( 129.5000000000000284, -12.49999999999995737, 0.000000000000000000 ) ) ;
#877 = EDGE_CURVE ( 'NONE', #716, #757, #346, .T. ) ;
#878 = VERTEX_POINT ( 'NONE', #857 ) ;
#879 = PERSON_AND_ORGANIZATION_ROLE ( 'creator' ) ;
#880 = CARTESIAN_POINT ( 'NONE',  ( 117.0000000000000568, -20.99999999999997513, 0.000000000000000000 ) ) ;
#881 = ORIENTED_EDGE ( 'NONE', *, *, #489, .F. ) ;
#882 = EDGE_LOOP ( 'NONE', ( #987, #720, #524, #1030 ) ) ;
#883 = PERSON_AND_ORGANIZATION ( #272, #50 ) ;
#884 = ADVANCED_FACE ( 'NONE', ( #353 ), #426, .F. ) ;
#885 = FACE_OUTER_BOUND ( 'NONE', #550, .T. ) ;
#886 = LINE ( 'NONE', #380, #1196 ) ;
#887 = CARTESIAN_POINT ( 'NONE',  ( 117.0000000000000568, -20.99999999999997513, 3.000000000000000000 ) ) ;
#888 = LINE ( 'NONE', #1109, #263 ) ;
#889 = ORIENTED_EDGE ( 'NONE', *, *, #598, .F. ) ;
#890 = ORIENTED_EDGE ( 'NONE', *, *, #1230, .F. ) ;
#891 = PERSON_AND_ORGANIZATION ( #272, #50 ) ;
#892 = ADVANCED_FACE ( 'NONE', ( #321 ), #214, .F. ) ;
#893 = CARTESIAN_POINT ( 'NONE',  ( -117.0000000000000284, -21.00000000000000000, 3.000000000000000000 ) ) ;
#894 = CARTESIAN_POINT ( 'NONE',  ( -79.50000000000000000, 12.50000000000001066, 0.000000000000000000 ) ) ;
#895 = VECTOR ( 'NONE', #1209, 1000.000000000000000 ) ;
#896 = LINE ( 'NONE', #1014, #748 ) ;
#897 = PLANE ( 'NONE',  #1241 ) ;
#898 = ORIENTED_EDGE ( 'NONE', *, *, #835, .T. ) ;
#899 = VERTEX_POINT ( 'NONE', #622 ) ;
#900 = LINE ( 'NONE', #392, #758 ) ;
#901 = FACE_OUTER_BOUND ( 'NONE', #688, .T. ) ;
#902 = CC_DESIGN_DATE_AND_TIME_ASSIGNMENT ( #873, #980, ( #60 ) ) ;
#903 = LINE ( 'NONE', #90, #859 ) ;
#904 = FACE_BOUND ( 'NONE', #1197, .T. ) ;
#905 = ORIENTED_EDGE ( 'NONE', *, *, #280, .F. ) ;
#906 = VECTOR ( 'NONE', #740, 1000.000000000000000 ) ;
#907 = FACE_BOUND ( 'NONE', #315, .T. ) ;
#908 = CARTESIAN_POINT ( 'NONE',  ( 92.00000000000007105, -25.49999999999998224, 3.000000000000000000 ) ) ;
#909 = DIRECTION ( 'NONE',  ( -1.000000000000000000, 0.000000000000000000, 0.000000000000000000 ) ) ;
#910 = FACE_BOUND ( 'NONE', #810, .T. ) ;
#911 = VECTOR ( 'NONE', #229, 1000.000000000000000 ) ;
#912 = EDGE_LOOP ( 'NONE', ( #363, #1056, #841, #399 ) ) ;
#913 = CARTESIAN_POINT ( 'NONE',  ( -117.0000000000000284, -25.50000000000000355, 3.000000000000000000 ) ) ;
#914 = DIRECTION ( 'NONE',  ( -1.000000000000000000, 0.000000000000000000, 0.000000000000000000 ) ) ;
#915 = EDGE_CURVE ( 'NONE', #878, #624, #113, .T. ) ;
#916 = DIRECTION ( 'NONE',  ( -0.000000000000000000, -0.000000000000000000, 1.000000000000000000 ) ) ;
#917 = CARTESIAN_POINT ( 'NONE',  ( -79.50000000000000000, 12.50000000000001066, 0.000000000000000000 ) ) ;
#918 = EDGE_LOOP ( 'NONE', ( #749, #881, #474, #160 ) ) ;
#919 = PLANE ( 'NONE',  #469 ) ;
#920 = CARTESIAN_POINT ( 'NONE',  ( -75.00000000000000000, -12.49999999999999112, 0.000000000000000000 ) ) ;
#921 = LOCAL_TIME ( 17, 2, 42.00000000000000000, #485 ) ;
#922 = DIRECTION ( 'NONE',  ( -1.000000000000000000, -2.775557561562891844E-16, 0.000000000000000000 ) ) ;
#923 = VERTEX_POINT ( 'NONE', #1132 ) ;
#924 = VECTOR ( 'NONE', #845, 1000.000000000000000 ) ;
#925 = VERTEX_POINT ( 'NONE', #583 ) ;
#926 = EDGE_CURVE ( 'NONE', #1134, #971, #981, .T. ) ;
#927 = FACE_BOUND ( 'NONE', #440, .T. ) ;
#928 = LINE ( 'NONE', #846, #1067 ) ;
#929 = CARTESIAN_POINT ( 'NONE',  ( -129.5000000000000284, -12.49999999999998934, 0.000000000000000000 ) ) ;
#930 = ORIENTED_EDGE ( 'NONE', *, *, #800, .T. ) ;
#931 = EDGE_CURVE ( 'NONE', #558, #576, #251, .T. ) ;
#932 = ORIENTED_EDGE ( 'NONE', *, *, #1123, .F. ) ;
#933 = DIRECTION ( 'NONE',  ( -1.000000000000000000, -0.000000000000000000, -0.000000000000000000 ) ) ;
#934 = DIRECTION ( 'NONE',  ( -0.000000000000000000, -0.000000000000000000, 1.000000000000000000 ) ) ;
#935 = DIRECTION ( 'NONE',  ( 0.000000000000000000, 1.000000000000000000, 0.000000000000000000 ) ) ;
#936 = VERTEX_POINT ( 'NONE', #893 ) ;
#937 = VECTOR ( 'NONE', #1215, 1000.000000000000000 ) ;
#938 = ORIENTED_EDGE ( 'NONE', *, *, #850, .T. ) ;
#939 =( NAMED_UNIT ( * ) PLANE_ANGLE_UNIT ( ) SI_UNIT ( $, .RADIAN. ) );
#940 = DIRECTION ( 'NONE',  ( 1.000000000000000000, 0.000000000000000000, 0.000000000000000000 ) ) ;
#941 = DIRECTION ( 'NONE',  ( -0.000000000000000000, -1.000000000000000000, -0.000000000000000000 ) ) ;
#942 = ORIENTED_EDGE ( 'NONE', *, *, #1230, .T. ) ;
#943 = EDGE_CURVE ( 'NONE', #805, #716, #1199, .T. ) ;
#944 = VECTOR ( 'NONE', #1128, 1000.000000000000000 ) ;
#945 = ORIENTED_EDGE ( 'NONE', *, *, #183, .T. ) ;
#946 = VECTOR ( 'NONE', #344, 1000.000000000000000 ) ;
#947 =( LENGTH_UNIT ( ) NAMED_UNIT ( * ) SI_UNIT ( .MILLI., .METRE. ) );
#948 = LINE ( 'NONE', #646, #1005 ) ;
#949 = DIRECTION ( 'NONE',  ( -0.000000000000000000, -0.000000000000000000, -1.000000000000000000 ) ) ;
#950 = VERTEX_POINT ( 'NONE', #1161 ) ;
#951 = VERTEX_POINT ( 'NONE', #1065 ) ;
#952 = DIRECTION ( 'NONE',  ( 0.000000000000000000, 1.000000000000000000, 0.000000000000000000 ) ) ;
#953 = LINE ( 'NONE', #459, #1107 ) ;
#954 = ORIENTED_EDGE ( 'NONE', *, *, #585, .T. ) ;
#955 = ADVANCED_FACE ( 'NONE', ( #79 ), #366, .F. ) ;
#956 = LINE ( 'NONE', #500, #57 ) ;
#957 = VERTEX_POINT ( 'NONE', #72 ) ;
#958 = VECTOR ( 'NONE', #916, 1000.000000000000000 ) ;
#959 = DIRECTION ( 'NONE',  ( 1.000000000000000000, -0.000000000000000000, -0.000000000000000000 ) ) ;
#960 = DIRECTION ( 'NONE',  ( -0.000000000000000000, -0.000000000000000000, 1.000000000000000000 ) ) ;
#961 = DIRECTION ( 'NONE',  ( -1.000000000000000000, -0.000000000000000000, -0.000000000000000000 ) ) ;
#962 = LOCAL_TIME ( 17, 2, 42.00000000000000000, #581 ) ;
#963 = AXIS2_PLACEMENT_3D ( 'NONE', #1275, #1064, #157 ) ;
#964 = ORIENTED_EDGE ( 'NONE', *, *, #235, .T. ) ;
#965 = ORIENTED_EDGE ( 'NONE', *, *, #943, .F. ) ;
#966 = CARTESIAN_POINT ( 'NONE',  ( -79.50000000000001421, -12.49999999999999112, 3.000000000000000000 ) ) ;
#967 = ADVANCED_FACE ( 'NONE', ( #281 ), #662, .F. ) ;
#968 = AXIS2_PLACEMENT_3D ( 'NONE', #508, #633, #1119 ) ;
#969 = LINE ( 'NONE', #151, #117 ) ;
#970 = AXIS2_PLACEMENT_3D ( 'NONE', #292, #989, #698 ) ;
#971 = VERTEX_POINT ( 'NONE', #1299 ) ;
#972 = APPROVAL_ROLE ( '' ) ;
#973 = CARTESIAN_POINT ( 'NONE',  ( 134.0000000000000284, 12.50000000000004619, 0.000000000000000000 ) ) ;
#974 = ORIENTED_EDGE ( 'NONE', *, *, #1123, .T. ) ;
#975 = CALENDAR_DATE ( 2026, 27, 5 ) ;
#976 = PLANE ( 'NONE',  #1243 ) ;
#977 = ADVANCED_FACE ( 'NONE', ( #885 ), #88, .F. ) ;
#978 = ORIENTED_EDGE ( 'NONE', *, *, #588, .T. ) ;
#979 = VERTEX_POINT ( 'NONE', #1292 ) ;
#980 = DATE_TIME_ROLE ( 'creation_date' ) ;
#981 = LINE ( 'NONE', #1055, #269 ) ;
#982 = CARTESIAN_POINT ( 'NONE',  ( -117.0000000000000284, -25.50000000000000355, 0.000000000000000000 ) ) ;
#983 = VECTOR ( 'NONE', #247, 1000.000000000000000 ) ;
#984 = EDGE_CURVE ( 'NONE', #538, #221, #1189, .T. ) ;
#985 = CARTESIAN_POINT ( 'NONE',  ( 75.00000000000002842, -12.49999999999997158, 0.000000000000000000 ) ) ;
#986 = EDGE_LOOP ( 'NONE', ( #567, #319, #65, #231 ) ) ;
#987 = ORIENTED_EDGE ( 'NONE', *, *, #98, .T. ) ;
#988 = DATE_TIME_ROLE ( 'classification_date' ) ;
#989 = DIRECTION ( 'NONE',  ( -0.000000000000000000, 1.000000000000000000, 0.000000000000000000 ) ) ;
#990 = DIRECTION ( 'NONE',  ( -0.000000000000000000, -0.000000000000000000, 1.000000000000000000 ) ) ;
#991 = DIRECTION ( 'NONE',  ( -1.665334536937734811E-15, 1.000000000000000000, 0.000000000000000000 ) ) ;
#992 = EDGE_CURVE ( 'NONE', #684, #71, #956, .T. ) ;
#993 = VERTEX_POINT ( 'NONE', #1060 ) ;
#994 = ORIENTED_EDGE ( 'NONE', *, *, #405, .F. ) ;
#995 = EDGE_CURVE ( 'NONE', #75, #1169, #900, .T. ) ;
#996 = CARTESIAN_POINT ( 'NONE',  ( 79.50000000000000000, 12.50000000000003020, 0.000000000000000000 ) ) ;
#997 = LINE ( 'NONE', #712, #564 ) ;
#998 = AXIS2_PLACEMENT_3D ( 'NONE', #1300, #1314, #817 ) ;
#999 = PLANE ( 'NONE',  #387 ) ;
#1000 = LINE ( 'NONE', #418, #1173 ) ;
#1001 = VERTEX_POINT ( 'NONE', #402 ) ;
#1002 = VECTOR ( 'NONE', #1304, 1000.000000000000000 ) ;
#1003 = CARTESIAN_POINT ( 'NONE',  ( 117.0000000000000284, 25.50000000000002842, 3.000000000000000000 ) ) ;
#1004 = CARTESIAN_POINT ( 'NONE',  ( -117.0000000000000284, 25.50000000000000355, 0.000000000000000000 ) ) ;
#1005 = VECTOR ( 'NONE', #1046, 1000.000000000000000 ) ;
#1006 = CARTESIAN_POINT ( 'NONE',  ( -92.00000000000004263, 25.50000000000000355, 0.000000000000000000 ) ) ;
#1007 = VECTOR ( 'NONE', #182, 1000.000000000000000 ) ;
#1008 = LINE ( 'NONE', #1295, #1002 ) ;
#1009 = ORIENTED_EDGE ( 'NONE', *, *, #280, .T. ) ;
#1010 = ADVANCED_FACE ( 'NONE', ( #1154 ), #244, .F. ) ;
#1011 = VECTOR ( 'NONE', #769, 1000.000000000000000 ) ;
#1012 = LINE ( 'NONE', #1098, #8 ) ;
#1013 = CARTESIAN_POINT ( 'NONE',  ( -117.0000000000000284, 25.50000000000000355, 0.000000000000000000 ) ) ;
#1014 = CARTESIAN_POINT ( 'NONE',  ( -92.00000000000004263, 25.50000000000000355, 0.000000000000000000 ) ) ;
#1015 = CC_DESIGN_PERSON_AND_ORGANIZATION_ASSIGNMENT ( #883, #391, ( #1129 ) ) ;
#1016 = ORIENTED_EDGE ( 'NONE', *, *, #1166, .F. ) ;
#1017 = PLANE ( 'NONE',  #968 ) ;
#1018 = PLANE ( 'NONE',  #998 ) ;
#1019 = DIRECTION ( 'NONE',  ( 1.000000000000000000, 0.000000000000000000, 0.000000000000000000 ) ) ;
#1020 = ORIENTED_EDGE ( 'NONE', *, *, #752, .F. ) ;
#1021 = AXIS2_PLACEMENT_3D ( 'NONE', #1006, #1324, #613 ) ;
#1022 = CARTESIAN_POINT ( 'NONE',  ( 75.00000000000002842, -12.49999999999997158, 0.000000000000000000 ) ) ;
#1023 = EDGE_CURVE ( 'NONE', #475, #1134, #565, .T. ) ;
#1024 = ORIENTED_EDGE ( 'NONE', *, *, #325, .F. ) ;
#1025 = DIRECTION ( 'NONE',  ( -1.000000000000000000, -2.775557561562891844E-16, 0.000000000000000000 ) ) ;
#1026 = DIRECTION ( 'NONE',  ( 0.000000000000000000, 0.000000000000000000, -1.000000000000000000 ) ) ;
#1027 = CC_DESIGN_SECURITY_CLASSIFICATION ( #1195, ( #1129 ) ) ;
#1028 = AXIS2_PLACEMENT_3D ( 'NONE', #1078, #768, #49 ) ;
#1029 = LINE ( 'NONE', #120, #844 ) ;
#1030 = ORIENTED_EDGE ( 'NONE', *, *, #1133, .T. ) ;
#1031 = CARTESIAN_POINT ( 'NONE',  ( -75.00000000000000000, -12.49999999999999112, 0.000000000000000000 ) ) ;
#1032 = EDGE_CURVE ( 'NONE', #1297, #168, #1270, .T. ) ;
#1033 = VECTOR ( 'NONE', #539, 1000.000000000000000 ) ;
#1034 = ORIENTED_EDGE ( 'NONE', *, *, #493, .T. ) ;
#1035 = LINE ( 'NONE', #127, #1033 ) ;
#1036 = CARTESIAN_POINT ( 'NONE',  ( 117.0000000000000568, -25.49999999999997513, 0.000000000000000000 ) ) ;
#1037 = CARTESIAN_POINT ( 'NONE',  ( 117.0000000000000284, 25.50000000000002842, 0.000000000000000000 ) ) ;
#1038 = ORIENTED_EDGE ( 'NONE', *, *, #260, .T. ) ;
#1039 = ORIENTED_EDGE ( 'NONE', *, *, #660, .F. ) ;
#1040 = DIRECTION ( 'NONE',  ( -0.000000000000000000, -0.000000000000000000, 1.000000000000000000 ) ) ;
#1041 = LINE ( 'NONE', #234, #944 ) ;
#1042 = CARTESIAN_POINT ( 'NONE',  ( 134.0000000000000284, 12.50000000000004619, 0.000000000000000000 ) ) ;
#1043 = ORIENTED_EDGE ( 'NONE', *, *, #995, .F. ) ;
#1044 = ORIENTED_EDGE ( 'NONE', *, *, #166, .T. ) ;
#1045 = DIRECTION ( 'NONE',  ( 0.000000000000000000, -1.000000000000000000, 0.000000000000000000 ) ) ;
#1046 = DIRECTION ( 'NONE',  ( 1.000000000000000000, 3.854941057726234153E-16, -0.000000000000000000 ) ) ;
#1047 = DIRECTION ( 'NONE',  ( -1.000000000000000000, -0.000000000000000000, -0.000000000000000000 ) ) ;
#1048 = ORIENTED_EDGE ( 'NONE', *, *, #1187, .F. ) ;
#1049 = EDGE_LOOP ( 'NONE', ( #480, #441, #1263, #793 ) ) ;
#1050 = ADVANCED_FACE ( 'NONE', ( #52 ), #871, .F. ) ;
#1051 = CARTESIAN_POINT ( 'NONE',  ( -117.0000000000000284, -25.50000000000000355, 0.000000000000000000 ) ) ;
#1052 = ADVANCED_FACE ( 'NONE', ( #486 ), #592, .F. ) ;
#1053 = CARTESIAN_POINT ( 'NONE',  ( -134.0000000000000284, -12.49999999999998934, 0.000000000000000000 ) ) ;
#1054 = ORIENTED_EDGE ( 'NONE', *, *, #277, .T. ) ;
#1055 = CARTESIAN_POINT ( 'NONE',  ( 129.5000000000000284, 12.50000000000004441, 0.000000000000000000 ) ) ;
#1056 = ORIENTED_EDGE ( 'NONE', *, *, #325, .T. ) ;
#1057 = DIRECTION ( 'NONE',  ( 1.000000000000000000, 3.854941057726234153E-16, -0.000000000000000000 ) ) ;
#1058 = DIRECTION ( 'NONE',  ( -0.000000000000000000, -0.000000000000000000, -1.000000000000000000 ) ) ;
#1059 = FACE_OUTER_BOUND ( 'NONE', #1079, .T. ) ;
#1060 = CARTESIAN_POINT ( 'NONE',  ( 92.00000000000004263, 25.50000000000002132, 0.000000000000000000 ) ) ;
#1061 = ORIENTED_EDGE ( 'NONE', *, *, #1176, .T. ) ;
#1062 = EDGE_CURVE ( 'NONE', #130, #1185, #187, .T. ) ;
#1063 = DIRECTION ( 'NONE',  ( 1.000000000000000000, 2.775557561562891844E-16, -0.000000000000000000 ) ) ;
#1064 = DIRECTION ( 'NONE',  ( -2.775557561562891844E-16, 1.000000000000000000, 0.000000000000000000 ) ) ;
#1065 = CARTESIAN_POINT ( 'NONE',  ( -75.00000000000000000, -12.49999999999999112, 3.000000000000000000 ) ) ;
#1066 = ORIENTED_EDGE ( 'NONE', *, *, #700, .F. ) ;
#1067 = VECTOR ( 'NONE', #437, 1000.000000000000000 ) ;
#1068 = ORIENTED_EDGE ( 'NONE', *, *, #53, .T. ) ;
#1069 = PERSON_AND_ORGANIZATION ( #272, #50 ) ;
#1070 = CARTESIAN_POINT ( 'NONE',  ( -129.5000000000000284, -12.49999999999998934, 0.000000000000000000 ) ) ;
#1071 = VECTOR ( 'NONE', #30, 1000.000000000000000 ) ;
#1072 = ORIENTED_EDGE ( 'NONE', *, *, #864, .F. ) ;
#1073 = PERSON_AND_ORGANIZATION_ROLE ( 'classification_officer' ) ;
#1074 = CARTESIAN_POINT ( 'NONE',  ( -117.0000000000000284, -21.00000000000000000, -0.000000000000000000 ) ) ;
#1075 = EDGE_CURVE ( 'NONE', #1169, #848, #323, .T. ) ;
#1076 = VERTEX_POINT ( 'NONE', #1003 ) ;
#1077 = VERTEX_POINT ( 'NONE', #823 ) ;
#1078 = CARTESIAN_POINT ( 'NONE',  ( -134.0000000000000284, -12.49999999999998934, 0.000000000000000000 ) ) ;
#1079 = EDGE_LOOP ( 'NONE', ( #942, #76, #1122, #1286 ) ) ;
#1080 = CC_DESIGN_APPROVAL ( #1089, ( #60 ) ) ;
#1081 = VERTEX_POINT ( 'NONE', #192 ) ;
#1082 = DATE_AND_TIME ( #471, #962 ) ;
#1083 = CARTESIAN_POINT ( 'NONE',  ( -117.0000000000000284, -21.00000000000000000, 0.000000000000000000 ) ) ;
#1084 = CARTESIAN_POINT ( 'NONE',  ( -134.0000000000000284, -12.49999999999998934, 3.000000000000000000 ) ) ;
#1085 = ADVANCED_FACE ( 'NONE', ( #106 ), #919, .F. ) ;
#1086 = VECTOR ( 'NONE', #1057, 1000.000000000000000 ) ;
#1087 = LINE ( 'NONE', #189, #108 ) ;
#1088 = DIRECTION ( 'NONE',  ( 0.000000000000000000, -1.000000000000000000, 0.000000000000000000 ) ) ;
#1089 = APPROVAL ( #689, 'UNSPECIFIED' ) ;
#1090 = ORIENTED_EDGE ( 'NONE', *, *, #125, .F. ) ;
#1091 = ORIENTED_EDGE ( 'NONE', *, *, #173, .T. ) ;
#1092 = APPROVAL_ROLE ( '' ) ;
#1093 = DIRECTION ( 'NONE',  ( 0.000000000000000000, -1.000000000000000000, 0.000000000000000000 ) ) ;
#1094 = CARTESIAN_POINT ( 'NONE',  ( 117.0000000000000284, 21.00000000000002842, 0.000000000000000000 ) ) ;
#1095 = PLANE ( 'NONE',  #1021 ) ;
#1096 = LINE ( 'NONE', #309, #842 ) ;
#1097 = VERTEX_POINT ( 'NONE', #711 ) ;
#1098 = CARTESIAN_POINT ( 'NONE',  ( -79.50000000000001421, -12.49999999999999112, 0.000000000000000000 ) ) ;
#1099 = CARTESIAN_POINT ( 'NONE',  ( 117.0000000000000568, -25.49999999999997513, 0.000000000000000000 ) ) ;
#1100 = AXIS2_PLACEMENT_3D ( 'NONE', #787, #1221, #306 ) ;
#1101 = FACE_OUTER_BOUND ( 'NONE', #372, .T. ) ;
#1102 = CARTESIAN_POINT ( 'NONE',  ( 117.0000000000000568, -25.49999999999997513, 3.000000000000000000 ) ) ;
#1103 = ORIENTED_EDGE ( 'NONE', *, *, #78, .T. ) ;
#1104 = DIRECTION ( 'NONE',  ( 0.000000000000000000, 0.000000000000000000, -1.000000000000000000 ) ) ;
#1105 = APPROVAL ( #268, 'UNSPECIFIED' ) ;
#1106 = DIRECTION ( 'NONE',  ( 1.000000000000000000, 0.000000000000000000, 0.000000000000000000 ) ) ;
#1107 = VECTOR ( 'NONE', #861, 1000.000000000000000 ) ;
#1108 = DIRECTION ( 'NONE',  ( 1.000000000000000000, 3.854941057726234153E-16, 0.000000000000000000 ) ) ;
#1109 = CARTESIAN_POINT ( 'NONE',  ( 134.0000000000000284, -12.49999999999995559, 3.000000000000000000 ) ) ;
#1110 = ORIENTED_EDGE ( 'NONE', *, *, #759, .F. ) ;
#1111 = LINE ( 'NONE', #1220, #869 ) ;
#1112 = CARTESIAN_POINT ( 'NONE',  ( -117.0000000000000284, 21.00000000000000000, 0.000000000000000000 ) ) ;
#1113 = FACE_OUTER_BOUND ( 'NONE', #709, .T. ) ;
#1114 = ORIENTED_EDGE ( 'NONE', *, *, #69, .T. ) ;
#1115 = EDGE_CURVE ( 'NONE', #757, #848, #1127, .T. ) ;
#1116 = DESIGN_CONTEXT ( 'detailed design', #449, 'design' ) ;
#1117 = DIRECTION ( 'NONE',  ( -0.000000000000000000, 1.000000000000000000, -0.000000000000000000 ) ) ;
#1118 = VERTEX_POINT ( 'NONE', #1232 ) ;
#1119 = DIRECTION ( 'NONE',  ( 0.000000000000000000, 0.000000000000000000, -1.000000000000000000 ) ) ;
#1120 = CARTESIAN_POINT ( 'NONE',  ( 147.4999999999999716, -50.00000000000000000, 3.000000000000000000 ) ) ;
#1121 = LINE ( 'NONE', #547, #676 ) ;
#1122 = ORIENTED_EDGE ( 'NONE', *, *, #585, .F. ) ;
#1123 = EDGE_CURVE ( 'NONE', #558, #28, #1012, .T. ) ;
#1124 = VECTOR ( 'NONE', #104, 1000.000000000000000 ) ;
#1125 = CARTESIAN_POINT ( 'NONE',  ( -129.5000000000000284, -12.49999999999998934, 0.000000000000000000 ) ) ;
#1126 = VERTEX_POINT ( 'NONE', #1208 ) ;
#1127 = LINE ( 'NONE', #806, #803 ) ;
#1128 = DIRECTION ( 'NONE',  ( -0.000000000000000000, -0.000000000000000000, 1.000000000000000000 ) ) ;
#1129 = PRODUCT_DEFINITION_FORMATION_WITH_SPECIFIED_SOURCE ( 'ANY', '', #327, .NOT_KNOWN. ) ;
#1130 = PLANE ( 'NONE',  #94 ) ;
#1131 = ORIENTED_EDGE ( 'NONE', *, *, #455, .F. ) ;
#1132 = CARTESIAN_POINT ( 'NONE',  ( 117.0000000000000284, 25.50000000000002842, 0.000000000000000000 ) ) ;
#1133 = EDGE_CURVE ( 'NONE', #657, #221, #95, .T. ) ;
#1134 = VERTEX_POINT ( 'NONE', #717 ) ;
#1135 = CARTESIAN_POINT ( 'NONE',  ( -147.5000000000000284, -50.00000000000000000, 0.000000000000000000 ) ) ;
#1136 = DIRECTION ( 'NONE',  ( 1.000000000000000000, -0.000000000000000000, 0.000000000000000000 ) ) ;
#1137 = DIRECTION ( 'NONE',  ( 0.000000000000000000, 0.000000000000000000, -1.000000000000000000 ) ) ;
#1138 = EDGE_LOOP ( 'NONE', ( #862, #687, #216, #457 ) ) ;
#1139 = CARTESIAN_POINT ( 'NONE',  ( -134.0000000000000284, 12.50000000000001243, 3.000000000000000000 ) ) ;
#1140 = VERTEX_POINT ( 'NONE', #4 ) ;
#1141 = VECTOR ( 'NONE', #719, 1000.000000000000000 ) ;
#1142 = LINE ( 'NONE', #640, #362 ) ;
#1143 = DIRECTION ( 'NONE',  ( -0.000000000000000000, -1.000000000000000000, -0.000000000000000000 ) ) ;
#1144 = CARTESIAN_POINT ( 'NONE',  ( -79.50000000000001421, -12.49999999999999112, 3.000000000000000000 ) ) ;
#1145 = ORIENTED_EDGE ( 'NONE', *, *, #551, .T. ) ;
#1146 = EDGE_CURVE ( 'NONE', #555, #538, #1111, .T. ) ;
#1147 = ORIENTED_EDGE ( 'NONE', *, *, #1062, .T. ) ;
#1148 = ORIENTED_EDGE ( 'NONE', *, *, #915, .F. ) ;
#1149 = DIRECTION ( 'NONE',  ( 1.000000000000000000, 0.000000000000000000, 0.000000000000000000 ) ) ;
#1150 = FACE_OUTER_BOUND ( 'NONE', #111, .T. ) ;
#1151 = ADVANCED_FACE ( 'NONE', ( #12 ), #1017, .F. ) ;
#1152 = CARTESIAN_POINT ( 'NONE',  ( -134.0000000000000284, -12.49999999999998934, 0.000000000000000000 ) ) ;
#1153 = ORIENTED_EDGE ( 'NONE', *, *, #877, .F. ) ;
#1154 = FACE_OUTER_BOUND ( 'NONE', #1248, .T. ) ;
#1155 = VECTOR ( 'NONE', #559, 1000.000000000000000 ) ;
#1156 = EDGE_LOOP ( 'NONE', ( #1145, #649, #572, #273 ) ) ;
#1157 = AXIS2_PLACEMENT_3D ( 'NONE', #209, #1104, #611 ) ;
#1158 = DIRECTION ( 'NONE',  ( -0.000000000000000000, -0.000000000000000000, 1.000000000000000000 ) ) ;
#1159 = CARTESIAN_POINT ( 'NONE',  ( 117.0000000000000568, -25.49999999999997513, 3.000000000000000000 ) ) ;
#1160 = EDGE_CURVE ( 'NONE', #85, #1081, #300, .T. ) ;
#1161 = CARTESIAN_POINT ( 'NONE',  ( -117.0000000000000284, -25.50000000000000355, 3.000000000000000000 ) ) ;
#1162 = ADVANCED_FACE ( 'NONE', ( #1214, #421, #907, #316, #722, #927, #729, #415, #305 ), #198, .F. ) ;
#1163 = VERTEX_POINT ( 'NONE', #625 ) ;
#1164 = EDGE_LOOP ( 'NONE', ( #964, #703, #650, #1289 ) ) ;
#1165 = LINE ( 'NONE', #156, #761 ) ;
#1166 = EDGE_CURVE ( 'NONE', #37, #950, #429, .T. ) ;
#1167 = DIRECTION ( 'NONE',  ( 0.000000000000000000, 0.000000000000000000, 1.000000000000000000 ) ) ;
#1168 = DIRECTION ( 'NONE',  ( 0.000000000000000000, -0.000000000000000000, -1.000000000000000000 ) ) ;
#1169 = VERTEX_POINT ( 'NONE', #1313 ) ;
#1170 = VECTOR ( 'NONE', #940, 1000.000000000000000 ) ;
#1171 = APPLICATION_PROTOCOL_DEFINITION ( 'international standard', 'config_control_design', 1994, #432 ) ;
#1172 = FACE_OUTER_BOUND ( 'NONE', #1164, .T. ) ;
#1173 = VECTOR ( 'NONE', #1117, 1000.000000000000000 ) ;
#1174 = VERTEX_POINT ( 'NONE', #514 ) ;
#1175 = DIRECTION ( 'NONE',  ( 1.000000000000000000, 0.000000000000000000, 0.000000000000000000 ) ) ;
#1176 = EDGE_CURVE ( 'NONE', #1185, #576, #1035, .T. ) ;
#1177 = LINE ( 'NONE', #718, #326 ) ;
#1178 = VECTOR ( 'NONE', #1088, 1000.000000000000000 ) ;
#1179 = ORIENTED_EDGE ( 'NONE', *, *, #1254, .F. ) ;
#1180 = EDGE_LOOP ( 'NONE', ( #1228, #1131, #695, #1009 ) ) ;
#1181 = APPROVAL_ROLE ( '' ) ;
#1182 = DIRECTION ( 'NONE',  ( -1.000000000000000000, 0.000000000000000000, 0.000000000000000000 ) ) ;
#1183 = VECTOR ( 'NONE', #129, 1000.000000000000000 ) ;
#1184 = ORIENTED_EDGE ( 'NONE', *, *, #995, .T. ) ;
#1185 = VERTEX_POINT ( 'NONE', #605 ) ;
#1186 = SECURITY_CLASSIFICATION_LEVEL ( 'unclassified' ) ;
#1187 = EDGE_CURVE ( 'NONE', #950, #261, #408, .T. ) ;
#1188 = VECTOR ( 'NONE', #358, 1000.000000000000000 ) ;
#1189 = LINE ( 'NONE', #1308, #1155 ) ;
#1190 = CARTESIAN_POINT ( 'NONE',  ( -117.0000000000000284, 25.50000000000000355, 3.000000000000000000 ) ) ;
#1191 = EDGE_CURVE ( 'NONE', #1282, #805, #742, .T. ) ;
#1192 = FACE_OUTER_BOUND ( 'NONE', #446, .T. ) ;
#1193 = LINE ( 'NONE', #615, #1178 ) ;
#1194 = ORIENTED_EDGE ( 'NONE', *, *, #260, .F. ) ;
#1195 = SECURITY_CLASSIFICATION ( '', '', #1186 ) ;
#1196 = VECTOR ( 'NONE', #762, 1000.000000000000000 ) ;
#1197 = EDGE_LOOP ( 'NONE', ( #11, #507, #144, #25 ) ) ;
#1198 = PERSON_AND_ORGANIZATION_ROLE ( 'creator' ) ;
#1199 = LINE ( 'NONE', #996, #586 ) ;
#1200 = DIRECTION ( 'NONE',  ( -0.000000000000000000, -1.000000000000000000, -0.000000000000000000 ) ) ;
#1201 = VECTOR ( 'NONE', #1322, 1000.000000000000000 ) ;
#1202 = PLANE ( 'NONE',  #789 ) ;
#1203 = VECTOR ( 'NONE', #961, 1000.000000000000000 ) ;
#1204 = EDGE_CURVE ( 'NONE', #576, #951, #868, .T. ) ;
#1205 = LINE ( 'NONE', #1102, #91 ) ;
#1206 = ORIENTED_EDGE ( 'NONE', *, *, #573, .F. ) ;
#1207 = ORIENTED_EDGE ( 'NONE', *, *, #10, .T. ) ;
#1208 = CARTESIAN_POINT ( 'NONE',  ( 92.00000000000004263, 21.00000000000002132, 3.000000000000000000 ) ) ;
#1209 = DIRECTION ( 'NONE',  ( -1.000000000000000000, -0.000000000000000000, -0.000000000000000000 ) ) ;
#1210 = CARTESIAN_POINT ( 'NONE',  ( 134.0000000000000284, -12.49999999999995559, 0.000000000000000000 ) ) ;
#1211 = VECTOR ( 'NONE', #922, 1000.000000000000000 ) ;
#1212 = FACE_BOUND ( 'NONE', #764, .T. ) ;
#1213 = ORIENTED_EDGE ( 'NONE', *, *, #1062, .F. ) ;
#1214 = FACE_BOUND ( 'NONE', #1256, .T. ) ;
#1215 = DIRECTION ( 'NONE',  ( 1.000000000000000000, 2.775557561562891844E-16, -0.000000000000000000 ) ) ;
#1216 = LINE ( 'NONE', #307, #681 ) ;
#1217 = CARTESIAN_POINT ( 'NONE',  ( 0.000000000000000000, 0.000000000000000000, 0.000000000000000000 ) ) ;
#1218 = ORIENTED_EDGE ( 'NONE', *, *, #283, .F. ) ;
#1219 = EDGE_CURVE ( 'NONE', #757, #1282, #364, .T. ) ;
#1220 = CARTESIAN_POINT ( 'NONE',  ( 117.0000000000000568, -20.99999999999997513, 3.000000000000000000 ) ) ;
#1221 = DIRECTION ( 'NONE',  ( -2.775557561562891844E-16, 1.000000000000000000, 0.000000000000000000 ) ) ;
#1222 = DIRECTION ( 'NONE',  ( -1.000000000000000000, 0.000000000000000000, -0.000000000000000000 ) ) ;
#1223 = PLANE ( 'NONE',  #503 ) ;
#1224 = ORIENTED_EDGE ( 'NONE', *, *, #1204, .F. ) ;
#1225 = DIRECTION ( 'NONE',  ( 2.775557561562891844E-16, -1.000000000000000000, 0.000000000000000000 ) ) ;
#1226 = PLANE ( 'NONE',  #442 ) ;
#1227 = DIRECTION ( 'NONE',  ( 1.000000000000000000, -0.000000000000000000, 0.000000000000000000 ) ) ;
#1228 = ORIENTED_EDGE ( 'NONE', *, *, #1236, .T. ) ;
#1229 = ORIENTED_EDGE ( 'NONE', *, *, #389, .F. ) ;
#1230 = EDGE_CURVE ( 'NONE', #1076, #604, #48, .T. ) ;
#1231 = EDGE_CURVE ( 'NONE', #28, #1297, #1165, .T. ) ;
#1232 = CARTESIAN_POINT ( 'NONE',  ( 117.0000000000000568, -25.49999999999997513, 3.000000000000000000 ) ) ;
#1233 = FACE_OUTER_BOUND ( 'NONE', #616, .T. ) ;
#1234 = DIRECTION ( 'NONE',  ( 1.110223024625156343E-15, -1.000000000000000000, 0.000000000000000000 ) ) ;
#1235 = ORIENTED_EDGE ( 'NONE', *, *, #114, .T. ) ;
#1236 = EDGE_CURVE ( 'NONE', #834, #85, #853, .T. ) ;
#1237 = VECTOR ( 'NONE', #618, 1000.000000000000000 ) ;
#1238 = DIRECTION ( 'NONE',  ( 1.000000000000000000, -0.000000000000000000, 0.000000000000000000 ) ) ;
#1239 = ORIENTED_EDGE ( 'NONE', *, *, #537, .T. ) ;
#1240 = DIRECTION ( 'NONE',  ( 0.000000000000000000, -0.000000000000000000, -1.000000000000000000 ) ) ;
#1241 = AXIS2_PLACEMENT_3D ( 'NONE', #917, #1317, #490 ) ;
#1242 = PLANE ( 'NONE',  #776 ) ;
#1243 = AXIS2_PLACEMENT_3D ( 'NONE', #686, #374, #73 ) ;
#1244 = CARTESIAN_POINT ( 'NONE',  ( 75.00000000000002842, -12.49999999999997158, 0.000000000000000000 ) ) ;
#1245 = ORIENTED_EDGE ( 'NONE', *, *, #752, .T. ) ;
#1246 = AXIS2_PLACEMENT_3D ( 'NONE', #737, #1136, #1026 ) ;
#1247 = CARTESIAN_POINT ( 'NONE',  ( -117.0000000000000284, -25.50000000000000355, 3.000000000000000000 ) ) ;
#1248 = EDGE_LOOP ( 'NONE', ( #1184, #569, #965, #765 ) ) ;
#1249 = DIRECTION ( 'NONE',  ( -0.000000000000000000, -0.000000000000000000, 1.000000000000000000 ) ) ;
#1250 = LINE ( 'NONE', #422, #331 ) ;
#1251 = AXIS2_PLACEMENT_3D ( 'NONE', #1031, #1238, #207 ) ;
#1252 = DIRECTION ( 'NONE',  ( -1.665334536937734613E-15, 1.000000000000000000, 0.000000000000000000 ) ) ;
#1253 = ORIENTED_EDGE ( 'NONE', *, *, #660, .T. ) ;
#1254 = EDGE_CURVE ( 'NONE', #261, #979, #556, .T. ) ;
#1255 = CARTESIAN_POINT ( 'NONE',  ( -134.0000000000000284, -12.49999999999998934, 0.000000000000000000 ) ) ;
#1256 = EDGE_LOOP ( 'NONE', ( #589, #105, #792, #1321 ) ) ;
#1257 = APPROVAL ( #476, 'UNSPECIFIED' ) ;
#1258 = CARTESIAN_POINT ( 'NONE',  ( 79.50000000000004263, -12.49999999999997158, 0.000000000000000000 ) ) ;
#1259 = CARTESIAN_POINT ( 'NONE',  ( -75.00000000000000000, -12.49999999999999112, 3.000000000000000000 ) ) ;
#1260 = LINE ( 'NONE', #1053, #946 ) ;
#1261 = EDGE_LOOP ( 'NONE', ( #664, #610, #1218, #513 ) ) ;
#1262 = DIRECTION ( 'NONE',  ( -0.000000000000000000, -1.000000000000000000, -0.000000000000000000 ) ) ;
#1263 = ORIENTED_EDGE ( 'NONE', *, *, #1191, .F. ) ;
#1264 = CARTESIAN_POINT ( 'NONE',  ( 79.50000000000004263, -12.49999999999997158, 0.000000000000000000 ) ) ;
#1265 = LINE ( 'NONE', #659, #1188 ) ;
#1266 = EDGE_CURVE ( 'NONE', #388, #1001, #1142, .T. ) ;
#1267 = EDGE_LOOP ( 'NONE', ( #93, #245, #1153, #978 ) ) ;
#1268 = APPROVAL_PERSON_ORGANIZATION ( #1291, #1105, #1181 ) ;
#1269 = VECTOR ( 'NONE', #61, 1000.000000000000000 ) ;
#1270 = LINE ( 'NONE', #763, #1203 ) ;
#1271 = ORIENTED_EDGE ( 'NONE', *, *, #1231, .T. ) ;
#1272 = AXIS2_PLACEMENT_3D ( 'NONE', #666, #357, #860 ) ;
#1273 = LINE ( 'NONE', #651, #696 ) ;
#1274 = EDGE_CURVE ( 'NONE', #1001, #925, #750, .T. ) ;
#1275 = CARTESIAN_POINT ( 'NONE',  ( 117.0000000000000284, 25.50000000000002842, 0.000000000000000000 ) ) ;
#1276 = CARTESIAN_POINT ( 'NONE',  ( -147.5000000000000284, -50.00000000000000000, 3.000000000000000000 ) ) ;
#1277 = ORIENTED_EDGE ( 'NONE', *, *, #551, .F. ) ;
#1278 = DATE_AND_TIME ( #679, #921 ) ;
#1279 = PLANE ( 'NONE',  #1028 ) ;
#1280 = ADVANCED_FACE ( 'NONE', ( #766 ), #838, .F. ) ;
#1281 = ORIENTED_EDGE ( 'NONE', *, *, #824, .F. ) ;
#1282 = VERTEX_POINT ( 'NONE', #1258 ) ;
#1283 = DIRECTION ( 'NONE',  ( -0.000000000000000000, 1.000000000000000000, -0.000000000000000000 ) ) ;
#1284 = EDGE_LOOP ( 'NONE', ( #735, #435, #492, #1306 ) ) ;
#1285 = VECTOR ( 'NONE', #1158, 1000.000000000000000 ) ;
#1286 = ORIENTED_EDGE ( 'NONE', *, *, #294, .T. ) ;
#1287 = CALENDAR_DATE ( 2026, 27, 5 ) ;
#1288 = LINE ( 'NONE', #472, #798 ) ;
#1289 = ORIENTED_EDGE ( 'NONE', *, *, #405, .T. ) ;
#1290 = ORIENTED_EDGE ( 'NONE', *, *, #489, .T. ) ;
#1291 = PERSON_AND_ORGANIZATION ( #272, #50 ) ;
#1292 = CARTESIAN_POINT ( 'NONE',  ( -92.00000000000004263, -21.00000000000000000, 3.000000000000000000 ) ) ;
#1293 = CARTESIAN_POINT ( 'NONE',  ( 147.4999999999999716, 50.00000000000000000, 0.000000000000000000 ) ) ;
#1294 = CARTESIAN_POINT ( 'NONE',  ( -79.50000000000001421, -12.49999999999999112, 0.000000000000000000 ) ) ;
#1295 = CARTESIAN_POINT ( 'NONE',  ( -92.00000000000004263, 21.00000000000000000, 0.000000000000000000 ) ) ;
#1296 = EDGE_LOOP ( 'NONE', ( #1114, #643, #866, #279 ) ) ;
#1297 = VERTEX_POINT ( 'NONE', #149 ) ;
#1298 = PERSON_AND_ORGANIZATION_ROLE ( 'design_owner' ) ;
#1299 = CARTESIAN_POINT ( 'NONE',  ( 129.5000000000000284, 12.50000000000004441, 3.000000000000000000 ) ) ;
#1300 = CARTESIAN_POINT ( 'NONE',  ( 117.0000000000000284, 25.50000000000002842, 0.000000000000000000 ) ) ;
#1301 = EDGE_CURVE ( 'NONE', #1126, #829, #1273, .T. ) ;
#1302 = ADVANCED_FACE ( 'NONE', ( #436 ), #255, .F. ) ;
#1303 = DIRECTION ( 'NONE',  ( 0.000000000000000000, 1.000000000000000000, 0.000000000000000000 ) ) ;
#1304 = DIRECTION ( 'NONE',  ( -0.000000000000000000, -0.000000000000000000, 1.000000000000000000 ) ) ;
#1305 = ORIENTED_EDGE ( 'NONE', *, *, #518, .T. ) ;
#1306 = ORIENTED_EDGE ( 'NONE', *, *, #1115, .T. ) ;
#1307 = EDGE_CURVE ( 'NONE', #957, #1126, #332, .T. ) ;
#1308 = CARTESIAN_POINT ( 'NONE',  ( 92.00000000000007105, -25.49999999999998224, 3.000000000000000000 ) ) ;
#1309 = LINE ( 'NONE', #920, #87 ) ;
#1310 = LINE ( 'NONE', #314, #1141 ) ;
#1311 = FACE_BOUND ( 'NONE', #42, .T. ) ;
#1312 = ORIENTED_EDGE ( 'NONE', *, *, #779, .F. ) ;
#1313 = CARTESIAN_POINT ( 'NONE',  ( 75.00000000000000000, 12.50000000000003020, 3.000000000000000000 ) ) ;
#1314 = DIRECTION ( 'NONE',  ( 1.000000000000000000, 0.000000000000000000, 0.000000000000000000 ) ) ;
#1315 = LINE ( 'NONE', #601, #519 ) ;
#1316 = VECTOR ( 'NONE', #6, 1000.000000000000000 ) ;
#1317 = DIRECTION ( 'NONE',  ( -0.000000000000000000, 1.000000000000000000, 0.000000000000000000 ) ) ;
#1318 = VECTOR ( 'NONE', #1058, 1000.000000000000000 ) ;
#1319 = EDGE_CURVE ( 'NONE', #398, #834, #349, .T. ) ;
#1320 = EDGE_CURVE ( 'NONE', #1097, #376, #227, .T. ) ;
#1321 = ORIENTED_EDGE ( 'NONE', *, *, #694, .F. ) ;
#1322 = DIRECTION ( 'NONE',  ( 1.000000000000000000, 0.000000000000000000, 0.000000000000000000 ) ) ;
#1323 = CARTESIAN_POINT ( 'NONE',  ( -129.5000000000000284, 12.50000000000001243, 3.000000000000000000 ) ) ;
#1324 = DIRECTION ( 'NONE',  ( 1.000000000000000000, 0.000000000000000000, 0.000000000000000000 ) ) ;
#1325 = DIRECTION ( 'NONE',  ( 0.000000000000000000, 1.000000000000000000, 0.000000000000000000 ) ) ;
ENDSEC;
END-ISO-10303-21;
