ISO-10303-21;
HEADER;
FILE_DESCRIPTION (( 'STEP AP203' ),
    '1' );
FILE_NAME ('colunaVazado.STEP',
    '2026-05-27T20:03:38',
    ( '' ),
    ( '' ),
    'SwSTEP 2.0',
    'SolidWorks 2024',
    '' );
FILE_SCHEMA (( 'CONFIG_CONTROL_DESIGN' ));
ENDSEC;

DATA;
#1 = CC_DESIGN_PERSON_AND_ORGANIZATION_ASSIGNMENT ( #289, #171, ( #1255 ) ) ;
#2 = ORIENTED_EDGE ( 'NONE', *, *, #744, .T. ) ;
#3 = DIRECTION ( 'NONE',  ( 0.000000000000000000, 1.000000000000000000, 0.000000000000000000 ) ) ;
#4 = EDGE_CURVE ( 'NONE', #1170, #443, #994, .T. ) ;
#5 = PERSON_AND_ORGANIZATION ( #545, #551 ) ;
#6 = DIRECTION ( 'NONE',  ( 1.000000000000000000, 0.000000000000000000, 0.000000000000000000 ) ) ;
#7 = PLANE ( 'NONE',  #756 ) ;
#8 = DIRECTION ( 'NONE',  ( 1.000000000000000000, 0.000000000000000000, 0.000000000000000000 ) ) ;
#9 = VERTEX_POINT ( 'NONE', #1422 ) ;
#10 = ORIENTED_EDGE ( 'NONE', *, *, #638, .T. ) ;
#11 = DIRECTION ( 'NONE',  ( -0.000000000000000000, -0.000000000000000000, 1.000000000000000000 ) ) ;
#12 = VERTEX_POINT ( 'NONE', #461 ) ;
#13 = DIRECTION ( 'NONE',  ( 0.000000000000000000, 0.000000000000000000, 1.000000000000000000 ) ) ;
#14 = LINE ( 'NONE', #795, #379 ) ;
#15 = ORIENTED_EDGE ( 'NONE', *, *, #350, .T. ) ;
#16 = EDGE_LOOP ( 'NONE', ( #972, #718, #966, #1083 ) ) ;
#17 = DIRECTION ( 'NONE',  ( 0.000000000000000000, 1.000000000000000000, 0.000000000000000000 ) ) ;
#18 = DIRECTION ( 'NONE',  ( 0.000000000000000000, 0.000000000000000000, 1.000000000000000000 ) ) ;
#19 = CARTESIAN_POINT ( 'NONE',  ( 0.000000000000000000, 79.99999999999998579, 0.000000000000000000 ) ) ;
#20 = CARTESIAN_POINT ( 'NONE',  ( 46.00000000000000711, 20.00000000000003197, 4.000000000000000000 ) ) ;
#21 = CARTESIAN_POINT ( 'NONE',  ( 50.00000000000000000, -20.00000000000003197, 4.000000000000000000 ) ) ;
#22 = AXIS2_PLACEMENT_3D ( 'NONE', #1333, #1117, #792 ) ;
#23 = ORIENTED_EDGE ( 'NONE', *, *, #457, .T. ) ;
#24 = ADVANCED_FACE ( 'NONE', ( #1076 ), #1412, .F. ) ;
#25 = EDGE_LOOP ( 'NONE', ( #504, #369, #968, #740 ) ) ;
#26 = CARTESIAN_POINT ( 'NONE',  ( 1.821459649775647449E-14, -100.0000000000000142, 0.000000000000000000 ) ) ;
#27 = VECTOR ( 'NONE', #965, 1000.000000000000000 ) ;
#28 = CARTESIAN_POINT ( 'NONE',  ( 37.00000000000007105, -100.0000000000000000, 4.000000000000000000 ) ) ;
#29 = CARTESIAN_POINT ( 'NONE',  ( 50.00000000000000000, -80.00000000000001421, 0.000000000000000000 ) ) ;
#30 = CARTESIAN_POINT ( 'NONE',  ( 37.00000000000007105, -104.0000000000000142, 4.000000000000000000 ) ) ;
#31 = EDGE_CURVE ( 'NONE', #121, #1257, #1306, .T. ) ;
#32 = CARTESIAN_POINT ( 'NONE',  ( 0.000000000000000000, 39.99999999999997868, 0.000000000000000000 ) ) ;
#33 = VECTOR ( 'NONE', #1144, 1000.000000000000000 ) ;
#34 = ORIENTED_EDGE ( 'NONE', *, *, #105, .T. ) ;
#35 = VECTOR ( 'NONE', #271, 1000.000000000000000 ) ;
#36 = ORIENTED_EDGE ( 'NONE', *, *, #210, .F. ) ;
#37 = DIRECTION ( 'NONE',  ( 1.301042606982605074E-16, -1.000000000000000000, 0.000000000000000000 ) ) ;
#38 = VECTOR ( 'NONE', #1279, 1000.000000000000000 ) ;
#39 = MECHANICAL_CONTEXT ( 'NONE', #1374, 'mechanical' ) ;
#40 = CARTESIAN_POINT ( 'NONE',  ( 50.00000000000000000, 80.00000000000001421, 4.000000000000000000 ) ) ;
#41 = DIRECTION ( 'NONE',  ( -0.000000000000000000, -0.000000000000000000, 1.000000000000000000 ) ) ;
#42 = CARTESIAN_POINT ( 'NONE',  ( 1.457167719820517959E-14, 19.99999999999997513, 0.000000000000000000 ) ) ;
#43 = ORIENTED_EDGE ( 'NONE', *, *, #53, .F. ) ;
#44 = EDGE_LOOP ( 'NONE', ( #1275, #684, #1399, #380 ) ) ;
#45 = CARTESIAN_POINT ( 'NONE',  ( 46.00000000000000711, -20.00000000000003197, 4.000000000000000000 ) ) ;
#46 = DATE_AND_TIME ( #951, #984 ) ;
#47 = LINE ( 'NONE', #696, #284 ) ;
#48 = CARTESIAN_POINT ( 'NONE',  ( 0.000000000000000000, -39.99999999999999289, 0.000000000000000000 ) ) ;
#49 = LINE ( 'NONE', #625, #1042 ) ;
#50 = ORIENTED_EDGE ( 'NONE', *, *, #569, .T. ) ;
#51 = VECTOR ( 'NONE', #107, 1000.000000000000000 ) ;
#52 = EDGE_CURVE ( 'NONE', #322, #763, #1325, .T. ) ;
#53 = EDGE_CURVE ( 'NONE', #974, #705, #751, .T. ) ;
#54 = VERTEX_POINT ( 'NONE', #861 ) ;
#55 = CARTESIAN_POINT ( 'NONE',  ( 46.00000000000000000, -60.00000000000002842, 0.000000000000000000 ) ) ;
#56 = AXIS2_PLACEMENT_3D ( 'NONE', #1320, #8, #892 ) ;
#57 = LINE ( 'NONE', #1221, #146 ) ;
#58 = DIRECTION ( 'NONE',  ( -0.000000000000000000, -1.000000000000000000, -0.000000000000000000 ) ) ;
#59 = ORIENTED_EDGE ( 'NONE', *, *, #837, .T. ) ;
#60 = EDGE_CURVE ( 'NONE', #196, #86, #452, .T. ) ;
#61 = VERTEX_POINT ( 'NONE', #874 ) ;
#62 = LINE ( 'NONE', #1157, #981 ) ;
#63 = APPROVAL_STATUS ( 'not_yet_approved' ) ;
#64 = DIRECTION ( 'NONE',  ( 0.000000000000000000, -0.000000000000000000, -1.000000000000000000 ) ) ;
#65 = VECTOR ( 'NONE', #217, 1000.000000000000000 ) ;
#66 = ORIENTED_EDGE ( 'NONE', *, *, #350, .F. ) ;
#67 = CARTESIAN_POINT ( 'NONE',  ( 46.00000000000000000, -80.00000000000002842, 0.000000000000000000 ) ) ;
#68 = COORDINATED_UNIVERSAL_TIME_OFFSET ( 3, 0, .BEHIND. ) ;
#69 = CARTESIAN_POINT ( 'NONE',  ( 2.914335439641035288E-14, -60.00000000000000000, 0.000000000000000000 ) ) ;
#70 = ADVANCED_FACE ( 'NONE', ( #648 ), #775, .F. ) ;
#71 = ORIENTED_EDGE ( 'NONE', *, *, #1053, .T. ) ;
#72 = APPROVAL_ROLE ( '' ) ;
#73 = DIRECTION ( 'NONE',  ( -1.821459649775647449E-16, 1.000000000000000000, 0.000000000000000000 ) ) ;
#74 = ADVANCED_FACE ( 'NONE', ( #1204 ), #681, .T. ) ;
#75 = VERTEX_POINT ( 'NONE', #325 ) ;
#76 = CARTESIAN_POINT ( 'NONE',  ( 0.000000000000000000, 39.99999999999997868, 0.000000000000000000 ) ) ;
#77 = ORIENTED_EDGE ( 'NONE', *, *, #914, .F. ) ;
#78 = VERTEX_POINT ( 'NONE', #222 ) ;
#79 = PLANE ( 'NONE',  #98 ) ;
#80 = VERTEX_POINT ( 'NONE', #108 ) ;
#81 = CARTESIAN_POINT ( 'NONE',  ( 46.00000000000000000, -60.00000000000002842, 0.000000000000000000 ) ) ;
#82 = CARTESIAN_POINT ( 'NONE',  ( 46.00000000000000711, 40.00000000000002132, 4.000000000000000000 ) ) ;
#83 = VERTEX_POINT ( 'NONE', #889 ) ;
#84 = ADVANCED_FACE ( 'NONE', ( #671 ), #758, .F. ) ;
#85 = EDGE_CURVE ( 'NONE', #80, #331, #125, .T. ) ;
#86 = VERTEX_POINT ( 'NONE', #207 ) ;
#87 = VECTOR ( 'NONE', #701, 1000.000000000000000 ) ;
#88 = CARTESIAN_POINT ( 'NONE',  ( 50.00000000000000000, 60.00000000000002842, 0.000000000000000000 ) ) ;
#89 = VERTEX_POINT ( 'NONE', #334 ) ;
#90 = DIRECTION ( 'NONE',  ( -1.000000000000000000, 0.000000000000000000, -0.000000000000000000 ) ) ;
#91 = VECTOR ( 'NONE', #468, 1000.000000000000000 ) ;
#92 = EDGE_LOOP ( 'NONE', ( #895, #1340, #1304, #608 ) ) ;
#93 = ORIENTED_EDGE ( 'NONE', *, *, #137, .T. ) ;
#94 = VECTOR ( 'NONE', #311, 1000.000000000000000 ) ;
#95 = DIRECTION ( 'NONE',  ( -1.821459649775647449E-16, 1.000000000000000000, 0.000000000000000000 ) ) ;
#96 = CARTESIAN_POINT ( 'NONE',  ( 46.00000000000000000, -80.00000000000002842, 0.000000000000000000 ) ) ;
#97 = CARTESIAN_POINT ( 'NONE',  ( 0.000000000000000000, -79.99999999999998579, 4.000000000000000000 ) ) ;
#98 = AXIS2_PLACEMENT_3D ( 'NONE', #428, #1172, #206 ) ;
#99 = EDGE_LOOP ( 'NONE', ( #843, #202, #427, #546 ) ) ;
#100 = DESIGN_CONTEXT ( 'detailed design', #1293, 'design' ) ;
#101 = ORIENTED_EDGE ( 'NONE', *, *, #524, .F. ) ;
#102 = PLANE ( 'NONE',  #725 ) ;
#103 = ORIENTED_EDGE ( 'NONE', *, *, #1291, .T. ) ;
#104 = CARTESIAN_POINT ( 'NONE',  ( 4.000000000000005329, 39.99999999999997868, 0.000000000000000000 ) ) ;
#105 = EDGE_CURVE ( 'NONE', #1290, #61, #655, .T. ) ;
#106 = EDGE_LOOP ( 'NONE', ( #519, #169, #66, #448 ) ) ;
#107 = DIRECTION ( 'NONE',  ( -0.000000000000000000, -1.000000000000000000, -0.000000000000000000 ) ) ;
#108 = CARTESIAN_POINT ( 'NONE',  ( 2.185751579730776623E-14, -19.99999999999998934, 0.000000000000000000 ) ) ;
#109 = AXIS2_PLACEMENT_3D ( 'NONE', #412, #1166, #1276 ) ;
#110 = EDGE_CURVE ( 'NONE', #659, #288, #158, .T. ) ;
#111 = LINE ( 'NONE', #665, #27 ) ;
#112 = VECTOR ( 'NONE', #584, 1000.000000000000000 ) ;
#113 = VERTEX_POINT ( 'NONE', #801 ) ;
#114 = ORIENTED_EDGE ( 'NONE', *, *, #124, .T. ) ;
#115 = LINE ( 'NONE', #345, #731 ) ;
#116 = VECTOR ( 'NONE', #439, 1000.000000000000000 ) ;
#117 = LINE ( 'NONE', #28, #295 ) ;
#118 = CARTESIAN_POINT ( 'NONE',  ( 37.00000000000007105, -104.0000000000000142, 4.000000000000000000 ) ) ;
#119 = CARTESIAN_POINT ( 'NONE',  ( 50.00000000000000000, -20.00000000000003197, 0.000000000000000000 ) ) ;
#120 = PLANE ( 'NONE',  #353 ) ;
#121 = VERTEX_POINT ( 'NONE', #474 ) ;
#122 = ORIENTED_EDGE ( 'NONE', *, *, #267, .T. ) ;
#123 = LINE ( 'NONE', #1211, #487 ) ;
#124 = EDGE_CURVE ( 'NONE', #906, #1283, #484, .T. ) ;
#125 = LINE ( 'NONE', #1297, #1181 ) ;
#126 = CARTESIAN_POINT ( 'NONE',  ( 50.00000000000000000, 80.00000000000001421, 0.000000000000000000 ) ) ;
#127 = ADVANCED_FACE ( 'NONE', ( #707 ), #167, .F. ) ;
#128 = ADVANCED_FACE ( 'NONE', ( #1229 ), #809, .F. ) ;
#129 = VECTOR ( 'NONE', #335, 1000.000000000000000 ) ;
#130 = CARTESIAN_POINT ( 'NONE',  ( 1.821459649775647449E-14, 100.0000000000000000, 0.000000000000000000 ) ) ;
#131 = VERTEX_POINT ( 'NONE', #1123 ) ;
#132 = EDGE_CURVE ( 'NONE', #779, #54, #143, .T. ) ;
#133 = CARTESIAN_POINT ( 'NONE',  ( 4.000000000000015987, -60.00000000000000000, 0.000000000000000000 ) ) ;
#134 = CARTESIAN_POINT ( 'NONE',  ( 3.642919299551294109E-15, 79.99999999999998579, 0.000000000000000000 ) ) ;
#135 = CARTESIAN_POINT ( 'NONE',  ( 50.00000000000000000, -100.0000000000000142, 0.000000000000000000 ) ) ;
#136 = DIRECTION ( 'NONE',  ( 0.000000000000000000, 1.000000000000000000, 0.000000000000000000 ) ) ;
#137 = EDGE_CURVE ( 'NONE', #578, #1263, #1138, .T. ) ;
#138 = PLANE ( 'NONE',  #1282 ) ;
#139 = ORIENTED_EDGE ( 'NONE', *, *, #644, .F. ) ;
#140 = LINE ( 'NONE', #1115, #1417 ) ;
#141 = VECTOR ( 'NONE', #1132, 1000.000000000000000 ) ;
#142 = PLANE ( 'NONE',  #794 ) ;
#143 = LINE ( 'NONE', #1368, #356 ) ;
#144 = DIRECTION ( 'NONE',  ( 0.000000000000000000, 1.000000000000000000, 0.000000000000000000 ) ) ;
#145 = CARTESIAN_POINT ( 'NONE',  ( 3.278627369596165408E-14, -79.99999999999998579, 0.000000000000000000 ) ) ;
#146 = VECTOR ( 'NONE', #615, 1000.000000000000000 ) ;
#147 = ORIENTED_EDGE ( 'NONE', *, *, #1206, .F. ) ;
#148 = ORIENTED_EDGE ( 'NONE', *, *, #523, .T. ) ;
#149 = PLANE ( 'NONE',  #205 ) ;
#150 = COORDINATED_UNIVERSAL_TIME_OFFSET ( 3, 0, .BEHIND. ) ;
#151 = LINE ( 'NONE', #135, #1382 ) ;
#152 = LINE ( 'NONE', #462, #587 ) ;
#153 = CARTESIAN_POINT ( 'NONE',  ( 50.00000000000000000, 60.00000000000002842, 0.000000000000000000 ) ) ;
#154 = ORIENTED_EDGE ( 'NONE', *, *, #646, .F. ) ;
#155 = ORIENTED_EDGE ( 'NONE', *, *, #1004, .T. ) ;
#156 = PLANE ( 'NONE',  #1301 ) ;
#157 = APPROVAL_ROLE ( '' ) ;
#158 = LINE ( 'NONE', #917, #716 ) ;
#159 = FACE_OUTER_BOUND ( 'NONE', #1315, .T. ) ;
#160 = APPROVAL_PERSON_ORGANIZATION ( #1030, #1061, #157 ) ;
#161 = DIRECTION ( 'NONE',  ( -1.000000000000000000, 3.469446951953611033E-15, 0.000000000000000000 ) ) ;
#162 = ORIENTED_EDGE ( 'NONE', *, *, #280, .F. ) ;
#163 = VECTOR ( 'NONE', #232, 1000.000000000000000 ) ;
#164 = ORIENTED_EDGE ( 'NONE', *, *, #905, .F. ) ;
#165 = CARTESIAN_POINT ( 'NONE',  ( 37.00000000000007105, -100.0000000000000000, 0.000000000000000000 ) ) ;
#166 = VECTOR ( 'NONE', #1252, 1000.000000000000000 ) ;
#167 = PLANE ( 'NONE',  #469 ) ;
#168 = VECTOR ( 'NONE', #528, 1000.000000000000000 ) ;
#169 = ORIENTED_EDGE ( 'NONE', *, *, #1291, .F. ) ;
#170 = DIRECTION ( 'NONE',  ( -1.821459649775647449E-16, 1.000000000000000000, 0.000000000000000000 ) ) ;
#171 = PERSON_AND_ORGANIZATION_ROLE ( 'design_supplier' ) ;
#172 = LINE ( 'NONE', #1266, #838 ) ;
#173 = AXIS2_PLACEMENT_3D ( 'NONE', #215, #687, #466 ) ;
#174 = DIRECTION ( 'NONE',  ( 1.000000000000000000, 0.000000000000000000, 0.000000000000000000 ) ) ;
#175 = EDGE_CURVE ( 'NONE', #678, #237, #151, .T. ) ;
#176 = VERTEX_POINT ( 'NONE', #1352 ) ;
#177 = EDGE_CURVE ( 'NONE', #956, #982, #1014, .T. ) ;
#178 = DIRECTION ( 'NONE',  ( 1.000000000000000000, 0.000000000000000000, 0.000000000000000000 ) ) ;
#179 = AXIS2_PLACEMENT_3D ( 'NONE', #670, #1195, #991 ) ;
#180 = FACE_OUTER_BOUND ( 'NONE', #92, .T. ) ;
#181 = CC_DESIGN_APPROVAL ( #518, ( #1270 ) ) ;
#182 = ORIENTED_EDGE ( 'NONE', *, *, #349, .F. ) ;
#183 = CARTESIAN_POINT ( 'NONE',  ( 46.00000000000000711, -40.00000000000002132, 0.000000000000000000 ) ) ;
#184 = ORIENTED_EDGE ( 'NONE', *, *, #570, .F. ) ;
#185 = VERTEX_POINT ( 'NONE', #250 ) ;
#186 = LINE ( 'NONE', #639, #290 ) ;
#187 = VERTEX_POINT ( 'NONE', #1345 ) ;
#188 = ADVANCED_FACE ( 'NONE', ( #374 ), #1031, .T. ) ;
#189 = CARTESIAN_POINT ( 'NONE',  ( 46.00000000000000711, -40.00000000000002132, 0.000000000000000000 ) ) ;
#190 = ORIENTED_EDGE ( 'NONE', *, *, #52, .F. ) ;
#191 = ORIENTED_EDGE ( 'NONE', *, *, #644, .T. ) ;
#192 = LINE ( 'NONE', #324, #1408 ) ;
#193 = ORIENTED_EDGE ( 'NONE', *, *, #514, .T. ) ;
#194 = DIRECTION ( 'NONE',  ( 0.000000000000000000, -0.000000000000000000, -1.000000000000000000 ) ) ;
#195 = ORIENTED_EDGE ( 'NONE', *, *, #248, .T. ) ;
#196 = VERTEX_POINT ( 'NONE', #40 ) ;
#197 = PLANE ( 'NONE',  #211 ) ;
#198 = DIRECTION ( 'NONE',  ( -1.000000000000000000, -5.782411586589357639E-16, 0.000000000000000000 ) ) ;
#199 = LINE ( 'NONE', #81, #932 ) ;
#200 = CARTESIAN_POINT ( 'NONE',  ( 46.00000000000000711, -20.00000000000003197, 0.000000000000000000 ) ) ;
#201 = VECTOR ( 'NONE', #760, 1000.000000000000000 ) ;
#202 = ORIENTED_EDGE ( 'NONE', *, *, #105, .F. ) ;
#203 = ORIENTED_EDGE ( 'NONE', *, *, #1079, .T. ) ;
#204 = CC_DESIGN_DATE_AND_TIME_ASSIGNMENT ( #1158, #924, ( #1376 ) ) ;
#205 = AXIS2_PLACEMENT_3D ( 'NONE', #916, #381, #262 ) ;
#206 = DIRECTION ( 'NONE',  ( -1.821459649775647449E-16, 1.000000000000000000, 0.000000000000000000 ) ) ;
#207 = CARTESIAN_POINT ( 'NONE',  ( 46.00000000000000000, 80.00000000000002842, 4.000000000000000000 ) ) ;
#208 = LINE ( 'NONE', #657, #499 ) ;
#209 = LINE ( 'NONE', #650, #1371 ) ;
#210 = EDGE_CURVE ( 'NONE', #704, #547, #1236, .T. ) ;
#211 = AXIS2_PLACEMENT_3D ( 'NONE', #445, #309, #1403 ) ;
#212 = EDGE_LOOP ( 'NONE', ( #10, #1308, #958, #93 ) ) ;
#213 = ORIENTED_EDGE ( 'NONE', *, *, #744, .F. ) ;
#214 = CARTESIAN_POINT ( 'NONE',  ( -12.99999999999999822, -100.0000000000000142, 4.000000000000000000 ) ) ;
#215 = CARTESIAN_POINT ( 'NONE',  ( 3.999999999999996447, 2.255140518769846856E-15, 0.000000000000000000 ) ) ;
#216 = EDGE_LOOP ( 'NONE', ( #1050, #184, #749, #676, #1209, #1127, #15, #945, #343, #456, #632, #1381, #530, #1214, #1350, #1372, #1062, #669, #1058, #999, #692, #1410, #726, #259, #853, #1285, #933, #527, #1309, #1248, #182, #378, #574, #1321, #1409, #630, #253, #623, #59, #1419 ) ) ;
#217 = DIRECTION ( 'NONE',  ( 1.000000000000000000, 5.782411586589357639E-16, -0.000000000000000000 ) ) ;
#218 = ORIENTED_EDGE ( 'NONE', *, *, #502, .T. ) ;
#219 = ORIENTED_EDGE ( 'NONE', *, *, #52, .T. ) ;
#220 = CARTESIAN_POINT ( 'NONE',  ( 13.00000000000007105, -104.0000000000000284, 4.000000000000000000 ) ) ;
#221 = DIRECTION ( 'NONE',  ( -1.000000000000000000, 1.067522139062656391E-15, 0.000000000000000000 ) ) ;
#222 = CARTESIAN_POINT ( 'NONE',  ( 50.00000000000000000, -60.00000000000002842, 0.000000000000000000 ) ) ;
#223 = LINE ( 'NONE', #918, #904 ) ;
#224 = AXIS2_PLACEMENT_3D ( 'NONE', #214, #17, #1012 ) ;
#225 = LINE ( 'NONE', #1223, #301 ) ;
#226 = AXIS2_PLACEMENT_3D ( 'NONE', #507, #1033, #820 ) ;
#227 = ORIENTED_EDGE ( 'NONE', *, *, #1342, .F. ) ;
#228 = ORIENTED_EDGE ( 'NONE', *, *, #137, .F. ) ;
#229 = DIRECTION ( 'NONE',  ( 1.000000000000000000, -1.067522139062656391E-15, 0.000000000000000000 ) ) ;
#230 = EDGE_CURVE ( 'NONE', #678, #953, #255, .T. ) ;
#231 = VECTOR ( 'NONE', #1205, 1000.000000000000000 ) ;
#232 = DIRECTION ( 'NONE',  ( -1.000000000000000000, 3.469446951953611033E-15, 0.000000000000000000 ) ) ;
#233 = LINE ( 'NONE', #575, #949 ) ;
#234 = DIRECTION ( 'NONE',  ( 8.673617379884035472E-17, -1.000000000000000000, 0.000000000000000000 ) ) ;
#235 = EDGE_CURVE ( 'NONE', #176, #1330, #57, .T. ) ;
#236 = EDGE_CURVE ( 'NONE', #1002, #75, #47, .T. ) ;
#237 = VERTEX_POINT ( 'NONE', #925 ) ;
#238 = VERTEX_POINT ( 'NONE', #498 ) ;
#239 = EDGE_CURVE ( 'NONE', #1257, #735, #1360, .T. ) ;
#240 = CARTESIAN_POINT ( 'NONE',  ( 0.000000000000000000, 39.99999999999997868, 0.000000000000000000 ) ) ;
#241 = LINE ( 'NONE', #1109, #577 ) ;
#242 = CARTESIAN_POINT ( 'NONE',  ( 46.00000000000000711, 20.00000000000003197, 0.000000000000000000 ) ) ;
#243 = DIRECTION ( 'NONE',  ( -1.000000000000000000, 0.000000000000000000, 0.000000000000000000 ) ) ;
#244 = VECTOR ( 'NONE', #552, 1000.000000000000000 ) ;
#245 = CARTESIAN_POINT ( 'NONE',  ( 37.00000000000007105, -104.0000000000000142, 4.000000000000000000 ) ) ;
#246 = ORIENTED_EDGE ( 'NONE', *, *, #1303, .F. ) ;
#247 = PLANE ( 'NONE',  #224 ) ;
#248 = EDGE_CURVE ( 'NONE', #864, #1339, #1251, .T. ) ;
#249 =( NAMED_UNIT ( * ) PLANE_ANGLE_UNIT ( ) SI_UNIT ( $, .RADIAN. ) );
#250 = CARTESIAN_POINT ( 'NONE',  ( 4.000000000000005329, 39.99999999999997868, 4.000000000000000000 ) ) ;
#251 = FACE_OUTER_BOUND ( 'NONE', #778, .T. ) ;
#252 = CARTESIAN_POINT ( 'NONE',  ( 46.00000000000000711, 40.00000000000002132, 4.000000000000000000 ) ) ;
#253 = ORIENTED_EDGE ( 'NONE', *, *, #901, .F. ) ;
#254 = DIRECTION ( 'NONE',  ( -1.000000000000000000, 0.000000000000000000, 0.000000000000000000 ) ) ;
#255 = LINE ( 'NONE', #936, #33 ) ;
#256 = DIRECTION ( 'NONE',  ( 8.673617379884035472E-17, -1.000000000000000000, 0.000000000000000000 ) ) ;
#257 = CC_DESIGN_PERSON_AND_ORGANIZATION_ASSIGNMENT ( #1130, #373, ( #1270 ) ) ;
#258 = CARTESIAN_POINT ( 'NONE',  ( 0.000000000000000000, -39.99999999999999289, 0.000000000000000000 ) ) ;
#259 = ORIENTED_EDGE ( 'NONE', *, *, #408, .T. ) ;
#260 = ADVANCED_FACE ( 'NONE', ( #714 ), #467, .T. ) ;
#261 = ORIENTED_EDGE ( 'NONE', *, *, #815, .T. ) ;
#262 = DIRECTION ( 'NONE',  ( 1.000000000000000000, 2.775557561562891351E-16, 0.000000000000000000 ) ) ;
#263 = EDGE_CURVE ( 'NONE', #423, #75, #1260, .T. ) ;
#264 = CALENDAR_DATE ( 2026, 27, 5 ) ;
#265 = CARTESIAN_POINT ( 'NONE',  ( 46.00000000000000711, 40.00000000000002132, 0.000000000000000000 ) ) ;
#266 = FACE_OUTER_BOUND ( 'NONE', #99, .T. ) ;
#267 = EDGE_CURVE ( 'NONE', #717, #238, #172, .T. ) ;
#268 = CARTESIAN_POINT ( 'NONE',  ( 50.00000000000000000, -40.00000000000002132, 0.000000000000000000 ) ) ;
#269 = ORIENTED_EDGE ( 'NONE', *, *, #239, .T. ) ;
#270 = ORIENTED_EDGE ( 'NONE', *, *, #631, .T. ) ;
#271 = DIRECTION ( 'NONE',  ( -1.000000000000000000, -0.000000000000000000, -0.000000000000000000 ) ) ;
#272 = CARTESIAN_POINT ( 'NONE',  ( 1.092875789865388627E-14, 39.99999999999997868, 0.000000000000000000 ) ) ;
#273 = LOCAL_TIME ( 17, 3, 38.00000000000000000, #383 ) ;
#274 = CARTESIAN_POINT ( 'NONE',  ( 0.000000000000000000, -19.99999999999998934, 0.000000000000000000 ) ) ;
#275 = ORIENTED_EDGE ( 'NONE', *, *, #948, .F. ) ;
#276 = AXIS2_PLACEMENT_3D ( 'NONE', #1318, #867, #347 ) ;
#277 = EDGE_LOOP ( 'NONE', ( #310, #313, #1192, #558 ) ) ;
#278 = LINE ( 'NONE', #719, #840 ) ;
#279 = DIRECTION ( 'NONE',  ( 1.301042606982605074E-16, -1.000000000000000000, 0.000000000000000000 ) ) ;
#280 = EDGE_CURVE ( 'NONE', #857, #89, #624, .T. ) ;
#281 = ADVANCED_FACE ( 'NONE', ( #1161 ), #628, .T. ) ;
#282 = AXIS2_PLACEMENT_3D ( 'NONE', #1230, #136, #776 ) ;
#283 = CARTESIAN_POINT ( 'NONE',  ( 50.00000000000000000, 80.00000000000001421, 0.000000000000000000 ) ) ;
#284 = VECTOR ( 'NONE', #590, 1000.000000000000000 ) ;
#285 = EDGE_CURVE ( 'NONE', #113, #1168, #297, .T. ) ;
#286 = VECTOR ( 'NONE', #940, 1000.000000000000000 ) ;
#287 = ORIENTED_EDGE ( 'NONE', *, *, #1060, .F. ) ;
#288 = VERTEX_POINT ( 'NONE', #338 ) ;
#289 = PERSON_AND_ORGANIZATION ( #545, #551 ) ;
#290 = VECTOR ( 'NONE', #526, 1000.000000000000000 ) ;
#291 = CARTESIAN_POINT ( 'NONE',  ( 2.914335439641035288E-14, -60.00000000000000000, 4.000000000000000000 ) ) ;
#292 = EDGE_LOOP ( 'NONE', ( #1141, #406, #732, #666 ) ) ;
#293 = VECTOR ( 'NONE', #880, 1000.000000000000000 ) ;
#294 = DIRECTION ( 'NONE',  ( 1.000000000000000000, 1.821459649775647449E-16, 0.000000000000000000 ) ) ;
#295 = VECTOR ( 'NONE', #774, 1000.000000000000000 ) ;
#296 = ORIENTED_EDGE ( 'NONE', *, *, #891, .T. ) ;
#297 = LINE ( 'NONE', #694, #1208 ) ;
#298 = MANIFOLD_SOLID_BREP ( 'Corte-extrus\X2\00e3\X0\o2', #1011 ) ;
#299 = EDGE_CURVE ( 'NONE', #176, #113, #1331, .T. ) ;
#300 = ADVANCED_FACE ( 'NONE', ( #788 ), #247, .F. ) ;
#301 = VECTOR ( 'NONE', #1026, 1000.000000000000000 ) ;
#302 = CARTESIAN_POINT ( 'NONE',  ( 0.000000000000000000, 59.99999999999998579, 4.000000000000000000 ) ) ;
#303 = EDGE_LOOP ( 'NONE', ( #1377, #426, #531, #139 ) ) ;
#304 = CARTESIAN_POINT ( 'NONE',  ( -12.99999999999999822, -100.0000000000000142, 0.000000000000000000 ) ) ;
#305 = LINE ( 'NONE', #957, #201 ) ;
#306 = VECTOR ( 'NONE', #1189, 1000.000000000000000 ) ;
#307 = VERTEX_POINT ( 'NONE', #332 ) ;
#308 = VERTEX_POINT ( 'NONE', #1122 ) ;
#309 = DIRECTION ( 'NONE',  ( 1.000000000000000000, 1.821459649775647449E-16, 0.000000000000000000 ) ) ;
#310 = ORIENTED_EDGE ( 'NONE', *, *, #508, .T. ) ;
#311 = DIRECTION ( 'NONE',  ( 1.000000000000000000, 0.000000000000000000, 0.000000000000000000 ) ) ;
#312 = CARTESIAN_POINT ( 'NONE',  ( 50.00000000000000000, -40.00000000000002132, 0.000000000000000000 ) ) ;
#313 = ORIENTED_EDGE ( 'NONE', *, *, #177, .T. ) ;
#314 = VECTOR ( 'NONE', #1191, 1000.000000000000000 ) ;
#315 = VERTEX_POINT ( 'NONE', #1005 ) ;
#316 = DIRECTION ( 'NONE',  ( -0.000000000000000000, -0.000000000000000000, 1.000000000000000000 ) ) ;
#317 = DIRECTION ( 'NONE',  ( -0.000000000000000000, -0.000000000000000000, 1.000000000000000000 ) ) ;
#318 = LINE ( 'NONE', #1180, #1336 ) ;
#319 = CARTESIAN_POINT ( 'NONE',  ( 4.000000000000007994, 19.99999999999997513, 0.000000000000000000 ) ) ;
#320 = APPROVAL_PERSON_ORGANIZATION ( #817, #460, #941 ) ;
#321 = EDGE_LOOP ( 'NONE', ( #627, #213, #496, #712 ) ) ;
#322 = VERTEX_POINT ( 'NONE', #887 ) ;
#323 = EDGE_CURVE ( 'NONE', #307, #754, #983, .T. ) ;
#324 = CARTESIAN_POINT ( 'NONE',  ( 46.00000000000000711, 40.00000000000002132, 0.000000000000000000 ) ) ;
#325 = CARTESIAN_POINT ( 'NONE',  ( 1.821459649775647449E-14, 100.0000000000000000, 4.000000000000000000 ) ) ;
#326 = LINE ( 'NONE', #1423, #908 ) ;
#327 = LINE ( 'NONE', #971, #244 ) ;
#328 = AXIS2_PLACEMENT_3D ( 'NONE', #492, #819, #1244 ) ;
#329 = ORIENTED_EDGE ( 'NONE', *, *, #631, .F. ) ;
#330 = EDGE_CURVE ( 'NONE', #464, #308, #565, .T. ) ;
#331 = VERTEX_POINT ( 'NONE', #998 ) ;
#332 = CARTESIAN_POINT ( 'NONE',  ( 50.00000000000000000, 40.00000000000002132, 4.000000000000000000 ) ) ;
#333 = CARTESIAN_POINT ( 'NONE',  ( 4.000000000000019540, -39.99999999999999289, 0.000000000000000000 ) ) ;
#334 = CARTESIAN_POINT ( 'NONE',  ( 4.000000000000007994, -19.99999999999998934, 4.000000000000000000 ) ) ;
#335 = DIRECTION ( 'NONE',  ( 1.000000000000000000, 0.000000000000000000, 0.000000000000000000 ) ) ;
#336 = PRODUCT_DEFINITION_SHAPE ( 'NONE', 'NONE',  #1270 ) ;
#337 = ORIENTED_EDGE ( 'NONE', *, *, #905, .T. ) ;
#338 = CARTESIAN_POINT ( 'NONE',  ( 50.00000000000000000, 100.0000000000000142, 0.000000000000000000 ) ) ;
#339 = DIRECTION ( 'NONE',  ( 0.000000000000000000, 0.000000000000000000, 1.000000000000000000 ) ) ;
#340 = CARTESIAN_POINT ( 'NONE',  ( 50.00000000000000000, 80.00000000000001421, 4.000000000000000000 ) ) ;
#341 = LINE ( 'NONE', #883, #1334 ) ;
#342 = CARTESIAN_POINT ( 'NONE',  ( 37.00000000000007105, -100.0000000000000000, 4.000000000000000000 ) ) ;
#343 = ORIENTED_EDGE ( 'NONE', *, *, #1254, .T. ) ;
#344 = ORIENTED_EDGE ( 'NONE', *, *, #711, .T. ) ;
#345 = CARTESIAN_POINT ( 'NONE',  ( -0.000000000000000000, -19.99999999999998934, 4.000000000000000000 ) ) ;
#346 = FACE_OUTER_BOUND ( 'NONE', #364, .T. ) ;
#347 = DIRECTION ( 'NONE',  ( 0.000000000000000000, -0.000000000000000000, 1.000000000000000000 ) ) ;
#348 = LINE ( 'NONE', #20, #534 ) ;
#349 = EDGE_CURVE ( 'NONE', #1339, #779, #465, .T. ) ;
#350 = EDGE_CURVE ( 'NONE', #678, #1200, #1090, .T. ) ;
#351 = VECTOR ( 'NONE', #1197, 1000.000000000000000 ) ;
#352 = PLANE ( 'NONE',  #852 ) ;
#353 = AXIS2_PLACEMENT_3D ( 'NONE', #1125, #902, #454 ) ;
#354 = ORIENTED_EDGE ( 'NONE', *, *, #124, .F. ) ;
#355 = DIRECTION ( 'NONE',  ( -0.000000000000000000, -0.000000000000000000, 1.000000000000000000 ) ) ;
#356 = VECTOR ( 'NONE', #1040, 1000.000000000000000 ) ;
#357 = CARTESIAN_POINT ( 'NONE',  ( 4.000000000000007994, 19.99999999999997513, 4.000000000000000000 ) ) ;
#358 = DIRECTION ( 'NONE',  ( -0.000000000000000000, -0.000000000000000000, 1.000000000000000000 ) ) ;
#359 = LINE ( 'NONE', #367, #91 ) ;
#360 = DIRECTION ( 'NONE',  ( -0.000000000000000000, -0.000000000000000000, 1.000000000000000000 ) ) ;
#361 = EDGE_CURVE ( 'NONE', #187, #307, #140, .T. ) ;
#362 = EDGE_LOOP ( 'NONE', ( #742, #1329, #1081, #1114 ) ) ;
#363 = AXIS2_PLACEMENT_3D ( 'NONE', #734, #952, #826 ) ;
#364 = EDGE_LOOP ( 'NONE', ( #219, #1067, #645, #103 ) ) ;
#365 = DIRECTION ( 'NONE',  ( -0.000000000000000000, -1.000000000000000000, -0.000000000000000000 ) ) ;
#366 = DIRECTION ( 'NONE',  ( 0.000000000000000000, 0.000000000000000000, -1.000000000000000000 ) ) ;
#367 = CARTESIAN_POINT ( 'NONE',  ( 50.00000000000000000, -60.00000000000002842, 0.000000000000000000 ) ) ;
#368 = LINE ( 'NONE', #252, #495 ) ;
#369 = ORIENTED_EDGE ( 'NONE', *, *, #395, .F. ) ;
#370 = VERTEX_POINT ( 'NONE', #661 ) ;
#371 = CC_DESIGN_APPROVAL ( #1061, ( #1255 ) ) ;
#372 = DIRECTION ( 'NONE',  ( -0.000000000000000000, -0.000000000000000000, 1.000000000000000000 ) ) ;
#373 = PERSON_AND_ORGANIZATION_ROLE ( 'creator' ) ;
#374 = FACE_OUTER_BOUND ( 'NONE', #1136, .T. ) ;
#375 = CARTESIAN_POINT ( 'NONE',  ( 0.000000000000000000, -60.00000000000000000, 0.000000000000000000 ) ) ;
#376 = EDGE_CURVE ( 'NONE', #705, #1148, #556, .T. ) ;
#377 = CARTESIAN_POINT ( 'NONE',  ( 50.00000000000000000, 80.00000000000001421, 0.000000000000000000 ) ) ;
#378 = ORIENTED_EDGE ( 'NONE', *, *, #524, .T. ) ;
#379 = VECTOR ( 'NONE', #884, 1000.000000000000000 ) ;
#380 = ORIENTED_EDGE ( 'NONE', *, *, #299, .T. ) ;
#381 = DIRECTION ( 'NONE',  ( 2.775557561562891351E-16, -1.000000000000000000, 0.000000000000000000 ) ) ;
#382 = ADVANCED_FACE ( 'NONE', ( #907 ), #444, .F. ) ;
#383 = COORDINATED_UNIVERSAL_TIME_OFFSET ( 3, 0, .BEHIND. ) ;
#384 = CARTESIAN_POINT ( 'NONE',  ( 4.000000000000007105, 3.469446951953620105E-16, 0.000000000000000000 ) ) ;
#385 = CARTESIAN_POINT ( 'NONE',  ( 46.00000000000000711, -40.00000000000002132, 4.000000000000000000 ) ) ;
#386 = CARTESIAN_POINT ( 'NONE',  ( 1.821459649775647134E-14, 3.317715255760823562E-30, 0.000000000000000000 ) ) ;
#387 = ORIENTED_EDGE ( 'NONE', *, *, #816, .F. ) ;
#388 = ORIENTED_EDGE ( 'NONE', *, *, #85, .T. ) ;
#389 = LINE ( 'NONE', #67, #1227 ) ;
#390 = PERSON_AND_ORGANIZATION ( #545, #551 ) ;
#391 = DIRECTION ( 'NONE',  ( 8.673617379884035472E-17, -1.000000000000000000, 0.000000000000000000 ) ) ;
#392 = FACE_OUTER_BOUND ( 'NONE', #212, .T. ) ;
#393 = ORIENTED_EDGE ( 'NONE', *, *, #415, .T. ) ;
#394 = EDGE_CURVE ( 'NONE', #315, #308, #679, .T. ) ;
#395 = EDGE_CURVE ( 'NONE', #1188, #86, #459, .T. ) ;
#396 = ORIENTED_EDGE ( 'NONE', *, *, #440, .F. ) ;
#397 = LINE ( 'NONE', #1378, #652 ) ;
#398 = CARTESIAN_POINT ( 'NONE',  ( 0.000000000000000000, -39.99999999999999289, 4.000000000000000000 ) ) ;
#399 = EDGE_CURVE ( 'NONE', #1183, #1370, #1322, .T. ) ;
#400 = ADVANCED_FACE ( 'NONE', ( #871 ), #1310, .F. ) ;
#401 = ORIENTED_EDGE ( 'NONE', *, *, #1231, .T. ) ;
#402 = FACE_OUTER_BOUND ( 'NONE', #538, .T. ) ;
#403 = AXIS2_PLACEMENT_3D ( 'NONE', #739, #658, #90 ) ;
#404 = PLANE ( 'NONE',  #1396 ) ;
#405 = VECTOR ( 'NONE', #605, 1000.000000000000000 ) ;
#406 = ORIENTED_EDGE ( 'NONE', *, *, #1272, .T. ) ;
#407 = CARTESIAN_POINT ( 'NONE',  ( 4.000000000000007994, -19.99999999999998934, 0.000000000000000000 ) ) ;
#408 = EDGE_CURVE ( 'NONE', #1165, #12, #450, .T. ) ;
#409 = VECTOR ( 'NONE', #436, 1000.000000000000000 ) ;
#410 = CARTESIAN_POINT ( 'NONE',  ( 0.000000000000000000, -79.99999999999998579, 0.000000000000000000 ) ) ;
#411 = ORIENTED_EDGE ( 'NONE', *, *, #263, .T. ) ;
#412 = CARTESIAN_POINT ( 'NONE',  ( 0.000000000000000000, 79.99999999999998579, 0.000000000000000000 ) ) ;
#413 = DIRECTION ( 'NONE',  ( -1.821459649775647449E-16, 1.000000000000000000, 0.000000000000000000 ) ) ;
#414 = ORIENTED_EDGE ( 'NONE', *, *, #1418, .T. ) ;
#415 = EDGE_CURVE ( 'NONE', #89, #331, #115, .T. ) ;
#416 = CARTESIAN_POINT ( 'NONE',  ( 13.00000000000007105, -100.0000000000000142, 4.000000000000000000 ) ) ;
#417 = EDGE_LOOP ( 'NONE', ( #488, #228, #147, #986 ) ) ;
#418 = VECTOR ( 'NONE', #579, 1000.000000000000000 ) ;
#419 = EDGE_CURVE ( 'NONE', #798, #370, #123, .T. ) ;
#420 = ORIENTED_EDGE ( 'NONE', *, *, #894, .T. ) ;
#421 = VECTOR ( 'NONE', #1207, 1000.000000000000000 ) ;
#422 = FACE_OUTER_BOUND ( 'NONE', #643, .T. ) ;
#423 = VERTEX_POINT ( 'NONE', #572 ) ;
#424 = DIRECTION ( 'NONE',  ( -1.000000000000000000, -0.000000000000000000, -0.000000000000000000 ) ) ;
#425 = FACE_OUTER_BOUND ( 'NONE', #106, .T. ) ;
#426 = ORIENTED_EDGE ( 'NONE', *, *, #1146, .T. ) ;
#427 = ORIENTED_EDGE ( 'NONE', *, *, #1049, .F. ) ;
#428 = CARTESIAN_POINT ( 'NONE',  ( 1.821459649775647134E-14, 3.317715255760823562E-30, 0.000000000000000000 ) ) ;
#429 = VERTEX_POINT ( 'NONE', #165 ) ;
#430 = DIRECTION ( 'NONE',  ( -0.000000000000000000, -0.000000000000000000, 1.000000000000000000 ) ) ;
#431 = DIRECTION ( 'NONE',  ( -0.000000000000000000, 1.000000000000000000, 0.000000000000000000 ) ) ;
#432 = ADVANCED_FACE ( 'NONE', ( #497 ), #156, .F. ) ;
#433 = ORIENTED_EDGE ( 'NONE', *, *, #1348, .F. ) ;
#434 = ADVANCED_FACE ( 'NONE', ( #922 ), #1028, .F. ) ;
#435 = ORIENTED_EDGE ( 'NONE', *, *, #790, .T. ) ;
#436 = DIRECTION ( 'NONE',  ( 1.000000000000000000, -0.000000000000000000, -0.000000000000000000 ) ) ;
#437 = DIRECTION ( 'NONE',  ( -5.782411586589357639E-16, 1.000000000000000000, 0.000000000000000000 ) ) ;
#438 = VECTOR ( 'NONE', #596, 1000.000000000000000 ) ;
#439 = DIRECTION ( 'NONE',  ( -1.000000000000000000, 0.000000000000000000, 0.000000000000000000 ) ) ;
#440 = EDGE_CURVE ( 'NONE', #1183, #547, #806, .T. ) ;
#441 = PLANE ( 'NONE',  #403 ) ;
#442 = EDGE_LOOP ( 'NONE', ( #164, #195, #1225, #193 ) ) ;
#443 = VERTEX_POINT ( 'NONE', #1045 ) ;
#444 = PLANE ( 'NONE',  #1278 ) ;
#445 = CARTESIAN_POINT ( 'NONE',  ( 1.821459649775647134E-14, 3.317715255760823562E-30, 0.000000000000000000 ) ) ;
#446 = DIRECTION ( 'NONE',  ( -1.821459649775647449E-16, 1.000000000000000000, 0.000000000000000000 ) ) ;
#447 = CARTESIAN_POINT ( 'NONE',  ( 46.00000000000000000, 80.00000000000002842, 0.000000000000000000 ) ) ;
#448 = ORIENTED_EDGE ( 'NONE', *, *, #230, .T. ) ;
#449 = ORIENTED_EDGE ( 'NONE', *, *, #894, .F. ) ;
#450 = LINE ( 'NONE', #1099, #293 ) ;
#451 = APPROVAL_STATUS ( 'not_yet_approved' ) ;
#452 = LINE ( 'NONE', #340, #163 ) ;
#453 = CARTESIAN_POINT ( 'NONE',  ( 50.00000000000000000, -100.0000000000000142, 4.000000000000000000 ) ) ;
#454 = DIRECTION ( 'NONE',  ( -1.000000000000000000, 0.000000000000000000, -0.000000000000000000 ) ) ;
#455 = ORIENTED_EDGE ( 'NONE', *, *, #210, .T. ) ;
#456 = ORIENTED_EDGE ( 'NONE', *, *, #743, .F. ) ;
#457 = EDGE_CURVE ( 'NONE', #1106, #429, #1137, .T. ) ;
#458 = EDGE_CURVE ( 'NONE', #735, #1349, #934, .T. ) ;
#459 = LINE ( 'NONE', #799, #668 ) ;
#460 = APPROVAL ( #63, 'UNSPECIFIED' ) ;
#461 = CARTESIAN_POINT ( 'NONE',  ( 2.550043509685906113E-14, -39.99999999999999289, 0.000000000000000000 ) ) ;
#462 = CARTESIAN_POINT ( 'NONE',  ( 46.00000000000000000, 80.00000000000002842, 4.000000000000000000 ) ) ;
#463 = PLANE ( 'NONE',  #56 ) ;
#464 = VERTEX_POINT ( 'NONE', #1365 ) ;
#465 = LINE ( 'NONE', #240, #554 ) ;
#466 = DIRECTION ( 'NONE',  ( -5.637851296924622071E-16, 1.000000000000000000, 0.000000000000000000 ) ) ;
#467 = PLANE ( 'NONE',  #473 ) ;
#468 = DIRECTION ( 'NONE',  ( -0.000000000000000000, -0.000000000000000000, 1.000000000000000000 ) ) ;
#469 = AXIS2_PLACEMENT_3D ( 'NONE', #265, #1023, #1131 ) ;
#470 = LINE ( 'NONE', #1001, #673 ) ;
#471 = VERTEX_POINT ( 'NONE', #1151 ) ;
#472 = CARTESIAN_POINT ( 'NONE',  ( 46.00000000000000711, -20.00000000000003197, 0.000000000000000000 ) ) ;
#473 = AXIS2_PLACEMENT_3D ( 'NONE', #899, #688, #279 ) ;
#474 = CARTESIAN_POINT ( 'NONE',  ( 3.642919299551294109E-15, 79.99999999999998579, 0.000000000000000000 ) ) ;
#475 = DIRECTION ( 'NONE',  ( -0.000000000000000000, 1.000000000000000000, 0.000000000000000000 ) ) ;
#476 = VECTOR ( 'NONE', #512, 1000.000000000000000 ) ;
#477 = CARTESIAN_POINT ( 'NONE',  ( 50.00000000000000000, -80.00000000000001421, 0.000000000000000000 ) ) ;
#478 = ORIENTED_EDGE ( 'NONE', *, *, #959, .F. ) ;
#479 = VECTOR ( 'NONE', #316, 1000.000000000000000 ) ;
#480 = ORIENTED_EDGE ( 'NONE', *, *, #773, .F. ) ;
#481 = LINE ( 'NONE', #1351, #1021 ) ;
#482 = EDGE_CURVE ( 'NONE', #1370, #83, #389, .T. ) ;
#483 = DIRECTION ( 'NONE',  ( 1.000000000000000000, 0.000000000000000000, 0.000000000000000000 ) ) ;
#484 = LINE ( 'NONE', #1243, #87 ) ;
#485 = FACE_OUTER_BOUND ( 'NONE', #1388, .T. ) ;
#486 = DIRECTION ( 'NONE',  ( -0.000000000000000000, -0.000000000000000000, 1.000000000000000000 ) ) ;
#487 = VECTOR ( 'NONE', #229, 1000.000000000000000 ) ;
#488 = ORIENTED_EDGE ( 'NONE', *, *, #959, .T. ) ;
#489 = DIRECTION ( 'NONE',  ( -0.000000000000000000, -0.000000000000000000, -1.000000000000000000 ) ) ;
#490 = DATE_TIME_ROLE ( 'creation_date' ) ;
#491 = DIRECTION ( 'NONE',  ( 0.000000000000000000, 1.000000000000000000, 0.000000000000000000 ) ) ;
#492 = CARTESIAN_POINT ( 'NONE',  ( 50.00000000000000000, -100.0000000000000142, 4.000000000000000000 ) ) ;
#493 = DIRECTION ( 'NONE',  ( -0.000000000000000000, -0.000000000000000000, 1.000000000000000000 ) ) ;
#494 = ORIENTED_EDGE ( 'NONE', *, *, #514, .F. ) ;
#495 = VECTOR ( 'NONE', #1119, 1000.000000000000000 ) ;
#496 = ORIENTED_EDGE ( 'NONE', *, *, #458, .T. ) ;
#497 = FACE_OUTER_BOUND ( 'NONE', #303, .T. ) ;
#498 = CARTESIAN_POINT ( 'NONE',  ( 4.000000000000000000, 79.99999999999998579, 4.000000000000000000 ) ) ;
#499 = VECTOR ( 'NONE', #995, 1000.000000000000000 ) ;
#500 = EDGE_CURVE ( 'NONE', #308, #1106, #62, .T. ) ;
#501 = PLANE ( 'NONE',  #967 ) ;
#502 = EDGE_CURVE ( 'NONE', #185, #812, #619, .T. ) ;
#503 = ORIENTED_EDGE ( 'NONE', *, *, #1323, .T. ) ;
#504 = ORIENTED_EDGE ( 'NONE', *, *, #60, .T. ) ;
#505 = CARTESIAN_POINT ( 'NONE',  ( 50.00000000000000000, -100.0000000000000142, 0.000000000000000000 ) ) ;
#506 = EDGE_CURVE ( 'NONE', #953, #322, #700, .T. ) ;
#507 = CARTESIAN_POINT ( 'NONE',  ( 1.821459649775647134E-14, 3.317715255760823562E-30, 0.000000000000000000 ) ) ;
#508 = EDGE_CURVE ( 'NONE', #651, #956, #1373, .T. ) ;
#509 = VECTOR ( 'NONE', #544, 1000.000000000000000 ) ;
#510 = VECTOR ( 'NONE', #37, 1000.000000000000000 ) ;
#511 = ORIENTED_EDGE ( 'NONE', *, *, #395, .T. ) ;
#512 = DIRECTION ( 'NONE',  ( -0.000000000000000000, -1.000000000000000000, -0.000000000000000000 ) ) ;
#513 = LINE ( 'NONE', #268, #1358 ) ;
#514 = EDGE_CURVE ( 'NONE', #779, #185, #481, .T. ) ;
#515 = ORIENTED_EDGE ( 'NONE', *, *, #872, .T. ) ;
#516 = APPROVAL_DATE_TIME ( #597, #518 ) ;
#517 = CARTESIAN_POINT ( 'NONE',  ( 46.00000000000000000, -80.00000000000002842, 4.000000000000000000 ) ) ;
#518 = APPROVAL ( #451, 'UNSPECIFIED' ) ;
#519 = ORIENTED_EDGE ( 'NONE', *, *, #506, .T. ) ;
#520 = EDGE_CURVE ( 'NONE', #423, #288, #397, .T. ) ;
#521 = LINE ( 'NONE', #955, #409 ) ;
#522 = ORIENTED_EDGE ( 'NONE', *, *, #1383, .T. ) ;
#523 = EDGE_CURVE ( 'NONE', #54, #906, #1020, .T. ) ;
#524 = EDGE_CURVE ( 'NONE', #1339, #1349, #278, .T. ) ;
#525 = ORIENTED_EDGE ( 'NONE', *, *, #1398, .T. ) ;
#526 = DIRECTION ( 'NONE',  ( 1.000000000000000000, 3.469446951953611033E-15, -0.000000000000000000 ) ) ;
#527 = ORIENTED_EDGE ( 'NONE', *, *, #773, .T. ) ;
#528 = DIRECTION ( 'NONE',  ( -1.821459649775647449E-16, 1.000000000000000000, 0.000000000000000000 ) ) ;
#529 = LINE ( 'NONE', #1289, #314 ) ;
#530 = ORIENTED_EDGE ( 'NONE', *, *, #1246, .T. ) ;
#531 = ORIENTED_EDGE ( 'NONE', *, *, #1004, .F. ) ;
#532 = CARTESIAN_POINT ( 'NONE',  ( 50.00000000000000000, -100.0000000000000142, 4.000000000000000000 ) ) ;
#533 = ORIENTED_EDGE ( 'NONE', *, *, #914, .T. ) ;
#534 = VECTOR ( 'NONE', #1353, 1000.000000000000000 ) ;
#535 = CARTESIAN_POINT ( 'NONE',  ( 1.092875789865388627E-14, 39.99999999999997868, 4.000000000000000000 ) ) ;
#536 = EDGE_CURVE ( 'NONE', #885, #464, #1128, .T. ) ;
#537 = ADVANCED_FACE ( 'NONE', ( #402 ), #149, .F. ) ;
#538 = EDGE_LOOP ( 'NONE', ( #1056, #1194, #1054, #1098 ) ) ;
#539 = EDGE_LOOP ( 'NONE', ( #23, #878, #699, #1404 ) ) ;
#540 = EDGE_CURVE ( 'NONE', #578, #237, #814, .T. ) ;
#541 = CARTESIAN_POINT ( 'NONE',  ( 50.00000000000000000, -100.0000000000000142, 4.000000000000000000 ) ) ;
#542 = DIRECTION ( 'NONE',  ( -0.000000000000000000, -1.000000000000000000, -0.000000000000000000 ) ) ;
#543 = AXIS2_PLACEMENT_3D ( 'NONE', #1075, #873, #1187 ) ;
#544 = DIRECTION ( 'NONE',  ( 1.000000000000000000, 0.000000000000000000, 0.000000000000000000 ) ) ;
#545 = PERSON ( 'UNSPECIFIED', 'UNSPECIFIED', 'UNSPECIFIED', ('UNSPECIFIED'), ('UNSPECIFIED'), ('UNSPECIFIED') ) ;
#546 = ORIENTED_EDGE ( 'NONE', *, *, #927, .T. ) ;
#547 = VERTEX_POINT ( 'NONE', #977 ) ;
#548 = DIRECTION ( 'NONE',  ( -1.000000000000000000, 0.000000000000000000, 0.000000000000000000 ) ) ;
#549 = DIRECTION ( 'NONE',  ( -6.071532165918828775E-16, 1.000000000000000000, 0.000000000000000000 ) ) ;
#550 = LINE ( 'NONE', #1298, #168 ) ;
#551 = ORGANIZATION ( 'UNSPECIFIED', 'UNSPECIFIED', '' ) ;
#552 = DIRECTION ( 'NONE',  ( -1.000000000000000000, 3.469446951953611033E-15, 0.000000000000000000 ) ) ;
#553 = ORIENTED_EDGE ( 'NONE', *, *, #1003, .T. ) ;
#554 = VECTOR ( 'NONE', #685, 1000.000000000000000 ) ;
#555 = ORIENTED_EDGE ( 'NONE', *, *, #1323, .F. ) ;
#556 = LINE ( 'NONE', #133, #1096 ) ;
#557 = APPLICATION_PROTOCOL_DEFINITION ( 'international standard', 'config_control_design', 1994, #1293 ) ;
#558 = ORIENTED_EDGE ( 'NONE', *, *, #609, .T. ) ;
#559 = AXIS2_PLACEMENT_3D ( 'NONE', #386, #294, #831 ) ;
#560 = FACE_OUTER_BOUND ( 'NONE', #1201, .T. ) ;
#561 = EDGE_CURVE ( 'NONE', #176, #315, #875, .T. ) ;
#562 = EDGE_CURVE ( 'NONE', #237, #950, #326, .T. ) ;
#563 = EDGE_LOOP ( 'NONE', ( #344, #738, #636, #511 ) ) ;
#564 = ORIENTED_EDGE ( 'NONE', *, *, #1053, .F. ) ;
#565 = LINE ( 'NONE', #220, #849 ) ;
#566 = CARTESIAN_POINT ( 'NONE',  ( 3.999999999999979128, 2.428612866367518888E-15, 0.000000000000000000 ) ) ;
#567 = CARTESIAN_POINT ( 'NONE',  ( 4.000000000000015987, -60.00000000000000000, 0.000000000000000000 ) ) ;
#568 = LINE ( 'NONE', #145, #736 ) ;
#569 = EDGE_CURVE ( 'NONE', #864, #1393, #550, .T. ) ;
#570 = EDGE_CURVE ( 'NONE', #187, #1107, #318, .T. ) ;
#571 = ORIENTED_EDGE ( 'NONE', *, *, #536, .T. ) ;
#572 = CARTESIAN_POINT ( 'NONE',  ( 50.00000000000000000, 100.0000000000000142, 4.000000000000000000 ) ) ;
#573 = CARTESIAN_POINT ( 'NONE',  ( 0.000000000000000000, 0.000000000000000000, 0.000000000000000000 ) ) ;
#574 = ORIENTED_EDGE ( 'NONE', *, *, #458, .F. ) ;
#575 = CARTESIAN_POINT ( 'NONE',  ( 50.00000000000000000, -100.0000000000000142, 0.000000000000000000 ) ) ;
#576 = DIRECTION ( 'NONE',  ( -1.000000000000000000, -8.673617379884035472E-17, 0.000000000000000000 ) ) ;
#577 = VECTOR ( 'NONE', #1332, 1000.000000000000000 ) ;
#578 = VERTEX_POINT ( 'NONE', #768 ) ;
#579 = DIRECTION ( 'NONE',  ( -1.000000000000000000, -0.000000000000000000, -0.000000000000000000 ) ) ;
#580 = FACE_OUTER_BOUND ( 'NONE', #1186, .T. ) ;
#581 = DIRECTION ( 'NONE',  ( 0.000000000000000000, 1.000000000000000000, 0.000000000000000000 ) ) ;
#582 = FACE_OUTER_BOUND ( 'NONE', #292, .T. ) ;
#583 = VECTOR ( 'NONE', #446, 1000.000000000000000 ) ;
#584 = DIRECTION ( 'NONE',  ( 1.000000000000000000, 0.000000000000000000, 0.000000000000000000 ) ) ;
#585 = ORIENTED_EDGE ( 'NONE', *, *, #1164, .F. ) ;
#586 = EDGE_CURVE ( 'NONE', #187, #1364, #1198, .T. ) ;
#587 = VECTOR ( 'NONE', #1111, 1000.000000000000000 ) ;
#588 = EDGE_LOOP ( 'NONE', ( #1294, #787, #1121, #435 ) ) ;
#589 = DIRECTION ( 'NONE',  ( 1.000000000000000000, 5.782411586589357639E-16, -0.000000000000000000 ) ) ;
#590 = DIRECTION ( 'NONE',  ( -0.000000000000000000, -0.000000000000000000, 1.000000000000000000 ) ) ;
#591 = DIRECTION ( 'NONE',  ( 0.000000000000000000, -0.000000000000000000, 1.000000000000000000 ) ) ;
#592 = EDGE_CURVE ( 'NONE', #78, #1183, #199, .T. ) ;
#593 = PLANE ( 'NONE',  #611 ) ;
#594 = VECTOR ( 'NONE', #881, 1000.000000000000000 ) ;
#595 = ORIENTED_EDGE ( 'NONE', *, *, #891, .F. ) ;
#596 = DIRECTION ( 'NONE',  ( 1.734723475976805517E-15, 1.000000000000000000, -0.000000000000000000 ) ) ;
#597 = DATE_AND_TIME ( #946, #603 ) ;
#598 = DIRECTION ( 'NONE',  ( 0.000000000000000000, 1.000000000000000000, 0.000000000000000000 ) ) ;
#599 = CARTESIAN_POINT ( 'NONE',  ( 3.642919299551294109E-15, 79.99999999999998579, 4.000000000000000000 ) ) ;
#600 = DIRECTION ( 'NONE',  ( -1.000000000000000000, 0.000000000000000000, 0.000000000000000000 ) ) ;
#601 = VERTEX_POINT ( 'NONE', #649 ) ;
#602 = EDGE_LOOP ( 'NONE', ( #50, #990, #101, #1269 ) ) ;
#603 = LOCAL_TIME ( 17, 3, 38.00000000000000000, #150 ) ;
#604 = CARTESIAN_POINT ( 'NONE',  ( 0.000000000000000000, 59.99999999999998579, 0.000000000000000000 ) ) ;
#605 = DIRECTION ( 'NONE',  ( -1.000000000000000000, -0.000000000000000000, -0.000000000000000000 ) ) ;
#606 = CARTESIAN_POINT ( 'NONE',  ( 37.00000000000007105, -104.0000000000000142, 0.000000000000000000 ) ) ;
#607 = VECTOR ( 'NONE', #542, 1000.000000000000000 ) ;
#608 = ORIENTED_EDGE ( 'NONE', *, *, #1164, .T. ) ;
#609 = EDGE_CURVE ( 'NONE', #370, #651, #1094, .T. ) ;
#610 = EDGE_CURVE ( 'NONE', #705, #1165, #208, .T. ) ;
#611 = AXIS2_PLACEMENT_3D ( 'NONE', #32, #804, #1238 ) ;
#612 = ORIENTED_EDGE ( 'NONE', *, *, #816, .T. ) ;
#613 = DIRECTION ( 'NONE',  ( -0.000000000000000000, -0.000000000000000000, 1.000000000000000000 ) ) ;
#614 = APPROVAL_STATUS ( 'not_yet_approved' ) ;
#615 = DIRECTION ( 'NONE',  ( -1.821459649775647449E-16, 1.000000000000000000, 0.000000000000000000 ) ) ;
#616 = PLANE ( 'NONE',  #784 ) ;
#617 = VECTOR ( 'NONE', #1384, 1000.000000000000000 ) ;
#618 = ORIENTED_EDGE ( 'NONE', *, *, #1126, .F. ) ;
#619 = LINE ( 'NONE', #1249, #510 ) ;
#620 = ADVANCED_FACE ( 'NONE', ( #485 ), #1024, .F. ) ;
#621 = SECURITY_CLASSIFICATION_LEVEL ( 'unclassified' ) ;
#622 = CARTESIAN_POINT ( 'NONE',  ( 46.00000000000000000, 60.00000000000002842, 0.000000000000000000 ) ) ;
#623 = ORIENTED_EDGE ( 'NONE', *, *, #110, .F. ) ;
#624 = LINE ( 'NONE', #407, #1018 ) ;
#625 = CARTESIAN_POINT ( 'NONE',  ( 37.00000000000007105, -100.0000000000000000, 0.000000000000000000 ) ) ;
#626 = EDGE_CURVE ( 'NONE', #1037, #754, #672, .T. ) ;
#627 = ORIENTED_EDGE ( 'NONE', *, *, #1277, .F. ) ;
#628 = PLANE ( 'NONE',  #109 ) ;
#629 = DIRECTION ( 'NONE',  ( 0.000000000000000000, -1.000000000000000000, 0.000000000000000000 ) ) ;
#630 = ORIENTED_EDGE ( 'NONE', *, *, #1348, .T. ) ;
#631 = EDGE_CURVE ( 'NONE', #113, #885, #1103, .T. ) ;
#632 = ORIENTED_EDGE ( 'NONE', *, *, #592, .T. ) ;
#633 = CARTESIAN_POINT ( 'NONE',  ( 50.00000000000000000, 40.00000000000002132, 4.000000000000000000 ) ) ;
#634 = ORIENTED_EDGE ( 'NONE', *, *, #132, .T. ) ;
#635 = LINE ( 'NONE', #416, #1016 ) ;
#636 = ORIENTED_EDGE ( 'NONE', *, *, #854, .F. ) ;
#637 = EDGE_CURVE ( 'NONE', #238, #9, #341, .T. ) ;
#638 = EDGE_CURVE ( 'NONE', #1263, #950, #348, .T. ) ;
#639 = CARTESIAN_POINT ( 'NONE',  ( 50.00000000000000000, -80.00000000000001421, 0.000000000000000000 ) ) ;
#640 = ORIENTED_EDGE ( 'NONE', *, *, #1406, .T. ) ;
#641 = CC_DESIGN_APPROVAL ( #460, ( #1376 ) ) ;
#642 = DIRECTION ( 'NONE',  ( -0.000000000000000000, -0.000000000000000000, 1.000000000000000000 ) ) ;
#643 = EDGE_LOOP ( 'NONE', ( #869, #275, #1097, #821 ) ) ;
#644 = EDGE_CURVE ( 'NONE', #78, #704, #359, .T. ) ;
#645 = ORIENTED_EDGE ( 'NONE', *, *, #855, .F. ) ;
#646 = EDGE_CURVE ( 'NONE', #974, #471, #1335, .T. ) ;
#647 = CARTESIAN_POINT ( 'NONE',  ( 1.821459649775647134E-14, 3.317715255760823562E-30, 4.000000000000000000 ) ) ;
#648 = FACE_OUTER_BOUND ( 'NONE', #16, .T. ) ;
#649 = CARTESIAN_POINT ( 'NONE',  ( 46.00000000000000000, 60.00000000000002842, 0.000000000000000000 ) ) ;
#650 = CARTESIAN_POINT ( 'NONE',  ( 3.999999999999996447, 2.255140518769846856E-15, 0.000000000000000000 ) ) ;
#651 = VERTEX_POINT ( 'NONE', #1118 ) ;
#652 = VECTOR ( 'NONE', #489, 1000.000000000000000 ) ;
#653 = EDGE_LOOP ( 'NONE', ( #713, #1010, #43, #1302 ) ) ;
#654 = CARTESIAN_POINT ( 'NONE',  ( 1.457167719820517959E-14, 19.99999999999997513, 4.000000000000000000 ) ) ;
#655 = LINE ( 'NONE', #1087, #351 ) ;
#656 = VECTOR ( 'NONE', #95, 1000.000000000000000 ) ;
#657 = CARTESIAN_POINT ( 'NONE',  ( 0.000000000000000000, -60.00000000000000000, 0.000000000000000000 ) ) ;
#658 = DIRECTION ( 'NONE',  ( 0.000000000000000000, 0.000000000000000000, -1.000000000000000000 ) ) ;
#659 = VERTEX_POINT ( 'NONE', #126 ) ;
#660 = EDGE_LOOP ( 'NONE', ( #455, #396, #915, #191 ) ) ;
#661 = CARTESIAN_POINT ( 'NONE',  ( 50.00000000000000000, -100.0000000000000142, 4.000000000000000000 ) ) ;
#662 = CARTESIAN_POINT ( 'NONE',  ( 37.00000000000007105, -100.0000000000000000, 4.000000000000000000 ) ) ;
#663 = ORIENTED_EDGE ( 'NONE', *, *, #710, .F. ) ;
#664 = CARTESIAN_POINT ( 'NONE',  ( 46.00000000000000711, 20.00000000000003197, 0.000000000000000000 ) ) ;
#665 = CARTESIAN_POINT ( 'NONE',  ( 1.821459649775647134E-14, 3.317715255760823562E-30, 0.000000000000000000 ) ) ;
#666 = ORIENTED_EDGE ( 'NONE', *, *, #361, .F. ) ;
#667 = EDGE_CURVE ( 'NONE', #1314, #763, #223, .T. ) ;
#668 = VECTOR ( 'NONE', #1420, 1000.000000000000000 ) ;
#669 = ORIENTED_EDGE ( 'NONE', *, *, #394, .F. ) ;
#670 = CARTESIAN_POINT ( 'NONE',  ( 46.00000000000000000, 80.00000000000002842, 0.000000000000000000 ) ) ;
#671 = FACE_OUTER_BOUND ( 'NONE', #653, .T. ) ;
#672 = LINE ( 'NONE', #1319, #231 ) ;
#673 = VECTOR ( 'NONE', #1009, 1000.000000000000000 ) ;
#674 = CARTESIAN_POINT ( 'NONE',  ( 2.550043509685906113E-14, -39.99999999999999289, 0.000000000000000000 ) ) ;
#675 = ADVANCED_FACE ( 'NONE', ( #251 ), #810, .F. ) ;
#676 = ORIENTED_EDGE ( 'NONE', *, *, #1206, .T. ) ;
#677 = VECTOR ( 'NONE', #1346, 1000.000000000000000 ) ;
#678 = VERTEX_POINT ( 'NONE', #119 ) ;
#679 = LINE ( 'NONE', #1341, #807 ) ;
#680 = PLANE ( 'NONE',  #173 ) ;
#681 = PLANE ( 'NONE',  #276 ) ;
#682 = CARTESIAN_POINT ( 'NONE',  ( 50.00000000000000000, -100.0000000000000142, 4.000000000000000000 ) ) ;
#683 = DIRECTION ( 'NONE',  ( -1.000000000000000000, 1.734723475976805517E-15, 0.000000000000000000 ) ) ;
#684 = ORIENTED_EDGE ( 'NONE', *, *, #987, .F. ) ;
#685 = DIRECTION ( 'NONE',  ( 1.000000000000000000, 0.000000000000000000, 0.000000000000000000 ) ) ;
#686 = VECTOR ( 'NONE', #862, 1000.000000000000000 ) ;
#687 = DIRECTION ( 'NONE',  ( 1.000000000000000000, 5.637851296924622071E-16, 0.000000000000000000 ) ) ;
#688 = DIRECTION ( 'NONE',  ( -1.000000000000000000, -1.301042606982605074E-16, 0.000000000000000000 ) ) ;
#689 = CARTESIAN_POINT ( 'NONE',  ( -12.99999999999999822, -100.0000000000000142, 4.000000000000000000 ) ) ;
#690 = ADVANCED_FACE ( 'NONE', ( #582 ), #1015, .F. ) ;
#691 = FACE_OUTER_BOUND ( 'NONE', #442, .T. ) ;
#692 = ORIENTED_EDGE ( 'NONE', *, *, #1177, .T. ) ;
#693 = ADVANCED_FACE ( 'NONE', ( #1237 ), #783, .F. ) ;
#694 = CARTESIAN_POINT ( 'NONE',  ( 1.821459649775647134E-14, 3.317715255760823562E-30, 4.000000000000000000 ) ) ;
#695 = PLANE ( 'NONE',  #733 ) ;
#696 = CARTESIAN_POINT ( 'NONE',  ( 1.821459649775647449E-14, 100.0000000000000000, 0.000000000000000000 ) ) ;
#697 = DIRECTION ( 'NONE',  ( -1.000000000000000000, 0.000000000000000000, 0.000000000000000000 ) ) ;
#698 = CARTESIAN_POINT ( 'NONE',  ( 4.000000000000027534, -79.99999999999998579, 0.000000000000000000 ) ) ;
#699 = ORIENTED_EDGE ( 'NONE', *, *, #1366, .F. ) ;
#700 = LINE ( 'NONE', #45, #35 ) ;
#701 = DIRECTION ( 'NONE',  ( 0.000000000000000000, 0.000000000000000000, 1.000000000000000000 ) ) ;
#702 = LINE ( 'NONE', #30, #141 ) ;
#703 = LINE ( 'NONE', #1134, #1100 ) ;
#704 = VERTEX_POINT ( 'NONE', #911 ) ;
#705 = VERTEX_POINT ( 'NONE', #567 ) ;
#706 = CARTESIAN_POINT ( 'NONE',  ( 37.00000000000007105, -100.0000000000000000, 0.000000000000000000 ) ) ;
#707 = FACE_OUTER_BOUND ( 'NONE', #417, .T. ) ;
#708 = DIRECTION ( 'NONE',  ( 0.000000000000000000, -1.000000000000000000, 0.000000000000000000 ) ) ;
#709 = CARTESIAN_POINT ( 'NONE',  ( 3.278627369596165408E-14, -79.99999999999998579, 4.000000000000000000 ) ) ;
#710 = EDGE_CURVE ( 'NONE', #963, #1106, #702, .T. ) ;
#711 = EDGE_CURVE ( 'NONE', #86, #1037, #152, .T. ) ;
#712 = ORIENTED_EDGE ( 'NONE', *, *, #944, .T. ) ;
#713 = ORIENTED_EDGE ( 'NONE', *, *, #789, .T. ) ;
#714 = FACE_OUTER_BOUND ( 'NONE', #1073, .T. ) ;
#715 = LINE ( 'NONE', #69, #617 ) ;
#716 = VECTOR ( 'NONE', #581, 1000.000000000000000 ) ;
#717 = VERTEX_POINT ( 'NONE', #599 ) ;
#718 = ORIENTED_EDGE ( 'NONE', *, *, #482, .F. ) ;
#719 = CARTESIAN_POINT ( 'NONE',  ( 1.821459649775647134E-14, 3.317715255760823562E-30, 0.000000000000000000 ) ) ;
#720 = VECTOR ( 'NONE', #802, 1000.000000000000000 ) ;
#721 = CARTESIAN_POINT ( 'NONE',  ( -50.00000000000000000, 99.99999999999998579, 4.000000000000000000 ) ) ;
#722 = VECTOR ( 'NONE', #358, 1000.000000000000000 ) ;
#723 = LINE ( 'NONE', #517, #1212 ) ;
#724 = VECTOR ( 'NONE', #1288, 1000.000000000000000 ) ;
#725 = AXIS2_PLACEMENT_3D ( 'NONE', #541, #548, #860 ) ;
#726 = ORIENTED_EDGE ( 'NONE', *, *, #610, .T. ) ;
#727 = CARTESIAN_POINT ( 'NONE',  ( 50.00000000000000000, -100.0000000000000142, 4.000000000000000000 ) ) ;
#728 = CALENDAR_DATE ( 2026, 27, 5 ) ;
#729 = DIRECTION ( 'NONE',  ( 1.000000000000000000, 0.000000000000000000, 0.000000000000000000 ) ) ;
#730 = ADVANCED_FACE ( 'NONE', ( #1000 ), #7, .F. ) ;
#731 = VECTOR ( 'NONE', #780, 1000.000000000000000 ) ;
#732 = ORIENTED_EDGE ( 'NONE', *, *, #323, .F. ) ;
#733 = AXIS2_PLACEMENT_3D ( 'NONE', #662, #1013, #221 ) ;
#734 = CARTESIAN_POINT ( 'NONE',  ( 46.00000000000000711, 20.00000000000003197, 0.000000000000000000 ) ) ;
#735 = VERTEX_POINT ( 'NONE', #1326 ) ;
#736 = VECTOR ( 'NONE', #1337, 1000.000000000000000 ) ;
#737 = CARTESIAN_POINT ( 'NONE',  ( 3.278627369596165408E-14, -79.99999999999998579, 0.000000000000000000 ) ) ;
#738 = ORIENTED_EDGE ( 'NONE', *, *, #815, .F. ) ;
#739 = CARTESIAN_POINT ( 'NONE',  ( 0.000000000000000000, 0.000000000000000000, 0.000000000000000000 ) ) ;
#740 = ORIENTED_EDGE ( 'NONE', *, *, #948, .T. ) ;
#741 = CARTESIAN_POINT ( 'NONE',  ( 46.00000000000000711, -20.00000000000003197, 0.000000000000000000 ) ) ;
#742 = ORIENTED_EDGE ( 'NONE', *, *, #1342, .T. ) ;
#743 = EDGE_CURVE ( 'NONE', #78, #870, #233, .T. ) ;
#744 = EDGE_CURVE ( 'NONE', #735, #9, #900, .T. ) ;
#745 = LINE ( 'NONE', #1174, #686 ) ;
#746 = VECTOR ( 'NONE', #1281, 1000.000000000000000 ) ;
#747 = UNCERTAINTY_MEASURE_WITH_UNIT (LENGTH_MEASURE( 1.000000000000000082E-05 ), #1092, 'distance_accuracy_value', 'NONE');
#748 = ADVANCED_FACE ( 'NONE', ( #159 ), #1139, .F. ) ;
#749 = ORIENTED_EDGE ( 'NONE', *, *, #586, .T. ) ;
#750 = LINE ( 'NONE', #962, #1082 ) ;
#751 = LINE ( 'NONE', #767, #896 ) ;
#752 = APPROVAL_PERSON_ORGANIZATION ( #5, #518, #72 ) ;
#753 = CARTESIAN_POINT ( 'NONE',  ( 37.00000000000007105, -104.0000000000000142, 4.000000000000000000 ) ) ;
#754 = VERTEX_POINT ( 'NONE', #1361 ) ;
#755 = ORIENTED_EDGE ( 'NONE', *, *, #1383, .F. ) ;
#756 = AXIS2_PLACEMENT_3D ( 'NONE', #453, #243, #13 ) ;
#757 = LINE ( 'NONE', #1387, #1193 ) ;
#758 = PLANE ( 'NONE',  #1070 ) ;
#759 = CARTESIAN_POINT ( 'NONE',  ( 50.00000000000000000, -100.0000000000000142, 4.000000000000000000 ) ) ;
#760 = DIRECTION ( 'NONE',  ( -6.071532165918828775E-16, 1.000000000000000000, 0.000000000000000000 ) ) ;
#761 = VECTOR ( 'NONE', #366, 1000.000000000000000 ) ;
#762 = ORIENTED_EDGE ( 'NONE', *, *, #60, .F. ) ;
#763 = VERTEX_POINT ( 'NONE', #385 ) ;
#764 = DIRECTION ( 'NONE',  ( 0.000000000000000000, 0.000000000000000000, -1.000000000000000000 ) ) ;
#765 = CC_DESIGN_PERSON_AND_ORGANIZATION_ASSIGNMENT ( #390, #808, ( #1376 ) ) ;
#766 = PERSON_AND_ORGANIZATION ( #545, #551 ) ;
#767 = CARTESIAN_POINT ( 'NONE',  ( 3.999999999999979128, 2.428612866367518888E-15, 0.000000000000000000 ) ) ;
#768 = CARTESIAN_POINT ( 'NONE',  ( 46.00000000000000711, 20.00000000000003197, 0.000000000000000000 ) ) ;
#769 = DIRECTION ( 'NONE',  ( -5.637851296924622071E-16, 1.000000000000000000, 0.000000000000000000 ) ) ;
#770 = ADVANCED_FACE ( 'NONE', ( #266 ), #926, .F. ) ;
#771 = ORIENTED_EDGE ( 'NONE', *, *, #376, .T. ) ;
#772 = CARTESIAN_POINT ( 'NONE',  ( 50.00000000000000000, -100.0000000000000142, 4.000000000000000000 ) ) ;
#773 = EDGE_CURVE ( 'NONE', #80, #906, #111, .T. ) ;
#774 = DIRECTION ( 'NONE',  ( -0.000000000000000000, -0.000000000000000000, -1.000000000000000000 ) ) ;
#775 = PLANE ( 'NONE',  #1328 ) ;
#776 = DIRECTION ( 'NONE',  ( 0.000000000000000000, -0.000000000000000000, 1.000000000000000000 ) ) ;
#777 = DIRECTION ( 'NONE',  ( -1.734723475976805517E-15, -1.000000000000000000, 0.000000000000000000 ) ) ;
#778 = EDGE_LOOP ( 'NONE', ( #401, #1043, #1102, #1036 ) ) ;
#779 = VERTEX_POINT ( 'NONE', #104 ) ;
#780 = DIRECTION ( 'NONE',  ( -1.000000000000000000, 0.000000000000000000, 0.000000000000000000 ) ) ;
#781 = DIRECTION ( 'NONE',  ( -0.000000000000000000, -0.000000000000000000, 1.000000000000000000 ) ) ;
#782 = CARTESIAN_POINT ( 'NONE',  ( 46.00000000000000711, -40.00000000000002132, 4.000000000000000000 ) ) ;
#783 = PLANE ( 'NONE',  #1262 ) ;
#784 = AXIS2_PLACEMENT_3D ( 'NONE', #283, #1154, #161 ) ;
#785 = CARTESIAN_POINT ( 'NONE',  ( 46.00000000000000000, 60.00000000000002842, 4.000000000000000000 ) ) ;
#786 = ORIENTED_EDGE ( 'NONE', *, *, #175, .T. ) ;
#787 = ORIENTED_EDGE ( 'NONE', *, *, #330, .F. ) ;
#788 = FACE_OUTER_BOUND ( 'NONE', #938, .T. ) ;
#789 = EDGE_CURVE ( 'NONE', #471, #1148, #305, .T. ) ;
#790 = EDGE_CURVE ( 'NONE', #885, #315, #635, .T. ) ;
#791 = LINE ( 'NONE', #134, #973 ) ;
#792 = DIRECTION ( 'NONE',  ( 1.000000000000000000, 3.469446951953611033E-15, 0.000000000000000000 ) ) ;
#793 = DIRECTION ( 'NONE',  ( 0.000000000000000000, -0.000000000000000000, 1.000000000000000000 ) ) ;
#794 = AXIS2_PLACEMENT_3D ( 'NONE', #1116, #898, #339 ) ;
#795 = CARTESIAN_POINT ( 'NONE',  ( 1.821459649775647134E-14, 3.317715255760823562E-30, 4.000000000000000000 ) ) ;
#796 = ADVANCED_FACE ( 'NONE', ( #988 ), #441, .T. ) ;
#797 = ORIENTED_EDGE ( 'NONE', *, *, #1231, .F. ) ;
#798 = VERTEX_POINT ( 'NONE', #1395 ) ;
#799 = CARTESIAN_POINT ( 'NONE',  ( 46.00000000000000000, 80.00000000000002842, 0.000000000000000000 ) ) ;
#800 = CARTESIAN_POINT ( 'NONE',  ( 46.00000000000000000, -80.00000000000002842, 0.000000000000000000 ) ) ;
#801 = CARTESIAN_POINT ( 'NONE',  ( 1.821459649775647449E-14, -100.0000000000000142, 4.000000000000000000 ) ) ;
#802 = DIRECTION ( 'NONE',  ( -0.000000000000000000, -0.000000000000000000, 1.000000000000000000 ) ) ;
#803 = VECTOR ( 'NONE', #613, 1000.000000000000000 ) ;
#804 = DIRECTION ( 'NONE',  ( 0.000000000000000000, -1.000000000000000000, 0.000000000000000000 ) ) ;
#805 = ORIENTED_EDGE ( 'NONE', *, *, #500, .T. ) ;
#806 = LINE ( 'NONE', #55, #803 ) ;
#807 = VECTOR ( 'NONE', #365, 1000.000000000000000 ) ;
#808 = PERSON_AND_ORGANIZATION_ROLE ( 'classification_officer' ) ;
#809 = PLANE ( 'NONE',  #22 ) ;
#810 = PLANE ( 'NONE',  #282 ) ;
#811 = CARTESIAN_POINT ( 'NONE',  ( 50.00000000000000000, -80.00000000000001421, 4.000000000000000000 ) ) ;
#812 = VERTEX_POINT ( 'NONE', #1307 ) ;
#813 = ORIENTED_EDGE ( 'NONE', *, *, #419, .F. ) ;
#814 = LINE ( 'NONE', #664, #724 ) ;
#815 = EDGE_CURVE ( 'NONE', #601, #1037, #1071, .T. ) ;
#816 = EDGE_CURVE ( 'NONE', #54, #812, #850, .T. ) ;
#817 = PERSON_AND_ORGANIZATION ( #545, #551 ) ;
#818 = DIRECTION ( 'NONE',  ( 0.000000000000000000, -0.000000000000000000, 1.000000000000000000 ) ) ;
#819 = DIRECTION ( 'NONE',  ( -1.000000000000000000, 0.000000000000000000, 0.000000000000000000 ) ) ;
#820 = DIRECTION ( 'NONE',  ( -1.821459649775647449E-16, 1.000000000000000000, 0.000000000000000000 ) ) ;
#821 = ORIENTED_EDGE ( 'NONE', *, *, #520, .F. ) ;
#822 = ORIENTED_EDGE ( 'NONE', *, *, #561, .T. ) ;
#823 = CARTESIAN_POINT ( 'NONE',  ( 0.000000000000000000, -19.99999999999998934, 0.000000000000000000 ) ) ;
#824 = APPROVAL_DATE_TIME ( #46, #1061 ) ;
#825 = CARTESIAN_POINT ( 'NONE',  ( 4.000000000000007994, 19.99999999999997513, 0.000000000000000000 ) ) ;
#826 = DIRECTION ( 'NONE',  ( 0.000000000000000000, -0.000000000000000000, -1.000000000000000000 ) ) ;
#827 = ORIENTED_EDGE ( 'NONE', *, *, #415, .F. ) ;
#828 = ORIENTED_EDGE ( 'NONE', *, *, #638, .F. ) ;
#829 = CARTESIAN_POINT ( 'NONE',  ( 4.000000000000007994, 19.99999999999997513, 0.000000000000000000 ) ) ;
#830 = DATE_AND_TIME ( #835, #1390 ) ;
#831 = DIRECTION ( 'NONE',  ( -1.821459649775647449E-16, 1.000000000000000000, 0.000000000000000000 ) ) ;
#832 = VECTOR ( 'NONE', #1032, 1000.000000000000000 ) ;
#833 = ORIENTED_EDGE ( 'NONE', *, *, #230, .F. ) ;
#834 = CARTESIAN_POINT ( 'NONE',  ( 13.00000000000007105, -104.0000000000000284, 4.000000000000000000 ) ) ;
#835 = CALENDAR_DATE ( 2026, 27, 5 ) ;
#836 = DIRECTION ( 'NONE',  ( -1.000000000000000000, -2.775557561562891351E-16, -0.000000000000000000 ) ) ;
#837 = EDGE_CURVE ( 'NONE', #659, #1188, #327, .T. ) ;
#838 = VECTOR ( 'NONE', #178, 1000.000000000000000 ) ;
#839 = PLANE ( 'NONE',  #559 ) ;
#840 = VECTOR ( 'NONE', #170, 1000.000000000000000 ) ;
#841 = ADVANCED_FACE ( 'NONE', ( #425 ), #858, .F. ) ;
#842 = VECTOR ( 'NONE', #1411, 1000.000000000000000 ) ;
#843 = ORIENTED_EDGE ( 'NONE', *, *, #1133, .T. ) ;
#844 = DIRECTION ( 'NONE',  ( -0.000000000000000000, -0.000000000000000000, 1.000000000000000000 ) ) ;
#845 = FACE_OUTER_BOUND ( 'NONE', #979, .T. ) ;
#846 = ORIENTED_EDGE ( 'NONE', *, *, #562, .T. ) ;
#847 = CARTESIAN_POINT ( 'NONE',  ( 7.285838599102589797E-15, 59.99999999999998579, 0.000000000000000000 ) ) ;
#848 = EDGE_LOOP ( 'NONE', ( #522, #1391, #1233, #976 ) ) ;
#849 = VECTOR ( 'NONE', #1219, 1000.000000000000000 ) ;
#850 = LINE ( 'NONE', #319, #863 ) ;
#851 = ORIENTED_EDGE ( 'NONE', *, *, #637, .T. ) ;
#852 = AXIS2_PLACEMENT_3D ( 'NONE', #1354, #576, #234 ) ;
#853 = ORIENTED_EDGE ( 'NONE', *, *, #1049, .T. ) ;
#854 = EDGE_CURVE ( 'NONE', #1188, #601, #1066, .T. ) ;
#855 = EDGE_CURVE ( 'NONE', #1200, #1314, #1169, .T. ) ;
#856 = LINE ( 'NONE', #302, #1025 ) ;
#857 = VERTEX_POINT ( 'NONE', #1199 ) ;
#858 = PLANE ( 'NONE',  #942 ) ;
#859 = ORIENTED_EDGE ( 'NONE', *, *, #285, .F. ) ;
#860 = DIRECTION ( 'NONE',  ( 0.000000000000000000, 0.000000000000000000, 1.000000000000000000 ) ) ;
#861 = CARTESIAN_POINT ( 'NONE',  ( 4.000000000000007994, 19.99999999999997513, 0.000000000000000000 ) ) ;
#862 = DIRECTION ( 'NONE',  ( -0.000000000000000000, -0.000000000000000000, 1.000000000000000000 ) ) ;
#863 = VECTOR ( 'NONE', #642, 1000.000000000000000 ) ;
#864 = VERTEX_POINT ( 'NONE', #535 ) ;
#865 = VERTEX_POINT ( 'NONE', #82 ) ;
#866 = LINE ( 'NONE', #88, #38 ) ;
#867 = DIRECTION ( 'NONE',  ( 0.000000000000000000, 1.000000000000000000, 0.000000000000000000 ) ) ;
#868 = LINE ( 'NONE', #1088, #129 ) ;
#869 = ORIENTED_EDGE ( 'NONE', *, *, #1292, .F. ) ;
#870 = VERTEX_POINT ( 'NONE', #312 ) ;
#871 = FACE_OUTER_BOUND ( 'NONE', #563, .T. ) ;
#872 = EDGE_CURVE ( 'NONE', #953, #950, #529, .T. ) ;
#873 = DIRECTION ( 'NONE',  ( 0.000000000000000000, -1.000000000000000000, 0.000000000000000000 ) ) ;
#874 = CARTESIAN_POINT ( 'NONE',  ( 4.000000000000019540, -39.99999999999999289, 4.000000000000000000 ) ) ;
#875 = LINE ( 'NONE', #304, #94 ) ;
#876 = DIRECTION ( 'NONE',  ( 0.000000000000000000, -1.000000000000000000, 0.000000000000000000 ) ) ;
#877 = EDGE_CURVE ( 'NONE', #1364, #865, #745, .T. ) ;
#878 = ORIENTED_EDGE ( 'NONE', *, *, #1418, .F. ) ;
#879 = ORIENTED_EDGE ( 'NONE', *, *, #1153, .F. ) ;
#880 = DIRECTION ( 'NONE',  ( -1.821459649775647449E-16, 1.000000000000000000, 0.000000000000000000 ) ) ;
#881 = DIRECTION ( 'NONE',  ( 1.000000000000000000, 3.469446951953611033E-15, -0.000000000000000000 ) ) ;
#882 = DIRECTION ( 'NONE',  ( 0.000000000000000000, 0.000000000000000000, 1.000000000000000000 ) ) ;
#883 = CARTESIAN_POINT ( 'NONE',  ( 4.000000000000007105, 3.469446951953620105E-16, 4.000000000000000000 ) ) ;
#884 = DIRECTION ( 'NONE',  ( -1.821459649775647449E-16, 1.000000000000000000, 0.000000000000000000 ) ) ;
#885 = VERTEX_POINT ( 'NONE', #1095 ) ;
#886 = ORIENTED_EDGE ( 'NONE', *, *, #236, .F. ) ;
#887 = CARTESIAN_POINT ( 'NONE',  ( 46.00000000000000711, -20.00000000000003197, 4.000000000000000000 ) ) ;
#888 = LINE ( 'NONE', #357, #1008 ) ;
#889 = CARTESIAN_POINT ( 'NONE',  ( 46.00000000000000000, -80.00000000000002842, 4.000000000000000000 ) ) ;
#890 = CARTESIAN_POINT ( 'NONE',  ( 4.000000000000027534, -79.99999999999998579, 0.000000000000000000 ) ) ;
#891 = EDGE_CURVE ( 'NONE', #464, #963, #1300, .T. ) ;
#892 = DIRECTION ( 'NONE',  ( 0.000000000000000000, 0.000000000000000000, -1.000000000000000000 ) ) ;
#893 = EDGE_CURVE ( 'NONE', #1290, #857, #209, .T. ) ;
#894 = EDGE_CURVE ( 'NONE', #1168, #471, #1078, .T. ) ;
#895 = ORIENTED_EDGE ( 'NONE', *, *, #4, .T. ) ;
#896 = VECTOR ( 'NONE', #549, 1000.000000000000000 ) ;
#897 = DIRECTION ( 'NONE',  ( 0.000000000000000000, -1.000000000000000000, -0.000000000000000000 ) ) ;
#898 = DIRECTION ( 'NONE',  ( -1.000000000000000000, 0.000000000000000000, 0.000000000000000000 ) ) ;
#899 = CARTESIAN_POINT ( 'NONE',  ( 4.000000000000005329, 39.99999999999997868, 0.000000000000000000 ) ) ;
#900 = LINE ( 'NONE', #1222, #832 ) ;
#901 = EDGE_CURVE ( 'NONE', #288, #1002, #978, .T. ) ;
#902 = DIRECTION ( 'NONE',  ( 0.000000000000000000, 0.000000000000000000, -1.000000000000000000 ) ) ;
#903 = CC_DESIGN_DATE_AND_TIME_ASSIGNMENT ( #830, #490, ( #1270 ) ) ;
#904 = VECTOR ( 'NONE', #41, 1000.000000000000000 ) ;
#905 = EDGE_CURVE ( 'NONE', #864, #185, #868, .T. ) ;
#906 = VERTEX_POINT ( 'NONE', #42 ) ;
#907 = FACE_OUTER_BOUND ( 'NONE', #362, .T. ) ;
#908 = VECTOR ( 'NONE', #430, 1000.000000000000000 ) ;
#909 =( NAMED_UNIT ( * ) SI_UNIT ( $, .STERADIAN. ) SOLID_ANGLE_UNIT ( ) );
#910 = DIRECTION ( 'NONE',  ( -0.000000000000000000, -0.000000000000000000, 1.000000000000000000 ) ) ;
#911 = CARTESIAN_POINT ( 'NONE',  ( 50.00000000000000000, -60.00000000000002842, 4.000000000000000000 ) ) ;
#912 = VECTOR ( 'NONE', #729, 1000.000000000000000 ) ;
#913 = LINE ( 'NONE', #674, #929 ) ;
#914 = EDGE_CURVE ( 'NONE', #1148, #1170, #470, .T. ) ;
#915 = ORIENTED_EDGE ( 'NONE', *, *, #592, .F. ) ;
#916 = CARTESIAN_POINT ( 'NONE',  ( -50.00000000000000000, 99.99999999999998579, 4.000000000000000000 ) ) ;
#917 = CARTESIAN_POINT ( 'NONE',  ( 50.00000000000000000, -100.0000000000000142, 0.000000000000000000 ) ) ;
#918 = CARTESIAN_POINT ( 'NONE',  ( 46.00000000000000711, -40.00000000000002132, 0.000000000000000000 ) ) ;
#919 = FACE_OUTER_BOUND ( 'NONE', #588, .T. ) ;
#920 = ORIENTED_EDGE ( 'NONE', *, *, #85, .F. ) ;
#921 = EDGE_LOOP ( 'NONE', ( #480, #388, #1044, #354 ) ) ;
#922 = FACE_OUTER_BOUND ( 'NONE', #1239, .T. ) ;
#923 = VECTOR ( 'NONE', #355, 1000.000000000000000 ) ;
#924 = DATE_TIME_ROLE ( 'classification_date' ) ;
#925 = CARTESIAN_POINT ( 'NONE',  ( 50.00000000000000000, 20.00000000000003197, 0.000000000000000000 ) ) ;
#926 = PLANE ( 'NONE',  #1185 ) ;
#927 = EDGE_CURVE ( 'NONE', #12, #443, #913, .T. ) ;
#928 = CARTESIAN_POINT ( 'NONE',  ( 46.00000000000000000, -60.00000000000002842, 0.000000000000000000 ) ) ;
#929 = VECTOR ( 'NONE', #486, 1000.000000000000000 ) ;
#930 = ORIENTED_EDGE ( 'NONE', *, *, #610, .F. ) ;
#931 = ADVANCED_FACE ( 'NONE', ( #691 ), #593, .T. ) ;
#932 = VECTOR ( 'NONE', #424, 1000.000000000000000 ) ;
#933 = ORIENTED_EDGE ( 'NONE', *, *, #1153, .T. ) ;
#934 = LINE ( 'NONE', #604, #1273 ) ;
#935 = PERSON_AND_ORGANIZATION_ROLE ( 'creator' ) ;
#936 = CARTESIAN_POINT ( 'NONE',  ( 50.00000000000000000, -20.00000000000003197, 0.000000000000000000 ) ) ;
#937 = CARTESIAN_POINT ( 'NONE',  ( 1.821459649775647134E-14, 3.317715255760823562E-30, 0.000000000000000000 ) ) ;
#938 = EDGE_LOOP ( 'NONE', ( #329, #1356, #822, #1173 ) ) ;
#939 = ORIENTED_EDGE ( 'NONE', *, *, #569, .F. ) ;
#940 = DIRECTION ( 'NONE',  ( 0.000000000000000000, 1.000000000000000000, 0.000000000000000000 ) ) ;
#941 = APPROVAL_ROLE ( '' ) ;
#942 = AXIS2_PLACEMENT_3D ( 'NONE', #200, #431, #1424 ) ;
#943 = FACE_OUTER_BOUND ( 'NONE', #25, .T. ) ;
#944 = EDGE_CURVE ( 'NONE', #1349, #1393, #1017, .T. ) ;
#945 = ORIENTED_EDGE ( 'NONE', *, *, #855, .T. ) ;
#946 = CALENDAR_DATE ( 2026, 27, 5 ) ;
#947 = CARTESIAN_POINT ( 'NONE',  ( 2.914335439641035288E-14, -60.00000000000000000, 0.000000000000000000 ) ) ;
#948 = EDGE_CURVE ( 'NONE', #659, #196, #1232, .T. ) ;
#949 = VECTOR ( 'NONE', #1007, 1000.000000000000000 ) ;
#950 = VERTEX_POINT ( 'NONE', #1347 ) ;
#951 = CALENDAR_DATE ( 2026, 27, 5 ) ;
#952 = DIRECTION ( 'NONE',  ( 0.000000000000000000, -1.000000000000000000, 0.000000000000000000 ) ) ;
#953 = VERTEX_POINT ( 'NONE', #21 ) ;
#954 = ORIENTED_EDGE ( 'NONE', *, *, #419, .T. ) ;
#955 = CARTESIAN_POINT ( 'NONE',  ( 50.00000000000000000, -40.00000000000002132, 4.000000000000000000 ) ) ;
#956 = VERTEX_POINT ( 'NONE', #477 ) ;
#957 = CARTESIAN_POINT ( 'NONE',  ( 3.999999999999979128, 2.428612866367518888E-15, 4.000000000000000000 ) ) ;
#958 = ORIENTED_EDGE ( 'NONE', *, *, #540, .F. ) ;
#959 = EDGE_CURVE ( 'NONE', #865, #1263, #368, .T. ) ;
#960 = CC_DESIGN_SECURITY_CLASSIFICATION ( #1376, ( #1255 ) ) ;
#961 = CC_DESIGN_PERSON_AND_ORGANIZATION_ASSIGNMENT ( #1265, #935, ( #1255 ) ) ;
#962 = CARTESIAN_POINT ( 'NONE',  ( 50.00000000000000000, -40.00000000000002132, 0.000000000000000000 ) ) ;
#963 = VERTEX_POINT ( 'NONE', #245 ) ;
#964 = AXIS2_PLACEMENT_3D ( 'NONE', #118, #437, #198 ) ;
#965 = DIRECTION ( 'NONE',  ( -1.821459649775647449E-16, 1.000000000000000000, 0.000000000000000000 ) ) ;
#966 = ORIENTED_EDGE ( 'NONE', *, *, #399, .F. ) ;
#967 = AXIS2_PLACEMENT_3D ( 'NONE', #937, #1375, #73 ) ;
#968 = ORIENTED_EDGE ( 'NONE', *, *, #837, .F. ) ;
#969 = DIRECTION ( 'NONE',  ( 0.000000000000000000, 1.000000000000000000, 0.000000000000000000 ) ) ;
#970 = ORIENTED_EDGE ( 'NONE', *, *, #506, .F. ) ;
#971 = CARTESIAN_POINT ( 'NONE',  ( 50.00000000000000000, 80.00000000000001421, 0.000000000000000000 ) ) ;
#972 = ORIENTED_EDGE ( 'NONE', *, *, #1060, .T. ) ;
#973 = VECTOR ( 'NONE', #781, 1000.000000000000000 ) ;
#974 = VERTEX_POINT ( 'NONE', #698 ) ;
#975 = CARTESIAN_POINT ( 'NONE',  ( 4.000000000000000000, 79.99999999999998579, 0.000000000000000000 ) ) ;
#976 = ORIENTED_EDGE ( 'NONE', *, *, #482, .T. ) ;
#977 = CARTESIAN_POINT ( 'NONE',  ( 46.00000000000000000, -60.00000000000002842, 4.000000000000000000 ) ) ;
#978 = LINE ( 'NONE', #1414, #1113 ) ;
#979 = EDGE_LOOP ( 'NONE', ( #420, #154, #989, #1069 ) ) ;
#980 = ADVANCED_FACE ( 'NONE', ( #560 ), #120, .F. ) ;
#981 = VECTOR ( 'NONE', #589, 1000.000000000000000 ) ;
#982 = VERTEX_POINT ( 'NONE', #811 ) ;
#983 = LINE ( 'NONE', #772, #1039 ) ;
#984 = LOCAL_TIME ( 17, 3, 38.00000000000000000, #1367 ) ;
#985 = DIRECTION ( 'NONE',  ( 1.000000000000000000, -0.000000000000000000, -0.000000000000000000 ) ) ;
#986 = ORIENTED_EDGE ( 'NONE', *, *, #877, .T. ) ;
#987 = EDGE_CURVE ( 'NONE', #1330, #1168, #568, .T. ) ;
#988 = FACE_OUTER_BOUND ( 'NONE', #216, .T. ) ;
#989 = ORIENTED_EDGE ( 'NONE', *, *, #1177, .F. ) ;
#990 = ORIENTED_EDGE ( 'NONE', *, *, #944, .F. ) ;
#991 = DIRECTION ( 'NONE',  ( -0.000000000000000000, 0.000000000000000000, 1.000000000000000000 ) ) ;
#992 = VECTOR ( 'NONE', #360, 1000.000000000000000 ) ;
#993 = CARTESIAN_POINT ( 'NONE',  ( 46.00000000000000711, 40.00000000000002132, 0.000000000000000000 ) ) ;
#994 = LINE ( 'NONE', #1093, #583 ) ;
#995 = DIRECTION ( 'NONE',  ( -1.000000000000000000, 0.000000000000000000, 0.000000000000000000 ) ) ;
#996 = DIRECTION ( 'NONE',  ( -5.637851296924622071E-16, 1.000000000000000000, 0.000000000000000000 ) ) ;
#997 = ORIENTED_EDGE ( 'NONE', *, *, #872, .F. ) ;
#998 = CARTESIAN_POINT ( 'NONE',  ( 2.185751579730776623E-14, -19.99999999999998934, 4.000000000000000000 ) ) ;
#999 = ORIENTED_EDGE ( 'NONE', *, *, #235, .T. ) ;
#1000 = FACE_OUTER_BOUND ( 'NONE', #277, .T. ) ;
#1001 = CARTESIAN_POINT ( 'NONE',  ( -0.000000000000000000, -60.00000000000000000, 4.000000000000000000 ) ) ;
#1002 = VERTEX_POINT ( 'NONE', #130 ) ;
#1003 = EDGE_CURVE ( 'NONE', #717, #75, #14, .T. ) ;
#1004 = EDGE_CURVE ( 'NONE', #704, #131, #225, .T. ) ;
#1005 = CARTESIAN_POINT ( 'NONE',  ( 13.00000000000007105, -100.0000000000000142, 0.000000000000000000 ) ) ;
#1006 = ORIENTED_EDGE ( 'NONE', *, *, #330, .T. ) ;
#1007 = DIRECTION ( 'NONE',  ( 0.000000000000000000, 1.000000000000000000, 0.000000000000000000 ) ) ;
#1008 = VECTOR ( 'NONE', #1317, 1000.000000000000000 ) ;
#1009 = DIRECTION ( 'NONE',  ( -1.000000000000000000, 0.000000000000000000, 0.000000000000000000 ) ) ;
#1010 = ORIENTED_EDGE ( 'NONE', *, *, #376, .F. ) ;
#1011 = CLOSED_SHELL ( 'NONE', ( #690, #748, #432, #730, #1253, #537, #300, #1029, #24, #1048, #1402, #980, #796, #1145, #281, #1034, #74, #1129, #1234, #434, #1397, #770, #1059, #620, #84, #1184, #1299, #931, #260, #188, #1149, #127, #675, #70, #693, #128, #1394, #841, #382, #1085, #400, #1105 ) ) ;
#1012 = DIRECTION ( 'NONE',  ( 0.000000000000000000, -0.000000000000000000, 1.000000000000000000 ) ) ;
#1013 = DIRECTION ( 'NONE',  ( 1.067522139062656391E-15, 1.000000000000000000, -0.000000000000000000 ) ) ;
#1014 = LINE ( 'NONE', #29, #722 ) ;
#1015 = PLANE ( 'NONE',  #1074 ) ;
#1016 = VECTOR ( 'NONE', #1407, 1000.000000000000000 ) ;
#1017 = LINE ( 'NONE', #1104, #421 ) ;
#1018 = VECTOR ( 'NONE', #844, 1000.000000000000000 ) ;
#1019 = ORIENTED_EDGE ( 'NONE', *, *, #711, .F. ) ;
#1020 = LINE ( 'NONE', #829, #1080 ) ;
#1021 = VECTOR ( 'NONE', #372, 1000.000000000000000 ) ;
#1022 = APPLICATION_PROTOCOL_DEFINITION ( 'international standard', 'config_control_design', 1994, #1374 ) ;
#1023 = DIRECTION ( 'NONE',  ( -1.000000000000000000, 0.000000000000000000, -0.000000000000000000 ) ) ;
#1024 = PLANE ( 'NONE',  #1284 ) ;
#1025 = VECTOR ( 'NONE', #1421, 1000.000000000000000 ) ;
#1026 = DIRECTION ( 'NONE',  ( 0.000000000000000000, 1.000000000000000000, 0.000000000000000000 ) ) ;
#1027 = ORIENTED_EDGE ( 'NONE', *, *, #267, .F. ) ;
#1028 = PLANE ( 'NONE',  #1415 ) ;
#1029 = ADVANCED_FACE ( 'NONE', ( #919 ), #463, .F. ) ;
#1030 = PERSON_AND_ORGANIZATION ( #545, #551 ) ;
#1031 = PLANE ( 'NONE',  #1338 ) ;
#1032 = DIRECTION ( 'NONE',  ( -0.000000000000000000, -0.000000000000000000, 1.000000000000000000 ) ) ;
#1033 = DIRECTION ( 'NONE',  ( 1.000000000000000000, 1.821459649775647449E-16, 0.000000000000000000 ) ) ;
#1034 = ADVANCED_FACE ( 'NONE', ( #1327 ), #352, .T. ) ;
#1035 = AXIS2_PLACEMENT_3D ( 'NONE', #573, #18, #483 ) ;
#1036 = ORIENTED_EDGE ( 'NONE', *, *, #361, .T. ) ;
#1037 = VERTEX_POINT ( 'NONE', #785 ) ;
#1038 = DIRECTION ( 'NONE',  ( -1.000000000000000000, 0.000000000000000000, 0.000000000000000000 ) ) ;
#1039 = VECTOR ( 'NONE', #3, 1000.000000000000000 ) ;
#1040 = DIRECTION ( 'NONE',  ( 1.301042606982605074E-16, -1.000000000000000000, 0.000000000000000000 ) ) ;
#1041 = FACE_OUTER_BOUND ( 'NONE', #602, .T. ) ;
#1042 = VECTOR ( 'NONE', #1261, 1000.000000000000000 ) ;
#1043 = ORIENTED_EDGE ( 'NONE', *, *, #877, .F. ) ;
#1044 = ORIENTED_EDGE ( 'NONE', *, *, #1303, .T. ) ;
#1045 = CARTESIAN_POINT ( 'NONE',  ( 2.550043509685906113E-14, -39.99999999999999289, 4.000000000000000000 ) ) ;
#1046 = CARTESIAN_POINT ( 'NONE',  ( 46.00000000000000000, -60.00000000000002842, 4.000000000000000000 ) ) ;
#1047 = PLANE ( 'NONE',  #226 ) ;
#1048 = ADVANCED_FACE ( 'NONE', ( #1216 ), #138, .F. ) ;
#1049 = EDGE_CURVE ( 'NONE', #12, #1290, #1112, .T. ) ;
#1050 = ORIENTED_EDGE ( 'NONE', *, *, #1126, .T. ) ;
#1051 = CC_DESIGN_PERSON_AND_ORGANIZATION_ASSIGNMENT ( #766, #1196, ( #1084 ) ) ;
#1052 = LINE ( 'NONE', #274, #1155 ) ;
#1053 = EDGE_CURVE ( 'NONE', #61, #89, #703, .T. ) ;
#1054 = ORIENTED_EDGE ( 'NONE', *, *, #263, .F. ) ;
#1055 = FACE_OUTER_BOUND ( 'NONE', #1247, .T. ) ;
#1056 = ORIENTED_EDGE ( 'NONE', *, *, #901, .T. ) ;
#1057 = LINE ( 'NONE', #1086, #479 ) ;
#1058 = ORIENTED_EDGE ( 'NONE', *, *, #561, .F. ) ;
#1059 = ADVANCED_FACE ( 'NONE', ( #180 ), #1047, .F. ) ;
#1060 = EDGE_CURVE ( 'NONE', #547, #83, #723, .T. ) ;
#1061 = APPROVAL ( #614, 'UNSPECIFIED' ) ;
#1062 = ORIENTED_EDGE ( 'NONE', *, *, #500, .F. ) ;
#1063 = FACE_OUTER_BOUND ( 'NONE', #921, .T. ) ;
#1064 = ORIENTED_EDGE ( 'NONE', *, *, #1398, .F. ) ;
#1065 = DIRECTION ( 'NONE',  ( 0.000000000000000000, 1.000000000000000000, 0.000000000000000000 ) ) ;
#1066 = LINE ( 'NONE', #447, #1296 ) ;
#1067 = ORIENTED_EDGE ( 'NONE', *, *, #667, .F. ) ;
#1068 = CARTESIAN_POINT ( 'NONE',  ( 4.000000000000000000, 79.99999999999998579, 0.000000000000000000 ) ) ;
#1069 = ORIENTED_EDGE ( 'NONE', *, *, #987, .T. ) ;
#1070 = AXIS2_PLACEMENT_3D ( 'NONE', #566, #1312, #1110 ) ;
#1071 = LINE ( 'NONE', #1182, #1380 ) ;
#1072 = ORIENTED_EDGE ( 'NONE', *, *, #4, .F. ) ;
#1073 = EDGE_LOOP ( 'NONE', ( #1150, #494, #634, #612 ) ) ;
#1074 = AXIS2_PLACEMENT_3D ( 'NONE', #682, #697, #1124 ) ;
#1075 = CARTESIAN_POINT ( 'NONE',  ( 0.000000000000000000, -79.99999999999998579, 0.000000000000000000 ) ) ;
#1076 = FACE_OUTER_BOUND ( 'NONE', #1217, .T. ) ;
#1077 = VECTOR ( 'NONE', #391, 1000.000000000000000 ) ;
#1078 = LINE ( 'NONE', #97, #509 ) ;
#1079 = EDGE_CURVE ( 'NONE', #429, #651, #49, .T. ) ;
#1080 = VECTOR ( 'NONE', #1258, 1000.000000000000000 ) ;
#1081 = ORIENTED_EDGE ( 'NONE', *, *, #1254, .F. ) ;
#1082 = VECTOR ( 'NONE', #985, 1000.000000000000000 ) ;
#1083 = ORIENTED_EDGE ( 'NONE', *, *, #440, .T. ) ;
#1084 = PRODUCT ( 'colunaVazado', 'colunaVazado', '', ( #39 ) ) ;
#1085 = ADVANCED_FACE ( 'NONE', ( #1055 ), #404, .F. ) ;
#1086 = CARTESIAN_POINT ( 'NONE',  ( 46.00000000000000711, -20.00000000000003197, 0.000000000000000000 ) ) ;
#1087 = CARTESIAN_POINT ( 'NONE',  ( 4.000000000000019540, -39.99999999999999289, 0.000000000000000000 ) ) ;
#1088 = CARTESIAN_POINT ( 'NONE',  ( 0.000000000000000000, 39.99999999999997868, 4.000000000000000000 ) ) ;
#1089 = ORIENTED_EDGE ( 'NONE', *, *, #609, .F. ) ;
#1090 = LINE ( 'NONE', #472, #418 ) ;
#1091 =( GEOMETRIC_REPRESENTATION_CONTEXT ( 3 ) GLOBAL_UNCERTAINTY_ASSIGNED_CONTEXT ( ( #747 ) ) GLOBAL_UNIT_ASSIGNED_CONTEXT ( ( #1092, #249, #909 ) ) REPRESENTATION_CONTEXT ( 'NONE', 'WORKASPACE' ) );
#1092 =( LENGTH_UNIT ( ) NAMED_UNIT ( * ) SI_UNIT ( .MILLI., .METRE. ) );
#1093 = CARTESIAN_POINT ( 'NONE',  ( 1.821459649775647134E-14, 3.317715255760823562E-30, 4.000000000000000000 ) ) ;
#1094 = LINE ( 'NONE', #759, #306 ) ;
#1095 = CARTESIAN_POINT ( 'NONE',  ( 13.00000000000007105, -100.0000000000000142, 4.000000000000000000 ) ) ;
#1096 = VECTOR ( 'NONE', #1226, 1000.000000000000000 ) ;
#1097 = ORIENTED_EDGE ( 'NONE', *, *, #110, .T. ) ;
#1098 = ORIENTED_EDGE ( 'NONE', *, *, #520, .T. ) ;
#1099 = CARTESIAN_POINT ( 'NONE',  ( 1.821459649775647134E-14, 3.317715255760823562E-30, 0.000000000000000000 ) ) ;
#1100 = VECTOR ( 'NONE', #996, 1000.000000000000000 ) ;
#1101 = FACE_OUTER_BOUND ( 'NONE', #1280, .T. ) ;
#1102 = ORIENTED_EDGE ( 'NONE', *, *, #586, .F. ) ;
#1103 = LINE ( 'NONE', #689, #677 ) ;
#1104 = CARTESIAN_POINT ( 'NONE',  ( 7.285838599102589797E-15, 59.99999999999998579, 0.000000000000000000 ) ) ;
#1105 = ADVANCED_FACE ( 'NONE', ( #943 ), #616, .F. ) ;
#1106 = VERTEX_POINT ( 'NONE', #606 ) ;
#1107 = VERTEX_POINT ( 'NONE', #153 ) ;
#1108 = DIRECTION ( 'NONE',  ( -1.821459649775647449E-16, 1.000000000000000000, 0.000000000000000000 ) ) ;
#1109 = CARTESIAN_POINT ( 'NONE',  ( 50.00000000000000000, -100.0000000000000142, 4.000000000000000000 ) ) ;
#1110 = DIRECTION ( 'NONE',  ( -6.071532165918828775E-16, 1.000000000000000000, 0.000000000000000000 ) ) ;
#1111 = DIRECTION ( 'NONE',  ( 0.000000000000000000, -1.000000000000000000, 0.000000000000000000 ) ) ;
#1112 = LINE ( 'NONE', #258, #112 ) ;
#1113 = VECTOR ( 'NONE', #1313, 1000.000000000000000 ) ;
#1114 = ORIENTED_EDGE ( 'NONE', *, *, #667, .T. ) ;
#1115 = CARTESIAN_POINT ( 'NONE',  ( 50.00000000000000000, 40.00000000000002132, 0.000000000000000000 ) ) ;
#1116 = CARTESIAN_POINT ( 'NONE',  ( 46.00000000000000711, -40.00000000000002132, 0.000000000000000000 ) ) ;
#1117 = DIRECTION ( 'NONE',  ( 3.469446951953611033E-15, -1.000000000000000000, 0.000000000000000000 ) ) ;
#1118 = CARTESIAN_POINT ( 'NONE',  ( 50.00000000000000000, -100.0000000000000142, 0.000000000000000000 ) ) ;
#1119 = DIRECTION ( 'NONE',  ( 0.000000000000000000, -1.000000000000000000, 0.000000000000000000 ) ) ;
#1120 = ADVANCED_BREP_SHAPE_REPRESENTATION ( 'colunaVazado', ( #298, #1035 ), #1091 ) ;
#1121 = ORIENTED_EDGE ( 'NONE', *, *, #536, .F. ) ;
#1122 = CARTESIAN_POINT ( 'NONE',  ( 13.00000000000007105, -104.0000000000000284, 0.000000000000000000 ) ) ;
#1123 = CARTESIAN_POINT ( 'NONE',  ( 50.00000000000000000, -40.00000000000002132, 4.000000000000000000 ) ) ;
#1124 = DIRECTION ( 'NONE',  ( 0.000000000000000000, 0.000000000000000000, 1.000000000000000000 ) ) ;
#1125 = CARTESIAN_POINT ( 'NONE',  ( 0.000000000000000000, 0.000000000000000000, 4.000000000000000000 ) ) ;
#1126 = EDGE_CURVE ( 'NONE', #601, #1107, #1147, .T. ) ;
#1127 = ORIENTED_EDGE ( 'NONE', *, *, #175, .F. ) ;
#1128 = LINE ( 'NONE', #834, #476 ) ;
#1129 = ADVANCED_FACE ( 'NONE', ( #1041 ), #501, .F. ) ;
#1130 = PERSON_AND_ORGANIZATION ( #545, #551 ) ;
#1131 = DIRECTION ( 'NONE',  ( -0.000000000000000000, 0.000000000000000000, 1.000000000000000000 ) ) ;
#1132 = DIRECTION ( 'NONE',  ( -0.000000000000000000, -0.000000000000000000, -1.000000000000000000 ) ) ;
#1133 = EDGE_CURVE ( 'NONE', #443, #61, #1379, .T. ) ;
#1134 = CARTESIAN_POINT ( 'NONE',  ( 3.999999999999996447, 2.255140518769846856E-15, 4.000000000000000000 ) ) ;
#1135 = ORIENTED_EDGE ( 'NONE', *, *, #1292, .T. ) ;
#1136 = EDGE_LOOP ( 'NONE', ( #1256, #387, #148, #114 ) ) ;
#1137 = LINE ( 'NONE', #706, #438 ) ;
#1138 = LINE ( 'NONE', #242, #1152 ) ;
#1139 = PLANE ( 'NONE',  #328 ) ;
#1140 = PLANE ( 'NONE',  #543 ) ;
#1141 = ORIENTED_EDGE ( 'NONE', *, *, #570, .T. ) ;
#1142 = EDGE_LOOP ( 'NONE', ( #553, #886, #433, #525 ) ) ;
#1143 = APPROVAL_DATE_TIME ( #1359, #460 ) ;
#1144 = DIRECTION ( 'NONE',  ( -0.000000000000000000, -0.000000000000000000, 1.000000000000000000 ) ) ;
#1145 = ADVANCED_FACE ( 'NONE', ( #1245 ), #839, .F. ) ;
#1146 = EDGE_CURVE ( 'NONE', #870, #131, #513, .T. ) ;
#1147 = LINE ( 'NONE', #622, #166 ) ;
#1148 = VERTEX_POINT ( 'NONE', #1369 ) ;
#1149 = ADVANCED_FACE ( 'NONE', ( #392 ), #1267, .F. ) ;
#1150 = ORIENTED_EDGE ( 'NONE', *, *, #502, .F. ) ;
#1151 = CARTESIAN_POINT ( 'NONE',  ( 4.000000000000027534, -79.99999999999998579, 4.000000000000000000 ) ) ;
#1152 = VECTOR ( 'NONE', #910, 1000.000000000000000 ) ;
#1153 = EDGE_CURVE ( 'NONE', #857, #80, #1052, .T. ) ;
#1154 = DIRECTION ( 'NONE',  ( 3.469446951953611033E-15, 1.000000000000000000, 0.000000000000000000 ) ) ;
#1155 = VECTOR ( 'NONE', #600, 1000.000000000000000 ) ;
#1156 = ORIENTED_EDGE ( 'NONE', *, *, #323, .T. ) ;
#1157 = CARTESIAN_POINT ( 'NONE',  ( 37.00000000000007105, -104.0000000000000142, 0.000000000000000000 ) ) ;
#1158 = DATE_AND_TIME ( #728, #1274 ) ;
#1159 = LINE ( 'NONE', #410, #912 ) ;
#1160 = EDGE_LOOP ( 'NONE', ( #1287, #555, #269, #2 ) ) ;
#1161 = FACE_OUTER_BOUND ( 'NONE', #1175, .T. ) ;
#1162 = LINE ( 'NONE', #647, #656 ) ;
#1163 = VECTOR ( 'NONE', #174, 1000.000000000000000 ) ;
#1164 = EDGE_CURVE ( 'NONE', #1165, #1170, #715, .T. ) ;
#1165 = VERTEX_POINT ( 'NONE', #947 ) ;
#1166 = DIRECTION ( 'NONE',  ( 0.000000000000000000, -1.000000000000000000, 0.000000000000000000 ) ) ;
#1167 = LINE ( 'NONE', #975, #842 ) ;
#1168 = VERTEX_POINT ( 'NONE', #709 ) ;
#1169 = LINE ( 'NONE', #189, #746 ) ;
#1170 = VERTEX_POINT ( 'NONE', #291 ) ;
#1171 = ORIENTED_EDGE ( 'NONE', *, *, #31, .T. ) ;
#1172 = DIRECTION ( 'NONE',  ( 1.000000000000000000, 1.821459649775647449E-16, 0.000000000000000000 ) ) ;
#1173 = ORIENTED_EDGE ( 'NONE', *, *, #790, .F. ) ;
#1174 = CARTESIAN_POINT ( 'NONE',  ( 46.00000000000000711, 40.00000000000002132, 0.000000000000000000 ) ) ;
#1175 = EDGE_LOOP ( 'NONE', ( #1027, #1064, #1171, #503 ) ) ;
#1176 = ORIENTED_EDGE ( 'NONE', *, *, #789, .F. ) ;
#1177 = EDGE_CURVE ( 'NONE', #1330, #974, #1159, .T. ) ;
#1178 = FACE_OUTER_BOUND ( 'NONE', #44, .T. ) ;
#1179 = DIRECTION ( 'NONE',  ( -1.000000000000000000, 0.000000000000000000, 0.000000000000000000 ) ) ;
#1180 = CARTESIAN_POINT ( 'NONE',  ( 50.00000000000000000, -100.0000000000000142, 0.000000000000000000 ) ) ;
#1181 = VECTOR ( 'NONE', #317, 1000.000000000000000 ) ;
#1182 = CARTESIAN_POINT ( 'NONE',  ( 46.00000000000000000, 60.00000000000002842, 0.000000000000000000 ) ) ;
#1183 = VERTEX_POINT ( 'NONE', #928 ) ;
#1184 = ADVANCED_FACE ( 'NONE', ( #845 ), #1140, .F. ) ;
#1185 = AXIS2_PLACEMENT_3D ( 'NONE', #48, #708, #194 ) ;
#1186 = EDGE_LOOP ( 'NONE', ( #203, #1089, #813, #414 ) ) ;
#1187 = DIRECTION ( 'NONE',  ( 0.000000000000000000, -0.000000000000000000, -1.000000000000000000 ) ) ;
#1188 = VERTEX_POINT ( 'NONE', #1305 ) ;
#1189 = DIRECTION ( 'NONE',  ( -0.000000000000000000, -0.000000000000000000, -1.000000000000000000 ) ) ;
#1190 = VECTOR ( 'NONE', #836, 1000.000000000000000 ) ;
#1191 = DIRECTION ( 'NONE',  ( 0.000000000000000000, 1.000000000000000000, 0.000000000000000000 ) ) ;
#1192 = ORIENTED_EDGE ( 'NONE', *, *, #1401, .F. ) ;
#1193 = VECTOR ( 'NONE', #413, 1000.000000000000000 ) ;
#1194 = ORIENTED_EDGE ( 'NONE', *, *, #236, .T. ) ;
#1195 = DIRECTION ( 'NONE',  ( -1.000000000000000000, 0.000000000000000000, -0.000000000000000000 ) ) ;
#1196 = PERSON_AND_ORGANIZATION_ROLE ( 'design_owner' ) ;
#1197 = DIRECTION ( 'NONE',  ( -0.000000000000000000, -0.000000000000000000, 1.000000000000000000 ) ) ;
#1198 = LINE ( 'NONE', #1413, #116 ) ;
#1199 = CARTESIAN_POINT ( 'NONE',  ( 4.000000000000007994, -19.99999999999998934, 0.000000000000000000 ) ) ;
#1200 = VERTEX_POINT ( 'NONE', #741 ) ;
#1201 = EDGE_LOOP ( 'NONE', ( #1156, #1363, #1019, #762, #1135, #411, #1416, #122, #851, #1240, #939, #337, #218, #640, #246, #827, #564, #1218, #1072, #77, #1176, #449, #859, #270, #571, #296, #1386, #954, #1355, #755, #287, #36, #155, #227, #190, #970, #515, #828, #478, #797 ) ) ;
#1202 = CARTESIAN_POINT ( 'NONE',  ( 46.00000000000000000, -80.00000000000002842, 0.000000000000000000 ) ) ;
#1203 = CARTESIAN_POINT ( 'NONE',  ( 7.285838599102589797E-15, 59.99999999999998579, 4.000000000000000000 ) ) ;
#1204 = FACE_OUTER_BOUND ( 'NONE', #321, .T. ) ;
#1205 = DIRECTION ( 'NONE',  ( 1.000000000000000000, 0.000000000000000000, 0.000000000000000000 ) ) ;
#1206 = EDGE_CURVE ( 'NONE', #1364, #578, #192, .T. ) ;
#1207 = DIRECTION ( 'NONE',  ( -0.000000000000000000, -0.000000000000000000, 1.000000000000000000 ) ) ;
#1208 = VECTOR ( 'NONE', #1108, 1000.000000000000000 ) ;
#1209 = ORIENTED_EDGE ( 'NONE', *, *, #540, .T. ) ;
#1210 = ORIENTED_EDGE ( 'NONE', *, *, #280, .T. ) ;
#1211 = CARTESIAN_POINT ( 'NONE',  ( 37.00000000000007105, -100.0000000000000000, 4.000000000000000000 ) ) ;
#1212 = VECTOR ( 'NONE', #58, 1000.000000000000000 ) ;
#1213 = LINE ( 'NONE', #1344, #1385 ) ;
#1214 = ORIENTED_EDGE ( 'NONE', *, *, #508, .F. ) ;
#1215 = CARTESIAN_POINT ( 'NONE',  ( 46.00000000000000000, -60.00000000000002842, 0.000000000000000000 ) ) ;
#1216 = FACE_OUTER_BOUND ( 'NONE', #539, .T. ) ;
#1217 = EDGE_LOOP ( 'NONE', ( #805, #663, #595, #1006 ) ) ;
#1218 = ORIENTED_EDGE ( 'NONE', *, *, #1133, .F. ) ;
#1219 = DIRECTION ( 'NONE',  ( -0.000000000000000000, -0.000000000000000000, -1.000000000000000000 ) ) ;
#1220 = LINE ( 'NONE', #1228, #594 ) ;
#1221 = CARTESIAN_POINT ( 'NONE',  ( 1.821459649775647134E-14, 3.317715255760823562E-30, 0.000000000000000000 ) ) ;
#1222 = CARTESIAN_POINT ( 'NONE',  ( 4.000000000000001776, 59.99999999999998579, 0.000000000000000000 ) ) ;
#1223 = CARTESIAN_POINT ( 'NONE',  ( 50.00000000000000000, -100.0000000000000142, 4.000000000000000000 ) ) ;
#1224 = ORIENTED_EDGE ( 'NONE', *, *, #626, .T. ) ;
#1225 = ORIENTED_EDGE ( 'NONE', *, *, #349, .T. ) ;
#1226 = DIRECTION ( 'NONE',  ( -0.000000000000000000, -0.000000000000000000, 1.000000000000000000 ) ) ;
#1227 = VECTOR ( 'NONE', #1264, 1000.000000000000000 ) ;
#1228 = CARTESIAN_POINT ( 'NONE',  ( 50.00000000000000000, -80.00000000000001421, 4.000000000000000000 ) ) ;
#1229 = FACE_OUTER_BOUND ( 'NONE', #848, .T. ) ;
#1230 = CARTESIAN_POINT ( 'NONE',  ( 50.00000000000000000, 40.00000000000002132, 0.000000000000000000 ) ) ;
#1231 = EDGE_CURVE ( 'NONE', #307, #865, #1295, .T. ) ;
#1232 = LINE ( 'NONE', #377, #992 ) ;
#1233 = ORIENTED_EDGE ( 'NONE', *, *, #1246, .F. ) ;
#1234 = ADVANCED_FACE ( 'NONE', ( #1063 ), #79, .F. ) ;
#1235 = DIRECTION ( 'NONE',  ( 0.000000000000000000, 0.000000000000000000, 1.000000000000000000 ) ) ;
#1236 = LINE ( 'NONE', #1046, #405 ) ;
#1237 = FACE_OUTER_BOUND ( 'NONE', #660, .T. ) ;
#1238 = DIRECTION ( 'NONE',  ( 0.000000000000000000, -0.000000000000000000, -1.000000000000000000 ) ) ;
#1239 = EDGE_LOOP ( 'NONE', ( #393, #920, #879, #1210 ) ) ;
#1240 = ORIENTED_EDGE ( 'NONE', *, *, #1277, .T. ) ;
#1241 = DIRECTION ( 'NONE',  ( 0.000000000000000000, -0.000000000000000000, 1.000000000000000000 ) ) ;
#1242 = SHAPE_DEFINITION_REPRESENTATION ( #336, #1120 ) ;
#1243 = CARTESIAN_POINT ( 'NONE',  ( 1.457167719820517959E-14, 19.99999999999997513, 0.000000000000000000 ) ) ;
#1244 = DIRECTION ( 'NONE',  ( 0.000000000000000000, 0.000000000000000000, 1.000000000000000000 ) ) ;
#1245 = FACE_OUTER_BOUND ( 'NONE', #1142, .T. ) ;
#1246 = EDGE_CURVE ( 'NONE', #1370, #956, #186, .T. ) ;
#1247 = EDGE_LOOP ( 'NONE', ( #1224, #1425, #618, #261 ) ) ;
#1248 = ORIENTED_EDGE ( 'NONE', *, *, #132, .F. ) ;
#1249 = CARTESIAN_POINT ( 'NONE',  ( 4.000000000000005329, 39.99999999999997868, 4.000000000000000000 ) ) ;
#1250 = COORDINATED_UNIVERSAL_TIME_OFFSET ( 3, 0, .BEHIND. ) ;
#1251 = LINE ( 'NONE', #272, #761 ) ;
#1252 = DIRECTION ( 'NONE',  ( 1.000000000000000000, 0.000000000000000000, 0.000000000000000000 ) ) ;
#1253 = ADVANCED_FACE ( 'NONE', ( #422 ), #102, .F. ) ;
#1254 = EDGE_CURVE ( 'NONE', #1314, #870, #750, .T. ) ;
#1255 = PRODUCT_DEFINITION_FORMATION_WITH_SPECIFIED_SOURCE ( 'ANY', '', #1084, .NOT_KNOWN. ) ;
#1256 = ORIENTED_EDGE ( 'NONE', *, *, #1406, .F. ) ;
#1257 = VERTEX_POINT ( 'NONE', #1068 ) ;
#1258 = DIRECTION ( 'NONE',  ( -1.000000000000000000, 0.000000000000000000, 0.000000000000000000 ) ) ;
#1259 = VECTOR ( 'NONE', #6, 1000.000000000000000 ) ;
#1260 = LINE ( 'NONE', #721, #1190 ) ;
#1261 = DIRECTION ( 'NONE',  ( 1.000000000000000000, -1.067522139062656391E-15, 0.000000000000000000 ) ) ;
#1262 = AXIS2_PLACEMENT_3D ( 'NONE', #1215, #475, #793 ) ;
#1263 = VERTEX_POINT ( 'NONE', #1392 ) ;
#1264 = DIRECTION ( 'NONE',  ( -0.000000000000000000, -0.000000000000000000, 1.000000000000000000 ) ) ;
#1265 = PERSON_AND_ORGANIZATION ( #545, #551 ) ;
#1266 = CARTESIAN_POINT ( 'NONE',  ( -0.000000000000000000, 79.99999999999998579, 4.000000000000000000 ) ) ;
#1267 = PLANE ( 'NONE',  #363 ) ;
#1268 = VECTOR ( 'NONE', #969, 1000.000000000000000 ) ;
#1269 = ORIENTED_EDGE ( 'NONE', *, *, #248, .F. ) ;
#1270 = PRODUCT_DEFINITION ( 'UNKNOWN', '', #1255, #100 ) ;
#1271 = DIRECTION ( 'NONE',  ( 0.000000000000000000, -1.000000000000000000, 0.000000000000000000 ) ) ;
#1272 = EDGE_CURVE ( 'NONE', #1107, #754, #866, .T. ) ;
#1273 = VECTOR ( 'NONE', #254, 1000.000000000000000 ) ;
#1274 = LOCAL_TIME ( 17, 3, 38.00000000000000000, #1250 ) ;
#1275 = ORIENTED_EDGE ( 'NONE', *, *, #285, .T. ) ;
#1276 = DIRECTION ( 'NONE',  ( 0.000000000000000000, -0.000000000000000000, -1.000000000000000000 ) ) ;
#1277 = EDGE_CURVE ( 'NONE', #9, #1393, #856, .T. ) ;
#1278 = AXIS2_PLACEMENT_3D ( 'NONE', #1316, #897, #764 ) ;
#1279 = DIRECTION ( 'NONE',  ( -0.000000000000000000, -0.000000000000000000, 1.000000000000000000 ) ) ;
#1280 = EDGE_LOOP ( 'NONE', ( #71, #162, #1400, #34 ) ) ;
#1281 = DIRECTION ( 'NONE',  ( -0.000000000000000000, -1.000000000000000000, -0.000000000000000000 ) ) ;
#1282 = AXIS2_PLACEMENT_3D ( 'NONE', #342, #683, #777 ) ;
#1283 = VERTEX_POINT ( 'NONE', #654 ) ;
#1284 = AXIS2_PLACEMENT_3D ( 'NONE', #375, #144, #591 ) ;
#1285 = ORIENTED_EDGE ( 'NONE', *, *, #893, .T. ) ;
#1286 = LINE ( 'NONE', #532, #1268 ) ;
#1287 = ORIENTED_EDGE ( 'NONE', *, *, #637, .F. ) ;
#1288 = DIRECTION ( 'NONE',  ( 1.000000000000000000, 0.000000000000000000, 0.000000000000000000 ) ) ;
#1289 = CARTESIAN_POINT ( 'NONE',  ( 50.00000000000000000, -100.0000000000000142, 4.000000000000000000 ) ) ;
#1290 = VERTEX_POINT ( 'NONE', #333 ) ;
#1291 = EDGE_CURVE ( 'NONE', #1200, #322, #1057, .T. ) ;
#1292 = EDGE_CURVE ( 'NONE', #196, #423, #1286, .T. ) ;
#1293 = APPLICATION_CONTEXT ( 'configuration controlled 3d designs of mechanical parts and assemblies' ) ;
#1294 = ORIENTED_EDGE ( 'NONE', *, *, #394, .T. ) ;
#1295 = LINE ( 'NONE', #633, #1343 ) ;
#1296 = VECTOR ( 'NONE', #876, 1000.000000000000000 ) ;
#1297 = CARTESIAN_POINT ( 'NONE',  ( 2.185751579730776623E-14, -19.99999999999998934, 0.000000000000000000 ) ) ;
#1298 = CARTESIAN_POINT ( 'NONE',  ( 1.821459649775647134E-14, 3.317715255760823562E-30, 4.000000000000000000 ) ) ;
#1299 = ADVANCED_FACE ( 'NONE', ( #1178 ), #197, .F. ) ;
#1300 = LINE ( 'NONE', #753, #65 ) ;
#1301 = AXIS2_PLACEMENT_3D ( 'NONE', #727, #1038, #1235 ) ;
#1302 = ORIENTED_EDGE ( 'NONE', *, *, #646, .T. ) ;
#1303 = EDGE_CURVE ( 'NONE', #331, #1283, #1162, .T. ) ;
#1304 = ORIENTED_EDGE ( 'NONE', *, *, #408, .F. ) ;
#1305 = CARTESIAN_POINT ( 'NONE',  ( 46.00000000000000000, 80.00000000000002842, 0.000000000000000000 ) ) ;
#1306 = LINE ( 'NONE', #19, #1259 ) ;
#1307 = CARTESIAN_POINT ( 'NONE',  ( 4.000000000000007994, 19.99999999999997513, 4.000000000000000000 ) ) ;
#1308 = ORIENTED_EDGE ( 'NONE', *, *, #562, .F. ) ;
#1309 = ORIENTED_EDGE ( 'NONE', *, *, #523, .F. ) ;
#1310 = PLANE ( 'NONE',  #179 ) ;
#1311 = DIRECTION ( 'NONE',  ( -1.000000000000000000, 0.000000000000000000, 0.000000000000000000 ) ) ;
#1312 = DIRECTION ( 'NONE',  ( 1.000000000000000000, 6.071532165918828775E-16, 0.000000000000000000 ) ) ;
#1313 = DIRECTION ( 'NONE',  ( -1.000000000000000000, -2.775557561562891351E-16, -0.000000000000000000 ) ) ;
#1314 = VERTEX_POINT ( 'NONE', #183 ) ;
#1315 = EDGE_LOOP ( 'NONE', ( #997, #833, #786, #846 ) ) ;
#1316 = CARTESIAN_POINT ( 'NONE',  ( 50.00000000000000000, -40.00000000000002132, 0.000000000000000000 ) ) ;
#1317 = DIRECTION ( 'NONE',  ( -1.000000000000000000, 0.000000000000000000, 0.000000000000000000 ) ) ;
#1318 = CARTESIAN_POINT ( 'NONE',  ( 0.000000000000000000, 59.99999999999998579, 0.000000000000000000 ) ) ;
#1319 = CARTESIAN_POINT ( 'NONE',  ( 46.00000000000000000, 60.00000000000002842, 4.000000000000000000 ) ) ;
#1320 = CARTESIAN_POINT ( 'NONE',  ( 13.00000000000007105, -104.0000000000000284, 4.000000000000000000 ) ) ;
#1321 = ORIENTED_EDGE ( 'NONE', *, *, #239, .F. ) ;
#1322 = LINE ( 'NONE', #1202, #51 ) ;
#1323 = EDGE_CURVE ( 'NONE', #1257, #238, #1167, .T. ) ;
#1324 = DIRECTION ( 'NONE',  ( 1.734723475976805517E-15, 1.000000000000000000, -0.000000000000000000 ) ) ;
#1325 = LINE ( 'NONE', #782, #607 ) ;
#1326 = CARTESIAN_POINT ( 'NONE',  ( 4.000000000000001776, 59.99999999999998579, 0.000000000000000000 ) ) ;
#1327 = FACE_OUTER_BOUND ( 'NONE', #1160, .T. ) ;
#1328 = AXIS2_PLACEMENT_3D ( 'NONE', #96, #1179, #882 ) ;
#1329 = ORIENTED_EDGE ( 'NONE', *, *, #1146, .F. ) ;
#1330 = VERTEX_POINT ( 'NONE', #737 ) ;
#1331 = LINE ( 'NONE', #26, #923 ) ;
#1332 = DIRECTION ( 'NONE',  ( 0.000000000000000000, 1.000000000000000000, 0.000000000000000000 ) ) ;
#1333 = CARTESIAN_POINT ( 'NONE',  ( 50.00000000000000000, -80.00000000000001421, 0.000000000000000000 ) ) ;
#1334 = VECTOR ( 'NONE', #256, 1000.000000000000000 ) ;
#1335 = LINE ( 'NONE', #890, #720 ) ;
#1336 = VECTOR ( 'NONE', #1065, 1000.000000000000000 ) ;
#1337 = DIRECTION ( 'NONE',  ( -0.000000000000000000, -0.000000000000000000, 1.000000000000000000 ) ) ;
#1338 = AXIS2_PLACEMENT_3D ( 'NONE', #825, #491, #818 ) ;
#1339 = VERTEX_POINT ( 'NONE', #76 ) ;
#1340 = ORIENTED_EDGE ( 'NONE', *, *, #927, .F. ) ;
#1341 = CARTESIAN_POINT ( 'NONE',  ( 13.00000000000007105, -104.0000000000000284, 0.000000000000000000 ) ) ;
#1342 = EDGE_CURVE ( 'NONE', #763, #131, #521, .T. ) ;
#1343 = VECTOR ( 'NONE', #1311, 1000.000000000000000 ) ;
#1344 = CARTESIAN_POINT ( 'NONE',  ( 37.00000000000007105, -100.0000000000000000, 4.000000000000000000 ) ) ;
#1345 = CARTESIAN_POINT ( 'NONE',  ( 50.00000000000000000, 40.00000000000002132, 0.000000000000000000 ) ) ;
#1346 = DIRECTION ( 'NONE',  ( 1.000000000000000000, 0.000000000000000000, 0.000000000000000000 ) ) ;
#1347 = CARTESIAN_POINT ( 'NONE',  ( 50.00000000000000000, 20.00000000000003197, 4.000000000000000000 ) ) ;
#1348 = EDGE_CURVE ( 'NONE', #121, #1002, #757, .T. ) ;
#1349 = VERTEX_POINT ( 'NONE', #847 ) ;
#1350 = ORIENTED_EDGE ( 'NONE', *, *, #1079, .F. ) ;
#1351 = CARTESIAN_POINT ( 'NONE',  ( 4.000000000000005329, 39.99999999999997868, 0.000000000000000000 ) ) ;
#1352 = CARTESIAN_POINT ( 'NONE',  ( 1.821459649775647449E-14, -100.0000000000000142, 0.000000000000000000 ) ) ;
#1353 = DIRECTION ( 'NONE',  ( 1.000000000000000000, 0.000000000000000000, 0.000000000000000000 ) ) ;
#1354 = CARTESIAN_POINT ( 'NONE',  ( 4.000000000000007105, 3.469446951953620105E-16, 0.000000000000000000 ) ) ;
#1355 = ORIENTED_EDGE ( 'NONE', *, *, #1401, .T. ) ;
#1356 = ORIENTED_EDGE ( 'NONE', *, *, #299, .F. ) ;
#1357 = DIRECTION ( 'NONE',  ( 0.000000000000000000, 1.000000000000000000, 0.000000000000000000 ) ) ;
#1358 = VECTOR ( 'NONE', #493, 1000.000000000000000 ) ;
#1359 = DATE_AND_TIME ( #264, #273 ) ;
#1360 = LINE ( 'NONE', #384, #1077 ) ;
#1361 = CARTESIAN_POINT ( 'NONE',  ( 50.00000000000000000, 60.00000000000002842, 4.000000000000000000 ) ) ;
#1362 = CARTESIAN_POINT ( 'NONE',  ( 46.00000000000000000, 60.00000000000002842, 0.000000000000000000 ) ) ;
#1363 = ORIENTED_EDGE ( 'NONE', *, *, #626, .F. ) ;
#1364 = VERTEX_POINT ( 'NONE', #993 ) ;
#1365 = CARTESIAN_POINT ( 'NONE',  ( 13.00000000000007105, -104.0000000000000284, 4.000000000000000000 ) ) ;
#1366 = EDGE_CURVE ( 'NONE', #963, #798, #1213, .T. ) ;
#1367 = COORDINATED_UNIVERSAL_TIME_OFFSET ( 3, 0, .BEHIND. ) ;
#1368 = CARTESIAN_POINT ( 'NONE',  ( 4.000000000000005329, 39.99999999999997868, 0.000000000000000000 ) ) ;
#1369 = CARTESIAN_POINT ( 'NONE',  ( 4.000000000000015987, -60.00000000000000000, 4.000000000000000000 ) ) ;
#1370 = VERTEX_POINT ( 'NONE', #800 ) ;
#1371 = VECTOR ( 'NONE', #769, 1000.000000000000000 ) ;
#1372 = ORIENTED_EDGE ( 'NONE', *, *, #457, .F. ) ;
#1373 = LINE ( 'NONE', #505, #286 ) ;
#1374 = APPLICATION_CONTEXT ( 'configuration controlled 3d designs of mechanical parts and assemblies' ) ;
#1375 = DIRECTION ( 'NONE',  ( 1.000000000000000000, 1.821459649775647449E-16, 0.000000000000000000 ) ) ;
#1376 = SECURITY_CLASSIFICATION ( '', '', #621 ) ;
#1377 = ORIENTED_EDGE ( 'NONE', *, *, #743, .T. ) ;
#1378 = CARTESIAN_POINT ( 'NONE',  ( 50.00000000000000000, 100.0000000000000142, 4.000000000000000000 ) ) ;
#1379 = LINE ( 'NONE', #398, #1163 ) ;
#1380 = VECTOR ( 'NONE', #1389, 1000.000000000000000 ) ;
#1381 = ORIENTED_EDGE ( 'NONE', *, *, #399, .T. ) ;
#1382 = VECTOR ( 'NONE', #598, 1000.000000000000000 ) ;
#1383 = EDGE_CURVE ( 'NONE', #83, #982, #1220, .T. ) ;
#1384 = DIRECTION ( 'NONE',  ( -0.000000000000000000, -0.000000000000000000, 1.000000000000000000 ) ) ;
#1385 = VECTOR ( 'NONE', #1324, 1000.000000000000000 ) ;
#1386 = ORIENTED_EDGE ( 'NONE', *, *, #1366, .T. ) ;
#1387 = CARTESIAN_POINT ( 'NONE',  ( 1.821459649775647134E-14, 3.317715255760823562E-30, 0.000000000000000000 ) ) ;
#1388 = EDGE_LOOP ( 'NONE', ( #533, #585, #930, #771 ) ) ;
#1389 = DIRECTION ( 'NONE',  ( -0.000000000000000000, -0.000000000000000000, 1.000000000000000000 ) ) ;
#1390 = LOCAL_TIME ( 17, 3, 38.00000000000000000, #68 ) ;
#1391 = ORIENTED_EDGE ( 'NONE', *, *, #177, .F. ) ;
#1392 = CARTESIAN_POINT ( 'NONE',  ( 46.00000000000000711, 20.00000000000003197, 4.000000000000000000 ) ) ;
#1393 = VERTEX_POINT ( 'NONE', #1203 ) ;
#1394 = ADVANCED_FACE ( 'NONE', ( #346 ), #142, .F. ) ;
#1395 = CARTESIAN_POINT ( 'NONE',  ( 37.00000000000007105, -100.0000000000000000, 4.000000000000000000 ) ) ;
#1396 = AXIS2_PLACEMENT_3D ( 'NONE', #1362, #1271, #64 ) ;
#1397 = ADVANCED_FACE ( 'NONE', ( #1101 ), #680, .F. ) ;
#1398 = EDGE_CURVE ( 'NONE', #121, #717, #791, .T. ) ;
#1399 = ORIENTED_EDGE ( 'NONE', *, *, #235, .F. ) ;
#1400 = ORIENTED_EDGE ( 'NONE', *, *, #893, .F. ) ;
#1401 = EDGE_CURVE ( 'NONE', #370, #982, #241, .T. ) ;
#1402 = ADVANCED_FACE ( 'NONE', ( #580 ), #695, .F. ) ;
#1403 = DIRECTION ( 'NONE',  ( -1.821459649775647449E-16, 1.000000000000000000, 0.000000000000000000 ) ) ;
#1404 = ORIENTED_EDGE ( 'NONE', *, *, #710, .T. ) ;
#1405 = PRODUCT_RELATED_PRODUCT_CATEGORY ( 'detail', '', ( #1084 ) ) ;
#1406 = EDGE_CURVE ( 'NONE', #812, #1283, #888, .T. ) ;
#1407 = DIRECTION ( 'NONE',  ( -0.000000000000000000, -0.000000000000000000, -1.000000000000000000 ) ) ;
#1408 = VECTOR ( 'NONE', #629, 1000.000000000000000 ) ;
#1409 = ORIENTED_EDGE ( 'NONE', *, *, #31, .F. ) ;
#1410 = ORIENTED_EDGE ( 'NONE', *, *, #53, .T. ) ;
#1411 = DIRECTION ( 'NONE',  ( -0.000000000000000000, -0.000000000000000000, 1.000000000000000000 ) ) ;
#1412 = PLANE ( 'NONE',  #964 ) ;
#1413 = CARTESIAN_POINT ( 'NONE',  ( 50.00000000000000000, 40.00000000000002132, 0.000000000000000000 ) ) ;
#1414 = CARTESIAN_POINT ( 'NONE',  ( -50.00000000000000000, 99.99999999999998579, 0.000000000000000000 ) ) ;
#1415 = AXIS2_PLACEMENT_3D ( 'NONE', #823, #1357, #1241 ) ;
#1416 = ORIENTED_EDGE ( 'NONE', *, *, #1003, .F. ) ;
#1417 = VECTOR ( 'NONE', #11, 1000.000000000000000 ) ;
#1418 = EDGE_CURVE ( 'NONE', #798, #429, #117, .T. ) ;
#1419 = ORIENTED_EDGE ( 'NONE', *, *, #854, .T. ) ;
#1420 = DIRECTION ( 'NONE',  ( -0.000000000000000000, -0.000000000000000000, 1.000000000000000000 ) ) ;
#1421 = DIRECTION ( 'NONE',  ( -1.000000000000000000, 0.000000000000000000, 0.000000000000000000 ) ) ;
#1422 = CARTESIAN_POINT ( 'NONE',  ( 4.000000000000001776, 59.99999999999998579, 4.000000000000000000 ) ) ;
#1423 = CARTESIAN_POINT ( 'NONE',  ( 50.00000000000000000, 20.00000000000003197, 0.000000000000000000 ) ) ;
#1424 = DIRECTION ( 'NONE',  ( 0.000000000000000000, -0.000000000000000000, 1.000000000000000000 ) ) ;
#1425 = ORIENTED_EDGE ( 'NONE', *, *, #1272, .F. ) ;
ENDSEC;
END-ISO-10303-21;
