ISO-10303-21;
HEADER;
FILE_DESCRIPTION (( 'STEP AP203' ),
    '1' );
FILE_NAME ('colunaDentado.STEP',
    '2026-05-27T20:03:05',
    ( '' ),
    ( '' ),
    'SwSTEP 2.0',
    'SolidWorks 2024',
    '' );
FILE_SCHEMA (( 'CONFIG_CONTROL_DESIGN' ));
ENDSEC;

DATA;
#1 = EDGE_LOOP ( 'NONE', ( #497, #44, #209, #1278 ) ) ;
#2 = DIRECTION ( 'NONE',  ( 1.000000000000000000, 0.000000000000000000, 0.000000000000000000 ) ) ;
#3 = EDGE_CURVE ( 'NONE', #574, #968, #1149, .T. ) ;
#4 = ORIENTED_EDGE ( 'NONE', *, *, #28, .T. ) ;
#5 = CARTESIAN_POINT ( 'NONE',  ( -50.00000000000000000, 19.99999999999996092, 4.000000000000000000 ) ) ;
#6 = LINE ( 'NONE', #893, #355 ) ;
#7 = VERTEX_POINT ( 'NONE', #1170 ) ;
#8 = CARTESIAN_POINT ( 'NONE',  ( -50.00000000000002842, 59.99999999999998579, 4.000000000000000000 ) ) ;
#9 = ORIENTED_EDGE ( 'NONE', *, *, #1094, .T. ) ;
#10 = ADVANCED_FACE ( 'NONE', ( #503 ), #144, .F. ) ;
#11 = PERSON_AND_ORGANIZATION ( #796, #563 ) ;
#12 = AXIS2_PLACEMENT_3D ( 'NONE', #305, #525, #1416 ) ;
#13 = FACE_OUTER_BOUND ( 'NONE', #170, .T. ) ;
#14 = DIRECTION ( 'NONE',  ( -0.000000000000000000, -1.000000000000000000, -0.000000000000000000 ) ) ;
#15 = ORIENTED_EDGE ( 'NONE', *, *, #588, .F. ) ;
#16 = LINE ( 'NONE', #907, #1052 ) ;
#17 = VECTOR ( 'NONE', #368, 1000.000000000000000 ) ;
#18 = VECTOR ( 'NONE', #592, 1000.000000000000000 ) ;
#19 = ORIENTED_EDGE ( 'NONE', *, *, #155, .T. ) ;
#20 = SECURITY_CLASSIFICATION_LEVEL ( 'unclassified' ) ;
#21 = EDGE_CURVE ( 'NONE', #1301, #568, #69, .T. ) ;
#22 = DIRECTION ( 'NONE',  ( -0.000000000000000000, -1.000000000000000000, -0.000000000000000000 ) ) ;
#23 = DIRECTION ( 'NONE',  ( -0.000000000000000000, -1.000000000000000000, -0.000000000000000000 ) ) ;
#24 = ORIENTED_EDGE ( 'NONE', *, *, #218, .F. ) ;
#25 = PLANE ( 'NONE',  #685 ) ;
#26 = ORIENTED_EDGE ( 'NONE', *, *, #333, .T. ) ;
#27 = ORIENTED_EDGE ( 'NONE', *, *, #804, .T. ) ;
#28 = EDGE_CURVE ( 'NONE', #1294, #1033, #585, .T. ) ;
#29 = CARTESIAN_POINT ( 'NONE',  ( 4.000000000000015987, -60.00000000000000000, 4.000000000000000000 ) ) ;
#30 = EDGE_LOOP ( 'NONE', ( #1384, #1284, #1241, #1299 ) ) ;
#31 = DIRECTION ( 'NONE',  ( -0.000000000000000000, -1.000000000000000000, -0.000000000000000000 ) ) ;
#32 = ORIENTED_EDGE ( 'NONE', *, *, #376, .F. ) ;
#33 = LINE ( 'NONE', #1006, #962 ) ;
#34 = ADVANCED_FACE ( 'NONE', ( #1388 ), #401, .F. ) ;
#35 = EDGE_LOOP ( 'NONE', ( #800, #1314, #331, #571 ) ) ;
#36 = LINE ( 'NONE', #807, #844 ) ;
#37 = VECTOR ( 'NONE', #616, 1000.000000000000000 ) ;
#38 = ORIENTED_EDGE ( 'NONE', *, *, #1114, .T. ) ;
#39 = VECTOR ( 'NONE', #569, 1000.000000000000000 ) ;
#40 = VECTOR ( 'NONE', #911, 1000.000000000000000 ) ;
#41 = DIRECTION ( 'NONE',  ( 0.000000000000000000, 1.000000000000000000, 0.000000000000000000 ) ) ;
#42 = ORIENTED_EDGE ( 'NONE', *, *, #671, .T. ) ;
#43 = CARTESIAN_POINT ( 'NONE',  ( 1.821459649775647134E-14, 3.317715255760823562E-30, 0.000000000000000000 ) ) ;
#44 = ORIENTED_EDGE ( 'NONE', *, *, #111, .F. ) ;
#45 = EDGE_CURVE ( 'NONE', #1061, #787, #48, .T. ) ;
#46 = CARTESIAN_POINT ( 'NONE',  ( 7.285838599102589797E-15, 59.99999999999998579, 4.000000000000000000 ) ) ;
#47 = FACE_OUTER_BOUND ( 'NONE', #1368, .T. ) ;
#48 = LINE ( 'NONE', #925, #471 ) ;
#49 = DIRECTION ( 'NONE',  ( -1.000000000000000000, 3.469446951953613696E-16, 0.000000000000000000 ) ) ;
#50 = ORIENTED_EDGE ( 'NONE', *, *, #449, .F. ) ;
#51 = CARTESIAN_POINT ( 'NONE',  ( -50.00000000000000000, -40.00000000000000711, 4.000000000000000000 ) ) ;
#52 = EDGE_CURVE ( 'NONE', #579, #834, #653, .T. ) ;
#53 = LINE ( 'NONE', #149, #18 ) ;
#54 = CARTESIAN_POINT ( 'NONE',  ( -50.00000000000000000, -100.0000000000000142, 4.000000000000000000 ) ) ;
#55 = CARTESIAN_POINT ( 'NONE',  ( 3.642919299551294109E-15, 79.99999999999998579, 4.000000000000000000 ) ) ;
#56 = LOCAL_TIME ( 17, 3, 5.000000000000000000, #108 ) ;
#57 = ORIENTED_EDGE ( 'NONE', *, *, #68, .F. ) ;
#58 = DIRECTION ( 'NONE',  ( 0.000000000000000000, -1.000000000000000000, 0.000000000000000000 ) ) ;
#59 = FACE_OUTER_BOUND ( 'NONE', #1077, .T. ) ;
#60 = EDGE_CURVE ( 'NONE', #1301, #358, #629, .T. ) ;
#61 = AXIS2_PLACEMENT_3D ( 'NONE', #246, #1139, #1346 ) ;
#62 = DIRECTION ( 'NONE',  ( 1.040834085586084059E-15, -1.000000000000000000, -0.000000000000000000 ) ) ;
#63 = CARTESIAN_POINT ( 'NONE',  ( -50.00000000000000000, -100.0000000000000142, 0.000000000000000000 ) ) ;
#64 = ORIENTED_EDGE ( 'NONE', *, *, #905, .T. ) ;
#65 = CARTESIAN_POINT ( 'NONE',  ( -49.99999999999999289, -40.00000000000000711, 0.000000000000000000 ) ) ;
#66 = CARTESIAN_POINT ( 'NONE',  ( -49.99999999999999289, -40.00000000000000711, 0.000000000000000000 ) ) ;
#67 = CARTESIAN_POINT ( 'NONE',  ( -49.99999999999998579, -80.00000000000002842, 0.000000000000000000 ) ) ;
#68 = EDGE_CURVE ( 'NONE', #1377, #1229, #527, .T. ) ;
#69 = LINE ( 'NONE', #1058, #37 ) ;
#70 = DIRECTION ( 'NONE',  ( 1.000000000000000000, 0.000000000000000000, 0.000000000000000000 ) ) ;
#71 = ORIENTED_EDGE ( 'NONE', *, *, #333, .F. ) ;
#72 = CARTESIAN_POINT ( 'NONE',  ( -49.99999999999999289, -40.00000000000000711, 0.000000000000000000 ) ) ;
#73 = DIRECTION ( 'NONE',  ( 1.000000000000000000, 1.821459649775647449E-16, 0.000000000000000000 ) ) ;
#74 = DIRECTION ( 'NONE',  ( -1.821459649775647449E-16, 1.000000000000000000, 0.000000000000000000 ) ) ;
#75 = FACE_OUTER_BOUND ( 'NONE', #808, .T. ) ;
#76 = EDGE_CURVE ( 'NONE', #391, #296, #198, .T. ) ;
#77 = ORIENTED_EDGE ( 'NONE', *, *, #555, .T. ) ;
#78 = CARTESIAN_POINT ( 'NONE',  ( 4.000000000000005329, 39.99999999999997868, 0.000000000000000000 ) ) ;
#79 = VECTOR ( 'NONE', #1035, 1000.000000000000000 ) ;
#80 = EDGE_CURVE ( 'NONE', #1033, #561, #882, .T. ) ;
#81 = CARTESIAN_POINT ( 'NONE',  ( -54.00000000000001421, -60.00000000000001421, 0.000000000000000000 ) ) ;
#82 =( NAMED_UNIT ( * ) SI_UNIT ( $, .STERADIAN. ) SOLID_ANGLE_UNIT ( ) );
#83 = CARTESIAN_POINT ( 'NONE',  ( 4.000000000000001776, 59.99999999999998579, 0.000000000000000000 ) ) ;
#84 = VECTOR ( 'NONE', #1270, 1000.000000000000000 ) ;
#85 = VECTOR ( 'NONE', #1202, 1000.000000000000000 ) ;
#86 = VERTEX_POINT ( 'NONE', #46 ) ;
#87 = CARTESIAN_POINT ( 'NONE',  ( 0.000000000000000000, -79.99999999999998579, 0.000000000000000000 ) ) ;
#88 = EDGE_LOOP ( 'NONE', ( #665, #1306, #1222, #1014 ) ) ;
#89 = ADVANCED_FACE ( 'NONE', ( #1370 ), #661, .T. ) ;
#90 = DIRECTION ( 'NONE',  ( -0.000000000000000000, -1.000000000000000000, -0.000000000000000000 ) ) ;
#91 = PLANE ( 'NONE',  #1029 ) ;
#92 = VERTEX_POINT ( 'NONE', #235 ) ;
#93 = DIRECTION ( 'NONE',  ( -1.000000000000000000, 0.000000000000000000, 0.000000000000000000 ) ) ;
#94 = ORIENTED_EDGE ( 'NONE', *, *, #803, .F. ) ;
#95 = EDGE_CURVE ( 'NONE', #795, #574, #121, .T. ) ;
#96 = FACE_OUTER_BOUND ( 'NONE', #1096, .T. ) ;
#97 = ORIENTED_EDGE ( 'NONE', *, *, #555, .F. ) ;
#98 = CARTESIAN_POINT ( 'NONE',  ( -0.000000000000000000, -60.00000000000000000, 4.000000000000000000 ) ) ;
#99 = ORIENTED_EDGE ( 'NONE', *, *, #604, .F. ) ;
#100 = CARTESIAN_POINT ( 'NONE',  ( 1.821459649775647134E-14, 3.317715255760823562E-30, 4.000000000000000000 ) ) ;
#101 = DIRECTION ( 'NONE',  ( -0.000000000000000000, -1.000000000000000000, -0.000000000000000000 ) ) ;
#102 = EDGE_CURVE ( 'NONE', #570, #7, #551, .T. ) ;
#103 = DIRECTION ( 'NONE',  ( 0.000000000000000000, 0.000000000000000000, 1.000000000000000000 ) ) ;
#104 = ORIENTED_EDGE ( 'NONE', *, *, #1355, .F. ) ;
#105 = PLANE ( 'NONE',  #799 ) ;
#106 = VECTOR ( 'NONE', #124, 1000.000000000000000 ) ;
#107 = VERTEX_POINT ( 'NONE', #373 ) ;
#108 = COORDINATED_UNIVERSAL_TIME_OFFSET ( 3, 0, .BEHIND. ) ;
#109 = DIRECTION ( 'NONE',  ( 0.000000000000000000, 0.000000000000000000, 1.000000000000000000 ) ) ;
#110 = CARTESIAN_POINT ( 'NONE',  ( 2.550043509685906113E-14, -39.99999999999999289, 0.000000000000000000 ) ) ;
#111 = EDGE_CURVE ( 'NONE', #795, #296, #1224, .T. ) ;
#112 = VERTEX_POINT ( 'NONE', #778 ) ;
#113 = CARTESIAN_POINT ( 'NONE',  ( -50.00000000000002132, 39.99999999999997868, 0.000000000000000000 ) ) ;
#114 = ORIENTED_EDGE ( 'NONE', *, *, #1151, .F. ) ;
#115 = DIRECTION ( 'NONE',  ( 0.000000000000000000, -0.000000000000000000, 1.000000000000000000 ) ) ;
#116 = CARTESIAN_POINT ( 'NONE',  ( 1.821459649775647449E-14, -100.0000000000000142, 4.000000000000000000 ) ) ;
#117 = ORIENTED_EDGE ( 'NONE', *, *, #662, .F. ) ;
#118 = DIRECTION ( 'NONE',  ( 1.000000000000000000, 1.821459649775647449E-16, 0.000000000000000000 ) ) ;
#119 = ORIENTED_EDGE ( 'NONE', *, *, #335, .T. ) ;
#120 = CC_DESIGN_APPROVAL ( #248, ( #740 ) ) ;
#121 = LINE ( 'NONE', #1332, #17 ) ;
#122 = PLANE ( 'NONE',  #700 ) ;
#123 = VERTEX_POINT ( 'NONE', #5 ) ;
#124 = DIRECTION ( 'NONE',  ( -1.000000000000000000, -0.000000000000000000, -0.000000000000000000 ) ) ;
#125 = VECTOR ( 'NONE', #1322, 1000.000000000000000 ) ;
#126 = ORIENTED_EDGE ( 'NONE', *, *, #1226, .F. ) ;
#127 = VECTOR ( 'NONE', #738, 1000.000000000000000 ) ;
#128 = ADVANCED_FACE ( 'NONE', ( #13 ), #598, .T. ) ;
#129 = CARTESIAN_POINT ( 'NONE',  ( -50.00000000000000000, -100.0000000000000142, 4.000000000000000000 ) ) ;
#130 = VERTEX_POINT ( 'NONE', #229 ) ;
#131 = FACE_OUTER_BOUND ( 'NONE', #207, .T. ) ;
#132 = ORIENTED_EDGE ( 'NONE', *, *, #1373, .T. ) ;
#133 = ORIENTED_EDGE ( 'NONE', *, *, #1049, .F. ) ;
#134 = DATE_TIME_ROLE ( 'classification_date' ) ;
#135 = ADVANCED_FACE ( 'NONE', ( #1034 ), #809, .T. ) ;
#136 = LINE ( 'NONE', #791, #1148 ) ;
#137 = EDGE_CURVE ( 'NONE', #1334, #123, #557, .T. ) ;
#138 = ORIENTED_EDGE ( 'NONE', *, *, #484, .F. ) ;
#139 = CARTESIAN_POINT ( 'NONE',  ( 1.821459649775647134E-14, 3.317715255760823562E-30, 0.000000000000000000 ) ) ;
#140 = ORIENTED_EDGE ( 'NONE', *, *, #1065, .F. ) ;
#141 = CARTESIAN_POINT ( 'NONE',  ( -12.99999999999999822, -104.0000000000000284, 4.000000000000000000 ) ) ;
#142 = VECTOR ( 'NONE', #299, 1000.000000000000000 ) ;
#143 = EDGE_CURVE ( 'NONE', #1073, #825, #1362, .T. ) ;
#144 = PLANE ( 'NONE',  #888 ) ;
#145 = DIRECTION ( 'NONE',  ( 0.000000000000000000, 0.000000000000000000, -1.000000000000000000 ) ) ;
#146 = VECTOR ( 'NONE', #1356, 1000.000000000000000 ) ;
#147 = ORIENTED_EDGE ( 'NONE', *, *, #1320, .F. ) ;
#148 = VECTOR ( 'NONE', #961, 1000.000000000000000 ) ;
#149 = CARTESIAN_POINT ( 'NONE',  ( 0.000000000000000000, 79.99999999999998579, 0.000000000000000000 ) ) ;
#150 = VECTOR ( 'NONE', #744, 1000.000000000000000 ) ;
#151 = VECTOR ( 'NONE', #1316, 1000.000000000000000 ) ;
#152 = LINE ( 'NONE', #1137, #1047 ) ;
#153 = EDGE_LOOP ( 'NONE', ( #548, #1007, #818, #686 ) ) ;
#154 = CARTESIAN_POINT ( 'NONE',  ( 0.000000000000000000, -79.99999999999998579, 4.000000000000000000 ) ) ;
#155 = EDGE_CURVE ( 'NONE', #1334, #1294, #1005, .T. ) ;
#156 = VERTEX_POINT ( 'NONE', #459 ) ;
#157 = DIRECTION ( 'NONE',  ( 1.000000000000000000, 0.000000000000000000, 0.000000000000000000 ) ) ;
#158 = DIRECTION ( 'NONE',  ( 0.000000000000000000, 0.000000000000000000, 1.000000000000000000 ) ) ;
#159 = CARTESIAN_POINT ( 'NONE',  ( -53.99999999999999289, -80.00000000000001421, 4.000000000000000000 ) ) ;
#160 = ORIENTED_EDGE ( 'NONE', *, *, #584, .F. ) ;
#161 = PLANE ( 'NONE',  #1397 ) ;
#162 = ORIENTED_EDGE ( 'NONE', *, *, #422, .T. ) ;
#163 = LINE ( 'NONE', #372, #453 ) ;
#164 = EDGE_CURVE ( 'NONE', #1133, #86, #1217, .T. ) ;
#165 = LINE ( 'NONE', #605, #221 ) ;
#166 = CARTESIAN_POINT ( 'NONE',  ( -50.00000000000000000, -100.0000000000000142, 4.000000000000000000 ) ) ;
#167 = ORIENTED_EDGE ( 'NONE', *, *, #210, .T. ) ;
#168 = DIRECTION ( 'NONE',  ( -0.000000000000000000, -0.000000000000000000, 1.000000000000000000 ) ) ;
#169 = AXIS2_PLACEMENT_3D ( 'NONE', #54, #1050, #946 ) ;
#170 = EDGE_LOOP ( 'NONE', ( #371, #1345, #167, #42 ) ) ;
#171 = CARTESIAN_POINT ( 'NONE',  ( 1.092875789865388627E-14, 39.99999999999997868, 0.000000000000000000 ) ) ;
#172 = LINE ( 'NONE', #1055, #1124 ) ;
#173 = VECTOR ( 'NONE', #964, 1000.000000000000000 ) ;
#174 = EDGE_CURVE ( 'NONE', #766, #783, #1250, .T. ) ;
#175 = DIRECTION ( 'NONE',  ( 1.301042606982605074E-16, -1.000000000000000000, 0.000000000000000000 ) ) ;
#176 = VECTOR ( 'NONE', #31, 1000.000000000000000 ) ;
#177 = DIRECTION ( 'NONE',  ( 0.000000000000000000, -0.000000000000000000, 1.000000000000000000 ) ) ;
#178 = FACE_OUTER_BOUND ( 'NONE', #921, .T. ) ;
#179 = ORIENTED_EDGE ( 'NONE', *, *, #465, .F. ) ;
#180 = DIRECTION ( 'NONE',  ( 0.000000000000000000, 0.000000000000000000, 1.000000000000000000 ) ) ;
#181 = PLANE ( 'NONE',  #1349 ) ;
#182 = ADVANCED_FACE ( 'NONE', ( #260 ), #1041, .T. ) ;
#183 = EDGE_CURVE ( 'NONE', #254, #156, #53, .T. ) ;
#184 = DIRECTION ( 'NONE',  ( 1.000000000000000000, 0.000000000000000000, 0.000000000000000000 ) ) ;
#185 = ORIENTED_EDGE ( 'NONE', *, *, #1075, .T. ) ;
#186 = LINE ( 'NONE', #716, #200 ) ;
#187 = CARTESIAN_POINT ( 'NONE',  ( 1.821459649775647134E-14, 3.317715255760823562E-30, 0.000000000000000000 ) ) ;
#188 = FACE_OUTER_BOUND ( 'NONE', #1053, .T. ) ;
#189 = FACE_OUTER_BOUND ( 'NONE', #550, .T. ) ;
#190 = EDGE_CURVE ( 'NONE', #1121, #1263, #490, .T. ) ;
#191 = ORIENTED_EDGE ( 'NONE', *, *, #281, .T. ) ;
#192 = CARTESIAN_POINT ( 'NONE',  ( -54.00000000000002842, 19.99999999999996092, 0.000000000000000000 ) ) ;
#193 =( GEOMETRIC_REPRESENTATION_CONTEXT ( 3 ) GLOBAL_UNCERTAINTY_ASSIGNED_CONTEXT ( ( #869 ) ) GLOBAL_UNIT_ASSIGNED_CONTEXT ( ( #399, #538, #82 ) ) REPRESENTATION_CONTEXT ( 'NONE', 'WORKASPACE' ) );
#194 = EDGE_LOOP ( 'NONE', ( #1220, #339, #745, #1235 ) ) ;
#195 = FACE_OUTER_BOUND ( 'NONE', #214, .T. ) ;
#196 = LINE ( 'NONE', #319, #1344 ) ;
#197 = VECTOR ( 'NONE', #785, 1000.000000000000000 ) ;
#198 = LINE ( 'NONE', #638, #1371 ) ;
#199 = CARTESIAN_POINT ( 'NONE',  ( -49.99999999999999289, -40.00000000000000711, 0.000000000000000000 ) ) ;
#200 = VECTOR ( 'NONE', #1361, 1000.000000000000000 ) ;
#201 = ORIENTED_EDGE ( 'NONE', *, *, #597, .F. ) ;
#202 = CARTESIAN_POINT ( 'NONE',  ( -12.99999999999999822, -104.0000000000000284, 4.000000000000000000 ) ) ;
#203 = EDGE_CURVE ( 'NONE', #1073, #764, #823, .T. ) ;
#204 = ORIENTED_EDGE ( 'NONE', *, *, #889, .T. ) ;
#205 = CARTESIAN_POINT ( 'NONE',  ( 1.821459649775647134E-14, 3.317715255760823562E-30, 4.000000000000000000 ) ) ;
#206 = CARTESIAN_POINT ( 'NONE',  ( -37.00000000000000711, -100.0000000000000142, 0.000000000000000000 ) ) ;
#207 = EDGE_LOOP ( 'NONE', ( #1420, #117, #322, #927 ) ) ;
#208 = LINE ( 'NONE', #419, #636 ) ;
#209 = ORIENTED_EDGE ( 'NONE', *, *, #95, .T. ) ;
#210 = EDGE_CURVE ( 'NONE', #324, #1341, #612, .T. ) ;
#211 = MANIFOLD_SOLID_BREP ( 'Ressalto-extrus\X2\00e3\X0\o2', #1236 ) ;
#212 = CARTESIAN_POINT ( 'NONE',  ( 0.000000000000000000, 59.99999999999998579, 0.000000000000000000 ) ) ;
#213 = CARTESIAN_POINT ( 'NONE',  ( 3.278627369596165408E-14, -79.99999999999998579, 0.000000000000000000 ) ) ;
#214 = EDGE_LOOP ( 'NONE', ( #719, #1084, #806, #185 ) ) ;
#215 = LINE ( 'NONE', #549, #382 ) ;
#216 = ORIENTED_EDGE ( 'NONE', *, *, #1147, .T. ) ;
#217 = PERSON_AND_ORGANIZATION ( #796, #563 ) ;
#218 = EDGE_CURVE ( 'NONE', #361, #789, #172, .T. ) ;
#219 = VECTOR ( 'NONE', #1071, 1000.000000000000000 ) ;
#220 = DIRECTION ( 'NONE',  ( -0.000000000000000000, -0.000000000000000000, 1.000000000000000000 ) ) ;
#221 = VECTOR ( 'NONE', #90, 1000.000000000000000 ) ;
#222 = VECTOR ( 'NONE', #1257, 1000.000000000000000 ) ;
#223 = ORIENTED_EDGE ( 'NONE', *, *, #1218, .F. ) ;
#224 = DIRECTION ( 'NONE',  ( 1.000000000000000000, 0.000000000000000000, 0.000000000000000000 ) ) ;
#225 = VECTOR ( 'NONE', #23, 1000.000000000000000 ) ;
#226 = ORIENTED_EDGE ( 'NONE', *, *, #662, .T. ) ;
#227 = APPROVAL_STATUS ( 'not_yet_approved' ) ;
#228 = EDGE_CURVE ( 'NONE', #1138, #787, #398, .T. ) ;
#229 = CARTESIAN_POINT ( 'NONE',  ( -54.00000000000004263, 59.99999999999998579, 4.000000000000000000 ) ) ;
#230 = DIRECTION ( 'NONE',  ( -1.000000000000000000, 0.000000000000000000, 0.000000000000000000 ) ) ;
#231 = EDGE_LOOP ( 'NONE', ( #737, #936, #138, #529 ) ) ;
#232 = CARTESIAN_POINT ( 'NONE',  ( -50.00000000000000000, -100.0000000000000142, 4.000000000000000000 ) ) ;
#233 = ORIENTED_EDGE ( 'NONE', *, *, #474, .T. ) ;
#234 = CALENDAR_DATE ( 2026, 27, 5 ) ;
#235 = CARTESIAN_POINT ( 'NONE',  ( -54.00000000000004263, 59.99999999999998579, 0.000000000000000000 ) ) ;
#236 = DIRECTION ( 'NONE',  ( -0.000000000000000000, -1.000000000000000000, -0.000000000000000000 ) ) ;
#237 = ORIENTED_EDGE ( 'NONE', *, *, #1226, .T. ) ;
#238 = CARTESIAN_POINT ( 'NONE',  ( -54.00000000000002842, 39.99999999999997868, 4.000000000000000000 ) ) ;
#239 = ADVANCED_FACE ( 'NONE', ( #289 ), #181, .T. ) ;
#240 = ORIENTED_EDGE ( 'NONE', *, *, #1160, .T. ) ;
#241 = PRODUCT_RELATED_PRODUCT_CATEGORY ( 'detail', '', ( #759 ) ) ;
#242 = PERSON_AND_ORGANIZATION ( #796, #563 ) ;
#243 = APPROVAL_PERSON_ORGANIZATION ( #683, #1417, #1230 ) ;
#244 = FACE_OUTER_BOUND ( 'NONE', #30, .T. ) ;
#245 = ORIENTED_EDGE ( 'NONE', *, *, #1040, .T. ) ;
#246 = CARTESIAN_POINT ( 'NONE',  ( 0.000000000000000000, 39.99999999999997868, 0.000000000000000000 ) ) ;
#247 = ORIENTED_EDGE ( 'NONE', *, *, #68, .T. ) ;
#248 = APPROVAL ( #1342, 'UNSPECIFIED' ) ;
#249 = AXIS2_PLACEMENT_3D ( 'NONE', #991, #575, #1221 ) ;
#250 = APPROVAL_STATUS ( 'not_yet_approved' ) ;
#251 = CARTESIAN_POINT ( 'NONE',  ( -54.00000000000001421, -19.99999999999998934, 0.000000000000000000 ) ) ;
#252 = ORIENTED_EDGE ( 'NONE', *, *, #520, .F. ) ;
#253 = CARTESIAN_POINT ( 'NONE',  ( 3.278627369596165408E-14, -79.99999999999998579, 4.000000000000000000 ) ) ;
#254 = VERTEX_POINT ( 'NONE', #620 ) ;
#255 = EDGE_CURVE ( 'NONE', #825, #1099, #1161, .T. ) ;
#256 = LINE ( 'NONE', #67, #884 ) ;
#257 = ORIENTED_EDGE ( 'NONE', *, *, #351, .F. ) ;
#258 = DIRECTION ( 'NONE',  ( 0.000000000000000000, -0.000000000000000000, 1.000000000000000000 ) ) ;
#259 = ORIENTED_EDGE ( 'NONE', *, *, #1354, .T. ) ;
#260 = FACE_OUTER_BOUND ( 'NONE', #909, .T. ) ;
#261 = ADVANCED_FACE ( 'NONE', ( #195 ), #846, .T. ) ;
#262 = LINE ( 'NONE', #374, #400 ) ;
#263 = AXIS2_PLACEMENT_3D ( 'NONE', #363, #1380, #831 ) ;
#264 = EDGE_LOOP ( 'NONE', ( #941, #1265, #1203, #750 ) ) ;
#265 = CARTESIAN_POINT ( 'NONE',  ( 1.457167719820517959E-14, 19.99999999999997513, 4.000000000000000000 ) ) ;
#266 = ORIENTED_EDGE ( 'NONE', *, *, #1160, .F. ) ;
#267 = FACE_OUTER_BOUND ( 'NONE', #352, .T. ) ;
#268 = DIRECTION ( 'NONE',  ( -1.000000000000000000, 0.000000000000000000, 0.000000000000000000 ) ) ;
#269 = VECTOR ( 'NONE', #464, 1000.000000000000000 ) ;
#270 = DIRECTION ( 'NONE',  ( -1.000000000000000000, -1.301042606982605074E-16, 0.000000000000000000 ) ) ;
#271 = DIRECTION ( 'NONE',  ( -1.000000000000000000, 0.000000000000000000, 0.000000000000000000 ) ) ;
#272 = LINE ( 'NONE', #386, #524 ) ;
#273 = VERTEX_POINT ( 'NONE', #507 ) ;
#274 = CARTESIAN_POINT ( 'NONE',  ( -50.00000000000000000, 99.99999999999998579, 4.000000000000000000 ) ) ;
#275 = CARTESIAN_POINT ( 'NONE',  ( 0.000000000000000000, -60.00000000000000000, 0.000000000000000000 ) ) ;
#276 = CARTESIAN_POINT ( 'NONE',  ( -50.00000000000000000, -19.99999999999998934, 0.000000000000000000 ) ) ;
#277 = ORIENTED_EDGE ( 'NONE', *, *, #836, .T. ) ;
#278 = CARTESIAN_POINT ( 'NONE',  ( 4.000000000000007105, 3.469446951953620105E-16, 0.000000000000000000 ) ) ;
#279 = ORIENTED_EDGE ( 'NONE', *, *, #183, .T. ) ;
#280 = CARTESIAN_POINT ( 'NONE',  ( 2.550043509685906113E-14, -39.99999999999999289, 0.000000000000000000 ) ) ;
#281 = EDGE_CURVE ( 'NONE', #7, #123, #282, .T. ) ;
#282 = LINE ( 'NONE', #1386, #1283 ) ;
#283 = DIRECTION ( 'NONE',  ( 0.000000000000000000, 0.000000000000000000, 1.000000000000000000 ) ) ;
#284 = CARTESIAN_POINT ( 'NONE',  ( -53.99999999999999289, -80.00000000000001421, 0.000000000000000000 ) ) ;
#285 = DIRECTION ( 'NONE',  ( 1.000000000000000000, 0.000000000000000000, 0.000000000000000000 ) ) ;
#286 = ORIENTED_EDGE ( 'NONE', *, *, #501, .T. ) ;
#287 = DIRECTION ( 'NONE',  ( -6.071532165918828775E-16, 1.000000000000000000, 0.000000000000000000 ) ) ;
#288 = ADVANCED_FACE ( 'NONE', ( #1063 ), #1296, .T. ) ;
#289 = FACE_OUTER_BOUND ( 'NONE', #454, .T. ) ;
#290 = EDGE_CURVE ( 'NONE', #978, #92, #952, .T. ) ;
#291 = VECTOR ( 'NONE', #414, 1000.000000000000000 ) ;
#292 = APPLICATION_PROTOCOL_DEFINITION ( 'international standard', 'config_control_design', 1994, #478 ) ;
#293 = VECTOR ( 'NONE', #1242, 1000.000000000000000 ) ;
#294 = ORIENTED_EDGE ( 'NONE', *, *, #80, .T. ) ;
#295 = LINE ( 'NONE', #496, #589 ) ;
#296 = VERTEX_POINT ( 'NONE', #969 ) ;
#297 = LINE ( 'NONE', #928, #1126 ) ;
#298 = DIRECTION ( 'NONE',  ( 0.000000000000000000, -0.000000000000000000, -1.000000000000000000 ) ) ;
#299 = DIRECTION ( 'NONE',  ( -1.821459649775647449E-16, 1.000000000000000000, 0.000000000000000000 ) ) ;
#300 = EDGE_CURVE ( 'NONE', #123, #273, #165, .T. ) ;
#301 = CARTESIAN_POINT ( 'NONE',  ( 1.821459649775647134E-14, 3.317715255760823562E-30, 0.000000000000000000 ) ) ;
#302 = ORIENTED_EDGE ( 'NONE', *, *, #695, .F. ) ;
#303 = FACE_OUTER_BOUND ( 'NONE', #556, .T. ) ;
#304 = LINE ( 'NONE', #739, #523 ) ;
#305 = CARTESIAN_POINT ( 'NONE',  ( -50.00000000000000000, 99.99999999999998579, 4.000000000000000000 ) ) ;
#306 = EDGE_CURVE ( 'NONE', #472, #512, #1182, .T. ) ;
#307 = DIRECTION ( 'NONE',  ( 1.000000000000000000, 6.071532165918828775E-16, 0.000000000000000000 ) ) ;
#308 = VERTEX_POINT ( 'NONE', #407 ) ;
#309 = DIRECTION ( 'NONE',  ( 1.040834085586084059E-15, -1.000000000000000000, -0.000000000000000000 ) ) ;
#310 = PRODUCT_DEFINITION_FORMATION_WITH_SPECIFIED_SOURCE ( 'ANY', '', #759, .NOT_KNOWN. ) ;
#311 = ORIENTED_EDGE ( 'NONE', *, *, #1355, .T. ) ;
#312 = DIRECTION ( 'NONE',  ( 0.000000000000000000, 0.000000000000000000, -1.000000000000000000 ) ) ;
#313 = DIRECTION ( 'NONE',  ( 0.000000000000000000, 0.000000000000000000, -1.000000000000000000 ) ) ;
#314 = VECTOR ( 'NONE', #632, 1000.000000000000000 ) ;
#315 = ORIENTED_EDGE ( 'NONE', *, *, #1103, .F. ) ;
#316 = DIRECTION ( 'NONE',  ( 1.000000000000000000, 0.000000000000000000, 0.000000000000000000 ) ) ;
#317 = ADVANCED_FACE ( 'NONE', ( #1290 ), #732, .T. ) ;
#318 = ORIENTED_EDGE ( 'NONE', *, *, #604, .T. ) ;
#319 = CARTESIAN_POINT ( 'NONE',  ( -54.00000000000004263, 59.99999999999998579, 0.000000000000000000 ) ) ;
#320 = DESIGN_CONTEXT ( 'detailed design', #396, 'design' ) ;
#321 = PLANE ( 'NONE',  #1287 ) ;
#322 = ORIENTED_EDGE ( 'NONE', *, *, #1147, .F. ) ;
#323 = PLANE ( 'NONE',  #1328 ) ;
#324 = VERTEX_POINT ( 'NONE', #938 ) ;
#325 = EDGE_CURVE ( 'NONE', #1115, #764, #389, .T. ) ;
#326 = DATE_AND_TIME ( #768, #929 ) ;
#327 = DIRECTION ( 'NONE',  ( 0.000000000000000000, 1.000000000000000000, 0.000000000000000000 ) ) ;
#328 = ADVANCED_BREP_SHAPE_REPRESENTATION ( 'colunaDentado', ( #211, #375 ), #193 ) ;
#329 = ORIENTED_EDGE ( 'NONE', *, *, #1354, .F. ) ;
#330 = CARTESIAN_POINT ( 'NONE',  ( 1.821459649775647134E-14, 3.317715255760823562E-30, 0.000000000000000000 ) ) ;
#331 = ORIENTED_EDGE ( 'NONE', *, *, #714, .F. ) ;
#332 = VECTOR ( 'NONE', #1086, 1000.000000000000000 ) ;
#333 = EDGE_CURVE ( 'NONE', #1033, #1121, #1068, .T. ) ;
#334 = APPLICATION_PROTOCOL_DEFINITION ( 'international standard', 'config_control_design', 1994, #396 ) ;
#335 = EDGE_CURVE ( 'NONE', #561, #1263, #304, .T. ) ;
#336 = CARTESIAN_POINT ( 'NONE',  ( 0.000000000000000000, -60.00000000000000000, 0.000000000000000000 ) ) ;
#337 = LINE ( 'NONE', #663, #225 ) ;
#338 = AXIS2_PLACEMENT_3D ( 'NONE', #1352, #679, #687 ) ;
#339 = ORIENTED_EDGE ( 'NONE', *, *, #794, .F. ) ;
#340 = CARTESIAN_POINT ( 'NONE',  ( 1.821459649775647134E-14, 3.317715255760823562E-30, 0.000000000000000000 ) ) ;
#341 = VECTOR ( 'NONE', #1209, 1000.000000000000000 ) ;
#342 = ORIENTED_EDGE ( 'NONE', *, *, #1184, .F. ) ;
#343 = CALENDAR_DATE ( 2026, 27, 5 ) ;
#344 = EDGE_CURVE ( 'NONE', #574, #1089, #626, .T. ) ;
#345 = CARTESIAN_POINT ( 'NONE',  ( 4.000000000000005329, 39.99999999999997868, 4.000000000000000000 ) ) ;
#346 = ORIENTED_EDGE ( 'NONE', *, *, #1167, .F. ) ;
#347 = DIRECTION ( 'NONE',  ( 1.301042606982605074E-16, -1.000000000000000000, 0.000000000000000000 ) ) ;
#348 = ORIENTED_EDGE ( 'NONE', *, *, #21, .T. ) ;
#349 = DATE_AND_TIME ( #995, #1367 ) ;
#350 = CARTESIAN_POINT ( 'NONE',  ( -54.00000000000002842, 39.99999999999997868, 0.000000000000000000 ) ) ;
#351 = EDGE_CURVE ( 'NONE', #766, #324, #404, .T. ) ;
#352 = EDGE_LOOP ( 'NONE', ( #19, #277, #772, #1399 ) ) ;
#353 = DIRECTION ( 'NONE',  ( -1.000000000000000000, -3.469446951953611033E-15, 0.000000000000000000 ) ) ;
#354 = VERTEX_POINT ( 'NONE', #625 ) ;
#355 = VECTOR ( 'NONE', #1333, 1000.000000000000000 ) ;
#356 = DATE_TIME_ROLE ( 'creation_date' ) ;
#357 = LINE ( 'NONE', #798, #1022 ) ;
#358 = VERTEX_POINT ( 'NONE', #815 ) ;
#359 = LINE ( 'NONE', #788, #293 ) ;
#360 = ORIENTED_EDGE ( 'NONE', *, *, #803, .T. ) ;
#361 = VERTEX_POINT ( 'NONE', #722 ) ;
#362 = VECTOR ( 'NONE', #504, 1000.000000000000000 ) ;
#363 = CARTESIAN_POINT ( 'NONE',  ( 0.000000000000000000, 0.000000000000000000, 0.000000000000000000 ) ) ;
#364 = VERTEX_POINT ( 'NONE', #171 ) ;
#365 = DIRECTION ( 'NONE',  ( -1.821459649775647449E-16, 1.000000000000000000, 0.000000000000000000 ) ) ;
#366 = ORIENTED_EDGE ( 'NONE', *, *, #1261, .T. ) ;
#367 = ADVANCED_FACE ( 'NONE', ( #1153 ), #1039, .F. ) ;
#368 = DIRECTION ( 'NONE',  ( -1.000000000000000000, -0.000000000000000000, -0.000000000000000000 ) ) ;
#369 = CARTESIAN_POINT ( 'NONE',  ( -50.00000000000002842, 59.99999999999998579, 0.000000000000000000 ) ) ;
#370 = FACE_OUTER_BOUND ( 'NONE', #576, .T. ) ;
#371 = ORIENTED_EDGE ( 'NONE', *, *, #483, .F. ) ;
#372 = CARTESIAN_POINT ( 'NONE',  ( 4.000000000000001776, 59.99999999999998579, 0.000000000000000000 ) ) ;
#373 = CARTESIAN_POINT ( 'NONE',  ( 1.821459649775647449E-14, -100.0000000000000142, 0.000000000000000000 ) ) ;
#374 = CARTESIAN_POINT ( 'NONE',  ( 3.642919299551294109E-15, 79.99999999999998579, 0.000000000000000000 ) ) ;
#375 = AXIS2_PLACEMENT_3D ( 'NONE', #515, #1216, #690 ) ;
#376 = EDGE_CURVE ( 'NONE', #92, #130, #603, .T. ) ;
#377 = DIRECTION ( 'NONE',  ( -1.000000000000000000, -8.673617379884035472E-17, 0.000000000000000000 ) ) ;
#378 = EDGE_LOOP ( 'NONE', ( #57, #1152, #9, #133 ) ) ;
#379 = CARTESIAN_POINT ( 'NONE',  ( -50.00000000000000000, -100.0000000000000142, 4.000000000000000000 ) ) ;
#380 = VECTOR ( 'NONE', #1274, 1000.000000000000000 ) ;
#381 = CARTESIAN_POINT ( 'NONE',  ( 4.000000000000019540, -39.99999999999999289, 0.000000000000000000 ) ) ;
#382 = VECTOR ( 'NONE', #878, 1000.000000000000000 ) ;
#383 = LINE ( 'NONE', #1162, #1393 ) ;
#384 = EDGE_CURVE ( 'NONE', #980, #130, #611, .T. ) ;
#385 = VERTEX_POINT ( 'NONE', #280 ) ;
#386 = CARTESIAN_POINT ( 'NONE',  ( 1.821459649775647134E-14, 3.317715255760823562E-30, 0.000000000000000000 ) ) ;
#387 = ORIENTED_EDGE ( 'NONE', *, *, #474, .F. ) ;
#388 = CARTESIAN_POINT ( 'NONE',  ( -54.00000000000004263, 59.99999999999998579, 0.000000000000000000 ) ) ;
#389 = LINE ( 'NONE', #830, #587 ) ;
#390 = LINE ( 'NONE', #1027, #79 ) ;
#391 = VERTEX_POINT ( 'NONE', #51 ) ;
#392 = CARTESIAN_POINT ( 'NONE',  ( 0.000000000000000000, -79.99999999999998579, 0.000000000000000000 ) ) ;
#393 = EDGE_CURVE ( 'NONE', #1138, #570, #297, .T. ) ;
#394 = VERTEX_POINT ( 'NONE', #65 ) ;
#395 = DIRECTION ( 'NONE',  ( 0.000000000000000000, 0.000000000000000000, -1.000000000000000000 ) ) ;
#396 = APPLICATION_CONTEXT ( 'configuration controlled 3d designs of mechanical parts and assemblies' ) ;
#397 = ADVANCED_FACE ( 'NONE', ( #1378 ), #1385, .F. ) ;
#398 = LINE ( 'NONE', #532, #731 ) ;
#399 =( LENGTH_UNIT ( ) NAMED_UNIT ( * ) SI_UNIT ( .MILLI., .METRE. ) );
#400 = VECTOR ( 'NONE', #1057, 1000.000000000000000 ) ;
#401 = PLANE ( 'NONE',  #609 ) ;
#402 = PLANE ( 'NONE',  #613 ) ;
#403 = VERTEX_POINT ( 'NONE', #1067 ) ;
#404 = LINE ( 'NONE', #1273, #706 ) ;
#405 = VECTOR ( 'NONE', #594, 1000.000000000000000 ) ;
#406 = ADVANCED_FACE ( 'NONE', ( #267 ), #730, .F. ) ;
#407 = CARTESIAN_POINT ( 'NONE',  ( -50.00000000000000000, 99.99999999999998579, 0.000000000000000000 ) ) ;
#408 = VECTOR ( 'NONE', #595, 1000.000000000000000 ) ;
#409 = FACE_OUTER_BOUND ( 'NONE', #153, .T. ) ;
#410 = VECTOR ( 'NONE', #423, 1000.000000000000000 ) ;
#411 = PLANE ( 'NONE',  #456 ) ;
#412 = ORIENTED_EDGE ( 'NONE', *, *, #137, .T. ) ;
#413 = CARTESIAN_POINT ( 'NONE',  ( -49.99999999999998579, -80.00000000000002842, 0.000000000000000000 ) ) ;
#414 = DIRECTION ( 'NONE',  ( -1.000000000000000000, 0.000000000000000000, 0.000000000000000000 ) ) ;
#415 = EDGE_CURVE ( 'NONE', #1205, #358, #709, .T. ) ;
#416 = DIRECTION ( 'NONE',  ( 0.000000000000000000, 1.000000000000000000, 0.000000000000000000 ) ) ;
#417 = CARTESIAN_POINT ( 'NONE',  ( -12.99999999999999822, -100.0000000000000142, 0.000000000000000000 ) ) ;
#418 = ORIENTED_EDGE ( 'NONE', *, *, #1012, .F. ) ;
#419 = CARTESIAN_POINT ( 'NONE',  ( -37.00000000000000000, -104.0000000000000284, 4.000000000000000000 ) ) ;
#420 = VERTEX_POINT ( 'NONE', #78 ) ;
#421 = DIRECTION ( 'NONE',  ( -1.821459649775647449E-16, 1.000000000000000000, 0.000000000000000000 ) ) ;
#422 = EDGE_CURVE ( 'NONE', #968, #1249, #822, .T. ) ;
#423 = DIRECTION ( 'NONE',  ( -1.821459649775647449E-16, 1.000000000000000000, 0.000000000000000000 ) ) ;
#424 = ORIENTED_EDGE ( 'NONE', *, *, #1320, .T. ) ;
#425 = FACE_OUTER_BOUND ( 'NONE', #857, .T. ) ;
#426 = VECTOR ( 'NONE', #939, 1000.000000000000000 ) ;
#427 = ORIENTED_EDGE ( 'NONE', *, *, #1103, .T. ) ;
#428 = PLANE ( 'NONE',  #448 ) ;
#429 = CARTESIAN_POINT ( 'NONE',  ( -54.00000000000001421, -19.99999999999998934, 0.000000000000000000 ) ) ;
#430 = VECTOR ( 'NONE', #519, 1000.000000000000000 ) ;
#431 = EDGE_CURVE ( 'NONE', #364, #1165, #1289, .T. ) ;
#432 = ORIENTED_EDGE ( 'NONE', *, *, #1094, .F. ) ;
#433 = CARTESIAN_POINT ( 'NONE',  ( -12.99999999999999822, -104.0000000000000284, 4.000000000000000000 ) ) ;
#434 = ORIENTED_EDGE ( 'NONE', *, *, #3, .T. ) ;
#435 = PERSON_AND_ORGANIZATION_ROLE ( 'design_owner' ) ;
#436 = CARTESIAN_POINT ( 'NONE',  ( -54.00000000000003553, 79.99999999999998579, 0.000000000000000000 ) ) ;
#437 = VERTEX_POINT ( 'NONE', #274 ) ;
#438 = CARTESIAN_POINT ( 'NONE',  ( -54.00000000000004263, 59.99999999999998579, 4.000000000000000000 ) ) ;
#439 = EDGE_CURVE ( 'NONE', #610, #86, #619, .T. ) ;
#440 = ORIENTED_EDGE ( 'NONE', *, *, #749, .T. ) ;
#441 = EDGE_CURVE ( 'NONE', #561, #394, #1159, .T. ) ;
#442 = DATE_AND_TIME ( #343, #493 ) ;
#443 = DIRECTION ( 'NONE',  ( 0.000000000000000000, 1.000000000000000000, 0.000000000000000000 ) ) ;
#444 = LINE ( 'NONE', #883, #582 ) ;
#445 = ORIENTED_EDGE ( 'NONE', *, *, #1291, .F. ) ;
#446 = FACE_OUTER_BOUND ( 'NONE', #596, .T. ) ;
#447 = ORIENTED_EDGE ( 'NONE', *, *, #190, .T. ) ;
#448 = AXIS2_PLACEMENT_3D ( 'NONE', #868, #312, #1404 ) ;
#449 = EDGE_CURVE ( 'NONE', #1229, #1301, #951, .T. ) ;
#450 = PERSON_AND_ORGANIZATION_ROLE ( 'creator' ) ;
#451 = DIRECTION ( 'NONE',  ( 0.000000000000000000, -1.000000000000000000, 0.000000000000000000 ) ) ;
#452 = CARTESIAN_POINT ( 'NONE',  ( 4.000000000000019540, -39.99999999999999289, 0.000000000000000000 ) ) ;
#453 = VECTOR ( 'NONE', #1046, 1000.000000000000000 ) ;
#454 = EDGE_LOOP ( 'NONE', ( #667, #885, #975, #476 ) ) ;
#455 = PLANE ( 'NONE',  #249 ) ;
#456 = AXIS2_PLACEMENT_3D ( 'NONE', #1185, #850, #965 ) ;
#457 = ORIENTED_EDGE ( 'NONE', *, *, #384, .F. ) ;
#458 = EDGE_CURVE ( 'NONE', #978, #980, #186, .T. ) ;
#459 = CARTESIAN_POINT ( 'NONE',  ( 4.000000000000000000, 79.99999999999998579, 0.000000000000000000 ) ) ;
#460 = LINE ( 'NONE', #110, #838 ) ;
#461 = ORIENTED_EDGE ( 'NONE', *, *, #1106, .F. ) ;
#462 = PLANE ( 'NONE',  #338 ) ;
#463 = ORIENTED_EDGE ( 'NONE', *, *, #855, .T. ) ;
#464 = DIRECTION ( 'NONE',  ( 1.000000000000000000, 0.000000000000000000, 0.000000000000000000 ) ) ;
#465 = EDGE_CURVE ( 'NONE', #1024, #1133, #163, .T. ) ;
#466 = ORIENTED_EDGE ( 'NONE', *, *, #300, .T. ) ;
#467 = CARTESIAN_POINT ( 'NONE',  ( -12.99999999999999822, -100.0000000000000142, 4.000000000000000000 ) ) ;
#468 = ORIENTED_EDGE ( 'NONE', *, *, #441, .T. ) ;
#469 = APPROVAL_PERSON_ORGANIZATION ( #668, #248, #1330 ) ;
#470 = CARTESIAN_POINT ( 'NONE',  ( 2.185751579730776623E-14, -19.99999999999998934, 0.000000000000000000 ) ) ;
#471 = VECTOR ( 'NONE', #271, 1000.000000000000000 ) ;
#472 = VERTEX_POINT ( 'NONE', #1312 ) ;
#473 = CARTESIAN_POINT ( 'NONE',  ( -50.00000000000000000, -100.0000000000000142, 4.000000000000000000 ) ) ;
#474 = EDGE_CURVE ( 'NONE', #968, #821, #530, .T. ) ;
#475 = VECTOR ( 'NONE', #168, 1000.000000000000000 ) ;
#476 = ORIENTED_EDGE ( 'NONE', *, *, #1085, .T. ) ;
#477 = VECTOR ( 'NONE', #2, 1000.000000000000000 ) ;
#478 = APPLICATION_CONTEXT ( 'configuration controlled 3d designs of mechanical parts and assemblies' ) ;
#479 = CARTESIAN_POINT ( 'NONE',  ( -54.00000000000000000, -40.00000000000000711, 0.000000000000000000 ) ) ;
#480 = DIRECTION ( 'NONE',  ( 0.000000000000000000, -0.000000000000000000, 1.000000000000000000 ) ) ;
#481 = CARTESIAN_POINT ( 'NONE',  ( -50.00000000000000000, -60.00000000000001421, 0.000000000000000000 ) ) ;
#482 = ORIENTED_EDGE ( 'NONE', *, *, #1261, .F. ) ;
#483 = EDGE_CURVE ( 'NONE', #1091, #112, #1300, .T. ) ;
#484 = EDGE_CURVE ( 'NONE', #437, #308, #1307, .T. ) ;
#485 = LINE ( 'NONE', #1374, #516 ) ;
#486 = ORIENTED_EDGE ( 'NONE', *, *, #344, .F. ) ;
#487 = CARTESIAN_POINT ( 'NONE',  ( -54.00000000000003553, 79.99999999999998579, 0.000000000000000000 ) ) ;
#488 = ORIENTED_EDGE ( 'NONE', *, *, #501, .F. ) ;
#489 = DIRECTION ( 'NONE',  ( 0.000000000000000000, 0.000000000000000000, -1.000000000000000000 ) ) ;
#490 = LINE ( 'NONE', #930, #380 ) ;
#491 = ADVANCED_FACE ( 'NONE', ( #303 ), #323, .T. ) ;
#492 = FACE_OUTER_BOUND ( 'NONE', #895, .T. ) ;
#493 = LOCAL_TIME ( 17, 3, 5.000000000000000000, #1131 ) ;
#494 = CC_DESIGN_PERSON_AND_ORGANIZATION_ASSIGNMENT ( #1102, #881, ( #681 ) ) ;
#495 = ORIENTED_EDGE ( 'NONE', *, *, #76, .T. ) ;
#496 = CARTESIAN_POINT ( 'NONE',  ( -37.00000000000000000, -104.0000000000000284, 4.000000000000000000 ) ) ;
#497 = ORIENTED_EDGE ( 'NONE', *, *, #734, .F. ) ;
#498 = DIRECTION ( 'NONE',  ( 0.000000000000000000, 0.000000000000000000, 1.000000000000000000 ) ) ;
#499 = CARTESIAN_POINT ( 'NONE',  ( 3.999999999999996447, 2.255140518769846856E-15, 0.000000000000000000 ) ) ;
#500 = AXIS2_PLACEMENT_3D ( 'NONE', #506, #1266, #489 ) ;
#501 = EDGE_CURVE ( 'NONE', #1353, #766, #648, .T. ) ;
#502 = PLANE ( 'NONE',  #263 ) ;
#503 = FACE_OUTER_BOUND ( 'NONE', #859, .T. ) ;
#504 = DIRECTION ( 'NONE',  ( -5.637851296924622071E-16, 1.000000000000000000, 0.000000000000000000 ) ) ;
#505 = ORIENTED_EDGE ( 'NONE', *, *, #1049, .T. ) ;
#506 = CARTESIAN_POINT ( 'NONE',  ( -50.00000000000000000, -100.0000000000000142, 4.000000000000000000 ) ) ;
#507 = CARTESIAN_POINT ( 'NONE',  ( -50.00000000000000000, -19.99999999999998934, 4.000000000000000000 ) ) ;
#508 = CARTESIAN_POINT ( 'NONE',  ( 1.821459649775647134E-14, 3.317715255760823562E-30, 4.000000000000000000 ) ) ;
#509 = CARTESIAN_POINT ( 'NONE',  ( -54.00000000000001421, -19.99999999999998934, 0.000000000000000000 ) ) ;
#510 = LINE ( 'NONE', #154, #1422 ) ;
#511 = EDGE_CURVE ( 'NONE', #950, #437, #974, .T. ) ;
#512 = VERTEX_POINT ( 'NONE', #1421 ) ;
#513 = DIRECTION ( 'NONE',  ( 1.000000000000000000, -0.000000000000000000, -0.000000000000000000 ) ) ;
#514 = DIRECTION ( 'NONE',  ( 0.000000000000000000, 0.000000000000000000, 1.000000000000000000 ) ) ;
#515 = CARTESIAN_POINT ( 'NONE',  ( 0.000000000000000000, 0.000000000000000000, 0.000000000000000000 ) ) ;
#516 = VECTOR ( 'NONE', #283, 1000.000000000000000 ) ;
#517 = LINE ( 'NONE', #639, #151 ) ;
#518 = ORIENTED_EDGE ( 'NONE', *, *, #335, .F. ) ;
#519 = DIRECTION ( 'NONE',  ( -0.000000000000000000, -0.000000000000000000, 1.000000000000000000 ) ) ;
#520 = EDGE_CURVE ( 'NONE', #568, #672, #208, .T. ) ;
#521 = AXIS2_PLACEMENT_3D ( 'NONE', #1116, #565, #711 ) ;
#522 = DIRECTION ( 'NONE',  ( 1.000000000000000000, 0.000000000000000000, 0.000000000000000000 ) ) ;
#523 = VECTOR ( 'NONE', #1168, 1000.000000000000000 ) ;
#524 = VECTOR ( 'NONE', #1359, 1000.000000000000000 ) ;
#525 = DIRECTION ( 'NONE',  ( 2.775557561562891351E-16, -1.000000000000000000, 0.000000000000000000 ) ) ;
#526 = AXIS2_PLACEMENT_3D ( 'NONE', #856, #1196, #313 ) ;
#527 = LINE ( 'NONE', #762, #173 ) ;
#528 = DIRECTION ( 'NONE',  ( -0.000000000000000000, -0.000000000000000000, 1.000000000000000000 ) ) ;
#529 = ORIENTED_EDGE ( 'NONE', *, *, #511, .F. ) ;
#530 = LINE ( 'NONE', #413, #1004 ) ;
#531 = EDGE_LOOP ( 'NONE', ( #866, #342, #697, #634 ) ) ;
#532 = CARTESIAN_POINT ( 'NONE',  ( -54.00000000000002842, 39.99999999999997868, 0.000000000000000000 ) ) ;
#533 = CARTESIAN_POINT ( 'NONE',  ( -37.00000000000000711, -100.0000000000000142, 4.000000000000000000 ) ) ;
#534 = CARTESIAN_POINT ( 'NONE',  ( 1.821459649775647449E-14, 100.0000000000000000, 4.000000000000000000 ) ) ;
#535 = EDGE_LOOP ( 'NONE', ( #204, #647, #266, #658 ) ) ;
#536 = CARTESIAN_POINT ( 'NONE',  ( 1.821459649775647134E-14, 3.317715255760823562E-30, 4.000000000000000000 ) ) ;
#537 = ORIENTED_EDGE ( 'NONE', *, *, #845, .F. ) ;
#538 =( NAMED_UNIT ( * ) PLANE_ANGLE_UNIT ( ) SI_UNIT ( $, .RADIAN. ) );
#539 = EDGE_CURVE ( 'NONE', #324, #1091, #852, .T. ) ;
#540 = LINE ( 'NONE', #417, #847 ) ;
#541 = AXIS2_PLACEMENT_3D ( 'NONE', #637, #954, #421 ) ;
#542 = VERTEX_POINT ( 'NONE', #433 ) ;
#543 = DIRECTION ( 'NONE',  ( -1.000000000000000000, 0.000000000000000000, 0.000000000000000000 ) ) ;
#544 = VERTEX_POINT ( 'NONE', #872 ) ;
#545 = EDGE_CURVE ( 'NONE', #1263, #391, #1413, .T. ) ;
#546 = CARTESIAN_POINT ( 'NONE',  ( 3.999999999999979128, 2.428612866367518888E-15, 0.000000000000000000 ) ) ;
#547 = AXIS2_PLACEMENT_3D ( 'NONE', #392, #948, #1366 ) ;
#548 = ORIENTED_EDGE ( 'NONE', *, *, #52, .F. ) ;
#549 = CARTESIAN_POINT ( 'NONE',  ( 4.000000000000007105, 3.469446951953620105E-16, 0.000000000000000000 ) ) ;
#550 = EDGE_LOOP ( 'NONE', ( #1348, #1163, #694, #559 ) ) ;
#551 = LINE ( 'NONE', #988, #1395 ) ;
#552 = CARTESIAN_POINT ( 'NONE',  ( -0.000000000000000000, 79.99999999999998579, 4.000000000000000000 ) ) ;
#553 = ORIENTED_EDGE ( 'NONE', *, *, #1251, .T. ) ;
#554 = LINE ( 'NONE', #1340, #1173 ) ;
#555 = EDGE_CURVE ( 'NONE', #1089, #1249, #1211, .T. ) ;
#556 = EDGE_LOOP ( 'NONE', ( #1135, #1390, #259, #1038 ) ) ;
#557 = LINE ( 'NONE', #996, #125 ) ;
#558 = CARTESIAN_POINT ( 'NONE',  ( 2.185751579730776623E-14, -19.99999999999998934, 0.000000000000000000 ) ) ;
#559 = ORIENTED_EDGE ( 'NONE', *, *, #539, .T. ) ;
#560 = DIRECTION ( 'NONE',  ( -1.821459649775647449E-16, 1.000000000000000000, 0.000000000000000000 ) ) ;
#561 = VERTEX_POINT ( 'NONE', #1192 ) ;
#562 = CC_DESIGN_DATE_AND_TIME_ASSIGNMENT ( #326, #356, ( #740 ) ) ;
#563 = ORGANIZATION ( 'UNSPECIFIED', 'UNSPECIFIED', '' ) ;
#564 = COORDINATED_UNIVERSAL_TIME_OFFSET ( 3, 0, .BEHIND. ) ;
#565 = DIRECTION ( 'NONE',  ( 0.000000000000000000, -1.000000000000000000, 0.000000000000000000 ) ) ;
#566 = LINE ( 'NONE', #811, #1140 ) ;
#567 = VECTOR ( 'NONE', #180, 1000.000000000000000 ) ;
#568 = VERTEX_POINT ( 'NONE', #1097 ) ;
#569 = DIRECTION ( 'NONE',  ( 0.000000000000000000, -1.000000000000000000, 0.000000000000000000 ) ) ;
#570 = VERTEX_POINT ( 'NONE', #192 ) ;
#571 = ORIENTED_EDGE ( 'NONE', *, *, #899, .F. ) ;
#572 = MECHANICAL_CONTEXT ( 'NONE', #478, 'mechanical' ) ;
#573 = LINE ( 'NONE', #129, #1215 ) ;
#574 = VERTEX_POINT ( 'NONE', #1407 ) ;
#575 = DIRECTION ( 'NONE',  ( -1.000000000000000000, -1.040834085586084059E-15, 0.000000000000000000 ) ) ;
#576 = EDGE_LOOP ( 'NONE', ( #457, #1358, #1016, #1186 ) ) ;
#577 = ADVANCED_FACE ( 'NONE', ( #425 ), #105, .F. ) ;
#578 = LINE ( 'NONE', #1018, #664 ) ;
#579 = VERTEX_POINT ( 'NONE', #765 ) ;
#580 = FACE_OUTER_BOUND ( 'NONE', #1122, .T. ) ;
#581 = EDGE_LOOP ( 'NONE', ( #674, #600, #50, #505 ) ) ;
#582 = VECTOR ( 'NONE', #1111, 1000.000000000000000 ) ;
#583 = CARTESIAN_POINT ( 'NONE',  ( 4.000000000000010658, 5.204170427930433116E-16, 4.000000000000000000 ) ) ;
#584 = EDGE_CURVE ( 'NONE', #112, #1115, #1204, .T. ) ;
#585 = LINE ( 'NONE', #509, #405 ) ;
#586 = CARTESIAN_POINT ( 'NONE',  ( 1.457167719820517959E-14, 19.99999999999997513, 0.000000000000000000 ) ) ;
#587 = VECTOR ( 'NONE', #945, 1000.000000000000000 ) ;
#588 = EDGE_CURVE ( 'NONE', #156, #1024, #215, .T. ) ;
#589 = VECTOR ( 'NONE', #934, 1000.000000000000000 ) ;
#590 = VERTEX_POINT ( 'NONE', #858 ) ;
#591 = VECTOR ( 'NONE', #770, 1000.000000000000000 ) ;
#592 = DIRECTION ( 'NONE',  ( 1.000000000000000000, 0.000000000000000000, 0.000000000000000000 ) ) ;
#593 = DIRECTION ( 'NONE',  ( 6.938893903907223447E-16, -1.000000000000000000, 0.000000000000000000 ) ) ;
#594 = DIRECTION ( 'NONE',  ( -1.000000000000000000, -0.000000000000000000, -0.000000000000000000 ) ) ;
#595 = DIRECTION ( 'NONE',  ( -0.000000000000000000, -0.000000000000000000, 1.000000000000000000 ) ) ;
#596 = EDGE_LOOP ( 'NONE', ( #126, #223, #311, #1327 ) ) ;
#597 = EDGE_CURVE ( 'NONE', #130, #743, #986, .T. ) ;
#598 = PLANE ( 'NONE',  #956 ) ;
#599 = DIRECTION ( 'NONE',  ( -0.000000000000000000, -0.000000000000000000, -1.000000000000000000 ) ) ;
#600 = ORIENTED_EDGE ( 'NONE', *, *, #60, .F. ) ;
#601 = DIRECTION ( 'NONE',  ( 1.000000000000000000, 0.000000000000000000, 0.000000000000000000 ) ) ;
#602 = ORIENTED_EDGE ( 'NONE', *, *, #1151, .T. ) ;
#603 = LINE ( 'NONE', #388, #1100 ) ;
#604 = EDGE_CURVE ( 'NONE', #385, #1073, #1318, .T. ) ;
#605 = CARTESIAN_POINT ( 'NONE',  ( -50.00000000000000000, -100.0000000000000142, 4.000000000000000000 ) ) ;
#606 = PLANE ( 'NONE',  #1321 ) ;
#607 = CC_DESIGN_APPROVAL ( #1023, ( #681 ) ) ;
#608 = LINE ( 'NONE', #1031, #362 ) ;
#609 = AXIS2_PLACEMENT_3D ( 'NONE', #1030, #1036, #480 ) ;
#610 = VERTEX_POINT ( 'NONE', #666 ) ;
#611 = LINE ( 'NONE', #937, #820 ) ;
#612 = LINE ( 'NONE', #275, #1172 ) ;
#613 = AXIS2_PLACEMENT_3D ( 'NONE', #1382, #601, #145 ) ;
#614 = FACE_OUTER_BOUND ( 'NONE', #1233, .T. ) ;
#615 = EDGE_CURVE ( 'NONE', #354, #1138, #1108, .T. ) ;
#616 = DIRECTION ( 'NONE',  ( 1.734723475976805517E-15, -1.000000000000000000, 0.000000000000000000 ) ) ;
#617 = CARTESIAN_POINT ( 'NONE',  ( -54.00000000000002842, 39.99999999999997868, 4.000000000000000000 ) ) ;
#618 = ORIENTED_EDGE ( 'NONE', *, *, #76, .F. ) ;
#619 = LINE ( 'NONE', #1062, #222 ) ;
#620 = CARTESIAN_POINT ( 'NONE',  ( 3.642919299551294109E-15, 79.99999999999998579, 0.000000000000000000 ) ) ;
#621 = CARTESIAN_POINT ( 'NONE',  ( 3.278627369596165408E-14, -79.99999999999998579, 0.000000000000000000 ) ) ;
#622 = EDGE_CURVE ( 'NONE', #787, #7, #1400, .T. ) ;
#623 = CARTESIAN_POINT ( 'NONE',  ( -12.99999999999999822, -100.0000000000000142, 4.000000000000000000 ) ) ;
#624 = ORIENTED_EDGE ( 'NONE', *, *, #597, .T. ) ;
#625 = CARTESIAN_POINT ( 'NONE',  ( -50.00000000000000000, 39.99999999999999289, 0.000000000000000000 ) ) ;
#626 = LINE ( 'NONE', #81, #1326 ) ;
#627 = LINE ( 'NONE', #100, #1255 ) ;
#628 = VECTOR ( 'NONE', #1195, 1000.000000000000000 ) ;
#629 = LINE ( 'NONE', #533, #219 ) ;
#630 = CARTESIAN_POINT ( 'NONE',  ( -50.00000000000002842, 59.99999999999998579, 0.000000000000000000 ) ) ;
#631 = ORIENTED_EDGE ( 'NONE', *, *, #483, .T. ) ;
#632 = DIRECTION ( 'NONE',  ( -1.821459649775647449E-16, 1.000000000000000000, 0.000000000000000000 ) ) ;
#633 = ADVANCED_FACE ( 'NONE', ( #580 ), #1008, .F. ) ;
#634 = ORIENTED_EDGE ( 'NONE', *, *, #520, .T. ) ;
#635 = CARTESIAN_POINT ( 'NONE',  ( -54.00000000000003553, 79.99999999999998579, 0.000000000000000000 ) ) ;
#636 = VECTOR ( 'NONE', #1083, 1000.000000000000000 ) ;
#637 = CARTESIAN_POINT ( 'NONE',  ( 1.821459649775647134E-14, 3.317715255760823562E-30, 0.000000000000000000 ) ) ;
#638 = CARTESIAN_POINT ( 'NONE',  ( -50.00000000000000000, -100.0000000000000142, 4.000000000000000000 ) ) ;
#639 = CARTESIAN_POINT ( 'NONE',  ( 1.821459649775647449E-14, 100.0000000000000000, 0.000000000000000000 ) ) ;
#640 = EDGE_LOOP ( 'NONE', ( #427, #990, #1317, #692 ) ) ;
#641 = DIRECTION ( 'NONE',  ( -0.000000000000000000, -0.000000000000000000, 1.000000000000000000 ) ) ;
#642 = ORIENTED_EDGE ( 'NONE', *, *, #190, .F. ) ;
#643 = ADVANCED_FACE ( 'NONE', ( #1000 ), #462, .T. ) ;
#644 = CARTESIAN_POINT ( 'NONE',  ( -50.00000000000002132, 19.99999999999996092, 0.000000000000000000 ) ) ;
#645 = DIRECTION ( 'NONE',  ( -1.821459649775647449E-16, 1.000000000000000000, 0.000000000000000000 ) ) ;
#646 = CARTESIAN_POINT ( 'NONE',  ( -37.00000000000000711, -100.0000000000000142, 4.000000000000000000 ) ) ;
#647 = ORIENTED_EDGE ( 'NONE', *, *, #1200, .T. ) ;
#648 = LINE ( 'NONE', #87, #753 ) ;
#649 = ORIENTED_EDGE ( 'NONE', *, *, #1059, .F. ) ;
#650 = ADVANCED_FACE ( 'NONE', ( #698 ), #693, .T. ) ;
#651 = CARTESIAN_POINT ( 'NONE',  ( 1.821459649775647134E-14, 3.317715255760823562E-30, 0.000000000000000000 ) ) ;
#652 = ADVANCED_FACE ( 'NONE', ( #1021 ), #25, .F. ) ;
#653 = LINE ( 'NONE', #205, #1419 ) ;
#654 = LINE ( 'NONE', #1095, #1262 ) ;
#655 = VECTOR ( 'NONE', #74, 1000.000000000000000 ) ;
#656 = ORIENTED_EDGE ( 'NONE', *, *, #1178, .T. ) ;
#657 = DIRECTION ( 'NONE',  ( 1.000000000000000000, -0.000000000000000000, -0.000000000000000000 ) ) ;
#658 = ORIENTED_EDGE ( 'NONE', *, *, #484, .T. ) ;
#659 = AXIS2_PLACEMENT_3D ( 'NONE', #187, #73, #1078 ) ;
#660 = VECTOR ( 'NONE', #705, 1000.000000000000000 ) ;
#661 = PLANE ( 'NONE',  #1025 ) ;
#662 = EDGE_CURVE ( 'NONE', #420, #1158, #902, .T. ) ;
#663 = CARTESIAN_POINT ( 'NONE',  ( -50.00000000000000000, -100.0000000000000142, 0.000000000000000000 ) ) ;
#664 = VECTOR ( 'NONE', #1013, 1000.000000000000000 ) ;
#665 = ORIENTED_EDGE ( 'NONE', *, *, #45, .F. ) ;
#666 = CARTESIAN_POINT ( 'NONE',  ( 7.285838599102589797E-15, 59.99999999999998579, 0.000000000000000000 ) ) ;
#667 = ORIENTED_EDGE ( 'NONE', *, *, #1114, .F. ) ;
#668 = PERSON_AND_ORGANIZATION ( #796, #563 ) ;
#669 = CARTESIAN_POINT ( 'NONE',  ( 0.000000000000000000, 59.99999999999998579, 4.000000000000000000 ) ) ;
#670 = CARTESIAN_POINT ( 'NONE',  ( 4.000000000000001776, 59.99999999999998579, 4.000000000000000000 ) ) ;
#671 = EDGE_CURVE ( 'NONE', #1341, #112, #36, .T. ) ;
#672 = VERTEX_POINT ( 'NONE', #1120 ) ;
#673 = PLANE ( 'NONE',  #913 ) ;
#674 = ORIENTED_EDGE ( 'NONE', *, *, #415, .T. ) ;
#675 = CALENDAR_DATE ( 2026, 27, 5 ) ;
#676 = CARTESIAN_POINT ( 'NONE',  ( 0.000000000000000000, -39.99999999999999289, 0.000000000000000000 ) ) ;
#677 = CARTESIAN_POINT ( 'NONE',  ( 1.092875789865388627E-14, 39.99999999999997868, 4.000000000000000000 ) ) ;
#678 = ORIENTED_EDGE ( 'NONE', *, *, #545, .F. ) ;
#679 = DIRECTION ( 'NONE',  ( 0.000000000000000000, 1.000000000000000000, -0.000000000000000000 ) ) ;
#680 = ORIENTED_EDGE ( 'NONE', *, *, #671, .F. ) ;
#681 = SECURITY_CLASSIFICATION ( '', '', #20 ) ;
#682 = ADVANCED_FACE ( 'NONE', ( #131 ), #1113, .F. ) ;
#683 = PERSON_AND_ORGANIZATION ( #796, #563 ) ;
#684 = CARTESIAN_POINT ( 'NONE',  ( -50.00000000000000000, -100.0000000000000142, 0.000000000000000000 ) ) ;
#685 = AXIS2_PLACEMENT_3D ( 'NONE', #473, #915, #258 ) ;
#686 = ORIENTED_EDGE ( 'NONE', *, *, #845, .T. ) ;
#687 = DIRECTION ( 'NONE',  ( 0.000000000000000000, 0.000000000000000000, 1.000000000000000000 ) ) ;
#688 = ORIENTED_EDGE ( 'NONE', *, *, #734, .T. ) ;
#689 = EDGE_CURVE ( 'NONE', #273, #1121, #1129, .T. ) ;
#690 = DIRECTION ( 'NONE',  ( 1.000000000000000000, 0.000000000000000000, 0.000000000000000000 ) ) ;
#691 = CARTESIAN_POINT ( 'NONE',  ( -54.00000000000002842, 19.99999999999996092, 0.000000000000000000 ) ) ;
#692 = ORIENTED_EDGE ( 'NONE', *, *, #1218, .T. ) ;
#693 = PLANE ( 'NONE',  #1308 ) ;
#694 = ORIENTED_EDGE ( 'NONE', *, *, #351, .T. ) ;
#695 = EDGE_CURVE ( 'NONE', #1213, #978, #554, .T. ) ;
#696 = DIRECTION ( 'NONE',  ( -1.821459649775647449E-16, 1.000000000000000000, 0.000000000000000000 ) ) ;
#697 = ORIENTED_EDGE ( 'NONE', *, *, #855, .F. ) ;
#698 = FACE_OUTER_BOUND ( 'NONE', #194, .T. ) ;
#699 = ORIENTED_EDGE ( 'NONE', *, *, #1281, .F. ) ;
#700 = AXIS2_PLACEMENT_3D ( 'NONE', #1323, #1219, #1343 ) ;
#701 = DIRECTION ( 'NONE',  ( -1.000000000000000000, 0.000000000000000000, 0.000000000000000000 ) ) ;
#702 = DIRECTION ( 'NONE',  ( -1.821459649775647449E-16, 1.000000000000000000, 0.000000000000000000 ) ) ;
#703 = ADVANCED_FACE ( 'NONE', ( #782 ), #455, .T. ) ;
#704 = ORIENTED_EDGE ( 'NONE', *, *, #143, .F. ) ;
#705 = DIRECTION ( 'NONE',  ( 0.000000000000000000, 0.000000000000000000, 1.000000000000000000 ) ) ;
#706 = VECTOR ( 'NONE', #287, 1000.000000000000000 ) ;
#707 = AXIS2_PLACEMENT_3D ( 'NONE', #487, #49, #826 ) ;
#708 = ORIENTED_EDGE ( 'NONE', *, *, #102, .T. ) ;
#709 = LINE ( 'NONE', #1279, #777 ) ;
#710 = AXIS2_PLACEMENT_3D ( 'NONE', #646, #955, #1088 ) ;
#711 = DIRECTION ( 'NONE',  ( 0.000000000000000000, -0.000000000000000000, -1.000000000000000000 ) ) ;
#712 = LINE ( 'NONE', #1252, #1118 ) ;
#713 = LINE ( 'NONE', #63, #84 ) ;
#714 = EDGE_CURVE ( 'NONE', #743, #1061, #1015, .T. ) ;
#715 = VERTEX_POINT ( 'NONE', #467 ) ;
#716 = CARTESIAN_POINT ( 'NONE',  ( -54.00000000000003553, 79.99999999999998579, 0.000000000000000000 ) ) ;
#717 = CARTESIAN_POINT ( 'NONE',  ( 0.000000000000000000, -19.99999999999998934, 0.000000000000000000 ) ) ;
#718 = LINE ( 'NONE', #508, #1207 ) ;
#719 = ORIENTED_EDGE ( 'NONE', *, *, #804, .F. ) ;
#720 = LINE ( 'NONE', #206, #891 ) ;
#721 = ORIENTED_EDGE ( 'NONE', *, *, #28, .F. ) ;
#722 = CARTESIAN_POINT ( 'NONE',  ( 4.000000000000007994, 19.99999999999997513, 0.000000000000000000 ) ) ;
#723 = CARTESIAN_POINT ( 'NONE',  ( -54.00000000000001421, -19.99999999999998934, 0.000000000000000000 ) ) ;
#724 = VECTOR ( 'NONE', #14, 1000.000000000000000 ) ;
#725 = DIRECTION ( 'NONE',  ( 0.000000000000000000, 0.000000000000000000, 1.000000000000000000 ) ) ;
#726 = DIRECTION ( 'NONE',  ( 0.000000000000000000, 1.000000000000000000, 0.000000000000000000 ) ) ;
#727 = DIRECTION ( 'NONE',  ( 0.000000000000000000, -0.000000000000000000, 1.000000000000000000 ) ) ;
#728 = VECTOR ( 'NONE', #62, 1000.000000000000000 ) ;
#729 = ORIENTED_EDGE ( 'NONE', *, *, #1403, .T. ) ;
#730 = PLANE ( 'NONE',  #1076 ) ;
#731 = VECTOR ( 'NONE', #514, 1000.000000000000000 ) ;
#732 = PLANE ( 'NONE',  #1026 ) ;
#733 = VECTOR ( 'NONE', #309, 1000.000000000000000 ) ;
#734 = EDGE_CURVE ( 'NONE', #296, #1089, #359, .T. ) ;
#735 = FACE_OUTER_BOUND ( 'NONE', #1, .T. ) ;
#736 = DIRECTION ( 'NONE',  ( 0.000000000000000000, 1.000000000000000000, 0.000000000000000000 ) ) ;
#737 = ORIENTED_EDGE ( 'NONE', *, *, #922, .F. ) ;
#738 = DIRECTION ( 'NONE',  ( 1.000000000000000000, 0.000000000000000000, 0.000000000000000000 ) ) ;
#739 = CARTESIAN_POINT ( 'NONE',  ( -54.00000000000000000, -40.00000000000000711, 0.000000000000000000 ) ) ;
#740 = PRODUCT_DEFINITION ( 'UNKNOWN', '', #310, #320 ) ;
#741 = CARTESIAN_POINT ( 'NONE',  ( -50.00000000000000000, -80.00000000000001421, 4.000000000000000000 ) ) ;
#742 = LINE ( 'NONE', #623, #780 ) ;
#743 = VERTEX_POINT ( 'NONE', #8 ) ;
#744 = DIRECTION ( 'NONE',  ( -1.000000000000000000, -2.775557561562891351E-16, -0.000000000000000000 ) ) ;
#745 = ORIENTED_EDGE ( 'NONE', *, *, #873, .T. ) ;
#746 = DIRECTION ( 'NONE',  ( -1.000000000000000000, 0.000000000000000000, 0.000000000000000000 ) ) ;
#747 = VECTOR ( 'NONE', #754, 1000.000000000000000 ) ;
#748 = LINE ( 'NONE', #199, #1329 ) ;
#749 = EDGE_CURVE ( 'NONE', #420, #361, #16, .T. ) ;
#750 = ORIENTED_EDGE ( 'NONE', *, *, #465, .T. ) ;
#751 = DIRECTION ( 'NONE',  ( 1.000000000000000000, 1.821459649775647449E-16, 0.000000000000000000 ) ) ;
#752 = VERTEX_POINT ( 'NONE', #253 ) ;
#753 = VECTOR ( 'NONE', #316, 1000.000000000000000 ) ;
#754 = DIRECTION ( 'NONE',  ( -1.000000000000000000, 0.000000000000000000, 0.000000000000000000 ) ) ;
#755 = CARTESIAN_POINT ( 'NONE',  ( -50.00000000000000000, 99.99999999999998579, 0.000000000000000000 ) ) ;
#756 = ORIENTED_EDGE ( 'NONE', *, *, #890, .T. ) ;
#757 = CARTESIAN_POINT ( 'NONE',  ( -50.00000000000000000, 99.99999999999998579, 4.000000000000000000 ) ) ;
#758 = ADVANCED_FACE ( 'NONE', ( #446 ), #673, .T. ) ;
#759 = PRODUCT ( 'colunaDentado', 'colunaDentado', '', ( #572 ) ) ;
#760 = ORIENTED_EDGE ( 'NONE', *, *, #1291, .T. ) ;
#761 = LINE ( 'NONE', #212, #747 ) ;
#762 = CARTESIAN_POINT ( 'NONE',  ( -50.00000000000000000, -100.0000000000000142, 4.000000000000000000 ) ) ;
#763 = CARTESIAN_POINT ( 'NONE',  ( -54.00000000000002842, 19.99999999999996092, 0.000000000000000000 ) ) ;
#764 = VERTEX_POINT ( 'NONE', #896 ) ;
#765 = CARTESIAN_POINT ( 'NONE',  ( 2.185751579730776623E-14, -19.99999999999998934, 4.000000000000000000 ) ) ;
#766 = VERTEX_POINT ( 'NONE', #1228 ) ;
#767 = ADVANCED_FACE ( 'NONE', ( #1389 ), #161, .F. ) ;
#768 = CALENDAR_DATE ( 2026, 27, 5 ) ;
#769 = CARTESIAN_POINT ( 'NONE',  ( -54.00000000000002842, 39.99999999999997868, 0.000000000000000000 ) ) ;
#770 = DIRECTION ( 'NONE',  ( 1.000000000000000000, 0.000000000000000000, 0.000000000000000000 ) ) ;
#771 = AXIS2_PLACEMENT_3D ( 'NONE', #1169, #270, #175 ) ;
#772 = ORIENTED_EDGE ( 'NONE', *, *, #300, .F. ) ;
#773 = CARTESIAN_POINT ( 'NONE',  ( 0.000000000000000000, -39.99999999999999289, 0.000000000000000000 ) ) ;
#774 = ORIENTED_EDGE ( 'NONE', *, *, #111, .T. ) ;
#775 = PERSON_AND_ORGANIZATION ( #796, #563 ) ;
#776 = ADVANCED_FACE ( 'NONE', ( #1285 ), #402, .F. ) ;
#777 = VECTOR ( 'NONE', #157, 1000.000000000000000 ) ;
#778 = CARTESIAN_POINT ( 'NONE',  ( 2.914335439641035288E-14, -60.00000000000000000, 4.000000000000000000 ) ) ;
#779 = LINE ( 'NONE', #552, #591 ) ;
#780 = VECTOR ( 'NONE', #1411, 1000.000000000000000 ) ;
#781 = ORIENTED_EDGE ( 'NONE', *, *, #689, .F. ) ;
#782 = FACE_OUTER_BOUND ( 'NONE', #999, .T. ) ;
#783 = VERTEX_POINT ( 'NONE', #1164 ) ;
#784 = DATE_AND_TIME ( #675, #56 ) ;
#785 = DIRECTION ( 'NONE',  ( -5.637851296924622071E-16, 1.000000000000000000, 0.000000000000000000 ) ) ;
#786 = LINE ( 'NONE', #1225, #1280 ) ;
#787 = VERTEX_POINT ( 'NONE', #617 ) ;
#788 = CARTESIAN_POINT ( 'NONE',  ( -54.00000000000001421, -60.00000000000001421, 4.000000000000000000 ) ) ;
#789 = VERTEX_POINT ( 'NONE', #586 ) ;
#790 = COORDINATED_UNIVERSAL_TIME_OFFSET ( 3, 0, .BEHIND. ) ;
#791 = CARTESIAN_POINT ( 'NONE',  ( 4.000000000000000000, 79.99999999999998579, 0.000000000000000000 ) ) ;
#792 = ORIENTED_EDGE ( 'NONE', *, *, #1065, .T. ) ;
#793 = CARTESIAN_POINT ( 'NONE',  ( -12.99999999999999822, -100.0000000000000142, 4.000000000000000000 ) ) ;
#794 = EDGE_CURVE ( 'NONE', #107, #1043, #926, .T. ) ;
#795 = VERTEX_POINT ( 'NONE', #481 ) ;
#796 = PERSON ( 'UNSPECIFIED', 'UNSPECIFIED', 'UNSPECIFIED', ('UNSPECIFIED'), ('UNSPECIFIED'), ('UNSPECIFIED') ) ;
#797 = COORDINATED_UNIVERSAL_TIME_OFFSET ( 3, 0, .BEHIND. ) ;
#798 = CARTESIAN_POINT ( 'NONE',  ( 0.000000000000000000, 39.99999999999997868, 0.000000000000000000 ) ) ;
#799 = AXIS2_PLACEMENT_3D ( 'NONE', #202, #93, #1090 ) ;
#800 = ORIENTED_EDGE ( 'NONE', *, *, #1281, .T. ) ;
#801 = DIRECTION ( 'NONE',  ( 1.000000000000000000, 1.821459649775647449E-16, 0.000000000000000000 ) ) ;
#802 = ORIENTED_EDGE ( 'NONE', *, *, #1184, .T. ) ;
#803 = EDGE_CURVE ( 'NONE', #752, #783, #510, .T. ) ;
#804 = EDGE_CURVE ( 'NONE', #764, #590, #608, .T. ) ;
#805 = LINE ( 'NONE', #141, #1069 ) ;
#806 = ORIENTED_EDGE ( 'NONE', *, *, #143, .T. ) ;
#807 = CARTESIAN_POINT ( 'NONE',  ( 2.914335439641035288E-14, -60.00000000000000000, 0.000000000000000000 ) ) ;
#808 = EDGE_LOOP ( 'NONE', ( #756, #252, #1406, #814 ) ) ;
#809 = PLANE ( 'NONE',  #521 ) ;
#810 = ADVANCED_FACE ( 'NONE', ( #178 ), #942, .T. ) ;
#811 = CARTESIAN_POINT ( 'NONE',  ( -12.99999999999999822, -100.0000000000000142, 4.000000000000000000 ) ) ;
#812 = EDGE_LOOP ( 'NONE', ( #678, #518, #468, #1045 ) ) ;
#813 = CARTESIAN_POINT ( 'NONE',  ( 1.457167719820517959E-14, 19.99999999999997513, 0.000000000000000000 ) ) ;
#814 = ORIENTED_EDGE ( 'NONE', *, *, #60, .T. ) ;
#815 = CARTESIAN_POINT ( 'NONE',  ( -37.00000000000000711, -100.0000000000000142, 0.000000000000000000 ) ) ;
#816 = CC_DESIGN_PERSON_AND_ORGANIZATION_ASSIGNMENT ( #775, #450, ( #740 ) ) ;
#817 = PLANE ( 'NONE',  #169 ) ;
#818 = ORIENTED_EDGE ( 'NONE', *, *, #960, .T. ) ;
#819 = CARTESIAN_POINT ( 'NONE',  ( 4.000000000000007994, -19.99999999999998934, 0.000000000000000000 ) ) ;
#820 = VECTOR ( 'NONE', #829, 1000.000000000000000 ) ;
#821 = VERTEX_POINT ( 'NONE', #833 ) ;
#822 = LINE ( 'NONE', #1175, #567 ) ;
#823 = LINE ( 'NONE', #381, #1372 ) ;
#824 = LINE ( 'NONE', #583, #998 ) ;
#825 = VERTEX_POINT ( 'NONE', #819 ) ;
#826 = DIRECTION ( 'NONE',  ( -3.469446951953613696E-16, -1.000000000000000000, 0.000000000000000000 ) ) ;
#827 = EDGE_CURVE ( 'NONE', #1341, #385, #1044, .T. ) ;
#828 = ORIENTED_EDGE ( 'NONE', *, *, #905, .F. ) ;
#829 = DIRECTION ( 'NONE',  ( -3.469446951953613696E-16, -1.000000000000000000, 0.000000000000000000 ) ) ;
#830 = CARTESIAN_POINT ( 'NONE',  ( 0.000000000000000000, -39.99999999999999289, 4.000000000000000000 ) ) ;
#831 = DIRECTION ( 'NONE',  ( -1.000000000000000000, 0.000000000000000000, -0.000000000000000000 ) ) ;
#832 = ORIENTED_EDGE ( 'NONE', *, *, #584, .T. ) ;
#833 = CARTESIAN_POINT ( 'NONE',  ( -49.99999999999998579, -80.00000000000002842, 0.000000000000000000 ) ) ;
#834 = VERTEX_POINT ( 'NONE', #265 ) ;
#835 = DIRECTION ( 'NONE',  ( 0.000000000000000000, -1.000000000000000000, 0.000000000000000000 ) ) ;
#836 = EDGE_CURVE ( 'NONE', #1294, #273, #1264, .T. ) ;
#837 = CARTESIAN_POINT ( 'NONE',  ( 0.000000000000000000, -19.99999999999998934, 0.000000000000000000 ) ) ;
#838 = VECTOR ( 'NONE', #989, 1000.000000000000000 ) ;
#839 = ORIENTED_EDGE ( 'NONE', *, *, #218, .T. ) ;
#840 = CARTESIAN_POINT ( 'NONE',  ( -50.00000000000000711, -19.99999999999998934, 0.000000000000000000 ) ) ;
#841 = VECTOR ( 'NONE', #1282, 1000.000000000000000 ) ;
#842 = EDGE_LOOP ( 'NONE', ( #160, #680, #1336, #985 ) ) ;
#843 = DIRECTION ( 'NONE',  ( 0.000000000000000000, -1.000000000000000000, 0.000000000000000000 ) ) ;
#844 = VECTOR ( 'NONE', #1134, 1000.000000000000000 ) ;
#845 = EDGE_CURVE ( 'NONE', #789, #834, #1171, .T. ) ;
#846 = PLANE ( 'NONE',  #910 ) ;
#847 = VECTOR ( 'NONE', #184, 1000.000000000000000 ) ;
#848 = EDGE_CURVE ( 'NONE', #672, #472, #1037, .T. ) ;
#849 = LINE ( 'NONE', #651, #142 ) ;
#850 = DIRECTION ( 'NONE',  ( -3.469446951953611033E-15, -1.000000000000000000, 0.000000000000000000 ) ) ;
#851 = VERTEX_POINT ( 'NONE', #55 ) ;
#852 = LINE ( 'NONE', #1295, #1375 ) ;
#853 = DIRECTION ( 'NONE',  ( -5.637851296924622071E-16, 1.000000000000000000, 0.000000000000000000 ) ) ;
#854 = CARTESIAN_POINT ( 'NONE',  ( 3.999999999999979128, 2.428612866367518888E-15, 4.000000000000000000 ) ) ;
#855 = EDGE_CURVE ( 'NONE', #568, #542, #295, .T. ) ;
#856 = CARTESIAN_POINT ( 'NONE',  ( -50.00000000000000000, -100.0000000000000142, 4.000000000000000000 ) ) ;
#857 = EDGE_LOOP ( 'NONE', ( #1141, #346, #147, #802 ) ) ;
#858 = CARTESIAN_POINT ( 'NONE',  ( 4.000000000000007994, -19.99999999999998934, 4.000000000000000000 ) ) ;
#859 = EDGE_LOOP ( 'NONE', ( #1253, #537, #24, #366 ) ) ;
#860 = CARTESIAN_POINT ( 'NONE',  ( -54.00000000000001421, -60.00000000000001421, 0.000000000000000000 ) ) ;
#861 = ADVANCED_FACE ( 'NONE', ( #1051 ), #1376, .F. ) ;
#862 = APPROVAL_PERSON_ORGANIZATION ( #217, #1023, #982 ) ;
#863 = LINE ( 'NONE', #755, #85 ) ;
#864 = ORIENTED_EDGE ( 'NONE', *, *, #827, .F. ) ;
#865 = DIRECTION ( 'NONE',  ( -0.000000000000000000, -0.000000000000000000, -1.000000000000000000 ) ) ;
#866 = ORIENTED_EDGE ( 'NONE', *, *, #848, .T. ) ;
#867 = AXIS2_PLACEMENT_3D ( 'NONE', #793, #1335, #1325 ) ;
#868 = CARTESIAN_POINT ( 'NONE',  ( 0.000000000000000000, 0.000000000000000000, 4.000000000000000000 ) ) ;
#869 = UNCERTAINTY_MEASURE_WITH_UNIT (LENGTH_MEASURE( 1.000000000000000082E-05 ), #399, 'distance_accuracy_value', 'NONE');
#870 = FACE_OUTER_BOUND ( 'NONE', #1414, .T. ) ;
#871 = ORIENTED_EDGE ( 'NONE', *, *, #95, .F. ) ;
#872 = CARTESIAN_POINT ( 'NONE',  ( -50.00000000000000000, 80.00000000000000000, 4.000000000000000000 ) ) ;
#873 = EDGE_CURVE ( 'NONE', #107, #1353, #272, .T. ) ;
#874 = ORIENTED_EDGE ( 'NONE', *, *, #45, .T. ) ;
#875 = PERSON_AND_ORGANIZATION_ROLE ( 'creator' ) ;
#876 = CARTESIAN_POINT ( 'NONE',  ( -54.00000000000003553, 79.99999999999998579, 4.000000000000000000 ) ) ;
#877 = ORIENTED_EDGE ( 'NONE', *, *, #164, .F. ) ;
#878 = DIRECTION ( 'NONE',  ( 8.673617379884035472E-17, -1.000000000000000000, 0.000000000000000000 ) ) ;
#879 = ORIENTED_EDGE ( 'NONE', *, *, #203, .T. ) ;
#880 = ADVANCED_FACE ( 'NONE', ( #370 ), #1254, .T. ) ;
#881 = PERSON_AND_ORGANIZATION_ROLE ( 'classification_officer' ) ;
#882 = LINE ( 'NONE', #1208, #146 ) ;
#883 = CARTESIAN_POINT ( 'NONE',  ( -50.00000000000002842, 80.00000000000000000, 4.000000000000000000 ) ) ;
#884 = VECTOR ( 'NONE', #725, 1000.000000000000000 ) ;
#885 = ORIENTED_EDGE ( 'NONE', *, *, #1075, .F. ) ;
#886 = DIRECTION ( 'NONE',  ( -0.000000000000000000, -0.000000000000000000, 1.000000000000000000 ) ) ;
#887 = ORIENTED_EDGE ( 'NONE', *, *, #890, .F. ) ;
#888 = AXIS2_PLACEMENT_3D ( 'NONE', #1381, #726, #177 ) ;
#889 = EDGE_CURVE ( 'NONE', #308, #1213, #713, .T. ) ;
#890 = EDGE_CURVE ( 'NONE', #358, #672, #720, .T. ) ;
#891 = VECTOR ( 'NONE', #1190, 1000.000000000000000 ) ;
#892 = CARTESIAN_POINT ( 'NONE',  ( 4.000000000000027534, -79.99999999999998579, 0.000000000000000000 ) ) ;
#893 = CARTESIAN_POINT ( 'NONE',  ( -0.000000000000000000, -19.99999999999998934, 4.000000000000000000 ) ) ;
#894 = VECTOR ( 'NONE', #528, 1000.000000000000000 ) ;
#895 = EDGE_LOOP ( 'NONE', ( #553, #482, #1017, #226 ) ) ;
#896 = CARTESIAN_POINT ( 'NONE',  ( 4.000000000000019540, -39.99999999999999289, 4.000000000000000000 ) ) ;
#897 = ORIENTED_EDGE ( 'NONE', *, *, #1373, .F. ) ;
#898 = CARTESIAN_POINT ( 'NONE',  ( -50.00000000000000000, -60.00000000000001421, 0.000000000000000000 ) ) ;
#899 = EDGE_CURVE ( 'NONE', #1276, #743, #1081, .T. ) ;
#900 = LINE ( 'NONE', #470, #40 ) ;
#901 = ORIENTED_EDGE ( 'NONE', *, *, #588, .T. ) ;
#902 = LINE ( 'NONE', #1234, #959 ) ;
#903 = ORIENTED_EDGE ( 'NONE', *, *, #511, .T. ) ;
#904 = CARTESIAN_POINT ( 'NONE',  ( -0.000000000000000000, 39.99999999999997868, 4.000000000000000000 ) ) ;
#905 = EDGE_CURVE ( 'NONE', #715, #1043, #742, .T. ) ;
#906 = ORIENTED_EDGE ( 'NONE', *, *, #848, .F. ) ;
#907 = CARTESIAN_POINT ( 'NONE',  ( 4.000000000000010658, 5.204170427930433116E-16, 0.000000000000000000 ) ) ;
#908 = EDGE_CURVE ( 'NONE', #394, #391, #748, .T. ) ;
#909 = EDGE_LOOP ( 'NONE', ( #943, #1423, #1288, #708 ) ) ;
#910 = AXIS2_PLACEMENT_3D ( 'NONE', #499, #1402, #853 ) ;
#911 = DIRECTION ( 'NONE',  ( -0.000000000000000000, -0.000000000000000000, 1.000000000000000000 ) ) ;
#912 = VECTOR ( 'NONE', #22, 1000.000000000000000 ) ;
#913 = AXIS2_PLACEMENT_3D ( 'NONE', #139, #118, #560 ) ;
#914 = ORIENTED_EDGE ( 'NONE', *, *, #873, .F. ) ;
#915 = DIRECTION ( 'NONE',  ( 0.000000000000000000, 1.000000000000000000, 0.000000000000000000 ) ) ;
#916 = ORIENTED_EDGE ( 'NONE', *, *, #960, .F. ) ;
#917 = ADVANCED_FACE ( 'NONE', ( #75 ), #1418, .F. ) ;
#918 = DIRECTION ( 'NONE',  ( -0.000000000000000000, -0.000000000000000000, -1.000000000000000000 ) ) ;
#919 = ORIENTED_EDGE ( 'NONE', *, *, #449, .T. ) ;
#920 = DIRECTION ( 'NONE',  ( 8.673617379884035472E-17, -1.000000000000000000, 0.000000000000000000 ) ) ;
#921 = EDGE_LOOP ( 'NONE', ( #94, #418, #286, #1269 ) ) ;
#922 = EDGE_CURVE ( 'NONE', #1412, #950, #517, .T. ) ;
#923 = CARTESIAN_POINT ( 'NONE',  ( -50.00000000000000000, -100.0000000000000142, 0.000000000000000000 ) ) ;
#924 = CARTESIAN_POINT ( 'NONE',  ( -50.00000000000000000, -100.0000000000000142, 0.000000000000000000 ) ) ;
#925 = CARTESIAN_POINT ( 'NONE',  ( -50.00000000000002132, 39.99999999999997868, 4.000000000000000000 ) ) ;
#926 = LINE ( 'NONE', #1150, #475 ) ;
#927 = ORIENTED_EDGE ( 'NONE', *, *, #431, .T. ) ;
#928 = CARTESIAN_POINT ( 'NONE',  ( -54.00000000000002842, 39.99999999999997868, 0.000000000000000000 ) ) ;
#929 = LOCAL_TIME ( 17, 3, 5.000000000000000000, #564 ) ;
#930 = CARTESIAN_POINT ( 'NONE',  ( -54.00000000000000000, -40.00000000000000711, 4.000000000000000000 ) ) ;
#931 = PLANE ( 'NONE',  #771 ) ;
#932 = ADVANCED_FACE ( 'NONE', ( #189 ), #91, .T. ) ;
#933 = ORIENTED_EDGE ( 'NONE', *, *, #1136, .T. ) ;
#934 = DIRECTION ( 'NONE',  ( 1.000000000000000000, 0.000000000000000000, 0.000000000000000000 ) ) ;
#935 = VECTOR ( 'NONE', #958, 1000.000000000000000 ) ;
#936 = ORIENTED_EDGE ( 'NONE', *, *, #994, .T. ) ;
#937 = CARTESIAN_POINT ( 'NONE',  ( -54.00000000000003553, 79.99999999999998579, 4.000000000000000000 ) ) ;
#938 = CARTESIAN_POINT ( 'NONE',  ( 4.000000000000015987, -60.00000000000000000, 0.000000000000000000 ) ) ;
#939 = DIRECTION ( 'NONE',  ( -0.000000000000000000, -1.000000000000000000, -0.000000000000000000 ) ) ;
#940 = ADVANCED_FACE ( 'NONE', ( #96 ), #983, .T. ) ;
#941 = ORIENTED_EDGE ( 'NONE', *, *, #164, .T. ) ;
#942 = PLANE ( 'NONE',  #547 ) ;
#943 = ORIENTED_EDGE ( 'NONE', *, *, #622, .F. ) ;
#944 = DIRECTION ( 'NONE',  ( 0.000000000000000000, 0.000000000000000000, 1.000000000000000000 ) ) ;
#945 = DIRECTION ( 'NONE',  ( 1.000000000000000000, 0.000000000000000000, 0.000000000000000000 ) ) ;
#946 = DIRECTION ( 'NONE',  ( 0.000000000000000000, 0.000000000000000000, -1.000000000000000000 ) ) ;
#947 = ORIENTED_EDGE ( 'NONE', *, *, #325, .T. ) ;
#948 = DIRECTION ( 'NONE',  ( 0.000000000000000000, -1.000000000000000000, 0.000000000000000000 ) ) ;
#949 = ADVANCED_FACE ( 'NONE', ( #1179 ), #1064, .F. ) ;
#950 = VERTEX_POINT ( 'NONE', #534 ) ;
#951 = LINE ( 'NONE', #1391, #127 ) ;
#952 = LINE ( 'NONE', #635, #841 ) ;
#953 = AXIS2_PLACEMENT_3D ( 'NONE', #860, #416, #1092 ) ;
#954 = DIRECTION ( 'NONE',  ( 1.000000000000000000, 1.821459649775647449E-16, 0.000000000000000000 ) ) ;
#955 = DIRECTION ( 'NONE',  ( 1.000000000000000000, 1.734723475976805517E-15, -0.000000000000000000 ) ) ;
#956 = AXIS2_PLACEMENT_3D ( 'NONE', #336, #443, #115 ) ;
#957 = ORIENTED_EDGE ( 'NONE', *, *, #155, .F. ) ;
#958 = DIRECTION ( 'NONE',  ( -1.000000000000000000, 0.000000000000000000, 0.000000000000000000 ) ) ;
#959 = VECTOR ( 'NONE', #886, 1000.000000000000000 ) ;
#960 = EDGE_CURVE ( 'NONE', #1099, #789, #972, .T. ) ;
#961 = DIRECTION ( 'NONE',  ( 0.000000000000000000, 0.000000000000000000, 1.000000000000000000 ) ) ;
#962 = VECTOR ( 'NONE', #230, 1000.000000000000000 ) ;
#963 = CARTESIAN_POINT ( 'NONE',  ( -49.99999999999998579, -80.00000000000002842, 4.000000000000000000 ) ) ;
#964 = DIRECTION ( 'NONE',  ( -0.000000000000000000, -1.000000000000000000, -0.000000000000000000 ) ) ;
#965 = DIRECTION ( 'NONE',  ( 1.000000000000000000, -3.469446951953611033E-15, 0.000000000000000000 ) ) ;
#966 = ORIENTED_EDGE ( 'NONE', *, *, #290, .F. ) ;
#967 = CARTESIAN_POINT ( 'NONE',  ( -50.00000000000000000, 99.99999999999998579, 4.000000000000000000 ) ) ;
#968 = VERTEX_POINT ( 'NONE', #1425 ) ;
#969 = CARTESIAN_POINT ( 'NONE',  ( -50.00000000000000000, -60.00000000000001421, 4.000000000000000000 ) ) ;
#970 = CC_DESIGN_PERSON_AND_ORGANIZATION_ASSIGNMENT ( #1125, #875, ( #310 ) ) ;
#971 = LINE ( 'NONE', #963, #628 ) ;
#972 = LINE ( 'NONE', #301, #410 ) ;
#973 = ORIENTED_EDGE ( 'NONE', *, *, #545, .T. ) ;
#974 = LINE ( 'NONE', #757, #150 ) ;
#975 = ORIENTED_EDGE ( 'NONE', *, *, #255, .T. ) ;
#976 = LINE ( 'NONE', #1201, #655 ) ;
#977 = LINE ( 'NONE', #213, #894 ) ;
#978 = VERTEX_POINT ( 'NONE', #436 ) ;
#979 = DIRECTION ( 'NONE',  ( -1.821459649775647449E-16, 1.000000000000000000, 0.000000000000000000 ) ) ;
#980 = VERTEX_POINT ( 'NONE', #876 ) ;
#981 = AXIS2_PLACEMENT_3D ( 'NONE', #1054, #835, #1166 ) ;
#982 = APPROVAL_ROLE ( '' ) ;
#983 = PLANE ( 'NONE',  #1079 ) ;
#984 = EDGE_CURVE ( 'NONE', #512, #107, #540, .T. ) ;
#985 = ORIENTED_EDGE ( 'NONE', *, *, #1106, .T. ) ;
#986 = LINE ( 'NONE', #438, #477 ) ;
#987 = ORIENTED_EDGE ( 'NONE', *, *, #281, .F. ) ;
#988 = CARTESIAN_POINT ( 'NONE',  ( -54.00000000000002842, 19.99999999999996092, 0.000000000000000000 ) ) ;
#989 = DIRECTION ( 'NONE',  ( -0.000000000000000000, -0.000000000000000000, 1.000000000000000000 ) ) ;
#990 = ORIENTED_EDGE ( 'NONE', *, *, #1040, .F. ) ;
#991 = CARTESIAN_POINT ( 'NONE',  ( -53.99999999999999289, -80.00000000000001421, 0.000000000000000000 ) ) ;
#992 = CC_DESIGN_PERSON_AND_ORGANIZATION_ASSIGNMENT ( #242, #435, ( #759 ) ) ;
#993 = EDGE_LOOP ( 'NONE', ( #201, #32, #1107, #1180 ) ) ;
#994 = EDGE_CURVE ( 'NONE', #1412, #308, #863, .T. ) ;
#995 = CALENDAR_DATE ( 2026, 27, 5 ) ;
#996 = CARTESIAN_POINT ( 'NONE',  ( -50.00000000000002132, 19.99999999999996092, 0.000000000000000000 ) ) ;
#997 = LINE ( 'NONE', #684, #724 ) ;
#998 = VECTOR ( 'NONE', #1268, 1000.000000000000000 ) ;
#999 = EDGE_LOOP ( 'NONE', ( #97, #486, #434, #162 ) ) ;
#1000 = FACE_OUTER_BOUND ( 'NONE', #88, .T. ) ;
#1001 = ORIENTED_EDGE ( 'NONE', *, *, #325, .F. ) ;
#1002 = ADVANCED_FACE ( 'NONE', ( #870 ), #321, .T. ) ;
#1003 = AXIS2_PLACEMENT_3D ( 'NONE', #769, #701, #1142 ) ;
#1004 = VECTOR ( 'NONE', #1198, 1000.000000000000000 ) ;
#1005 = LINE ( 'NONE', #923, #912 ) ;
#1006 = CARTESIAN_POINT ( 'NONE',  ( 0.000000000000000000, 19.99999999999997513, 4.000000000000000000 ) ) ;
#1007 = ORIENTED_EDGE ( 'NONE', *, *, #1085, .F. ) ;
#1008 = PLANE ( 'NONE',  #867 ) ;
#1009 = ORIENTED_EDGE ( 'NONE', *, *, #80, .F. ) ;
#1010 = ORIENTED_EDGE ( 'NONE', *, *, #908, .F. ) ;
#1011 = SHAPE_DEFINITION_REPRESENTATION ( #1093, #328 ) ;
#1012 = EDGE_CURVE ( 'NONE', #1353, #752, #977, .T. ) ;
#1013 = DIRECTION ( 'NONE',  ( -0.000000000000000000, -0.000000000000000000, 1.000000000000000000 ) ) ;
#1014 = ORIENTED_EDGE ( 'NONE', *, *, #228, .T. ) ;
#1015 = LINE ( 'NONE', #232, #176 ) ;
#1016 = ORIENTED_EDGE ( 'NONE', *, *, #290, .T. ) ;
#1017 = ORIENTED_EDGE ( 'NONE', *, *, #749, .F. ) ;
#1018 = CARTESIAN_POINT ( 'NONE',  ( 4.000000000000007994, -19.99999999999998934, 0.000000000000000000 ) ) ;
#1019 = EDGE_CURVE ( 'NONE', #354, #1061, #654, .T. ) ;
#1020 = ORIENTED_EDGE ( 'NONE', *, *, #415, .F. ) ;
#1021 = FACE_OUTER_BOUND ( 'NONE', #581, .T. ) ;
#1022 = VECTOR ( 'NONE', #1117, 1000.000000000000000 ) ;
#1023 = APPROVAL ( #250, 'UNSPECIFIED' ) ;
#1024 = VERTEX_POINT ( 'NONE', #83 ) ;
#1025 = AXIS2_PLACEMENT_3D ( 'NONE', #676, #451, #1104 ) ;
#1026 = AXIS2_PLACEMENT_3D ( 'NONE', #66, #58, #298 ) ;
#1027 = CARTESIAN_POINT ( 'NONE',  ( 4.000000000000007105, 3.469446951953620105E-16, 4.000000000000000000 ) ) ;
#1028 = VECTOR ( 'NONE', #513, 1000.000000000000000 ) ;
#1029 = AXIS2_PLACEMENT_3D ( 'NONE', #546, #307, #1304 ) ;
#1030 = CARTESIAN_POINT ( 'NONE',  ( -37.00000000000000000, -104.0000000000000284, 4.000000000000000000 ) ) ;
#1031 = CARTESIAN_POINT ( 'NONE',  ( 3.999999999999996447, 2.255140518769846856E-15, 4.000000000000000000 ) ) ;
#1032 = ADVANCED_FACE ( 'NONE', ( #1293 ), #411, .T. ) ;
#1033 = VERTEX_POINT ( 'NONE', #251 ) ;
#1034 = FACE_OUTER_BOUND ( 'NONE', #993, .T. ) ;
#1035 = DIRECTION ( 'NONE',  ( 8.673617379884035472E-17, -1.000000000000000000, 0.000000000000000000 ) ) ;
#1036 = DIRECTION ( 'NONE',  ( 0.000000000000000000, 1.000000000000000000, 0.000000000000000000 ) ) ;
#1037 = LINE ( 'NONE', #1157, #1214 ) ;
#1038 = ORIENTED_EDGE ( 'NONE', *, *, #439, .T. ) ;
#1039 = PLANE ( 'NONE',  #981 ) ;
#1040 = EDGE_CURVE ( 'NONE', #156, #1319, #136, .T. ) ;
#1041 = PLANE ( 'NONE',  #1003 ) ;
#1042 = DIRECTION ( 'NONE',  ( -1.000000000000000000, -6.938893903907223447E-16, 0.000000000000000000 ) ) ;
#1043 = VERTEX_POINT ( 'NONE', #116 ) ;
#1044 = LINE ( 'NONE', #43, #1101 ) ;
#1045 = ORIENTED_EDGE ( 'NONE', *, *, #908, .T. ) ;
#1046 = DIRECTION ( 'NONE',  ( -0.000000000000000000, -0.000000000000000000, 1.000000000000000000 ) ) ;
#1047 = VECTOR ( 'NONE', #1357, 1000.000000000000000 ) ;
#1048 = DIRECTION ( 'NONE',  ( 0.000000000000000000, 1.000000000000000000, 0.000000000000000000 ) ) ;
#1049 = EDGE_CURVE ( 'NONE', #1229, #1205, #573, .T. ) ;
#1050 = DIRECTION ( 'NONE',  ( 1.000000000000000000, 0.000000000000000000, 0.000000000000000000 ) ) ;
#1051 = FACE_OUTER_BOUND ( 'NONE', #1112, .T. ) ;
#1052 = VECTOR ( 'NONE', #347, 1000.000000000000000 ) ;
#1053 = EDGE_LOOP ( 'NONE', ( #237, #903, #240, #933, #1309, #624, #1174, #874, #1244, #191, #466, #1156, #447, #973, #495, #688, #77, #132, #247, #919, #348, #463, #424, #64, #729, #360, #1311, #631, #832, #947, #27, #38, #1066, #1339, #1247, #649, #1191, #877, #445, #315 ) ) ;
#1054 = CARTESIAN_POINT ( 'NONE',  ( 0.000000000000000000, 79.99999999999998579, 0.000000000000000000 ) ) ;
#1055 = CARTESIAN_POINT ( 'NONE',  ( 0.000000000000000000, 19.99999999999997513, 0.000000000000000000 ) ) ;
#1056 = EDGE_CURVE ( 'NONE', #403, #834, #33, .T. ) ;
#1057 = DIRECTION ( 'NONE',  ( -0.000000000000000000, -0.000000000000000000, 1.000000000000000000 ) ) ;
#1058 = CARTESIAN_POINT ( 'NONE',  ( -37.00000000000000711, -100.0000000000000142, 4.000000000000000000 ) ) ;
#1059 = EDGE_CURVE ( 'NONE', #1165, #1158, #1105, .T. ) ;
#1060 = CARTESIAN_POINT ( 'NONE',  ( 0.000000000000000000, 59.99999999999998579, 0.000000000000000000 ) ) ;
#1061 = VERTEX_POINT ( 'NONE', #1240 ) ;
#1062 = CARTESIAN_POINT ( 'NONE',  ( 7.285838599102589797E-15, 59.99999999999998579, 0.000000000000000000 ) ) ;
#1063 = FACE_OUTER_BOUND ( 'NONE', #842, .T. ) ;
#1064 = PLANE ( 'NONE',  #526 ) ;
#1065 = EDGE_CURVE ( 'NONE', #570, #1334, #1231, .T. ) ;
#1066 = ORIENTED_EDGE ( 'NONE', *, *, #52, .T. ) ;
#1067 = CARTESIAN_POINT ( 'NONE',  ( 4.000000000000007994, 19.99999999999997513, 4.000000000000000000 ) ) ;
#1068 = LINE ( 'NONE', #723, #148 ) ;
#1069 = VECTOR ( 'NONE', #41, 1000.000000000000000 ) ;
#1070 = CARTESIAN_POINT ( 'NONE',  ( 1.821459649775647449E-14, 100.0000000000000000, 0.000000000000000000 ) ) ;
#1071 = DIRECTION ( 'NONE',  ( -0.000000000000000000, -0.000000000000000000, -1.000000000000000000 ) ) ;
#1072 = DIRECTION ( 'NONE',  ( 0.000000000000000000, -0.000000000000000000, -1.000000000000000000 ) ) ;
#1073 = VERTEX_POINT ( 'NONE', #452 ) ;
#1074 = CARTESIAN_POINT ( 'NONE',  ( -49.99999999999999289, -40.00000000000000711, 4.000000000000000000 ) ) ;
#1075 = EDGE_CURVE ( 'NONE', #825, #590, #578, .T. ) ;
#1076 = AXIS2_PLACEMENT_3D ( 'NONE', #379, #1369, #395 ) ;
#1077 = EDGE_LOOP ( 'NONE', ( #1109, #104, #279, #901, #1188, #329, #216, #440, #839, #916, #1130, #704, #99, #864, #1256, #257, #488, #914, #1119, #1199, #906, #887, #1020, #432, #387, #1360, #871, #114, #1194, #1009, #721, #957, #140, #1337, #1408, #699, #1210, #966, #302, #1324 ) ) ;
#1078 = DIRECTION ( 'NONE',  ( -1.821459649775647449E-16, 1.000000000000000000, 0.000000000000000000 ) ) ;
#1079 = AXIS2_PLACEMENT_3D ( 'NONE', #429, #327, #1310 ) ;
#1080 = PLANE ( 'NONE',  #953 ) ;
#1081 = LINE ( 'NONE', #630, #1398 ) ;
#1082 = ORIENTED_EDGE ( 'NONE', *, *, #422, .F. ) ;
#1083 = DIRECTION ( 'NONE',  ( -0.000000000000000000, -0.000000000000000000, -1.000000000000000000 ) ) ;
#1084 = ORIENTED_EDGE ( 'NONE', *, *, #203, .F. ) ;
#1085 = EDGE_CURVE ( 'NONE', #1099, #579, #900, .T. ) ;
#1086 = DIRECTION ( 'NONE',  ( -6.071532165918828775E-16, 1.000000000000000000, 0.000000000000000000 ) ) ;
#1087 = CC_DESIGN_PERSON_AND_ORGANIZATION_ASSIGNMENT ( #11, #1110, ( #310 ) ) ;
#1088 = DIRECTION ( 'NONE',  ( -1.734723475976805517E-15, 1.000000000000000000, 0.000000000000000000 ) ) ;
#1089 = VERTEX_POINT ( 'NONE', #1127 ) ;
#1090 = DIRECTION ( 'NONE',  ( 0.000000000000000000, 0.000000000000000000, 1.000000000000000000 ) ) ;
#1091 = VERTEX_POINT ( 'NONE', #29 ) ;
#1092 = DIRECTION ( 'NONE',  ( 0.000000000000000000, -0.000000000000000000, 1.000000000000000000 ) ) ;
#1093 = PRODUCT_DEFINITION_SHAPE ( 'NONE', 'NONE',  #740 ) ;
#1094 = EDGE_CURVE ( 'NONE', #821, #1205, #337, .T. ) ;
#1095 = CARTESIAN_POINT ( 'NONE',  ( -50.00000000000002132, 39.99999999999997868, 0.000000000000000000 ) ) ;
#1096 = EDGE_LOOP ( 'NONE', ( #781, #1351, #4, #26 ) ) ;
#1097 = CARTESIAN_POINT ( 'NONE',  ( -37.00000000000000000, -104.0000000000000284, 4.000000000000000000 ) ) ;
#1098 = VECTOR ( 'NONE', #1154, 1000.000000000000000 ) ;
#1099 = VERTEX_POINT ( 'NONE', #558 ) ;
#1100 = VECTOR ( 'NONE', #944, 1000.000000000000000 ) ;
#1101 = VECTOR ( 'NONE', #1277, 1000.000000000000000 ) ;
#1102 = PERSON_AND_ORGANIZATION ( #796, #563 ) ;
#1103 = EDGE_CURVE ( 'NONE', #851, #1319, #779, .T. ) ;
#1104 = DIRECTION ( 'NONE',  ( 0.000000000000000000, -0.000000000000000000, -1.000000000000000000 ) ) ;
#1105 = LINE ( 'NONE', #904, #341 ) ;
#1106 = EDGE_CURVE ( 'NONE', #385, #1115, #460, .T. ) ;
#1107 = ORIENTED_EDGE ( 'NONE', *, *, #1331, .T. ) ;
#1108 = LINE ( 'NONE', #113, #935 ) ;
#1109 = ORIENTED_EDGE ( 'NONE', *, *, #994, .F. ) ;
#1110 = PERSON_AND_ORGANIZATION_ROLE ( 'design_supplier' ) ;
#1111 = DIRECTION ( 'NONE',  ( -1.000000000000000000, -3.469446951953611033E-15, 0.000000000000000000 ) ) ;
#1112 = EDGE_LOOP ( 'NONE', ( #760, #179, #15, #245 ) ) ;
#1113 = PLANE ( 'NONE',  #61 ) ;
#1114 = EDGE_CURVE ( 'NONE', #590, #579, #6, .T. ) ;
#1115 = VERTEX_POINT ( 'NONE', #1132 ) ;
#1116 = CARTESIAN_POINT ( 'NONE',  ( -54.00000000000004263, 59.99999999999998579, 0.000000000000000000 ) ) ;
#1117 = DIRECTION ( 'NONE',  ( 1.000000000000000000, 0.000000000000000000, 0.000000000000000000 ) ) ;
#1118 = VECTOR ( 'NONE', #599, 1000.000000000000000 ) ;
#1119 = ORIENTED_EDGE ( 'NONE', *, *, #984, .F. ) ;
#1120 = CARTESIAN_POINT ( 'NONE',  ( -37.00000000000000000, -104.0000000000000284, 0.000000000000000000 ) ) ;
#1121 = VERTEX_POINT ( 'NONE', #1338 ) ;
#1122 = EDGE_LOOP ( 'NONE', ( #1128, #828, #1243, #1197 ) ) ;
#1123 = ADVANCED_FACE ( 'NONE', ( #244 ), #122, .T. ) ;
#1124 = VECTOR ( 'NONE', #746, 1000.000000000000000 ) ;
#1125 = PERSON_AND_ORGANIZATION ( #796, #563 ) ;
#1126 = VECTOR ( 'NONE', #843, 1000.000000000000000 ) ;
#1127 = CARTESIAN_POINT ( 'NONE',  ( -54.00000000000001421, -60.00000000000001421, 4.000000000000000000 ) ) ;
#1128 = ORIENTED_EDGE ( 'NONE', *, *, #794, .T. ) ;
#1129 = LINE ( 'NONE', #1248, #106 ) ;
#1130 = ORIENTED_EDGE ( 'NONE', *, *, #255, .F. ) ;
#1131 = COORDINATED_UNIVERSAL_TIME_OFFSET ( 3, 0, .BEHIND. ) ;
#1132 = CARTESIAN_POINT ( 'NONE',  ( 2.550043509685906113E-14, -39.99999999999999289, 4.000000000000000000 ) ) ;
#1133 = VERTEX_POINT ( 'NONE', #670 ) ;
#1134 = DIRECTION ( 'NONE',  ( -0.000000000000000000, -0.000000000000000000, 1.000000000000000000 ) ) ;
#1135 = ORIENTED_EDGE ( 'NONE', *, *, #1206, .F. ) ;
#1136 = EDGE_CURVE ( 'NONE', #544, #980, #444, .T. ) ;
#1137 = CARTESIAN_POINT ( 'NONE',  ( 4.000000000000007994, 19.99999999999997513, 0.000000000000000000 ) ) ;
#1138 = VERTEX_POINT ( 'NONE', #350 ) ;
#1139 = DIRECTION ( 'NONE',  ( 0.000000000000000000, -1.000000000000000000, 0.000000000000000000 ) ) ;
#1140 = VECTOR ( 'NONE', #918, 1000.000000000000000 ) ;
#1141 = ORIENTED_EDGE ( 'NONE', *, *, #306, .T. ) ;
#1142 = DIRECTION ( 'NONE',  ( 0.000000000000000000, 0.000000000000000000, 1.000000000000000000 ) ) ;
#1143 = VECTOR ( 'NONE', #109, 1000.000000000000000 ) ;
#1144 = VECTOR ( 'NONE', #1048, 1000.000000000000000 ) ;
#1145 = CARTESIAN_POINT ( 'NONE',  ( -50.00000000000000000, -100.0000000000000142, 0.000000000000000000 ) ) ;
#1146 = AXIS2_PLACEMENT_3D ( 'NONE', #278, #377, #920 ) ;
#1147 = EDGE_CURVE ( 'NONE', #364, #420, #357, .T. ) ;
#1148 = VECTOR ( 'NONE', #220, 1000.000000000000000 ) ;
#1149 = LINE ( 'NONE', #284, #728 ) ;
#1150 = CARTESIAN_POINT ( 'NONE',  ( 1.821459649775647449E-14, -100.0000000000000142, 0.000000000000000000 ) ) ;
#1151 = EDGE_CURVE ( 'NONE', #394, #795, #997, .T. ) ;
#1152 = ORIENTED_EDGE ( 'NONE', *, *, #1178, .F. ) ;
#1153 = FACE_OUTER_BOUND ( 'NONE', #640, .T. ) ;
#1154 = DIRECTION ( 'NONE',  ( -0.000000000000000000, -0.000000000000000000, 1.000000000000000000 ) ) ;
#1155 = CARTESIAN_POINT ( 'NONE',  ( -54.00000000000000000, -40.00000000000000711, 4.000000000000000000 ) ) ;
#1156 = ORIENTED_EDGE ( 'NONE', *, *, #689, .T. ) ;
#1157 = CARTESIAN_POINT ( 'NONE',  ( -37.00000000000000000, -104.0000000000000284, 0.000000000000000000 ) ) ;
#1158 = VERTEX_POINT ( 'NONE', #345 ) ;
#1159 = LINE ( 'NONE', #72, #1028 ) ;
#1160 = EDGE_CURVE ( 'NONE', #437, #544, #786, .T. ) ;
#1161 = LINE ( 'NONE', #837, #291 ) ;
#1162 = CARTESIAN_POINT ( 'NONE',  ( 1.821459649775647134E-14, 3.317715255760823562E-30, 4.000000000000000000 ) ) ;
#1163 = ORIENTED_EDGE ( 'NONE', *, *, #174, .F. ) ;
#1164 = CARTESIAN_POINT ( 'NONE',  ( 4.000000000000027534, -79.99999999999998579, 4.000000000000000000 ) ) ;
#1165 = VERTEX_POINT ( 'NONE', #677 ) ;
#1166 = DIRECTION ( 'NONE',  ( 0.000000000000000000, -0.000000000000000000, -1.000000000000000000 ) ) ;
#1167 = EDGE_CURVE ( 'NONE', #715, #512, #566, .T. ) ;
#1168 = DIRECTION ( 'NONE',  ( 0.000000000000000000, 0.000000000000000000, 1.000000000000000000 ) ) ;
#1169 = CARTESIAN_POINT ( 'NONE',  ( 4.000000000000010658, 5.204170427930433116E-16, 0.000000000000000000 ) ) ;
#1170 = CARTESIAN_POINT ( 'NONE',  ( -54.00000000000002842, 19.99999999999996092, 4.000000000000000000 ) ) ;
#1171 = LINE ( 'NONE', #813, #408 ) ;
#1172 = VECTOR ( 'NONE', #1176, 1000.000000000000000 ) ;
#1173 = VECTOR ( 'NONE', #353, 1000.000000000000000 ) ;
#1174 = ORIENTED_EDGE ( 'NONE', *, *, #714, .T. ) ;
#1175 = CARTESIAN_POINT ( 'NONE',  ( -53.99999999999999289, -80.00000000000001421, 0.000000000000000000 ) ) ;
#1176 = DIRECTION ( 'NONE',  ( -1.000000000000000000, 0.000000000000000000, 0.000000000000000000 ) ) ;
#1177 = DIRECTION ( 'NONE',  ( -1.821459649775647449E-16, 1.000000000000000000, 0.000000000000000000 ) ) ;
#1178 = EDGE_CURVE ( 'NONE', #821, #1377, #256, .T. ) ;
#1179 = FACE_OUTER_BOUND ( 'NONE', #35, .T. ) ;
#1180 = ORIENTED_EDGE ( 'NONE', *, *, #899, .T. ) ;
#1181 = CARTESIAN_POINT ( 'NONE',  ( 1.092875789865388627E-14, 39.99999999999997868, 0.000000000000000000 ) ) ;
#1182 = LINE ( 'NONE', #1394, #1144 ) ;
#1183 = PLANE ( 'NONE',  #541 ) ;
#1184 = EDGE_CURVE ( 'NONE', #542, #472, #712, .T. ) ;
#1185 = CARTESIAN_POINT ( 'NONE',  ( -49.99999999999998579, -80.00000000000002842, 0.000000000000000000 ) ) ;
#1186 = ORIENTED_EDGE ( 'NONE', *, *, #376, .T. ) ;
#1187 = CARTESIAN_POINT ( 'NONE',  ( -53.99999999999999289, -80.00000000000001421, 4.000000000000000000 ) ) ;
#1188 = ORIENTED_EDGE ( 'NONE', *, *, #1347, .T. ) ;
#1189 = DIRECTION ( 'NONE',  ( 0.000000000000000000, 1.000000000000000000, 0.000000000000000000 ) ) ;
#1190 = DIRECTION ( 'NONE',  ( 1.734723475976805517E-15, -1.000000000000000000, 0.000000000000000000 ) ) ;
#1191 = ORIENTED_EDGE ( 'NONE', *, *, #1206, .T. ) ;
#1192 = CARTESIAN_POINT ( 'NONE',  ( -54.00000000000000000, -40.00000000000000711, 0.000000000000000000 ) ) ;
#1193 = VECTOR ( 'NONE', #657, 1000.000000000000000 ) ;
#1194 = ORIENTED_EDGE ( 'NONE', *, *, #441, .F. ) ;
#1195 = DIRECTION ( 'NONE',  ( 1.000000000000000000, -3.469446951953611033E-15, -0.000000000000000000 ) ) ;
#1196 = DIRECTION ( 'NONE',  ( 1.000000000000000000, 0.000000000000000000, 0.000000000000000000 ) ) ;
#1197 = ORIENTED_EDGE ( 'NONE', *, *, #984, .T. ) ;
#1198 = DIRECTION ( 'NONE',  ( 1.000000000000000000, -3.469446951953611033E-15, -0.000000000000000000 ) ) ;
#1199 = ORIENTED_EDGE ( 'NONE', *, *, #306, .F. ) ;
#1200 = EDGE_CURVE ( 'NONE', #1213, #544, #485, .T. ) ;
#1201 = CARTESIAN_POINT ( 'NONE',  ( 1.821459649775647134E-14, 3.317715255760823562E-30, 0.000000000000000000 ) ) ;
#1202 = DIRECTION ( 'NONE',  ( -1.000000000000000000, -2.775557561562891351E-16, -0.000000000000000000 ) ) ;
#1203 = ORIENTED_EDGE ( 'NONE', *, *, #1347, .F. ) ;
#1204 = LINE ( 'NONE', #536, #314 ) ;
#1205 = VERTEX_POINT ( 'NONE', #924 ) ;
#1206 = EDGE_CURVE ( 'NONE', #1165, #86, #718, .T. ) ;
#1207 = VECTOR ( 'NONE', #696, 1000.000000000000000 ) ;
#1208 = CARTESIAN_POINT ( 'NONE',  ( -54.00000000000000000, -40.00000000000000711, 0.000000000000000000 ) ) ;
#1209 = DIRECTION ( 'NONE',  ( 1.000000000000000000, 0.000000000000000000, 0.000000000000000000 ) ) ;
#1210 = ORIENTED_EDGE ( 'NONE', *, *, #1331, .F. ) ;
#1211 = LINE ( 'NONE', #1187, #733 ) ;
#1212 = VECTOR ( 'NONE', #268, 1000.000000000000000 ) ;
#1213 = VERTEX_POINT ( 'NONE', #1259 ) ;
#1214 = VECTOR ( 'NONE', #285, 1000.000000000000000 ) ;
#1215 = VECTOR ( 'NONE', #1350, 1000.000000000000000 ) ;
#1216 = DIRECTION ( 'NONE',  ( 0.000000000000000000, 0.000000000000000000, 1.000000000000000000 ) ) ;
#1217 = LINE ( 'NONE', #669, #1212 ) ;
#1218 = EDGE_CURVE ( 'NONE', #254, #851, #262, .T. ) ;
#1219 = DIRECTION ( 'NONE',  ( -3.469446951953611033E-15, 1.000000000000000000, 0.000000000000000000 ) ) ;
#1220 = ORIENTED_EDGE ( 'NONE', *, *, #1403, .F. ) ;
#1221 = DIRECTION ( 'NONE',  ( 1.040834085586084059E-15, -1.000000000000000000, 0.000000000000000000 ) ) ;
#1222 = ORIENTED_EDGE ( 'NONE', *, *, #615, .T. ) ;
#1223 = APPROVAL_DATE_TIME ( #349, #248 ) ;
#1224 = LINE ( 'NONE', #898, #1143 ) ;
#1225 = CARTESIAN_POINT ( 'NONE',  ( -50.00000000000000000, -100.0000000000000142, 4.000000000000000000 ) ) ;
#1226 = EDGE_CURVE ( 'NONE', #851, #950, #383, .T. ) ;
#1227 = EDGE_LOOP ( 'NONE', ( #897, #1082, #233, #656 ) ) ;
#1228 = CARTESIAN_POINT ( 'NONE',  ( 4.000000000000027534, -79.99999999999998579, 0.000000000000000000 ) ) ;
#1229 = VERTEX_POINT ( 'NONE', #166 ) ;
#1230 = APPROVAL_ROLE ( '' ) ;
#1231 = LINE ( 'NONE', #691, #269 ) ;
#1232 = LOCAL_TIME ( 17, 3, 5.000000000000000000, #790 ) ;
#1233 = EDGE_LOOP ( 'NONE', ( #642, #71, #294, #119 ) ) ;
#1234 = CARTESIAN_POINT ( 'NONE',  ( 4.000000000000005329, 39.99999999999997868, 0.000000000000000000 ) ) ;
#1235 = ORIENTED_EDGE ( 'NONE', *, *, #1012, .T. ) ;
#1236 = CLOSED_SHELL ( 'NONE', ( #1305, #776, #406, #949, #1410, #633, #1392, #1313, #397, #652, #917, #34, #577, #1363, #10, #1245, #682, #491, #767, #861, #367, #758, #650, #810, #932, #128, #288, #89, #261, #239, #135, #880, #1123, #1002, #182, #643, #1032, #703, #1383, #317, #1271, #940 ) ) ;
#1237 = CC_DESIGN_DATE_AND_TIME_ASSIGNMENT ( #784, #134, ( #681 ) ) ;
#1238 = APPROVAL_DATE_TIME ( #442, #1417 ) ;
#1239 = VECTOR ( 'NONE', #224, 1000.000000000000000 ) ;
#1240 = CARTESIAN_POINT ( 'NONE',  ( -50.00000000000000000, 39.99999999999999289, 4.000000000000000000 ) ) ;
#1241 = ORIENTED_EDGE ( 'NONE', *, *, #695, .T. ) ;
#1242 = DIRECTION ( 'NONE',  ( -1.000000000000000000, -0.000000000000000000, -0.000000000000000000 ) ) ;
#1243 = ORIENTED_EDGE ( 'NONE', *, *, #1167, .T. ) ;
#1244 = ORIENTED_EDGE ( 'NONE', *, *, #622, .T. ) ;
#1245 = ADVANCED_FACE ( 'NONE', ( #492 ), #931, .F. ) ;
#1246 = CARTESIAN_POINT ( 'NONE',  ( -37.00000000000000711, -100.0000000000000142, 4.000000000000000000 ) ) ;
#1247 = ORIENTED_EDGE ( 'NONE', *, *, #1251, .F. ) ;
#1248 = CARTESIAN_POINT ( 'NONE',  ( -54.00000000000001421, -19.99999999999998934, 4.000000000000000000 ) ) ;
#1249 = VERTEX_POINT ( 'NONE', #159 ) ;
#1250 = LINE ( 'NONE', #892, #1098 ) ;
#1251 = EDGE_CURVE ( 'NONE', #1158, #403, #824, .T. ) ;
#1252 = CARTESIAN_POINT ( 'NONE',  ( -12.99999999999999822, -104.0000000000000284, 4.000000000000000000 ) ) ;
#1253 = ORIENTED_EDGE ( 'NONE', *, *, #1056, .T. ) ;
#1254 = PLANE ( 'NONE',  #707 ) ;
#1255 = VECTOR ( 'NONE', #1177, 1000.000000000000000 ) ;
#1256 = ORIENTED_EDGE ( 'NONE', *, *, #210, .F. ) ;
#1257 = DIRECTION ( 'NONE',  ( -0.000000000000000000, -0.000000000000000000, 1.000000000000000000 ) ) ;
#1258 = CARTESIAN_POINT ( 'NONE',  ( 3.999999999999996447, 2.255140518769846856E-15, 0.000000000000000000 ) ) ;
#1259 = CARTESIAN_POINT ( 'NONE',  ( -50.00000000000002842, 80.00000000000000000, 0.000000000000000000 ) ) ;
#1260 = VECTOR ( 'NONE', #543, 1000.000000000000000 ) ;
#1261 = EDGE_CURVE ( 'NONE', #361, #403, #152, .T. ) ;
#1262 = VECTOR ( 'NONE', #103, 1000.000000000000000 ) ;
#1263 = VERTEX_POINT ( 'NONE', #1155 ) ;
#1264 = LINE ( 'NONE', #840, #660 ) ;
#1265 = ORIENTED_EDGE ( 'NONE', *, *, #439, .F. ) ;
#1266 = DIRECTION ( 'NONE',  ( 1.000000000000000000, 0.000000000000000000, 0.000000000000000000 ) ) ;
#1267 = DIRECTION ( 'NONE',  ( -0.000000000000000000, -0.000000000000000000, 1.000000000000000000 ) ) ;
#1268 = DIRECTION ( 'NONE',  ( 1.301042606982605074E-16, -1.000000000000000000, 0.000000000000000000 ) ) ;
#1269 = ORIENTED_EDGE ( 'NONE', *, *, #174, .T. ) ;
#1270 = DIRECTION ( 'NONE',  ( -0.000000000000000000, -1.000000000000000000, -0.000000000000000000 ) ) ;
#1271 = ADVANCED_FACE ( 'NONE', ( #614 ), #606, .T. ) ;
#1272 = ORIENTED_EDGE ( 'NONE', *, *, #102, .F. ) ;
#1273 = CARTESIAN_POINT ( 'NONE',  ( 3.999999999999979128, 2.428612866367518888E-15, 0.000000000000000000 ) ) ;
#1274 = DIRECTION ( 'NONE',  ( 6.938893903907222461E-16, -1.000000000000000000, -0.000000000000000000 ) ) ;
#1275 = CARTESIAN_POINT ( 'NONE',  ( 4.000000000000000000, 79.99999999999998579, 4.000000000000000000 ) ) ;
#1276 = VERTEX_POINT ( 'NONE', #369 ) ;
#1277 = DIRECTION ( 'NONE',  ( -1.821459649775647449E-16, 1.000000000000000000, 0.000000000000000000 ) ) ;
#1278 = ORIENTED_EDGE ( 'NONE', *, *, #344, .T. ) ;
#1279 = CARTESIAN_POINT ( 'NONE',  ( -50.00000000000000000, -100.0000000000000142, 0.000000000000000000 ) ) ;
#1280 = VECTOR ( 'NONE', #236, 1000.000000000000000 ) ;
#1281 = EDGE_CURVE ( 'NONE', #1276, #354, #1364, .T. ) ;
#1282 = DIRECTION ( 'NONE',  ( -3.469446951953613696E-16, -1.000000000000000000, 0.000000000000000000 ) ) ;
#1283 = VECTOR ( 'NONE', #522, 1000.000000000000000 ) ;
#1284 = ORIENTED_EDGE ( 'NONE', *, *, #1200, .F. ) ;
#1285 = FACE_OUTER_BOUND ( 'NONE', #378, .T. ) ;
#1286 = VECTOR ( 'NONE', #865, 1000.000000000000000 ) ;
#1287 = AXIS2_PLACEMENT_3D ( 'NONE', #763, #1396, #1072 ) ;
#1288 = ORIENTED_EDGE ( 'NONE', *, *, #393, .T. ) ;
#1289 = LINE ( 'NONE', #1181, #430 ) ;
#1290 = FACE_OUTER_BOUND ( 'NONE', #812, .T. ) ;
#1291 = EDGE_CURVE ( 'NONE', #1319, #1133, #390, .T. ) ;
#1292 = CARTESIAN_POINT ( 'NONE',  ( 2.914335439641035288E-14, -60.00000000000000000, 0.000000000000000000 ) ) ;
#1293 = FACE_OUTER_BOUND ( 'NONE', #1227, .T. ) ;
#1294 = VERTEX_POINT ( 'NONE', #276 ) ;
#1295 = CARTESIAN_POINT ( 'NONE',  ( 4.000000000000015987, -60.00000000000000000, 0.000000000000000000 ) ) ;
#1296 = PLANE ( 'NONE',  #659 ) ;
#1297 = FACE_OUTER_BOUND ( 'NONE', #231, .T. ) ;
#1298 = DIRECTION ( 'NONE',  ( 0.000000000000000000, 0.000000000000000000, 1.000000000000000000 ) ) ;
#1299 = ORIENTED_EDGE ( 'NONE', *, *, #458, .T. ) ;
#1300 = LINE ( 'NONE', #98, #1260 ) ;
#1301 = VERTEX_POINT ( 'NONE', #1246 ) ;
#1302 = CC_DESIGN_APPROVAL ( #1417, ( #310 ) ) ;
#1303 = LINE ( 'NONE', #854, #332 ) ;
#1304 = DIRECTION ( 'NONE',  ( -6.071532165918828775E-16, 1.000000000000000000, 0.000000000000000000 ) ) ;
#1305 = ADVANCED_FACE ( 'NONE', ( #47 ), #817, .F. ) ;
#1306 = ORIENTED_EDGE ( 'NONE', *, *, #1019, .F. ) ;
#1307 = LINE ( 'NONE', #967, #1286 ) ;
#1308 = AXIS2_PLACEMENT_3D ( 'NONE', #340, #801, #365 ) ;
#1309 = ORIENTED_EDGE ( 'NONE', *, *, #384, .T. ) ;
#1310 = DIRECTION ( 'NONE',  ( 0.000000000000000000, -0.000000000000000000, 1.000000000000000000 ) ) ;
#1311 = ORIENTED_EDGE ( 'NONE', *, *, #1401, .T. ) ;
#1312 = CARTESIAN_POINT ( 'NONE',  ( -12.99999999999999822, -104.0000000000000284, 0.000000000000000000 ) ) ;
#1313 = ADVANCED_FACE ( 'NONE', ( #59 ), #502, .T. ) ;
#1314 = ORIENTED_EDGE ( 'NONE', *, *, #1019, .T. ) ;
#1315 = APPROVAL_DATE_TIME ( #1424, #1023 ) ;
#1316 = DIRECTION ( 'NONE',  ( -0.000000000000000000, -0.000000000000000000, 1.000000000000000000 ) ) ;
#1317 = ORIENTED_EDGE ( 'NONE', *, *, #183, .F. ) ;
#1318 = LINE ( 'NONE', #773, #1239 ) ;
#1319 = VERTEX_POINT ( 'NONE', #1275 ) ;
#1320 = EDGE_CURVE ( 'NONE', #542, #715, #805, .T. ) ;
#1321 = AXIS2_PLACEMENT_3D ( 'NONE', #479, #1042, #593 ) ;
#1322 = DIRECTION ( 'NONE',  ( 0.000000000000000000, 0.000000000000000000, 1.000000000000000000 ) ) ;
#1323 = CARTESIAN_POINT ( 'NONE',  ( -50.00000000000002842, 80.00000000000000000, 0.000000000000000000 ) ) ;
#1324 = ORIENTED_EDGE ( 'NONE', *, *, #889, .F. ) ;
#1325 = DIRECTION ( 'NONE',  ( 0.000000000000000000, -0.000000000000000000, 1.000000000000000000 ) ) ;
#1326 = VECTOR ( 'NONE', #498, 1000.000000000000000 ) ;
#1327 = ORIENTED_EDGE ( 'NONE', *, *, #922, .T. ) ;
#1328 = AXIS2_PLACEMENT_3D ( 'NONE', #330, #751, #979 ) ;
#1329 = VECTOR ( 'NONE', #1405, 1000.000000000000000 ) ;
#1330 = APPROVAL_ROLE ( '' ) ;
#1331 = EDGE_CURVE ( 'NONE', #92, #1276, #196, .T. ) ;
#1332 = CARTESIAN_POINT ( 'NONE',  ( -54.00000000000001421, -60.00000000000001421, 0.000000000000000000 ) ) ;
#1333 = DIRECTION ( 'NONE',  ( -1.000000000000000000, 0.000000000000000000, 0.000000000000000000 ) ) ;
#1334 = VERTEX_POINT ( 'NONE', #644 ) ;
#1335 = DIRECTION ( 'NONE',  ( 0.000000000000000000, 1.000000000000000000, 0.000000000000000000 ) ) ;
#1336 = ORIENTED_EDGE ( 'NONE', *, *, #827, .T. ) ;
#1337 = ORIENTED_EDGE ( 'NONE', *, *, #393, .F. ) ;
#1338 = CARTESIAN_POINT ( 'NONE',  ( -54.00000000000001421, -19.99999999999998934, 4.000000000000000000 ) ) ;
#1339 = ORIENTED_EDGE ( 'NONE', *, *, #1056, .F. ) ;
#1340 = CARTESIAN_POINT ( 'NONE',  ( -50.00000000000002842, 80.00000000000000000, 0.000000000000000000 ) ) ;
#1341 = VERTEX_POINT ( 'NONE', #1292 ) ;
#1342 = APPROVAL_STATUS ( 'not_yet_approved' ) ;
#1343 = DIRECTION ( 'NONE',  ( -1.000000000000000000, -3.469446951953611033E-15, 0.000000000000000000 ) ) ;
#1344 = VECTOR ( 'NONE', #1409, 1000.000000000000000 ) ;
#1345 = ORIENTED_EDGE ( 'NONE', *, *, #539, .F. ) ;
#1346 = DIRECTION ( 'NONE',  ( 0.000000000000000000, -0.000000000000000000, -1.000000000000000000 ) ) ;
#1347 = EDGE_CURVE ( 'NONE', #1024, #610, #761, .T. ) ;
#1348 = ORIENTED_EDGE ( 'NONE', *, *, #1401, .F. ) ;
#1349 = AXIS2_PLACEMENT_3D ( 'NONE', #717, #1189, #1379 ) ;
#1350 = DIRECTION ( 'NONE',  ( -0.000000000000000000, -0.000000000000000000, -1.000000000000000000 ) ) ;
#1351 = ORIENTED_EDGE ( 'NONE', *, *, #836, .F. ) ;
#1352 = CARTESIAN_POINT ( 'NONE',  ( -50.00000000000002132, 39.99999999999997868, 0.000000000000000000 ) ) ;
#1353 = VERTEX_POINT ( 'NONE', #621 ) ;
#1354 = EDGE_CURVE ( 'NONE', #364, #610, #976, .T. ) ;
#1355 = EDGE_CURVE ( 'NONE', #254, #1412, #849, .T. ) ;
#1356 = DIRECTION ( 'NONE',  ( 6.938893903907222461E-16, -1.000000000000000000, -0.000000000000000000 ) ) ;
#1357 = DIRECTION ( 'NONE',  ( -0.000000000000000000, -0.000000000000000000, 1.000000000000000000 ) ) ;
#1358 = ORIENTED_EDGE ( 'NONE', *, *, #458, .F. ) ;
#1359 = DIRECTION ( 'NONE',  ( -1.821459649775647449E-16, 1.000000000000000000, 0.000000000000000000 ) ) ;
#1360 = ORIENTED_EDGE ( 'NONE', *, *, #3, .F. ) ;
#1361 = DIRECTION ( 'NONE',  ( 0.000000000000000000, 0.000000000000000000, 1.000000000000000000 ) ) ;
#1362 = LINE ( 'NONE', #1258, #197 ) ;
#1363 = ADVANCED_FACE ( 'NONE', ( #409 ), #1183, .T. ) ;
#1364 = LINE ( 'NONE', #1145, #426 ) ;
#1365 = EDGE_LOOP ( 'NONE', ( #1001, #461, #318, #879 ) ) ;
#1366 = DIRECTION ( 'NONE',  ( 0.000000000000000000, -0.000000000000000000, -1.000000000000000000 ) ) ;
#1367 = LOCAL_TIME ( 17, 3, 5.000000000000000000, #797 ) ;
#1368 = EDGE_LOOP ( 'NONE', ( #618, #1010, #602, #774 ) ) ;
#1369 = DIRECTION ( 'NONE',  ( 1.000000000000000000, 0.000000000000000000, 0.000000000000000000 ) ) ;
#1370 = FACE_OUTER_BOUND ( 'NONE', #1365, .T. ) ;
#1371 = VECTOR ( 'NONE', #101, 1000.000000000000000 ) ;
#1372 = VECTOR ( 'NONE', #1267, 1000.000000000000000 ) ;
#1373 = EDGE_CURVE ( 'NONE', #1249, #1377, #971, .T. ) ;
#1374 = CARTESIAN_POINT ( 'NONE',  ( -50.00000000000002842, 80.00000000000000000, 0.000000000000000000 ) ) ;
#1375 = VECTOR ( 'NONE', #641, 1000.000000000000000 ) ;
#1376 = PLANE ( 'NONE',  #1146 ) ;
#1377 = VERTEX_POINT ( 'NONE', #741 ) ;
#1378 = FACE_OUTER_BOUND ( 'NONE', #535, .T. ) ;
#1379 = DIRECTION ( 'NONE',  ( 0.000000000000000000, -0.000000000000000000, 1.000000000000000000 ) ) ;
#1380 = DIRECTION ( 'NONE',  ( 0.000000000000000000, 0.000000000000000000, -1.000000000000000000 ) ) ;
#1381 = CARTESIAN_POINT ( 'NONE',  ( 0.000000000000000000, 19.99999999999997513, 0.000000000000000000 ) ) ;
#1382 = CARTESIAN_POINT ( 'NONE',  ( -50.00000000000000000, -100.0000000000000142, 4.000000000000000000 ) ) ;
#1383 = ADVANCED_FACE ( 'NONE', ( #735 ), #1080, .T. ) ;
#1384 = ORIENTED_EDGE ( 'NONE', *, *, #1136, .F. ) ;
#1385 = PLANE ( 'NONE',  #500 ) ;
#1386 = CARTESIAN_POINT ( 'NONE',  ( -54.00000000000002842, 19.99999999999996092, 4.000000000000000000 ) ) ;
#1387 = PLANE ( 'NONE',  #12 ) ;
#1388 = FACE_OUTER_BOUND ( 'NONE', #531, .T. ) ;
#1389 = FACE_OUTER_BOUND ( 'NONE', #264, .T. ) ;
#1390 = ORIENTED_EDGE ( 'NONE', *, *, #431, .F. ) ;
#1391 = CARTESIAN_POINT ( 'NONE',  ( -50.00000000000000000, -100.0000000000000142, 4.000000000000000000 ) ) ;
#1392 = ADVANCED_FACE ( 'NONE', ( #188 ), #428, .F. ) ;
#1393 = VECTOR ( 'NONE', #702, 1000.000000000000000 ) ;
#1394 = CARTESIAN_POINT ( 'NONE',  ( -12.99999999999999822, -104.0000000000000284, 0.000000000000000000 ) ) ;
#1395 = VECTOR ( 'NONE', #158, 1000.000000000000000 ) ;
#1396 = DIRECTION ( 'NONE',  ( 0.000000000000000000, -1.000000000000000000, 0.000000000000000000 ) ) ;
#1397 = AXIS2_PLACEMENT_3D ( 'NONE', #1060, #736, #727 ) ;
#1398 = VECTOR ( 'NONE', #1298, 1000.000000000000000 ) ;
#1399 = ORIENTED_EDGE ( 'NONE', *, *, #137, .F. ) ;
#1400 = LINE ( 'NONE', #238, #39 ) ;
#1401 = EDGE_CURVE ( 'NONE', #783, #1091, #1303, .T. ) ;
#1402 = DIRECTION ( 'NONE',  ( 1.000000000000000000, 5.637851296924622071E-16, 0.000000000000000000 ) ) ;
#1403 = EDGE_CURVE ( 'NONE', #1043, #752, #627, .T. ) ;
#1404 = DIRECTION ( 'NONE',  ( -1.000000000000000000, 0.000000000000000000, -0.000000000000000000 ) ) ;
#1405 = DIRECTION ( 'NONE',  ( 0.000000000000000000, 0.000000000000000000, 1.000000000000000000 ) ) ;
#1406 = ORIENTED_EDGE ( 'NONE', *, *, #21, .F. ) ;
#1407 = CARTESIAN_POINT ( 'NONE',  ( -54.00000000000001421, -60.00000000000001421, 0.000000000000000000 ) ) ;
#1408 = ORIENTED_EDGE ( 'NONE', *, *, #615, .F. ) ;
#1409 = DIRECTION ( 'NONE',  ( 1.000000000000000000, 0.000000000000000000, 0.000000000000000000 ) ) ;
#1410 = ADVANCED_FACE ( 'NONE', ( #1297 ), #1387, .F. ) ;
#1411 = DIRECTION ( 'NONE',  ( 1.000000000000000000, 0.000000000000000000, 0.000000000000000000 ) ) ;
#1412 = VERTEX_POINT ( 'NONE', #1070 ) ;
#1413 = LINE ( 'NONE', #1074, #1193 ) ;
#1414 = EDGE_LOOP ( 'NONE', ( #987, #1272, #792, #412 ) ) ;
#1415 = CC_DESIGN_SECURITY_CLASSIFICATION ( #681, ( #310 ) ) ;
#1416 = DIRECTION ( 'NONE',  ( 1.000000000000000000, 2.775557561562891351E-16, 0.000000000000000000 ) ) ;
#1417 = APPROVAL ( #227, 'UNSPECIFIED' ) ;
#1418 = PLANE ( 'NONE',  #710 ) ;
#1419 = VECTOR ( 'NONE', #645, 1000.000000000000000 ) ;
#1420 = ORIENTED_EDGE ( 'NONE', *, *, #1059, .T. ) ;
#1421 = CARTESIAN_POINT ( 'NONE',  ( -12.99999999999999822, -100.0000000000000142, 0.000000000000000000 ) ) ;
#1422 = VECTOR ( 'NONE', #70, 1000.000000000000000 ) ;
#1423 = ORIENTED_EDGE ( 'NONE', *, *, #228, .F. ) ;
#1424 = DATE_AND_TIME ( #234, #1232 ) ;
#1425 = CARTESIAN_POINT ( 'NONE',  ( -53.99999999999999289, -80.00000000000001421, 0.000000000000000000 ) ) ;
ENDSEC;
END-ISO-10303-21;
