ISO-10303-21;
HEADER;
FILE_DESCRIPTION (( 'STEP AP203' ),
    '1' );
FILE_NAME ('porta.STEP',
    '2026-05-27T20:02:08',
    ( '' ),
    ( '' ),
    'SwSTEP 2.0',
    'SolidWorks 2024',
    '' );
FILE_SCHEMA (( 'CONFIG_CONTROL_DESIGN' ));
ENDSEC;

DATA;
#1 = APPROVAL_PERSON_ORGANIZATION ( #149, #13, #110 ) ;
#2 = LOCAL_TIME ( 17, 2, 8.000000000000000000, #170 ) ;
#3 = DIRECTION ( 'NONE',  ( 0.000000000000000000, 1.000000000000000000, 0.000000000000000000 ) ) ;
#4 = ORIENTED_EDGE ( 'NONE', *, *, #165, .F. ) ;
#5 = CARTESIAN_POINT ( 'NONE',  ( -72.50000000000000000, -100.0000000000000000, 3.000000000000000000 ) ) ;
#6 = DESIGN_CONTEXT ( 'detailed design', #237, 'design' ) ;
#7 = ORIENTED_EDGE ( 'NONE', *, *, #199, .F. ) ;
#8 = DIRECTION ( 'NONE',  ( 0.000000000000000000, -0.000000000000000000, 1.000000000000000000 ) ) ;
#9 = EDGE_CURVE ( 'NONE', #106, #31, #15, .T. ) ;
#10 = CARTESIAN_POINT ( 'NONE',  ( 0.000000000000000000, 0.000000000000000000, 0.000000000000000000 ) ) ;
#11 = LINE ( 'NONE', #232, #128 ) ;
#12 = DIRECTION ( 'NONE',  ( -0.000000000000000000, -1.000000000000000000, -0.000000000000000000 ) ) ;
#13 = APPROVAL ( #111, 'UNSPECIFIED' ) ;
#14 = VECTOR ( 'NONE', #215, 1000.000000000000000 ) ;
#15 = LINE ( 'NONE', #228, #132 ) ;
#16 = LOCAL_TIME ( 17, 2, 8.000000000000000000, #216 ) ;
#17 = CARTESIAN_POINT ( 'NONE',  ( -72.50000000000000000, 100.0000000000000000, 0.000000000000000000 ) ) ;
#18 = COORDINATED_UNIVERSAL_TIME_OFFSET ( 3, 0, .BEHIND. ) ;
#19 = SHAPE_DEFINITION_REPRESENTATION ( #129, #154 ) ;
#20 = PRODUCT_DEFINITION ( 'UNKNOWN', '', #198, #6 ) ;
#21 = VECTOR ( 'NONE', #211, 1000.000000000000000 ) ;
#22 = CARTESIAN_POINT ( 'NONE',  ( -72.50000000000000000, -100.0000000000000000, 3.000000000000000000 ) ) ;
#23 = EDGE_LOOP ( 'NONE', ( #116, #204, #98, #135 ) ) ;
#24 = PERSON_AND_ORGANIZATION ( #55, #173 ) ;
#25 = ORIENTED_EDGE ( 'NONE', *, *, #137, .T. ) ;
#26 = ORIENTED_EDGE ( 'NONE', *, *, #162, .T. ) ;
#27 = DIRECTION ( 'NONE',  ( 1.000000000000000000, 0.000000000000000000, 0.000000000000000000 ) ) ;
#28 = PLANE ( 'NONE',  #105 ) ;
#29 = CC_DESIGN_PERSON_AND_ORGANIZATION_ASSIGNMENT ( #73, #126, ( #198 ) ) ;
#30 = LINE ( 'NONE', #17, #21 ) ;
#31 = VERTEX_POINT ( 'NONE', #83 ) ;
#32 = CARTESIAN_POINT ( 'NONE',  ( 72.50000000000000000, -100.0000000000000000, 3.000000000000000000 ) ) ;
#33 = PERSON_AND_ORGANIZATION_ROLE ( 'creator' ) ;
#34 = VECTOR ( 'NONE', #107, 1000.000000000000000 ) ;
#35 = PLANE ( 'NONE',  #225 ) ;
#36 = EDGE_CURVE ( 'NONE', #114, #101, #172, .T. ) ;
#37 = PERSON_AND_ORGANIZATION_ROLE ( 'creator' ) ;
#38 = CC_DESIGN_PERSON_AND_ORGANIZATION_ASSIGNMENT ( #44, #33, ( #20 ) ) ;
#39 = PLANE ( 'NONE',  #220 ) ;
#40 = ORIENTED_EDGE ( 'NONE', *, *, #181, .T. ) ;
#41 = LINE ( 'NONE', #22, #86 ) ;
#42 = EDGE_LOOP ( 'NONE', ( #40, #152, #78, #187 ) ) ;
#43 = PLANE ( 'NONE',  #113 ) ;
#44 = PERSON_AND_ORGANIZATION ( #55, #173 ) ;
#45 = CARTESIAN_POINT ( 'NONE',  ( -72.50000000000000000, 100.0000000000000000, 0.000000000000000000 ) ) ;
#46 = ORIENTED_EDGE ( 'NONE', *, *, #9, .T. ) ;
#47 = DIRECTION ( 'NONE',  ( -1.000000000000000000, 0.000000000000000000, 0.000000000000000000 ) ) ;
#48 = CARTESIAN_POINT ( 'NONE',  ( 72.50000000000000000, 100.0000000000000000, 3.000000000000000000 ) ) ;
#49 = FACE_OUTER_BOUND ( 'NONE', #23, .T. ) ;
#50 = APPROVAL_ROLE ( '' ) ;
#51 = APPROVAL_STATUS ( 'not_yet_approved' ) ;
#52 = PERSON_AND_ORGANIZATION ( #55, #173 ) ;
#53 =( GEOMETRIC_REPRESENTATION_CONTEXT ( 3 ) GLOBAL_UNCERTAINTY_ASSIGNED_CONTEXT ( ( #207 ) ) GLOBAL_UNIT_ASSIGNED_CONTEXT ( ( #57, #79, #77 ) ) REPRESENTATION_CONTEXT ( 'NONE', 'WORKASPACE' ) );
#54 = CC_DESIGN_DATE_AND_TIME_ASSIGNMENT ( #104, #160, ( #20 ) ) ;
#55 = PERSON ( 'UNSPECIFIED', 'UNSPECIFIED', 'UNSPECIFIED', ('UNSPECIFIED'), ('UNSPECIFIED'), ('UNSPECIFIED') ) ;
#56 = CC_DESIGN_PERSON_AND_ORGANIZATION_ASSIGNMENT ( #24, #189, ( #163 ) ) ;
#57 =( LENGTH_UNIT ( ) NAMED_UNIT ( * ) SI_UNIT ( .MILLI., .METRE. ) );
#58 = ORIENTED_EDGE ( 'NONE', *, *, #137, .F. ) ;
#59 = VECTOR ( 'NONE', #12, 1000.000000000000000 ) ;
#60 = DIRECTION ( 'NONE',  ( 1.000000000000000000, 0.000000000000000000, 0.000000000000000000 ) ) ;
#61 = ORIENTED_EDGE ( 'NONE', *, *, #102, .T. ) ;
#62 = CARTESIAN_POINT ( 'NONE',  ( -72.50000000000000000, 100.0000000000000000, 3.000000000000000000 ) ) ;
#63 = APPROVAL_DATE_TIME ( #155, #184 ) ;
#64 = CARTESIAN_POINT ( 'NONE',  ( -72.50000000000000000, -100.0000000000000000, 3.000000000000000000 ) ) ;
#65 = VECTOR ( 'NONE', #121, 1000.000000000000000 ) ;
#66 = EDGE_LOOP ( 'NONE', ( #25, #4, #103, #226 ) ) ;
#67 = CARTESIAN_POINT ( 'NONE',  ( -72.50000000000000000, -100.0000000000000000, 0.000000000000000000 ) ) ;
#68 = PERSON_AND_ORGANIZATION_ROLE ( 'classification_officer' ) ;
#69 = LINE ( 'NONE', #174, #14 ) ;
#70 = MANIFOLD_SOLID_BREP ( 'Ressalto-extrus\X2\00e3\X0\o1', #92 ) ;
#71 = DATE_AND_TIME ( #125, #221 ) ;
#72 = CARTESIAN_POINT ( 'NONE',  ( 72.50000000000000000, -100.0000000000000000, 3.000000000000000000 ) ) ;
#73 = PERSON_AND_ORGANIZATION ( #55, #173 ) ;
#74 = ADVANCED_FACE ( 'NONE', ( #119 ), #28, .T. ) ;
#75 = APPROVAL_PERSON_ORGANIZATION ( #118, #184, #139 ) ;
#76 = CC_DESIGN_PERSON_AND_ORGANIZATION_ASSIGNMENT ( #235, #37, ( #198 ) ) ;
#77 =( NAMED_UNIT ( * ) SI_UNIT ( $, .STERADIAN. ) SOLID_ANGLE_UNIT ( ) );
#78 = ORIENTED_EDGE ( 'NONE', *, *, #236, .T. ) ;
#79 =( NAMED_UNIT ( * ) PLANE_ANGLE_UNIT ( ) SI_UNIT ( $, .RADIAN. ) );
#80 = ORIENTED_EDGE ( 'NONE', *, *, #120, .F. ) ;
#81 = CARTESIAN_POINT ( 'NONE',  ( -72.50000000000000000, -100.0000000000000000, 3.000000000000000000 ) ) ;
#82 = CALENDAR_DATE ( 2026, 27, 5 ) ;
#83 = CARTESIAN_POINT ( 'NONE',  ( 72.50000000000000000, 100.0000000000000000, 0.000000000000000000 ) ) ;
#84 = ADVANCED_FACE ( 'NONE', ( #49 ), #35, .F. ) ;
#85 = LINE ( 'NONE', #32, #182 ) ;
#86 = VECTOR ( 'NONE', #27, 1000.000000000000000 ) ;
#87 = DIRECTION ( 'NONE',  ( 0.000000000000000000, 1.000000000000000000, 0.000000000000000000 ) ) ;
#88 = APPLICATION_CONTEXT ( 'configuration controlled 3d designs of mechanical parts and assemblies' ) ;
#89 = SECURITY_CLASSIFICATION ( '', '', #219 ) ;
#90 = CARTESIAN_POINT ( 'NONE',  ( -72.50000000000000000, -100.0000000000000000, 0.000000000000000000 ) ) ;
#91 = DATE_AND_TIME ( #234, #186 ) ;
#92 = CLOSED_SHELL ( 'NONE', ( #148, #127, #84, #227, #193, #74 ) ) ;
#93 = EDGE_CURVE ( 'NONE', #188, #101, #138, .T. ) ;
#94 = CC_DESIGN_APPROVAL ( #184, ( #20 ) ) ;
#95 = PRODUCT_RELATED_PRODUCT_CATEGORY ( 'detail', '', ( #163 ) ) ;
#96 = ORIENTED_EDGE ( 'NONE', *, *, #9, .F. ) ;
#97 = DIRECTION ( 'NONE',  ( -1.000000000000000000, 0.000000000000000000, -0.000000000000000000 ) ) ;
#98 = ORIENTED_EDGE ( 'NONE', *, *, #236, .F. ) ;
#99 = CARTESIAN_POINT ( 'NONE',  ( 0.000000000000000000, 0.000000000000000000, 3.000000000000000000 ) ) ;
#100 = APPROVAL_STATUS ( 'not_yet_approved' ) ;
#101 = VERTEX_POINT ( 'NONE', #90 ) ;
#102 = EDGE_CURVE ( 'NONE', #101, #106, #11, .T. ) ;
#103 = ORIENTED_EDGE ( 'NONE', *, *, #212, .F. ) ;
#104 = DATE_AND_TIME ( #195, #140 ) ;
#105 = AXIS2_PLACEMENT_3D ( 'NONE', #123, #191, #158 ) ;
#106 = VERTEX_POINT ( 'NONE', #159 ) ;
#107 = DIRECTION ( 'NONE',  ( -0.000000000000000000, -0.000000000000000000, -1.000000000000000000 ) ) ;
#108 = CALENDAR_DATE ( 2026, 27, 5 ) ;
#109 = CC_DESIGN_APPROVAL ( #231, ( #198 ) ) ;
#110 = APPROVAL_ROLE ( '' ) ;
#111 = APPROVAL_STATUS ( 'not_yet_approved' ) ;
#112 = AXIS2_PLACEMENT_3D ( 'NONE', #99, #203, #97 ) ;
#113 = AXIS2_PLACEMENT_3D ( 'NONE', #72, #47, #122 ) ;
#114 = VERTEX_POINT ( 'NONE', #45 ) ;
#115 = CC_DESIGN_APPROVAL ( #13, ( #89 ) ) ;
#116 = ORIENTED_EDGE ( 'NONE', *, *, #36, .T. ) ;
#117 = CARTESIAN_POINT ( 'NONE',  ( 72.50000000000000000, -100.0000000000000000, 3.000000000000000000 ) ) ;
#118 = PERSON_AND_ORGANIZATION ( #55, #173 ) ;
#119 = FACE_OUTER_BOUND ( 'NONE', #185, .T. ) ;
#120 = EDGE_CURVE ( 'NONE', #168, #31, #196, .T. ) ;
#121 = DIRECTION ( 'NONE',  ( 0.000000000000000000, 1.000000000000000000, 0.000000000000000000 ) ) ;
#122 = DIRECTION ( 'NONE',  ( 0.000000000000000000, 0.000000000000000000, 1.000000000000000000 ) ) ;
#123 = CARTESIAN_POINT ( 'NONE',  ( 0.000000000000000000, 0.000000000000000000, 0.000000000000000000 ) ) ;
#124 = CARTESIAN_POINT ( 'NONE',  ( 72.50000000000000000, 100.0000000000000000, 3.000000000000000000 ) ) ;
#125 = CALENDAR_DATE ( 2026, 27, 5 ) ;
#126 = PERSON_AND_ORGANIZATION_ROLE ( 'design_supplier' ) ;
#127 = ADVANCED_FACE ( 'NONE', ( #214 ), #146, .F. ) ;
#128 = VECTOR ( 'NONE', #192, 1000.000000000000000 ) ;
#129 = PRODUCT_DEFINITION_SHAPE ( 'NONE', 'NONE',  #20 ) ;
#130 = DIRECTION ( 'NONE',  ( 0.000000000000000000, 0.000000000000000000, 1.000000000000000000 ) ) ;
#131 = ORIENTED_EDGE ( 'NONE', *, *, #36, .F. ) ;
#132 = VECTOR ( 'NONE', #87, 1000.000000000000000 ) ;
#133 = EDGE_LOOP ( 'NONE', ( #61, #151, #7, #201 ) ) ;
#134 = LINE ( 'NONE', #62, #229 ) ;
#135 = ORIENTED_EDGE ( 'NONE', *, *, #165, .T. ) ;
#136 = DIRECTION ( 'NONE',  ( -1.000000000000000000, -0.000000000000000000, -0.000000000000000000 ) ) ;
#137 = EDGE_CURVE ( 'NONE', #31, #114, #30, .T. ) ;
#138 = LINE ( 'NONE', #64, #34 ) ;
#139 = APPROVAL_ROLE ( '' ) ;
#140 = LOCAL_TIME ( 17, 2, 8.000000000000000000, #177 ) ;
#141 = CARTESIAN_POINT ( 'NONE',  ( 72.50000000000000000, -100.0000000000000000, 3.000000000000000000 ) ) ;
#142 = CC_DESIGN_PERSON_AND_ORGANIZATION_ASSIGNMENT ( #52, #68, ( #89 ) ) ;
#143 = ORIENTED_EDGE ( 'NONE', *, *, #181, .F. ) ;
#144 = ORIENTED_EDGE ( 'NONE', *, *, #102, .F. ) ;
#145 = DIRECTION ( 'NONE',  ( 0.000000000000000000, -1.000000000000000000, 0.000000000000000000 ) ) ;
#146 = PLANE ( 'NONE',  #164 ) ;
#147 = DATE_TIME_ROLE ( 'classification_date' ) ;
#148 = ADVANCED_FACE ( 'NONE', ( #233 ), #43, .F. ) ;
#149 = PERSON_AND_ORGANIZATION ( #55, #173 ) ;
#150 = VECTOR ( 'NONE', #205, 1000.000000000000000 ) ;
#151 = ORIENTED_EDGE ( 'NONE', *, *, #162, .F. ) ;
#152 = ORIENTED_EDGE ( 'NONE', *, *, #212, .T. ) ;
#153 = LINE ( 'NONE', #81, #150 ) ;
#154 = ADVANCED_BREP_SHAPE_REPRESENTATION ( 'porta', ( #70, #202 ), #53 ) ;
#155 = DATE_AND_TIME ( #82, #2 ) ;
#156 = DIRECTION ( 'NONE',  ( 1.000000000000000000, 0.000000000000000000, 0.000000000000000000 ) ) ;
#157 = CARTESIAN_POINT ( 'NONE',  ( -72.50000000000000000, 100.0000000000000000, 3.000000000000000000 ) ) ;
#158 = DIRECTION ( 'NONE',  ( -1.000000000000000000, 0.000000000000000000, -0.000000000000000000 ) ) ;
#159 = CARTESIAN_POINT ( 'NONE',  ( 72.50000000000000000, -100.0000000000000000, 0.000000000000000000 ) ) ;
#160 = DATE_TIME_ROLE ( 'creation_date' ) ;
#161 = DATE_AND_TIME ( #108, #16 ) ;
#162 = EDGE_CURVE ( 'NONE', #223, #106, #85, .T. ) ;
#163 = PRODUCT ( 'porta', 'porta', '', ( #224 ) ) ;
#164 = AXIS2_PLACEMENT_3D ( 'NONE', #157, #145, #230 ) ;
#165 = EDGE_CURVE ( 'NONE', #213, #114, #69, .T. ) ;
#166 = APPLICATION_PROTOCOL_DEFINITION ( 'international standard', 'config_control_design', 1994, #88 ) ;
#167 = EDGE_LOOP ( 'NONE', ( #46, #80, #143, #26 ) ) ;
#168 = VERTEX_POINT ( 'NONE', #48 ) ;
#169 = CARTESIAN_POINT ( 'NONE',  ( -72.50000000000000000, -100.0000000000000000, 3.000000000000000000 ) ) ;
#170 = COORDINATED_UNIVERSAL_TIME_OFFSET ( 3, 0, .BEHIND. ) ;
#171 = DIRECTION ( 'NONE',  ( 0.000000000000000000, 0.000000000000000000, -1.000000000000000000 ) ) ;
#172 = LINE ( 'NONE', #67, #59 ) ;
#173 = ORGANIZATION ( 'UNSPECIFIED', 'UNSPECIFIED', '' ) ;
#174 = CARTESIAN_POINT ( 'NONE',  ( -72.50000000000000000, 100.0000000000000000, 3.000000000000000000 ) ) ;
#175 = CARTESIAN_POINT ( 'NONE',  ( -72.50000000000000000, -100.0000000000000000, 3.000000000000000000 ) ) ;
#176 = CC_DESIGN_SECURITY_CLASSIFICATION ( #89, ( #198 ) ) ;
#177 = COORDINATED_UNIVERSAL_TIME_OFFSET ( 3, 0, .BEHIND. ) ;
#178 = APPROVAL_DATE_TIME ( #91, #231 ) ;
#179 = APPROVAL_DATE_TIME ( #161, #13 ) ;
#180 = CC_DESIGN_DATE_AND_TIME_ASSIGNMENT ( #71, #147, ( #89 ) ) ;
#181 = EDGE_CURVE ( 'NONE', #223, #168, #217, .T. ) ;
#182 = VECTOR ( 'NONE', #194, 1000.000000000000000 ) ;
#183 = FACE_OUTER_BOUND ( 'NONE', #42, .T. ) ;
#184 = APPROVAL ( #100, 'UNSPECIFIED' ) ;
#185 = EDGE_LOOP ( 'NONE', ( #96, #144, #131, #58 ) ) ;
#186 = LOCAL_TIME ( 17, 2, 8.000000000000000000, #18 ) ;
#187 = ORIENTED_EDGE ( 'NONE', *, *, #199, .T. ) ;
#188 = VERTEX_POINT ( 'NONE', #169 ) ;
#189 = PERSON_AND_ORGANIZATION_ROLE ( 'design_owner' ) ;
#190 = PLANE ( 'NONE',  #112 ) ;
#191 = DIRECTION ( 'NONE',  ( 0.000000000000000000, 0.000000000000000000, -1.000000000000000000 ) ) ;
#192 = DIRECTION ( 'NONE',  ( 1.000000000000000000, 0.000000000000000000, 0.000000000000000000 ) ) ;
#193 = ADVANCED_FACE ( 'NONE', ( #183 ), #190, .F. ) ;
#194 = DIRECTION ( 'NONE',  ( -0.000000000000000000, -0.000000000000000000, -1.000000000000000000 ) ) ;
#195 = CALENDAR_DATE ( 2026, 27, 5 ) ;
#196 = LINE ( 'NONE', #124, #210 ) ;
#197 = COORDINATED_UNIVERSAL_TIME_OFFSET ( 3, 0, .BEHIND. ) ;
#198 = PRODUCT_DEFINITION_FORMATION_WITH_SPECIFIED_SOURCE ( 'ANY', '', #163, .NOT_KNOWN. ) ;
#199 = EDGE_CURVE ( 'NONE', #188, #223, #41, .T. ) ;
#200 = FACE_OUTER_BOUND ( 'NONE', #133, .T. ) ;
#201 = ORIENTED_EDGE ( 'NONE', *, *, #93, .T. ) ;
#202 = AXIS2_PLACEMENT_3D ( 'NONE', #10, #130, #60 ) ;
#203 = DIRECTION ( 'NONE',  ( 0.000000000000000000, 0.000000000000000000, -1.000000000000000000 ) ) ;
#204 = ORIENTED_EDGE ( 'NONE', *, *, #93, .F. ) ;
#205 = DIRECTION ( 'NONE',  ( -0.000000000000000000, -1.000000000000000000, -0.000000000000000000 ) ) ;
#206 = APPROVAL_PERSON_ORGANIZATION ( #218, #231, #50 ) ;
#207 = UNCERTAINTY_MEASURE_WITH_UNIT (LENGTH_MEASURE( 1.000000000000000082E-05 ), #57, 'distance_accuracy_value', 'NONE');
#208 = APPLICATION_PROTOCOL_DEFINITION ( 'international standard', 'config_control_design', 1994, #237 ) ;
#209 = DIRECTION ( 'NONE',  ( -0.000000000000000000, -0.000000000000000000, -1.000000000000000000 ) ) ;
#210 = VECTOR ( 'NONE', #209, 1000.000000000000000 ) ;
#211 = DIRECTION ( 'NONE',  ( -1.000000000000000000, -0.000000000000000000, -0.000000000000000000 ) ) ;
#212 = EDGE_CURVE ( 'NONE', #168, #213, #134, .T. ) ;
#213 = VERTEX_POINT ( 'NONE', #222 ) ;
#214 = FACE_OUTER_BOUND ( 'NONE', #66, .T. ) ;
#215 = DIRECTION ( 'NONE',  ( -0.000000000000000000, -0.000000000000000000, -1.000000000000000000 ) ) ;
#216 = COORDINATED_UNIVERSAL_TIME_OFFSET ( 3, 0, .BEHIND. ) ;
#217 = LINE ( 'NONE', #141, #65 ) ;
#218 = PERSON_AND_ORGANIZATION ( #55, #173 ) ;
#219 = SECURITY_CLASSIFICATION_LEVEL ( 'unclassified' ) ;
#220 = AXIS2_PLACEMENT_3D ( 'NONE', #5, #3, #8 ) ;
#221 = LOCAL_TIME ( 17, 2, 8.000000000000000000, #197 ) ;
#222 = CARTESIAN_POINT ( 'NONE',  ( -72.50000000000000000, 100.0000000000000000, 3.000000000000000000 ) ) ;
#223 = VERTEX_POINT ( 'NONE', #117 ) ;
#224 = MECHANICAL_CONTEXT ( 'NONE', #88, 'mechanical' ) ;
#225 = AXIS2_PLACEMENT_3D ( 'NONE', #175, #156, #171 ) ;
#226 = ORIENTED_EDGE ( 'NONE', *, *, #120, .T. ) ;
#227 = ADVANCED_FACE ( 'NONE', ( #200 ), #39, .F. ) ;
#228 = CARTESIAN_POINT ( 'NONE',  ( 72.50000000000000000, -100.0000000000000000, 0.000000000000000000 ) ) ;
#229 = VECTOR ( 'NONE', #136, 1000.000000000000000 ) ;
#230 = DIRECTION ( 'NONE',  ( 0.000000000000000000, -0.000000000000000000, -1.000000000000000000 ) ) ;
#231 = APPROVAL ( #51, 'UNSPECIFIED' ) ;
#232 = CARTESIAN_POINT ( 'NONE',  ( -72.50000000000000000, -100.0000000000000000, 0.000000000000000000 ) ) ;
#233 = FACE_OUTER_BOUND ( 'NONE', #167, .T. ) ;
#234 = CALENDAR_DATE ( 2026, 27, 5 ) ;
#235 = PERSON_AND_ORGANIZATION ( #55, #173 ) ;
#236 = EDGE_CURVE ( 'NONE', #213, #188, #153, .T. ) ;
#237 = APPLICATION_CONTEXT ( 'configuration controlled 3d designs of mechanical parts and assemblies' ) ;
ENDSEC;
END-ISO-10303-21;
